%TF.GenerationSoftware,KiCad,Pcbnew,6.0.8-f2edbf62ab~116~ubuntu20.04.1*%
%TF.CreationDate,2023-02-28T14:52:02-03:00*%
%TF.ProjectId,placa-TAI,706c6163-612d-4544-9149-2e6b69636164,rev?*%
%TF.SameCoordinates,Original*%
%TF.FileFunction,Soldermask,Top*%
%TF.FilePolarity,Negative*%
%FSLAX46Y46*%
G04 Gerber Fmt 4.6, Leading zero omitted, Abs format (unit mm)*
G04 Created by KiCad (PCBNEW 6.0.8-f2edbf62ab~116~ubuntu20.04.1) date 2023-02-28 14:52:02*
%MOMM*%
%LPD*%
G01*
G04 APERTURE LIST*
%ADD10R,2.000000X2.000000*%
%ADD11C,2.000000*%
%ADD12C,1.600000*%
%ADD13O,1.600000X1.600000*%
%ADD14R,2.400000X2.400000*%
%ADD15C,2.400000*%
%ADD16R,1.700000X1.700000*%
%ADD17O,1.700000X1.700000*%
%ADD18R,3.000000X3.000000*%
%ADD19C,3.000000*%
%ADD20R,1.600000X1.600000*%
%ADD21R,1.800000X1.800000*%
%ADD22C,1.800000*%
%ADD23C,1.397000*%
%ADD24R,2.000000X0.900000*%
%ADD25R,0.900000X2.000000*%
%ADD26R,1.330000X1.330000*%
G04 APERTURE END LIST*
D10*
%TO.C,C2*%
X133322300Y-67180000D03*
D11*
X140822300Y-67180000D03*
%TD*%
D12*
%TO.C,R9*%
X152370000Y-84580000D03*
D13*
X144750000Y-84580000D03*
%TD*%
D12*
%TO.C,R7*%
X104670000Y-93640000D03*
D13*
X97050000Y-93640000D03*
%TD*%
D14*
%TO.C,U2*%
X120150000Y-114730000D03*
D15*
X125150000Y-114730000D03*
X130150000Y-114730000D03*
%TD*%
D12*
%TO.C,R6*%
X130740000Y-83740000D03*
D13*
X138360000Y-83740000D03*
%TD*%
D12*
%TO.C,R2*%
X157480000Y-84670000D03*
D13*
X165100000Y-84670000D03*
%TD*%
D16*
%TO.C,J3*%
X140505000Y-105110000D03*
D17*
X140505000Y-107650000D03*
X140505000Y-110190000D03*
X140505000Y-112730000D03*
%TD*%
D10*
%TO.C,C6*%
X93512323Y-67180000D03*
D11*
X101012323Y-67180000D03*
%TD*%
D18*
%TO.C,J2*%
X184540000Y-88802500D03*
D19*
X184540000Y-92682500D03*
%TD*%
D13*
%TO.C,D2*%
X152080000Y-89960000D03*
D20*
X144460000Y-89960000D03*
%TD*%
D12*
%TO.C,R5*%
X113430000Y-93640000D03*
D13*
X121050000Y-93640000D03*
%TD*%
D10*
%TO.C,C1*%
X165117700Y-67180000D03*
D11*
X157617700Y-67180000D03*
%TD*%
D10*
%TO.C,C3*%
X105402300Y-114460000D03*
D11*
X112902300Y-114460000D03*
%TD*%
D21*
%TO.C,D3*%
X147285000Y-66650000D03*
D22*
X149825000Y-66650000D03*
%TD*%
D12*
%TO.C,R4*%
X130870000Y-78890000D03*
D13*
X138490000Y-78890000D03*
%TD*%
D16*
%TO.C,J4*%
X93875000Y-78620000D03*
D17*
X93875000Y-81160000D03*
X93875000Y-83700000D03*
X93875000Y-86240000D03*
%TD*%
D10*
%TO.C,C5*%
X126432323Y-103750000D03*
D11*
X133932323Y-103750000D03*
%TD*%
D18*
%TO.C,J1*%
X184590000Y-75595000D03*
D19*
X184590000Y-79475000D03*
%TD*%
D23*
%TO.C,SW1*%
X113430000Y-100360000D03*
X121050000Y-100360000D03*
X113430000Y-105440000D03*
X121050000Y-105440000D03*
%TD*%
%TO.C,SW2*%
X97050000Y-100360000D03*
X104670000Y-100360000D03*
X97050000Y-105440000D03*
X104670000Y-105440000D03*
%TD*%
D13*
%TO.C,D1*%
X152080000Y-94290000D03*
D20*
X144460000Y-94290000D03*
%TD*%
D18*
%TO.C,J5*%
X98920000Y-116430000D03*
D19*
X95040000Y-116430000D03*
%TD*%
D24*
%TO.C,U1*%
X104760000Y-69100000D03*
X104760000Y-70370000D03*
X104760000Y-71640000D03*
X104760000Y-72910000D03*
X104760000Y-74180000D03*
X104760000Y-75450000D03*
X104760000Y-76720000D03*
X104760000Y-77990000D03*
X104760000Y-79260000D03*
X104760000Y-80530000D03*
X104760000Y-81800000D03*
X104760000Y-83070000D03*
X104760000Y-84340000D03*
X104760000Y-85610000D03*
D25*
X107545000Y-86610000D03*
X108815000Y-86610000D03*
X110085000Y-86610000D03*
X111355000Y-86610000D03*
X112625000Y-86610000D03*
X113895000Y-86610000D03*
X115165000Y-86610000D03*
X116435000Y-86610000D03*
X117705000Y-86610000D03*
X118975000Y-86610000D03*
D24*
X121760000Y-85610000D03*
X121760000Y-84340000D03*
X121760000Y-83070000D03*
X121760000Y-81800000D03*
X121760000Y-80530000D03*
X121760000Y-79260000D03*
X121760000Y-77990000D03*
X121760000Y-76720000D03*
X121760000Y-75450000D03*
X121760000Y-74180000D03*
X121760000Y-72910000D03*
X121760000Y-71640000D03*
X121760000Y-70370000D03*
X121760000Y-69100000D03*
D26*
X110425000Y-74765000D03*
X112260000Y-74765000D03*
X114095000Y-74765000D03*
X110425000Y-76600000D03*
X112260000Y-76600000D03*
X114095000Y-76600000D03*
X110425000Y-78435000D03*
X112260000Y-78435000D03*
X114095000Y-78435000D03*
%TD*%
D12*
%TO.C,R3*%
X165150000Y-78430000D03*
D13*
X157530000Y-78430000D03*
%TD*%
D12*
%TO.C,R8*%
X144750000Y-75010000D03*
D13*
X152370000Y-75010000D03*
%TD*%
D10*
%TO.C,C4*%
X126432323Y-92030000D03*
D11*
X133932323Y-92030000D03*
%TD*%
D12*
%TO.C,R1*%
X157310000Y-90210000D03*
D13*
X164930000Y-90210000D03*
%TD*%
M02*
