%TF.GenerationSoftware,KiCad,Pcbnew,6.0.8-f2edbf62ab~116~ubuntu20.04.1*%
%TF.CreationDate,2023-02-28T14:52:02-03:00*%
%TF.ProjectId,placa-TAI,706c6163-612d-4544-9149-2e6b69636164,rev?*%
%TF.SameCoordinates,Original*%
%TF.FileFunction,Copper,L2,Bot*%
%TF.FilePolarity,Positive*%
%FSLAX46Y46*%
G04 Gerber Fmt 4.6, Leading zero omitted, Abs format (unit mm)*
G04 Created by KiCad (PCBNEW 6.0.8-f2edbf62ab~116~ubuntu20.04.1) date 2023-02-28 14:52:02*
%MOMM*%
%LPD*%
G01*
G04 APERTURE LIST*
%TA.AperFunction,ComponentPad*%
%ADD10R,2.000000X2.000000*%
%TD*%
%TA.AperFunction,ComponentPad*%
%ADD11C,2.000000*%
%TD*%
%TA.AperFunction,ComponentPad*%
%ADD12C,1.600000*%
%TD*%
%TA.AperFunction,ComponentPad*%
%ADD13O,1.600000X1.600000*%
%TD*%
%TA.AperFunction,ComponentPad*%
%ADD14R,2.400000X2.400000*%
%TD*%
%TA.AperFunction,ComponentPad*%
%ADD15C,2.400000*%
%TD*%
%TA.AperFunction,ComponentPad*%
%ADD16R,1.700000X1.700000*%
%TD*%
%TA.AperFunction,ComponentPad*%
%ADD17O,1.700000X1.700000*%
%TD*%
%TA.AperFunction,ComponentPad*%
%ADD18R,3.000000X3.000000*%
%TD*%
%TA.AperFunction,ComponentPad*%
%ADD19C,3.000000*%
%TD*%
%TA.AperFunction,ComponentPad*%
%ADD20R,1.600000X1.600000*%
%TD*%
%TA.AperFunction,ComponentPad*%
%ADD21R,1.800000X1.800000*%
%TD*%
%TA.AperFunction,ComponentPad*%
%ADD22C,1.800000*%
%TD*%
%TA.AperFunction,ComponentPad*%
%ADD23C,1.397000*%
%TD*%
%TA.AperFunction,ViaPad*%
%ADD24C,0.800000*%
%TD*%
%TA.AperFunction,Conductor*%
%ADD25C,0.600000*%
%TD*%
G04 APERTURE END LIST*
D10*
%TO.P,C2,1*%
%TO.N,FSH*%
X133322300Y-67180000D03*
D11*
%TO.P,C2,2*%
%TO.N,GND*%
X140822300Y-67180000D03*
%TD*%
D12*
%TO.P,R9,1*%
%TO.N,ADCX*%
X152370000Y-84580000D03*
D13*
%TO.P,R9,2*%
%TO.N,GND*%
X144750000Y-84580000D03*
%TD*%
D12*
%TO.P,R7,1*%
%TO.N,FSH*%
X104670000Y-93640000D03*
D13*
%TO.P,R7,2*%
%TO.N,3.3V*%
X97050000Y-93640000D03*
%TD*%
D14*
%TO.P,U2,1,GND*%
%TO.N,GND*%
X120150000Y-114730000D03*
D15*
%TO.P,U2,2,VO*%
%TO.N,3.3V*%
X125150000Y-114730000D03*
%TO.P,U2,3,VI*%
%TO.N,5V*%
X130150000Y-114730000D03*
%TD*%
D12*
%TO.P,R6,1*%
%TO.N,Net-(R6-Pad1)*%
X130740000Y-83740000D03*
D13*
%TO.P,R6,2*%
%TO.N,3.3V*%
X138360000Y-83740000D03*
%TD*%
D12*
%TO.P,R2,1*%
%TO.N,3.3V*%
X157480000Y-84670000D03*
D13*
%TO.P,R2,2*%
%TO.N,Net-(C1-Pad1)*%
X165100000Y-84670000D03*
%TD*%
D16*
%TO.P,J3,1,Pin_1*%
%TO.N,GND*%
X140505000Y-105110000D03*
D17*
%TO.P,J3,2,Pin_2*%
%TO.N,ADC1*%
X140505000Y-107650000D03*
%TO.P,J3,3,Pin_3*%
%TO.N,unconnected-(J3-Pad3)*%
X140505000Y-110190000D03*
%TO.P,J3,4,Pin_4*%
%TO.N,3.3V*%
X140505000Y-112730000D03*
%TD*%
D10*
%TO.P,C6,1*%
%TO.N,3.3V*%
X93512323Y-67180000D03*
D11*
%TO.P,C6,2*%
%TO.N,GND*%
X101012323Y-67180000D03*
%TD*%
D18*
%TO.P,J2,1,Pin_1*%
%TO.N,FASE*%
X184540000Y-88802500D03*
D19*
%TO.P,J2,2,Pin_2*%
%TO.N,NEUTRO*%
X184540000Y-92682500D03*
%TD*%
D13*
%TO.P,D2,1,A*%
%TO.N,ADC0*%
X152080000Y-89960000D03*
D20*
%TO.P,D2,2,K*%
%TO.N,ADCX*%
X144460000Y-89960000D03*
%TD*%
D12*
%TO.P,R5,1*%
%TO.N,RST*%
X113430000Y-93640000D03*
D13*
%TO.P,R5,2*%
%TO.N,3.3V*%
X121050000Y-93640000D03*
%TD*%
D10*
%TO.P,C1,1*%
%TO.N,Net-(C1-Pad1)*%
X165117700Y-67180000D03*
D11*
%TO.P,C1,2*%
%TO.N,GND*%
X157617700Y-67180000D03*
%TD*%
D10*
%TO.P,C3,1*%
%TO.N,5V*%
X105402300Y-114460000D03*
D11*
%TO.P,C3,2*%
%TO.N,GND*%
X112902300Y-114460000D03*
%TD*%
D21*
%TO.P,D3,1,K*%
%TO.N,LED*%
X147285000Y-66650000D03*
D22*
%TO.P,D3,2,A*%
%TO.N,Net-(D3-Pad2)*%
X149825000Y-66650000D03*
%TD*%
D12*
%TO.P,R4,1*%
%TO.N,FSH*%
X130870000Y-78890000D03*
D13*
%TO.P,R4,2*%
%TO.N,3.3V*%
X138490000Y-78890000D03*
%TD*%
D16*
%TO.P,J4,1,Pin_1*%
%TO.N,3.3V*%
X93875000Y-78620000D03*
D17*
%TO.P,J4,2,Pin_2*%
%TO.N,TX*%
X93875000Y-81160000D03*
%TO.P,J4,3,Pin_3*%
%TO.N,RX*%
X93875000Y-83700000D03*
%TO.P,J4,4,Pin_4*%
%TO.N,GND*%
X93875000Y-86240000D03*
%TD*%
D10*
%TO.P,C5,1*%
%TO.N,RST*%
X126432323Y-103750000D03*
D11*
%TO.P,C5,2*%
%TO.N,GND*%
X133932323Y-103750000D03*
%TD*%
D18*
%TO.P,J1,1,Pin_1*%
%TO.N,Net-(C1-Pad1)*%
X184590000Y-75595000D03*
D19*
%TO.P,J1,2,Pin_2*%
%TO.N,ADC0*%
X184590000Y-79475000D03*
%TD*%
D23*
%TO.P,SW1,1,1*%
%TO.N,RST*%
X113430000Y-100360000D03*
X121050000Y-100360000D03*
%TO.P,SW1,2,2*%
%TO.N,GND*%
X113430000Y-105440000D03*
X121050000Y-105440000D03*
%TD*%
%TO.P,SW2,1,1*%
%TO.N,FSH*%
X97050000Y-100360000D03*
X104670000Y-100360000D03*
%TO.P,SW2,2,2*%
%TO.N,GND*%
X97050000Y-105440000D03*
X104670000Y-105440000D03*
%TD*%
D13*
%TO.P,D1,1,A*%
%TO.N,ADC1*%
X152080000Y-94290000D03*
D20*
%TO.P,D1,2,K*%
%TO.N,ADCX*%
X144460000Y-94290000D03*
%TD*%
D18*
%TO.P,J5,1,Pin_1*%
%TO.N,5V*%
X98920000Y-116430000D03*
D19*
%TO.P,J5,2,Pin_2*%
%TO.N,GND*%
X95040000Y-116430000D03*
%TD*%
D12*
%TO.P,R3,1*%
%TO.N,Net-(C1-Pad1)*%
X165150000Y-78430000D03*
D13*
%TO.P,R3,2*%
%TO.N,GND*%
X157530000Y-78430000D03*
%TD*%
D12*
%TO.P,R8,1*%
%TO.N,3.3V*%
X144750000Y-75010000D03*
D13*
%TO.P,R8,2*%
%TO.N,Net-(D3-Pad2)*%
X152370000Y-75010000D03*
%TD*%
D10*
%TO.P,C4,1*%
%TO.N,3.3V*%
X126432323Y-92030000D03*
D11*
%TO.P,C4,2*%
%TO.N,GND*%
X133932323Y-92030000D03*
%TD*%
D12*
%TO.P,R1,1*%
%TO.N,ADC0*%
X157310000Y-90210000D03*
D13*
%TO.P,R1,2*%
%TO.N,Net-(C1-Pad1)*%
X164930000Y-90210000D03*
%TD*%
D24*
%TO.N,GND*%
X175180000Y-100780000D03*
X167560000Y-103320000D03*
X169950000Y-73170000D03*
X180260000Y-113480000D03*
X158910000Y-64810000D03*
X108910000Y-106900000D03*
X169670000Y-80940000D03*
X110030000Y-72120000D03*
X169560000Y-89130000D03*
X157830000Y-113460000D03*
X95860000Y-62080000D03*
X152750000Y-110920000D03*
X100940000Y-62080000D03*
X179580000Y-63650000D03*
X182120000Y-63650000D03*
X152750000Y-105840000D03*
X151290000Y-64810000D03*
X174910000Y-77170000D03*
X111450000Y-104360000D03*
X174640000Y-91670000D03*
X164730000Y-96240000D03*
X108910000Y-104360000D03*
X169560000Y-84050000D03*
X172640000Y-108400000D03*
X182120000Y-66190000D03*
X172640000Y-110940000D03*
X177720000Y-108400000D03*
X174500000Y-63650000D03*
X155290000Y-110920000D03*
X170100000Y-103320000D03*
X139230000Y-87450000D03*
X156370000Y-64810000D03*
X177720000Y-116020000D03*
X172210000Y-80940000D03*
X172490000Y-73170000D03*
X172400000Y-66150000D03*
X162480000Y-100780000D03*
X164730000Y-93700000D03*
X153830000Y-62270000D03*
X129930000Y-70330000D03*
X108910000Y-99280000D03*
X177720000Y-103320000D03*
X166990000Y-93760000D03*
X110030000Y-69580000D03*
X180260000Y-103320000D03*
X136690000Y-87450000D03*
X175180000Y-113480000D03*
X174640000Y-89130000D03*
X129890000Y-73130000D03*
X172640000Y-100780000D03*
X182800000Y-110940000D03*
X172640000Y-116020000D03*
X180260000Y-110940000D03*
X152750000Y-113460000D03*
X152750000Y-100760000D03*
X179580000Y-68730000D03*
X172100000Y-86590000D03*
X162190000Y-96240000D03*
X175180000Y-110940000D03*
X177720000Y-105860000D03*
X172400000Y-68690000D03*
X129930000Y-62710000D03*
X155290000Y-100760000D03*
X165020000Y-105860000D03*
X159940000Y-105860000D03*
X175180000Y-105860000D03*
X172070000Y-96300000D03*
X170100000Y-100780000D03*
X124850000Y-67790000D03*
X139230000Y-89990000D03*
X172370000Y-77170000D03*
X172640000Y-103320000D03*
X167560000Y-110940000D03*
X175180000Y-108400000D03*
X139230000Y-95070000D03*
X93270000Y-98890000D03*
X141770000Y-95070000D03*
X136690000Y-89990000D03*
X177040000Y-63650000D03*
X182120000Y-68730000D03*
X150210000Y-108380000D03*
X158910000Y-67350000D03*
X112570000Y-72120000D03*
X159940000Y-110940000D03*
X175030000Y-70930000D03*
X169860000Y-66150000D03*
X124850000Y-62710000D03*
X172070000Y-93760000D03*
X106370000Y-101820000D03*
X93270000Y-101430000D03*
X95810000Y-96350000D03*
X111450000Y-99280000D03*
X172400000Y-63610000D03*
X127350000Y-73130000D03*
X157830000Y-103300000D03*
X127390000Y-62710000D03*
X174500000Y-66190000D03*
X112570000Y-69580000D03*
X172490000Y-70930000D03*
X108290000Y-79930000D03*
X155290000Y-113460000D03*
X150210000Y-110920000D03*
X182800000Y-103320000D03*
X169530000Y-96300000D03*
X139230000Y-92530000D03*
X159650000Y-93700000D03*
X177720000Y-100780000D03*
X152750000Y-108380000D03*
X108270000Y-80760000D03*
X162480000Y-110940000D03*
X170100000Y-105860000D03*
X169560000Y-91670000D03*
X165020000Y-108400000D03*
X156370000Y-62270000D03*
X153830000Y-64810000D03*
X180260000Y-105860000D03*
X175180000Y-116020000D03*
X93270000Y-103970000D03*
X172100000Y-91670000D03*
X172640000Y-105860000D03*
X162190000Y-93700000D03*
X177720000Y-110940000D03*
X127390000Y-65250000D03*
X111450000Y-106900000D03*
X159940000Y-103320000D03*
X127390000Y-70330000D03*
X129930000Y-67790000D03*
X159940000Y-116020000D03*
X93270000Y-96350000D03*
X169530000Y-93760000D03*
X150210000Y-113460000D03*
X129890000Y-75670000D03*
X170100000Y-116020000D03*
X165020000Y-100780000D03*
X174500000Y-68730000D03*
X151290000Y-62270000D03*
X124850000Y-65250000D03*
X141770000Y-87450000D03*
X157830000Y-116000000D03*
X179580000Y-66190000D03*
X172100000Y-84050000D03*
X180260000Y-108400000D03*
X124810000Y-75670000D03*
X167560000Y-113480000D03*
X177040000Y-66190000D03*
X169860000Y-63610000D03*
X153830000Y-67350000D03*
X162480000Y-105860000D03*
X98400000Y-62080000D03*
X157830000Y-110920000D03*
X159650000Y-96240000D03*
X157830000Y-105840000D03*
X162480000Y-113480000D03*
X98400000Y-64620000D03*
X174590000Y-93670000D03*
X156370000Y-67350000D03*
X162480000Y-108400000D03*
X169950000Y-70930000D03*
X129930000Y-65250000D03*
X167560000Y-105860000D03*
X111450000Y-101820000D03*
X182800000Y-100780000D03*
X111960000Y-90650000D03*
X157830000Y-100760000D03*
X108270000Y-79040000D03*
X108910000Y-101820000D03*
X165020000Y-110940000D03*
X136690000Y-95070000D03*
X124810000Y-73130000D03*
X180260000Y-100780000D03*
X158910000Y-62270000D03*
X167560000Y-116020000D03*
X170100000Y-113480000D03*
X159940000Y-100780000D03*
X174640000Y-86590000D03*
X127390000Y-67790000D03*
X172640000Y-113480000D03*
X174590000Y-96210000D03*
X162480000Y-103320000D03*
X167560000Y-108400000D03*
X150210000Y-105840000D03*
X166990000Y-96300000D03*
X170100000Y-110940000D03*
X174640000Y-84050000D03*
X152750000Y-116000000D03*
X175030000Y-73170000D03*
X165020000Y-103320000D03*
X182800000Y-116020000D03*
X106370000Y-106900000D03*
X165020000Y-113480000D03*
X150210000Y-116000000D03*
X167560000Y-100780000D03*
X150210000Y-100760000D03*
X165020000Y-116020000D03*
X106370000Y-104360000D03*
X155290000Y-108380000D03*
X95860000Y-64620000D03*
X182800000Y-108400000D03*
X106370000Y-99280000D03*
X116180000Y-79310000D03*
X95810000Y-103970000D03*
X95810000Y-101430000D03*
X169860000Y-68690000D03*
X174750000Y-80940000D03*
X155290000Y-103300000D03*
X182800000Y-105860000D03*
X159940000Y-108400000D03*
X172100000Y-89130000D03*
X175180000Y-103320000D03*
X180260000Y-116020000D03*
X127350000Y-75670000D03*
X155290000Y-116000000D03*
X182800000Y-113480000D03*
X141770000Y-92530000D03*
X115110000Y-69580000D03*
X150210000Y-103300000D03*
X159940000Y-113480000D03*
X95810000Y-98890000D03*
X162480000Y-116020000D03*
X155290000Y-105840000D03*
X124850000Y-70330000D03*
X151290000Y-67350000D03*
X169560000Y-86590000D03*
X98350000Y-101430000D03*
X169830000Y-77170000D03*
X100940000Y-64620000D03*
X177720000Y-113480000D03*
X152750000Y-103300000D03*
X136690000Y-92530000D03*
X177040000Y-68730000D03*
X115110000Y-72120000D03*
X141770000Y-89990000D03*
X98350000Y-103970000D03*
X157830000Y-108380000D03*
X170100000Y-108400000D03*
%TO.N,LED*%
X116033700Y-84552300D03*
%TO.N,TX*%
X116578600Y-74180000D03*
%TO.N,RX*%
X119641800Y-72907600D03*
%TD*%
D25*
%TO.N,FSH*%
X130870000Y-78890000D02*
X133322300Y-76437700D01*
X133322300Y-76437700D02*
X133322300Y-67180000D01*
%TO.N,Net-(C1-Pad1)*%
X165100000Y-90040000D02*
X165100000Y-84670000D01*
X164930000Y-90210000D02*
X165100000Y-90040000D01*
X165150000Y-78430000D02*
X165150000Y-83220000D01*
X165150000Y-83220000D02*
X165100000Y-83270000D01*
X165100000Y-84670000D02*
X165100000Y-83270000D01*
%TO.N,3.3V*%
X121050000Y-93640000D02*
X121050000Y-95040000D01*
X103580000Y-103010000D02*
X97050000Y-96480000D01*
X115298100Y-103010000D02*
X103580000Y-103010000D01*
X129512300Y-92030000D02*
X126432323Y-92030000D01*
X116736600Y-101571500D02*
X116736600Y-106316600D01*
X116736600Y-99353400D02*
X116736600Y-101571500D01*
X137802300Y-83740000D02*
X129512300Y-92030000D01*
X116736600Y-101571500D02*
X115298100Y-103010000D01*
X116736600Y-106316600D02*
X125150000Y-114730000D01*
X121050000Y-95040000D02*
X116736600Y-99353400D01*
X97050000Y-96480000D02*
X97050000Y-93640000D01*
X138360000Y-83740000D02*
X137802300Y-83740000D01*
%TO.N,ADC1*%
X152080000Y-94290000D02*
X152080000Y-96970000D01*
X152080000Y-96970000D02*
X141400000Y-107650000D01*
X141400000Y-107650000D02*
X140505000Y-107650000D01*
%TO.N,ADCX*%
X144460000Y-89960000D02*
X146990000Y-89960000D01*
X146990000Y-89960000D02*
X152370000Y-84580000D01*
X144460000Y-94290000D02*
X144460000Y-89960000D01*
%TO.N,LED*%
X140935000Y-71450000D02*
X130775000Y-81610000D01*
X146650000Y-71450000D02*
X140935000Y-71450000D01*
X130775000Y-81610000D02*
X118976000Y-81610000D01*
X147285000Y-70815000D02*
X146650000Y-71450000D01*
X147285000Y-66650000D02*
X147285000Y-70815000D01*
X118976000Y-81610000D02*
X116033700Y-84552300D01*
%TO.N,Net-(D3-Pad2)*%
X152370000Y-73610000D02*
X149825000Y-71065000D01*
X149825000Y-71065000D02*
X149825000Y-66650000D01*
X152370000Y-75010000D02*
X152370000Y-73610000D01*
%TO.N,RST*%
X113430000Y-100360000D02*
X113430000Y-93640000D01*
%TO.N,FSH*%
X119420000Y-78890000D02*
X130870000Y-78890000D01*
X104670000Y-100360000D02*
X104670000Y-93640000D01*
X104670000Y-93640000D02*
X119420000Y-78890000D01*
%TO.N,TX*%
X95325000Y-81160000D02*
X102417000Y-74068000D01*
X93875000Y-81160000D02*
X95325000Y-81160000D01*
X102417000Y-74068000D02*
X116466600Y-74068000D01*
X116466600Y-74068000D02*
X116578600Y-74180000D01*
%TO.N,RX*%
X93875000Y-83700000D02*
X108849400Y-83700000D01*
X108849400Y-83700000D02*
X119641800Y-72907600D01*
%TD*%
%TA.AperFunction,Conductor*%
%TO.N,GND*%
G36*
X188503621Y-61218502D02*
G01*
X188550114Y-61272158D01*
X188561500Y-61324500D01*
X188561500Y-120365500D01*
X188541498Y-120433621D01*
X188487842Y-120480114D01*
X188435500Y-120491500D01*
X91784500Y-120491500D01*
X91716379Y-120471498D01*
X91669886Y-120417842D01*
X91658500Y-120365500D01*
X91658500Y-117978134D01*
X96911500Y-117978134D01*
X96918255Y-118040316D01*
X96969385Y-118176705D01*
X97056739Y-118293261D01*
X97173295Y-118380615D01*
X97309684Y-118431745D01*
X97371866Y-118438500D01*
X100468134Y-118438500D01*
X100530316Y-118431745D01*
X100666705Y-118380615D01*
X100783261Y-118293261D01*
X100870615Y-118176705D01*
X100921745Y-118040316D01*
X100928500Y-117978134D01*
X100928500Y-115508134D01*
X103893800Y-115508134D01*
X103900555Y-115570316D01*
X103951685Y-115706705D01*
X104039039Y-115823261D01*
X104155595Y-115910615D01*
X104291984Y-115961745D01*
X104354166Y-115968500D01*
X106450434Y-115968500D01*
X106512616Y-115961745D01*
X106649005Y-115910615D01*
X106765561Y-115823261D01*
X106852915Y-115706705D01*
X106904045Y-115570316D01*
X106910800Y-115508134D01*
X106910800Y-113411866D01*
X106904045Y-113349684D01*
X106852915Y-113213295D01*
X106765561Y-113096739D01*
X106649005Y-113009385D01*
X106512616Y-112958255D01*
X106450434Y-112951500D01*
X104354166Y-112951500D01*
X104291984Y-112958255D01*
X104155595Y-113009385D01*
X104039039Y-113096739D01*
X103951685Y-113213295D01*
X103900555Y-113349684D01*
X103893800Y-113411866D01*
X103893800Y-115508134D01*
X100928500Y-115508134D01*
X100928500Y-114881866D01*
X100921745Y-114819684D01*
X100870615Y-114683295D01*
X100783261Y-114566739D01*
X100666705Y-114479385D01*
X100530316Y-114428255D01*
X100468134Y-114421500D01*
X97371866Y-114421500D01*
X97309684Y-114428255D01*
X97173295Y-114479385D01*
X97056739Y-114566739D01*
X96969385Y-114683295D01*
X96918255Y-114819684D01*
X96911500Y-114881866D01*
X96911500Y-117978134D01*
X91658500Y-117978134D01*
X91658500Y-100360000D01*
X95838389Y-100360000D01*
X95856796Y-100570394D01*
X95911458Y-100774395D01*
X96000714Y-100965805D01*
X96121852Y-101138809D01*
X96271191Y-101288148D01*
X96275699Y-101291305D01*
X96275702Y-101291307D01*
X96439685Y-101406129D01*
X96444194Y-101409286D01*
X96449176Y-101411609D01*
X96449181Y-101411612D01*
X96630623Y-101496219D01*
X96635605Y-101498542D01*
X96640913Y-101499964D01*
X96640915Y-101499965D01*
X96834291Y-101551780D01*
X96834293Y-101551780D01*
X96839606Y-101553204D01*
X97050000Y-101571611D01*
X97260394Y-101553204D01*
X97265707Y-101551780D01*
X97265709Y-101551780D01*
X97459085Y-101499965D01*
X97459087Y-101499964D01*
X97464395Y-101498542D01*
X97469377Y-101496219D01*
X97650819Y-101411612D01*
X97650824Y-101411609D01*
X97655806Y-101409286D01*
X97660315Y-101406129D01*
X97824298Y-101291307D01*
X97824301Y-101291305D01*
X97828809Y-101288148D01*
X97978148Y-101138809D01*
X98099286Y-100965805D01*
X98188542Y-100774395D01*
X98243204Y-100570394D01*
X98261611Y-100360000D01*
X98243204Y-100149606D01*
X98188542Y-99945605D01*
X98099286Y-99754195D01*
X97978148Y-99581191D01*
X97828809Y-99431852D01*
X97824301Y-99428695D01*
X97824298Y-99428693D01*
X97660315Y-99313871D01*
X97660312Y-99313869D01*
X97655806Y-99310714D01*
X97650824Y-99308391D01*
X97650819Y-99308388D01*
X97469377Y-99223781D01*
X97469376Y-99223781D01*
X97464395Y-99221458D01*
X97459087Y-99220036D01*
X97459085Y-99220035D01*
X97265709Y-99168220D01*
X97265707Y-99168220D01*
X97260394Y-99166796D01*
X97050000Y-99148389D01*
X96839606Y-99166796D01*
X96834293Y-99168220D01*
X96834291Y-99168220D01*
X96640915Y-99220035D01*
X96640913Y-99220036D01*
X96635605Y-99221458D01*
X96630624Y-99223780D01*
X96630623Y-99223781D01*
X96449176Y-99308391D01*
X96449173Y-99308393D01*
X96444195Y-99310714D01*
X96271191Y-99431852D01*
X96121852Y-99581191D01*
X96000714Y-99754195D01*
X95911458Y-99945605D01*
X95856796Y-100149606D01*
X95838389Y-100360000D01*
X91658500Y-100360000D01*
X91658500Y-93640000D01*
X95736502Y-93640000D01*
X95756457Y-93868087D01*
X95757881Y-93873400D01*
X95757881Y-93873402D01*
X95786962Y-93981931D01*
X95815716Y-94089243D01*
X95818039Y-94094224D01*
X95818039Y-94094225D01*
X95910151Y-94291762D01*
X95910154Y-94291767D01*
X95912477Y-94296749D01*
X95949580Y-94349737D01*
X96025737Y-94458500D01*
X96043802Y-94484300D01*
X96204595Y-94645093D01*
X96238621Y-94707405D01*
X96241500Y-94734188D01*
X96241500Y-96470786D01*
X96241493Y-96472106D01*
X96240549Y-96562221D01*
X96249711Y-96604597D01*
X96251769Y-96617163D01*
X96256603Y-96660255D01*
X96258919Y-96666906D01*
X96258920Y-96666910D01*
X96267633Y-96691930D01*
X96271796Y-96706742D01*
X96278881Y-96739510D01*
X96297208Y-96778813D01*
X96301990Y-96790589D01*
X96316255Y-96831552D01*
X96319989Y-96837527D01*
X96319990Y-96837530D01*
X96334027Y-96859995D01*
X96341366Y-96873512D01*
X96345385Y-96882130D01*
X96355538Y-96903902D01*
X96359855Y-96909467D01*
X96359856Y-96909469D01*
X96382106Y-96938153D01*
X96389402Y-96948612D01*
X96412374Y-96985376D01*
X96417334Y-96990371D01*
X96417335Y-96990372D01*
X96440976Y-97014179D01*
X96441561Y-97014804D01*
X96442078Y-97015470D01*
X96468068Y-97041460D01*
X96540185Y-97114082D01*
X96541222Y-97114740D01*
X96542451Y-97115843D01*
X103001719Y-103575110D01*
X103002647Y-103576047D01*
X103065771Y-103640507D01*
X103071691Y-103644322D01*
X103071697Y-103644327D01*
X103102214Y-103663994D01*
X103112559Y-103671427D01*
X103146443Y-103698476D01*
X103152782Y-103701540D01*
X103152783Y-103701541D01*
X103176637Y-103713072D01*
X103190054Y-103720601D01*
X103218238Y-103738765D01*
X103224855Y-103741173D01*
X103224860Y-103741176D01*
X103258973Y-103753592D01*
X103270716Y-103758553D01*
X103303400Y-103774353D01*
X103303409Y-103774356D01*
X103309749Y-103777421D01*
X103316614Y-103779006D01*
X103342428Y-103784966D01*
X103357168Y-103789332D01*
X103388685Y-103800803D01*
X103395670Y-103801685D01*
X103395677Y-103801687D01*
X103431692Y-103806237D01*
X103444243Y-103808472D01*
X103486485Y-103818225D01*
X103493529Y-103818250D01*
X103493533Y-103818250D01*
X103527074Y-103818367D01*
X103527943Y-103818396D01*
X103528769Y-103818500D01*
X103565133Y-103818500D01*
X103565573Y-103818501D01*
X103664336Y-103818846D01*
X103664342Y-103818846D01*
X103667870Y-103818858D01*
X103669073Y-103818589D01*
X103670717Y-103818500D01*
X115288886Y-103818500D01*
X115290206Y-103818507D01*
X115380321Y-103819451D01*
X115422697Y-103810289D01*
X115435263Y-103808231D01*
X115478355Y-103803397D01*
X115485006Y-103801081D01*
X115485010Y-103801080D01*
X115510030Y-103792367D01*
X115524842Y-103788204D01*
X115550719Y-103782609D01*
X115557610Y-103781119D01*
X115596913Y-103762792D01*
X115608689Y-103758010D01*
X115649652Y-103743745D01*
X115655627Y-103740011D01*
X115655630Y-103740010D01*
X115678095Y-103725973D01*
X115691612Y-103718634D01*
X115715614Y-103707441D01*
X115715615Y-103707440D01*
X115722002Y-103704462D01*
X115727569Y-103700144D01*
X115733581Y-103696474D01*
X115734734Y-103698363D01*
X115790958Y-103676288D01*
X115860581Y-103690188D01*
X115911636Y-103739522D01*
X115928100Y-103801794D01*
X115928100Y-106307386D01*
X115928093Y-106308706D01*
X115927149Y-106398821D01*
X115936311Y-106441197D01*
X115938369Y-106453763D01*
X115943203Y-106496855D01*
X115945519Y-106503506D01*
X115945520Y-106503510D01*
X115954233Y-106528530D01*
X115958396Y-106543342D01*
X115965481Y-106576110D01*
X115983808Y-106615413D01*
X115988590Y-106627189D01*
X116002855Y-106668152D01*
X116006589Y-106674127D01*
X116006590Y-106674130D01*
X116020627Y-106696595D01*
X116027966Y-106710112D01*
X116039159Y-106734114D01*
X116042138Y-106740502D01*
X116046455Y-106746067D01*
X116046456Y-106746069D01*
X116068706Y-106774753D01*
X116076002Y-106785212D01*
X116098974Y-106821976D01*
X116103934Y-106826971D01*
X116103935Y-106826972D01*
X116127576Y-106850779D01*
X116128161Y-106851404D01*
X116128678Y-106852070D01*
X116154668Y-106878060D01*
X116226785Y-106950682D01*
X116227822Y-106951340D01*
X116229051Y-106952443D01*
X123461969Y-114185361D01*
X123495995Y-114247673D01*
X123494997Y-114305471D01*
X123462738Y-114432490D01*
X123462270Y-114437142D01*
X123462269Y-114437145D01*
X123452010Y-114539033D01*
X123437296Y-114685151D01*
X123437520Y-114689817D01*
X123437520Y-114689822D01*
X123439299Y-114726851D01*
X123449480Y-114938798D01*
X123499021Y-115187857D01*
X123500600Y-115192255D01*
X123500602Y-115192262D01*
X123545022Y-115315980D01*
X123584831Y-115426858D01*
X123705025Y-115650551D01*
X123707820Y-115654294D01*
X123707822Y-115654297D01*
X123854171Y-115850282D01*
X123854176Y-115850288D01*
X123856963Y-115854020D01*
X123860272Y-115857300D01*
X123860277Y-115857306D01*
X123972074Y-115968131D01*
X124037307Y-116032797D01*
X124041069Y-116035555D01*
X124041072Y-116035558D01*
X124146764Y-116113054D01*
X124242094Y-116182953D01*
X124246229Y-116185129D01*
X124246233Y-116185131D01*
X124364289Y-116247243D01*
X124466827Y-116301191D01*
X124706568Y-116384912D01*
X124956050Y-116432278D01*
X125076532Y-116437011D01*
X125205125Y-116442064D01*
X125205130Y-116442064D01*
X125209793Y-116442247D01*
X125308774Y-116431407D01*
X125457569Y-116415112D01*
X125457575Y-116415111D01*
X125462222Y-116414602D01*
X125571680Y-116385784D01*
X125703273Y-116351138D01*
X125707793Y-116349948D01*
X125826353Y-116299011D01*
X125936807Y-116251557D01*
X125936810Y-116251555D01*
X125941110Y-116249708D01*
X125945090Y-116247245D01*
X125945094Y-116247243D01*
X126153064Y-116118547D01*
X126153066Y-116118545D01*
X126157047Y-116116082D01*
X126255428Y-116032797D01*
X126347289Y-115955031D01*
X126347291Y-115955029D01*
X126350862Y-115952006D01*
X126518295Y-115761084D01*
X126655669Y-115547512D01*
X126759967Y-115315980D01*
X126828896Y-115071575D01*
X126853030Y-114881866D01*
X126860545Y-114822798D01*
X126860545Y-114822792D01*
X126860943Y-114819667D01*
X126861137Y-114812285D01*
X126863208Y-114733160D01*
X126863291Y-114730000D01*
X126859958Y-114685151D01*
X128437296Y-114685151D01*
X128437520Y-114689817D01*
X128437520Y-114689822D01*
X128439299Y-114726851D01*
X128449480Y-114938798D01*
X128499021Y-115187857D01*
X128500600Y-115192255D01*
X128500602Y-115192262D01*
X128545022Y-115315980D01*
X128584831Y-115426858D01*
X128705025Y-115650551D01*
X128707820Y-115654294D01*
X128707822Y-115654297D01*
X128854171Y-115850282D01*
X128854176Y-115850288D01*
X128856963Y-115854020D01*
X128860272Y-115857300D01*
X128860277Y-115857306D01*
X128972074Y-115968131D01*
X129037307Y-116032797D01*
X129041069Y-116035555D01*
X129041072Y-116035558D01*
X129146764Y-116113054D01*
X129242094Y-116182953D01*
X129246229Y-116185129D01*
X129246233Y-116185131D01*
X129364289Y-116247243D01*
X129466827Y-116301191D01*
X129706568Y-116384912D01*
X129956050Y-116432278D01*
X130076532Y-116437011D01*
X130205125Y-116442064D01*
X130205130Y-116442064D01*
X130209793Y-116442247D01*
X130308774Y-116431407D01*
X130457569Y-116415112D01*
X130457575Y-116415111D01*
X130462222Y-116414602D01*
X130571680Y-116385784D01*
X130703273Y-116351138D01*
X130707793Y-116349948D01*
X130826353Y-116299011D01*
X130936807Y-116251557D01*
X130936810Y-116251555D01*
X130941110Y-116249708D01*
X130945090Y-116247245D01*
X130945094Y-116247243D01*
X131153064Y-116118547D01*
X131153066Y-116118545D01*
X131157047Y-116116082D01*
X131255428Y-116032797D01*
X131347289Y-115955031D01*
X131347291Y-115955029D01*
X131350862Y-115952006D01*
X131518295Y-115761084D01*
X131655669Y-115547512D01*
X131759967Y-115315980D01*
X131828896Y-115071575D01*
X131853030Y-114881866D01*
X131860545Y-114822798D01*
X131860545Y-114822792D01*
X131860943Y-114819667D01*
X131861137Y-114812285D01*
X131863208Y-114733160D01*
X131863291Y-114730000D01*
X131850759Y-114561358D01*
X131844818Y-114481411D01*
X131844817Y-114481407D01*
X131844472Y-114476759D01*
X131835509Y-114437145D01*
X131789459Y-114233639D01*
X131788428Y-114229082D01*
X131731914Y-114083757D01*
X131698084Y-113996762D01*
X131698083Y-113996760D01*
X131696391Y-113992409D01*
X131678543Y-113961181D01*
X131572702Y-113775997D01*
X131572700Y-113775995D01*
X131570383Y-113771940D01*
X131413171Y-113572517D01*
X131258947Y-113427438D01*
X131231610Y-113401722D01*
X131231608Y-113401720D01*
X131228209Y-113398523D01*
X131143602Y-113339829D01*
X131023393Y-113256437D01*
X131023390Y-113256435D01*
X131019561Y-113253779D01*
X131015384Y-113251719D01*
X131015377Y-113251715D01*
X130795996Y-113143528D01*
X130795992Y-113143527D01*
X130791810Y-113141464D01*
X130549960Y-113064047D01*
X130545355Y-113063297D01*
X130303935Y-113023980D01*
X130303934Y-113023980D01*
X130299323Y-113023229D01*
X130172364Y-113021567D01*
X130050083Y-113019966D01*
X130050080Y-113019966D01*
X130045406Y-113019905D01*
X129793787Y-113054149D01*
X129549993Y-113125208D01*
X129319380Y-113231522D01*
X129315471Y-113234085D01*
X129110928Y-113368189D01*
X129110923Y-113368193D01*
X129107015Y-113370755D01*
X128917562Y-113539848D01*
X128755183Y-113735087D01*
X128623447Y-113952182D01*
X128621638Y-113956496D01*
X128621637Y-113956498D01*
X128568353Y-114083567D01*
X128525246Y-114186365D01*
X128462738Y-114432490D01*
X128437296Y-114685151D01*
X126859958Y-114685151D01*
X126850759Y-114561358D01*
X126844818Y-114481411D01*
X126844817Y-114481407D01*
X126844472Y-114476759D01*
X126835509Y-114437145D01*
X126789459Y-114233639D01*
X126788428Y-114229082D01*
X126731914Y-114083757D01*
X126698084Y-113996762D01*
X126698083Y-113996760D01*
X126696391Y-113992409D01*
X126678543Y-113961181D01*
X126572702Y-113775997D01*
X126572700Y-113775995D01*
X126570383Y-113771940D01*
X126413171Y-113572517D01*
X126258947Y-113427438D01*
X126231610Y-113401722D01*
X126231608Y-113401720D01*
X126228209Y-113398523D01*
X126143602Y-113339829D01*
X126023393Y-113256437D01*
X126023390Y-113256435D01*
X126019561Y-113253779D01*
X126015384Y-113251719D01*
X126015377Y-113251715D01*
X125795996Y-113143528D01*
X125795992Y-113143527D01*
X125791810Y-113141464D01*
X125549960Y-113064047D01*
X125545355Y-113063297D01*
X125303935Y-113023980D01*
X125303934Y-113023980D01*
X125299323Y-113023229D01*
X125172364Y-113021567D01*
X125050083Y-113019966D01*
X125050080Y-113019966D01*
X125045406Y-113019905D01*
X124793787Y-113054149D01*
X124728926Y-113073054D01*
X124657931Y-113072913D01*
X124604574Y-113041183D01*
X124260086Y-112696695D01*
X139142251Y-112696695D01*
X139142548Y-112701848D01*
X139142548Y-112701851D01*
X139148011Y-112796590D01*
X139155110Y-112919715D01*
X139156247Y-112924761D01*
X139156248Y-112924767D01*
X139174608Y-113006233D01*
X139204222Y-113137639D01*
X139288266Y-113344616D01*
X139404987Y-113535088D01*
X139551250Y-113703938D01*
X139723126Y-113846632D01*
X139916000Y-113959338D01*
X140124692Y-114039030D01*
X140129760Y-114040061D01*
X140129763Y-114040062D01*
X140237017Y-114061883D01*
X140343597Y-114083567D01*
X140348772Y-114083757D01*
X140348774Y-114083757D01*
X140561673Y-114091564D01*
X140561677Y-114091564D01*
X140566837Y-114091753D01*
X140571957Y-114091097D01*
X140571959Y-114091097D01*
X140783288Y-114064025D01*
X140783289Y-114064025D01*
X140788416Y-114063368D01*
X140793366Y-114061883D01*
X140997429Y-114000661D01*
X140997434Y-114000659D01*
X141002384Y-113999174D01*
X141202994Y-113900896D01*
X141384860Y-113771173D01*
X141543096Y-113613489D01*
X141569902Y-113576185D01*
X141670435Y-113436277D01*
X141673453Y-113432077D01*
X141688456Y-113401722D01*
X141770136Y-113236453D01*
X141770137Y-113236451D01*
X141772430Y-113231811D01*
X141820707Y-113072913D01*
X141835865Y-113023023D01*
X141835865Y-113023021D01*
X141837370Y-113018069D01*
X141866529Y-112796590D01*
X141868156Y-112730000D01*
X141849852Y-112507361D01*
X141795431Y-112290702D01*
X141706354Y-112085840D01*
X141585014Y-111898277D01*
X141434670Y-111733051D01*
X141430619Y-111729852D01*
X141430615Y-111729848D01*
X141263414Y-111597800D01*
X141263410Y-111597798D01*
X141259359Y-111594598D01*
X141218053Y-111571796D01*
X141168084Y-111521364D01*
X141153312Y-111451921D01*
X141178428Y-111385516D01*
X141205780Y-111358909D01*
X141249603Y-111327650D01*
X141384860Y-111231173D01*
X141543096Y-111073489D01*
X141602594Y-110990689D01*
X141670435Y-110896277D01*
X141673453Y-110892077D01*
X141772430Y-110691811D01*
X141837370Y-110478069D01*
X141866529Y-110256590D01*
X141868156Y-110190000D01*
X141849852Y-109967361D01*
X141795431Y-109750702D01*
X141706354Y-109545840D01*
X141585014Y-109358277D01*
X141434670Y-109193051D01*
X141430619Y-109189852D01*
X141430615Y-109189848D01*
X141263414Y-109057800D01*
X141263410Y-109057798D01*
X141259359Y-109054598D01*
X141218053Y-109031796D01*
X141168084Y-108981364D01*
X141153312Y-108911921D01*
X141178428Y-108845516D01*
X141205780Y-108818909D01*
X141249603Y-108787650D01*
X141384860Y-108691173D01*
X141543096Y-108533489D01*
X141546112Y-108529291D01*
X141546116Y-108529287D01*
X141589572Y-108468810D01*
X141651709Y-108422915D01*
X141652617Y-108422609D01*
X141659510Y-108421119D01*
X141698813Y-108402792D01*
X141710589Y-108398010D01*
X141751552Y-108383745D01*
X141757527Y-108380011D01*
X141757530Y-108380010D01*
X141779995Y-108365973D01*
X141793512Y-108358634D01*
X141817514Y-108347441D01*
X141817515Y-108347440D01*
X141823902Y-108344462D01*
X141858153Y-108317894D01*
X141868612Y-108310598D01*
X141899404Y-108291358D01*
X141899407Y-108291356D01*
X141905376Y-108287626D01*
X141934179Y-108259024D01*
X141934804Y-108258439D01*
X141935470Y-108257922D01*
X141961460Y-108231932D01*
X142034082Y-108159815D01*
X142034740Y-108158778D01*
X142035843Y-108157549D01*
X152645158Y-97548234D01*
X152646095Y-97547306D01*
X152705475Y-97489157D01*
X152705476Y-97489156D01*
X152710507Y-97484229D01*
X152733998Y-97447779D01*
X152741417Y-97437454D01*
X152768476Y-97403557D01*
X152783073Y-97373362D01*
X152790602Y-97359945D01*
X152804948Y-97337684D01*
X152808765Y-97331762D01*
X152811173Y-97325145D01*
X152811176Y-97325140D01*
X152823592Y-97291027D01*
X152828553Y-97279284D01*
X152844353Y-97246600D01*
X152844356Y-97246591D01*
X152847421Y-97240251D01*
X152854966Y-97207572D01*
X152859334Y-97192825D01*
X152870803Y-97161315D01*
X152871685Y-97154330D01*
X152871687Y-97154323D01*
X152876237Y-97118308D01*
X152878472Y-97105757D01*
X152886640Y-97070378D01*
X152888225Y-97063515D01*
X152888367Y-97022928D01*
X152888396Y-97022058D01*
X152888500Y-97021231D01*
X152888500Y-96984590D01*
X152888781Y-96903902D01*
X152888845Y-96885657D01*
X152888845Y-96885652D01*
X152888857Y-96882130D01*
X152888589Y-96880930D01*
X152888500Y-96879292D01*
X152888500Y-95384188D01*
X152908502Y-95316067D01*
X152925405Y-95295093D01*
X153086198Y-95134300D01*
X153116356Y-95091231D01*
X153144098Y-95051611D01*
X153217523Y-94946749D01*
X153219846Y-94941767D01*
X153219849Y-94941762D01*
X153311961Y-94744225D01*
X153311961Y-94744224D01*
X153314284Y-94739243D01*
X153373543Y-94518087D01*
X153393498Y-94290000D01*
X153373543Y-94061913D01*
X153372119Y-94056598D01*
X153315707Y-93846067D01*
X153315706Y-93846065D01*
X153314284Y-93840757D01*
X153275440Y-93757455D01*
X153219849Y-93638238D01*
X153219846Y-93638233D01*
X153217523Y-93633251D01*
X153141255Y-93524330D01*
X153089357Y-93450211D01*
X153089355Y-93450208D01*
X153086198Y-93445700D01*
X152924300Y-93283802D01*
X152919792Y-93280645D01*
X152919789Y-93280643D01*
X152809693Y-93203553D01*
X152736749Y-93152477D01*
X152731767Y-93150154D01*
X152731762Y-93150151D01*
X152534225Y-93058039D01*
X152534224Y-93058039D01*
X152529243Y-93055716D01*
X152523935Y-93054294D01*
X152523933Y-93054293D01*
X152313402Y-92997881D01*
X152313400Y-92997881D01*
X152308087Y-92996457D01*
X152080000Y-92976502D01*
X151851913Y-92996457D01*
X151846600Y-92997881D01*
X151846598Y-92997881D01*
X151636067Y-93054293D01*
X151636065Y-93054294D01*
X151630757Y-93055716D01*
X151625776Y-93058039D01*
X151625775Y-93058039D01*
X151428238Y-93150151D01*
X151428233Y-93150154D01*
X151423251Y-93152477D01*
X151350307Y-93203553D01*
X151240211Y-93280643D01*
X151240208Y-93280645D01*
X151235700Y-93283802D01*
X151073802Y-93445700D01*
X151070645Y-93450208D01*
X151070643Y-93450211D01*
X151018745Y-93524330D01*
X150942477Y-93633251D01*
X150940154Y-93638233D01*
X150940151Y-93638238D01*
X150884560Y-93757455D01*
X150845716Y-93840757D01*
X150844294Y-93846065D01*
X150844293Y-93846067D01*
X150787881Y-94056598D01*
X150786457Y-94061913D01*
X150766502Y-94290000D01*
X150786457Y-94518087D01*
X150845716Y-94739243D01*
X150848039Y-94744224D01*
X150848039Y-94744225D01*
X150940151Y-94941762D01*
X150940154Y-94941767D01*
X150942477Y-94946749D01*
X151015902Y-95051611D01*
X151043645Y-95091231D01*
X151073802Y-95134300D01*
X151234595Y-95295093D01*
X151268621Y-95357405D01*
X151271500Y-95384188D01*
X151271500Y-96582918D01*
X151251498Y-96651039D01*
X151234595Y-96672013D01*
X141411676Y-106494932D01*
X141349364Y-106528958D01*
X141278549Y-106523893D01*
X141259573Y-106514211D01*
X141259359Y-106514598D01*
X141063789Y-106406638D01*
X141058920Y-106404914D01*
X141058916Y-106404912D01*
X140858087Y-106333795D01*
X140858083Y-106333794D01*
X140853212Y-106332069D01*
X140848119Y-106331162D01*
X140848116Y-106331161D01*
X140638373Y-106293800D01*
X140638367Y-106293799D01*
X140633284Y-106292894D01*
X140559452Y-106291992D01*
X140415081Y-106290228D01*
X140415079Y-106290228D01*
X140409911Y-106290165D01*
X140189091Y-106323955D01*
X139976756Y-106393357D01*
X139778607Y-106496507D01*
X139774474Y-106499610D01*
X139774471Y-106499612D01*
X139664084Y-106582493D01*
X139599965Y-106630635D01*
X139596393Y-106634373D01*
X139452248Y-106785212D01*
X139445629Y-106792138D01*
X139319743Y-106976680D01*
X139225688Y-107179305D01*
X139165989Y-107394570D01*
X139142251Y-107616695D01*
X139155110Y-107839715D01*
X139156247Y-107844761D01*
X139156248Y-107844767D01*
X139180304Y-107951508D01*
X139204222Y-108057639D01*
X139244791Y-108157549D01*
X139284871Y-108256254D01*
X139288266Y-108264616D01*
X139320915Y-108317894D01*
X139371292Y-108400102D01*
X139404987Y-108455088D01*
X139551250Y-108623938D01*
X139723126Y-108766632D01*
X139793595Y-108807811D01*
X139796445Y-108809476D01*
X139845169Y-108861114D01*
X139858240Y-108930897D01*
X139831509Y-108996669D01*
X139791055Y-109030027D01*
X139778607Y-109036507D01*
X139774474Y-109039610D01*
X139774471Y-109039612D01*
X139750247Y-109057800D01*
X139599965Y-109170635D01*
X139445629Y-109332138D01*
X139319743Y-109516680D01*
X139225688Y-109719305D01*
X139165989Y-109934570D01*
X139142251Y-110156695D01*
X139142548Y-110161848D01*
X139142548Y-110161851D01*
X139148011Y-110256590D01*
X139155110Y-110379715D01*
X139156247Y-110384761D01*
X139156248Y-110384767D01*
X139176119Y-110472939D01*
X139204222Y-110597639D01*
X139288266Y-110804616D01*
X139404987Y-110995088D01*
X139551250Y-111163938D01*
X139723126Y-111306632D01*
X139793595Y-111347811D01*
X139796445Y-111349476D01*
X139845169Y-111401114D01*
X139858240Y-111470897D01*
X139831509Y-111536669D01*
X139791055Y-111570027D01*
X139778607Y-111576507D01*
X139774474Y-111579610D01*
X139774471Y-111579612D01*
X139750247Y-111597800D01*
X139599965Y-111710635D01*
X139445629Y-111872138D01*
X139319743Y-112056680D01*
X139225688Y-112259305D01*
X139165989Y-112474570D01*
X139142251Y-112696695D01*
X124260086Y-112696695D01*
X117582005Y-106018613D01*
X117547979Y-105956301D01*
X117545100Y-105929518D01*
X117545100Y-104798134D01*
X124923823Y-104798134D01*
X124930578Y-104860316D01*
X124981708Y-104996705D01*
X125069062Y-105113261D01*
X125185618Y-105200615D01*
X125322007Y-105251745D01*
X125384189Y-105258500D01*
X127480457Y-105258500D01*
X127542639Y-105251745D01*
X127679028Y-105200615D01*
X127795584Y-105113261D01*
X127882938Y-104996705D01*
X127934068Y-104860316D01*
X127940823Y-104798134D01*
X127940823Y-102701866D01*
X127934068Y-102639684D01*
X127882938Y-102503295D01*
X127795584Y-102386739D01*
X127679028Y-102299385D01*
X127542639Y-102248255D01*
X127480457Y-102241500D01*
X125384189Y-102241500D01*
X125322007Y-102248255D01*
X125185618Y-102299385D01*
X125069062Y-102386739D01*
X124981708Y-102503295D01*
X124930578Y-102639684D01*
X124923823Y-102701866D01*
X124923823Y-104798134D01*
X117545100Y-104798134D01*
X117545100Y-101586081D01*
X117545101Y-101585641D01*
X117545445Y-101487157D01*
X117545445Y-101487152D01*
X117545457Y-101483630D01*
X117545189Y-101482430D01*
X117545100Y-101480793D01*
X117545100Y-100360000D01*
X119838389Y-100360000D01*
X119856796Y-100570394D01*
X119911458Y-100774395D01*
X120000714Y-100965805D01*
X120121852Y-101138809D01*
X120271191Y-101288148D01*
X120275699Y-101291305D01*
X120275702Y-101291307D01*
X120439685Y-101406129D01*
X120444194Y-101409286D01*
X120449176Y-101411609D01*
X120449181Y-101411612D01*
X120630623Y-101496219D01*
X120635605Y-101498542D01*
X120640913Y-101499964D01*
X120640915Y-101499965D01*
X120834291Y-101551780D01*
X120834293Y-101551780D01*
X120839606Y-101553204D01*
X121050000Y-101571611D01*
X121260394Y-101553204D01*
X121265707Y-101551780D01*
X121265709Y-101551780D01*
X121459085Y-101499965D01*
X121459087Y-101499964D01*
X121464395Y-101498542D01*
X121469377Y-101496219D01*
X121650819Y-101411612D01*
X121650824Y-101411609D01*
X121655806Y-101409286D01*
X121660315Y-101406129D01*
X121824298Y-101291307D01*
X121824301Y-101291305D01*
X121828809Y-101288148D01*
X121978148Y-101138809D01*
X122099286Y-100965805D01*
X122188542Y-100774395D01*
X122243204Y-100570394D01*
X122261611Y-100360000D01*
X122243204Y-100149606D01*
X122188542Y-99945605D01*
X122099286Y-99754195D01*
X121978148Y-99581191D01*
X121828809Y-99431852D01*
X121824301Y-99428695D01*
X121824298Y-99428693D01*
X121660315Y-99313871D01*
X121660312Y-99313869D01*
X121655806Y-99310714D01*
X121650824Y-99308391D01*
X121650819Y-99308388D01*
X121469377Y-99223781D01*
X121469376Y-99223781D01*
X121464395Y-99221458D01*
X121459087Y-99220036D01*
X121459085Y-99220035D01*
X121265709Y-99168220D01*
X121265707Y-99168220D01*
X121260394Y-99166796D01*
X121050000Y-99148389D01*
X120839606Y-99166796D01*
X120834293Y-99168220D01*
X120834291Y-99168220D01*
X120640915Y-99220035D01*
X120640913Y-99220036D01*
X120635605Y-99221458D01*
X120630624Y-99223780D01*
X120630623Y-99223781D01*
X120449176Y-99308391D01*
X120449173Y-99308393D01*
X120444195Y-99310714D01*
X120271191Y-99431852D01*
X120121852Y-99581191D01*
X120000714Y-99754195D01*
X119911458Y-99945605D01*
X119856796Y-100149606D01*
X119838389Y-100360000D01*
X117545100Y-100360000D01*
X117545100Y-99740482D01*
X117565102Y-99672361D01*
X117582005Y-99651387D01*
X121615158Y-95618234D01*
X121616095Y-95617306D01*
X121675475Y-95559157D01*
X121675476Y-95559156D01*
X121680507Y-95554229D01*
X121703998Y-95517779D01*
X121711417Y-95507454D01*
X121738476Y-95473557D01*
X121753073Y-95443362D01*
X121760602Y-95429945D01*
X121774948Y-95407684D01*
X121778765Y-95401762D01*
X121781173Y-95395145D01*
X121781176Y-95395140D01*
X121793592Y-95361027D01*
X121798553Y-95349284D01*
X121814353Y-95316600D01*
X121814356Y-95316591D01*
X121817421Y-95310251D01*
X121824966Y-95277572D01*
X121829334Y-95262825D01*
X121840803Y-95231315D01*
X121841685Y-95224330D01*
X121841687Y-95224323D01*
X121846237Y-95188308D01*
X121848472Y-95175757D01*
X121856640Y-95140378D01*
X121857158Y-95138134D01*
X143151500Y-95138134D01*
X143158255Y-95200316D01*
X143209385Y-95336705D01*
X143296739Y-95453261D01*
X143413295Y-95540615D01*
X143549684Y-95591745D01*
X143611866Y-95598500D01*
X145308134Y-95598500D01*
X145370316Y-95591745D01*
X145506705Y-95540615D01*
X145623261Y-95453261D01*
X145710615Y-95336705D01*
X145761745Y-95200316D01*
X145768500Y-95138134D01*
X145768500Y-93441866D01*
X145761745Y-93379684D01*
X145710615Y-93243295D01*
X145623261Y-93126739D01*
X145506705Y-93039385D01*
X145492022Y-93033880D01*
X145377714Y-92991028D01*
X145377711Y-92991027D01*
X145370316Y-92988255D01*
X145364547Y-92987628D01*
X145303709Y-92952874D01*
X145270887Y-92889919D01*
X145268500Y-92865507D01*
X145268500Y-92661418D01*
X182526917Y-92661418D01*
X182542682Y-92934820D01*
X182543507Y-92939025D01*
X182543508Y-92939033D01*
X182570799Y-93078134D01*
X182595405Y-93203553D01*
X182596792Y-93207603D01*
X182596793Y-93207608D01*
X182679855Y-93450211D01*
X182684112Y-93462644D01*
X182807160Y-93707299D01*
X182809586Y-93710828D01*
X182809589Y-93710834D01*
X182902533Y-93846067D01*
X182962274Y-93932990D01*
X183146582Y-94135543D01*
X183356675Y-94311207D01*
X183360316Y-94313491D01*
X183585024Y-94454451D01*
X183585028Y-94454453D01*
X183588664Y-94456734D01*
X183713461Y-94513082D01*
X183834345Y-94567664D01*
X183834349Y-94567666D01*
X183838257Y-94569430D01*
X183842377Y-94570650D01*
X183842376Y-94570650D01*
X184096723Y-94645991D01*
X184096727Y-94645992D01*
X184100836Y-94647209D01*
X184105070Y-94647857D01*
X184105075Y-94647858D01*
X184367298Y-94687983D01*
X184367300Y-94687983D01*
X184371540Y-94688632D01*
X184510912Y-94690822D01*
X184641071Y-94692867D01*
X184641077Y-94692867D01*
X184645362Y-94692934D01*
X184917235Y-94660034D01*
X185182127Y-94590541D01*
X185186087Y-94588901D01*
X185186092Y-94588899D01*
X185308632Y-94538141D01*
X185435136Y-94485741D01*
X185671582Y-94347573D01*
X185887089Y-94178594D01*
X185928809Y-94135543D01*
X186074686Y-93985009D01*
X186077669Y-93981931D01*
X186080202Y-93978483D01*
X186080206Y-93978478D01*
X186237257Y-93764678D01*
X186239795Y-93761223D01*
X186267154Y-93710834D01*
X186368418Y-93524330D01*
X186368419Y-93524328D01*
X186370468Y-93520554D01*
X186426494Y-93372285D01*
X186465751Y-93268395D01*
X186465752Y-93268391D01*
X186467269Y-93264377D01*
X186510707Y-93074717D01*
X186527449Y-93001617D01*
X186527450Y-93001613D01*
X186528407Y-92997433D01*
X186530233Y-92976981D01*
X186552531Y-92727127D01*
X186552531Y-92727125D01*
X186552751Y-92724661D01*
X186553193Y-92682500D01*
X186553024Y-92680019D01*
X186534859Y-92413555D01*
X186534858Y-92413549D01*
X186534567Y-92409278D01*
X186479032Y-92141112D01*
X186387617Y-91882965D01*
X186262013Y-91639612D01*
X186252040Y-91625421D01*
X186165382Y-91502119D01*
X186104545Y-91415557D01*
X185969173Y-91269879D01*
X185921046Y-91218088D01*
X185921043Y-91218085D01*
X185918125Y-91214945D01*
X185914810Y-91212231D01*
X185914806Y-91212228D01*
X185726617Y-91058197D01*
X185706205Y-91041490D01*
X185703095Y-91039584D01*
X185659251Y-90983939D01*
X185652436Y-90913271D01*
X185684909Y-90850136D01*
X185746360Y-90814580D01*
X185776181Y-90811000D01*
X186088134Y-90811000D01*
X186150316Y-90804245D01*
X186286705Y-90753115D01*
X186403261Y-90665761D01*
X186490615Y-90549205D01*
X186541745Y-90412816D01*
X186548500Y-90350634D01*
X186548500Y-87254366D01*
X186541745Y-87192184D01*
X186490615Y-87055795D01*
X186403261Y-86939239D01*
X186286705Y-86851885D01*
X186150316Y-86800755D01*
X186088134Y-86794000D01*
X182991866Y-86794000D01*
X182929684Y-86800755D01*
X182793295Y-86851885D01*
X182676739Y-86939239D01*
X182589385Y-87055795D01*
X182538255Y-87192184D01*
X182531500Y-87254366D01*
X182531500Y-90350634D01*
X182538255Y-90412816D01*
X182589385Y-90549205D01*
X182676739Y-90665761D01*
X182793295Y-90753115D01*
X182929684Y-90804245D01*
X182991866Y-90811000D01*
X183304815Y-90811000D01*
X183372936Y-90831002D01*
X183419429Y-90884658D01*
X183429533Y-90954932D01*
X183400039Y-91019512D01*
X183383596Y-91035334D01*
X183327276Y-91080455D01*
X183177318Y-91200594D01*
X183119288Y-91261745D01*
X183037888Y-91347523D01*
X182988808Y-91399242D01*
X182829002Y-91621636D01*
X182700857Y-91863661D01*
X182699385Y-91867684D01*
X182699383Y-91867688D01*
X182692314Y-91887006D01*
X182606743Y-92120837D01*
X182548404Y-92388407D01*
X182548068Y-92392677D01*
X182528898Y-92636254D01*
X182526917Y-92661418D01*
X145268500Y-92661418D01*
X145268500Y-91384493D01*
X145288502Y-91316372D01*
X145342158Y-91269879D01*
X145363763Y-91262457D01*
X145370316Y-91261745D01*
X145377711Y-91258973D01*
X145377714Y-91258972D01*
X145498297Y-91213767D01*
X145506705Y-91210615D01*
X145623261Y-91123261D01*
X145710615Y-91006705D01*
X145746012Y-90912285D01*
X145758972Y-90877714D01*
X145758973Y-90877711D01*
X145761745Y-90870316D01*
X145762372Y-90864547D01*
X145797126Y-90803709D01*
X145860081Y-90770887D01*
X145884493Y-90768500D01*
X146980786Y-90768500D01*
X146982106Y-90768507D01*
X147072221Y-90769451D01*
X147114597Y-90760289D01*
X147127163Y-90758231D01*
X147170255Y-90753397D01*
X147176906Y-90751081D01*
X147176910Y-90751080D01*
X147201930Y-90742367D01*
X147216742Y-90738204D01*
X147242619Y-90732609D01*
X147249510Y-90731119D01*
X147288813Y-90712792D01*
X147300589Y-90708010D01*
X147341552Y-90693745D01*
X147347527Y-90690011D01*
X147347530Y-90690010D01*
X147369995Y-90675973D01*
X147383512Y-90668634D01*
X147407514Y-90657441D01*
X147407515Y-90657440D01*
X147413902Y-90654462D01*
X147448153Y-90627894D01*
X147458612Y-90620598D01*
X147489404Y-90601358D01*
X147489407Y-90601356D01*
X147495376Y-90597626D01*
X147524179Y-90569024D01*
X147524804Y-90568439D01*
X147525470Y-90567922D01*
X147551460Y-90541932D01*
X147624082Y-90469815D01*
X147624740Y-90468778D01*
X147625843Y-90467549D01*
X148133392Y-89960000D01*
X150766502Y-89960000D01*
X150786457Y-90188087D01*
X150787881Y-90193400D01*
X150787881Y-90193402D01*
X150830012Y-90350634D01*
X150845716Y-90409243D01*
X150848039Y-90414224D01*
X150848039Y-90414225D01*
X150940151Y-90611762D01*
X150940154Y-90611767D01*
X150942477Y-90616749D01*
X150981087Y-90671890D01*
X151049349Y-90769377D01*
X151073802Y-90804300D01*
X151235700Y-90966198D01*
X151240208Y-90969355D01*
X151240211Y-90969357D01*
X151262956Y-90985283D01*
X151423251Y-91097523D01*
X151428233Y-91099846D01*
X151428238Y-91099849D01*
X151625775Y-91191961D01*
X151630757Y-91194284D01*
X151636065Y-91195706D01*
X151636067Y-91195707D01*
X151846598Y-91252119D01*
X151846600Y-91252119D01*
X151851913Y-91253543D01*
X152080000Y-91273498D01*
X152308087Y-91253543D01*
X152313400Y-91252119D01*
X152313402Y-91252119D01*
X152523933Y-91195707D01*
X152523935Y-91195706D01*
X152529243Y-91194284D01*
X152534225Y-91191961D01*
X152731762Y-91099849D01*
X152731767Y-91099846D01*
X152736749Y-91097523D01*
X152897044Y-90985283D01*
X152919789Y-90969357D01*
X152919792Y-90969355D01*
X152924300Y-90966198D01*
X153086198Y-90804300D01*
X153110652Y-90769377D01*
X153178913Y-90671890D01*
X153217523Y-90616749D01*
X153219846Y-90611767D01*
X153219849Y-90611762D01*
X153311961Y-90414225D01*
X153311961Y-90414224D01*
X153314284Y-90409243D01*
X153329989Y-90350634D01*
X153367672Y-90210000D01*
X155996502Y-90210000D01*
X156016457Y-90438087D01*
X156017881Y-90443400D01*
X156017881Y-90443402D01*
X156065538Y-90621257D01*
X156075716Y-90659243D01*
X156078039Y-90664224D01*
X156078039Y-90664225D01*
X156170151Y-90861762D01*
X156170154Y-90861767D01*
X156172477Y-90866749D01*
X156234224Y-90954932D01*
X156270476Y-91006705D01*
X156303802Y-91054300D01*
X156465700Y-91216198D01*
X156470208Y-91219355D01*
X156470211Y-91219357D01*
X156473272Y-91221500D01*
X156653251Y-91347523D01*
X156658233Y-91349846D01*
X156658238Y-91349849D01*
X156855775Y-91441961D01*
X156860757Y-91444284D01*
X156866065Y-91445706D01*
X156866067Y-91445707D01*
X157076598Y-91502119D01*
X157076600Y-91502119D01*
X157081913Y-91503543D01*
X157310000Y-91523498D01*
X157538087Y-91503543D01*
X157543400Y-91502119D01*
X157543402Y-91502119D01*
X157753933Y-91445707D01*
X157753935Y-91445706D01*
X157759243Y-91444284D01*
X157764225Y-91441961D01*
X157961762Y-91349849D01*
X157961767Y-91349846D01*
X157966749Y-91347523D01*
X158146728Y-91221500D01*
X158149789Y-91219357D01*
X158149792Y-91219355D01*
X158154300Y-91216198D01*
X158316198Y-91054300D01*
X158349525Y-91006705D01*
X158385776Y-90954932D01*
X158447523Y-90866749D01*
X158449846Y-90861767D01*
X158449849Y-90861762D01*
X158541961Y-90664225D01*
X158541961Y-90664224D01*
X158544284Y-90659243D01*
X158554463Y-90621257D01*
X158602119Y-90443402D01*
X158602119Y-90443400D01*
X158603543Y-90438087D01*
X158623498Y-90210000D01*
X163616502Y-90210000D01*
X163636457Y-90438087D01*
X163637881Y-90443400D01*
X163637881Y-90443402D01*
X163685538Y-90621257D01*
X163695716Y-90659243D01*
X163698039Y-90664224D01*
X163698039Y-90664225D01*
X163790151Y-90861762D01*
X163790154Y-90861767D01*
X163792477Y-90866749D01*
X163854224Y-90954932D01*
X163890476Y-91006705D01*
X163923802Y-91054300D01*
X164085700Y-91216198D01*
X164090208Y-91219355D01*
X164090211Y-91219357D01*
X164093272Y-91221500D01*
X164273251Y-91347523D01*
X164278233Y-91349846D01*
X164278238Y-91349849D01*
X164475775Y-91441961D01*
X164480757Y-91444284D01*
X164486065Y-91445706D01*
X164486067Y-91445707D01*
X164696598Y-91502119D01*
X164696600Y-91502119D01*
X164701913Y-91503543D01*
X164930000Y-91523498D01*
X165158087Y-91503543D01*
X165163400Y-91502119D01*
X165163402Y-91502119D01*
X165373933Y-91445707D01*
X165373935Y-91445706D01*
X165379243Y-91444284D01*
X165384225Y-91441961D01*
X165581762Y-91349849D01*
X165581767Y-91349846D01*
X165586749Y-91347523D01*
X165766728Y-91221500D01*
X165769789Y-91219357D01*
X165769792Y-91219355D01*
X165774300Y-91216198D01*
X165936198Y-91054300D01*
X165969525Y-91006705D01*
X166005776Y-90954932D01*
X166067523Y-90866749D01*
X166069846Y-90861767D01*
X166069849Y-90861762D01*
X166161961Y-90664225D01*
X166161961Y-90664224D01*
X166164284Y-90659243D01*
X166174463Y-90621257D01*
X166222119Y-90443402D01*
X166222119Y-90443400D01*
X166223543Y-90438087D01*
X166243498Y-90210000D01*
X166223543Y-89981913D01*
X166222119Y-89976598D01*
X166165707Y-89766067D01*
X166165706Y-89766065D01*
X166164284Y-89760757D01*
X166148356Y-89726598D01*
X166069849Y-89558238D01*
X166069846Y-89558233D01*
X166067523Y-89553251D01*
X165936198Y-89365700D01*
X165936601Y-89365418D01*
X165909515Y-89303535D01*
X165908500Y-89287577D01*
X165908500Y-85764188D01*
X165928502Y-85696067D01*
X165945405Y-85675093D01*
X166106198Y-85514300D01*
X166237523Y-85326749D01*
X166239846Y-85321767D01*
X166239849Y-85321762D01*
X166331961Y-85124225D01*
X166331961Y-85124224D01*
X166334284Y-85119243D01*
X166343855Y-85083526D01*
X166392119Y-84903402D01*
X166392119Y-84903400D01*
X166393543Y-84898087D01*
X166413498Y-84670000D01*
X166393543Y-84441913D01*
X166391975Y-84436060D01*
X166335707Y-84226067D01*
X166335706Y-84226065D01*
X166334284Y-84220757D01*
X166292317Y-84130757D01*
X166239849Y-84018238D01*
X166239846Y-84018233D01*
X166237523Y-84013251D01*
X166106198Y-83825700D01*
X165945405Y-83664907D01*
X165911379Y-83602595D01*
X165908500Y-83575812D01*
X165908500Y-83534756D01*
X165915389Y-83494455D01*
X165917421Y-83490251D01*
X165924966Y-83457572D01*
X165929334Y-83442825D01*
X165929461Y-83442477D01*
X165940803Y-83411315D01*
X165941685Y-83404330D01*
X165941687Y-83404323D01*
X165946237Y-83368308D01*
X165948472Y-83355757D01*
X165956640Y-83320378D01*
X165958225Y-83313515D01*
X165958305Y-83290757D01*
X165958367Y-83272926D01*
X165958396Y-83272057D01*
X165958500Y-83271231D01*
X165958500Y-83234714D01*
X165958535Y-83224610D01*
X165958846Y-83135664D01*
X165958846Y-83135658D01*
X165958858Y-83132130D01*
X165958589Y-83130927D01*
X165958500Y-83129283D01*
X165958500Y-79524188D01*
X165978502Y-79456067D01*
X165980234Y-79453918D01*
X182576917Y-79453918D01*
X182592682Y-79727320D01*
X182593507Y-79731525D01*
X182593508Y-79731533D01*
X182614522Y-79838642D01*
X182645405Y-79996053D01*
X182646792Y-80000103D01*
X182646793Y-80000108D01*
X182732723Y-80251088D01*
X182734112Y-80255144D01*
X182857160Y-80499799D01*
X182859586Y-80503328D01*
X182859589Y-80503334D01*
X183009843Y-80721953D01*
X183012274Y-80725490D01*
X183196582Y-80928043D01*
X183406675Y-81103707D01*
X183410316Y-81105991D01*
X183635024Y-81246951D01*
X183635028Y-81246953D01*
X183638664Y-81249234D01*
X183706544Y-81279883D01*
X183884345Y-81360164D01*
X183884349Y-81360166D01*
X183888257Y-81361930D01*
X183892377Y-81363150D01*
X183892376Y-81363150D01*
X184146723Y-81438491D01*
X184146727Y-81438492D01*
X184150836Y-81439709D01*
X184155070Y-81440357D01*
X184155075Y-81440358D01*
X184417298Y-81480483D01*
X184417300Y-81480483D01*
X184421540Y-81481132D01*
X184560912Y-81483322D01*
X184691071Y-81485367D01*
X184691077Y-81485367D01*
X184695362Y-81485434D01*
X184967235Y-81452534D01*
X185232127Y-81383041D01*
X185236087Y-81381401D01*
X185236092Y-81381399D01*
X185358632Y-81330641D01*
X185485136Y-81278241D01*
X185721582Y-81140073D01*
X185937089Y-80971094D01*
X185961388Y-80946020D01*
X186061059Y-80843167D01*
X186127669Y-80774431D01*
X186130202Y-80770983D01*
X186130206Y-80770978D01*
X186287257Y-80557178D01*
X186289795Y-80553723D01*
X186317154Y-80503334D01*
X186418418Y-80316830D01*
X186418419Y-80316828D01*
X186420468Y-80313054D01*
X186517269Y-80056877D01*
X186578407Y-79789933D01*
X186583025Y-79738197D01*
X186602531Y-79519627D01*
X186602531Y-79519625D01*
X186602751Y-79517161D01*
X186603193Y-79475000D01*
X186600548Y-79436198D01*
X186584859Y-79206055D01*
X186584858Y-79206049D01*
X186584567Y-79201778D01*
X186529032Y-78933612D01*
X186437617Y-78675465D01*
X186312013Y-78432112D01*
X186302040Y-78417921D01*
X186185691Y-78252374D01*
X186154545Y-78208057D01*
X186036126Y-78080623D01*
X185971046Y-78010588D01*
X185971043Y-78010585D01*
X185968125Y-78007445D01*
X185964810Y-78004731D01*
X185964806Y-78004728D01*
X185759523Y-77836706D01*
X185756205Y-77833990D01*
X185753095Y-77832084D01*
X185709251Y-77776439D01*
X185702436Y-77705771D01*
X185734909Y-77642636D01*
X185796360Y-77607080D01*
X185826181Y-77603500D01*
X186138134Y-77603500D01*
X186200316Y-77596745D01*
X186336705Y-77545615D01*
X186453261Y-77458261D01*
X186540615Y-77341705D01*
X186591745Y-77205316D01*
X186598500Y-77143134D01*
X186598500Y-74046866D01*
X186591745Y-73984684D01*
X186540615Y-73848295D01*
X186453261Y-73731739D01*
X186336705Y-73644385D01*
X186200316Y-73593255D01*
X186138134Y-73586500D01*
X183041866Y-73586500D01*
X182979684Y-73593255D01*
X182843295Y-73644385D01*
X182726739Y-73731739D01*
X182639385Y-73848295D01*
X182588255Y-73984684D01*
X182581500Y-74046866D01*
X182581500Y-77143134D01*
X182588255Y-77205316D01*
X182639385Y-77341705D01*
X182726739Y-77458261D01*
X182843295Y-77545615D01*
X182979684Y-77596745D01*
X183041866Y-77603500D01*
X183354815Y-77603500D01*
X183422936Y-77623502D01*
X183469429Y-77677158D01*
X183479533Y-77747432D01*
X183450039Y-77812012D01*
X183433596Y-77827834D01*
X183227318Y-77993094D01*
X183116221Y-78110166D01*
X183068940Y-78159990D01*
X183038808Y-78191742D01*
X182879002Y-78414136D01*
X182750857Y-78656161D01*
X182749385Y-78660184D01*
X182749383Y-78660188D01*
X182658214Y-78909317D01*
X182656743Y-78913337D01*
X182598404Y-79180907D01*
X182576917Y-79453918D01*
X165980234Y-79453918D01*
X165995405Y-79435093D01*
X166156198Y-79274300D01*
X166287523Y-79086749D01*
X166289846Y-79081767D01*
X166289849Y-79081762D01*
X166381961Y-78884225D01*
X166381961Y-78884224D01*
X166384284Y-78879243D01*
X166441050Y-78667393D01*
X166442119Y-78663402D01*
X166442119Y-78663400D01*
X166443543Y-78658087D01*
X166463498Y-78430000D01*
X166443543Y-78201913D01*
X166439985Y-78188633D01*
X166385707Y-77986067D01*
X166385706Y-77986065D01*
X166384284Y-77980757D01*
X166340891Y-77887699D01*
X166289849Y-77778238D01*
X166289846Y-77778233D01*
X166287523Y-77773251D01*
X166208002Y-77659684D01*
X166159357Y-77590211D01*
X166159355Y-77590208D01*
X166156198Y-77585700D01*
X165994300Y-77423802D01*
X165989792Y-77420645D01*
X165989789Y-77420643D01*
X165887316Y-77348891D01*
X165806749Y-77292477D01*
X165801767Y-77290154D01*
X165801762Y-77290151D01*
X165604225Y-77198039D01*
X165604224Y-77198039D01*
X165599243Y-77195716D01*
X165593935Y-77194294D01*
X165593933Y-77194293D01*
X165383402Y-77137881D01*
X165383400Y-77137881D01*
X165378087Y-77136457D01*
X165150000Y-77116502D01*
X164921913Y-77136457D01*
X164916600Y-77137881D01*
X164916598Y-77137881D01*
X164706067Y-77194293D01*
X164706065Y-77194294D01*
X164700757Y-77195716D01*
X164695776Y-77198039D01*
X164695775Y-77198039D01*
X164498238Y-77290151D01*
X164498233Y-77290154D01*
X164493251Y-77292477D01*
X164412684Y-77348891D01*
X164310211Y-77420643D01*
X164310208Y-77420645D01*
X164305700Y-77423802D01*
X164143802Y-77585700D01*
X164140645Y-77590208D01*
X164140643Y-77590211D01*
X164091998Y-77659684D01*
X164012477Y-77773251D01*
X164010154Y-77778233D01*
X164010151Y-77778238D01*
X163959109Y-77887699D01*
X163915716Y-77980757D01*
X163914294Y-77986065D01*
X163914293Y-77986067D01*
X163860015Y-78188633D01*
X163856457Y-78201913D01*
X163836502Y-78430000D01*
X163856457Y-78658087D01*
X163857881Y-78663400D01*
X163857881Y-78663402D01*
X163858951Y-78667393D01*
X163915716Y-78879243D01*
X163918039Y-78884224D01*
X163918039Y-78884225D01*
X164010151Y-79081762D01*
X164010154Y-79081767D01*
X164012477Y-79086749D01*
X164143802Y-79274300D01*
X164304595Y-79435093D01*
X164338621Y-79497405D01*
X164341500Y-79524188D01*
X164341500Y-82955243D01*
X164334610Y-82995548D01*
X164332579Y-82999749D01*
X164325278Y-83031375D01*
X164325035Y-83032426D01*
X164320668Y-83047169D01*
X164309197Y-83078685D01*
X164308314Y-83085675D01*
X164308312Y-83085683D01*
X164303762Y-83121701D01*
X164301526Y-83134253D01*
X164301201Y-83135664D01*
X164291776Y-83176485D01*
X164291751Y-83183531D01*
X164291751Y-83183534D01*
X164291634Y-83217056D01*
X164291605Y-83217938D01*
X164291500Y-83218769D01*
X164291500Y-83255572D01*
X164291143Y-83357870D01*
X164291411Y-83359070D01*
X164291500Y-83360707D01*
X164291500Y-83575812D01*
X164271498Y-83643933D01*
X164254595Y-83664907D01*
X164093802Y-83825700D01*
X163962477Y-84013251D01*
X163960154Y-84018233D01*
X163960151Y-84018238D01*
X163907683Y-84130757D01*
X163865716Y-84220757D01*
X163864294Y-84226065D01*
X163864293Y-84226067D01*
X163808025Y-84436060D01*
X163806457Y-84441913D01*
X163786502Y-84670000D01*
X163806457Y-84898087D01*
X163807881Y-84903400D01*
X163807881Y-84903402D01*
X163856146Y-85083526D01*
X163865716Y-85119243D01*
X163868039Y-85124224D01*
X163868039Y-85124225D01*
X163960151Y-85321762D01*
X163960154Y-85321767D01*
X163962477Y-85326749D01*
X164093802Y-85514300D01*
X164254595Y-85675093D01*
X164288621Y-85737405D01*
X164291500Y-85764188D01*
X164291500Y-88994107D01*
X164271498Y-89062228D01*
X164237771Y-89097320D01*
X164090211Y-89200643D01*
X164090208Y-89200645D01*
X164085700Y-89203802D01*
X163923802Y-89365700D01*
X163792477Y-89553251D01*
X163790154Y-89558233D01*
X163790151Y-89558238D01*
X163711644Y-89726598D01*
X163695716Y-89760757D01*
X163694294Y-89766065D01*
X163694293Y-89766067D01*
X163637881Y-89976598D01*
X163636457Y-89981913D01*
X163616502Y-90210000D01*
X158623498Y-90210000D01*
X158603543Y-89981913D01*
X158602119Y-89976598D01*
X158545707Y-89766067D01*
X158545706Y-89766065D01*
X158544284Y-89760757D01*
X158528356Y-89726598D01*
X158449849Y-89558238D01*
X158449846Y-89558233D01*
X158447523Y-89553251D01*
X158316198Y-89365700D01*
X158154300Y-89203802D01*
X158149792Y-89200645D01*
X158149789Y-89200643D01*
X158034920Y-89120211D01*
X157966749Y-89072477D01*
X157961767Y-89070154D01*
X157961762Y-89070151D01*
X157764225Y-88978039D01*
X157764224Y-88978039D01*
X157759243Y-88975716D01*
X157753935Y-88974294D01*
X157753933Y-88974293D01*
X157543402Y-88917881D01*
X157543400Y-88917881D01*
X157538087Y-88916457D01*
X157310000Y-88896502D01*
X157081913Y-88916457D01*
X157076600Y-88917881D01*
X157076598Y-88917881D01*
X156866067Y-88974293D01*
X156866065Y-88974294D01*
X156860757Y-88975716D01*
X156855776Y-88978039D01*
X156855775Y-88978039D01*
X156658238Y-89070151D01*
X156658233Y-89070154D01*
X156653251Y-89072477D01*
X156585080Y-89120211D01*
X156470211Y-89200643D01*
X156470208Y-89200645D01*
X156465700Y-89203802D01*
X156303802Y-89365700D01*
X156172477Y-89553251D01*
X156170154Y-89558233D01*
X156170151Y-89558238D01*
X156091644Y-89726598D01*
X156075716Y-89760757D01*
X156074294Y-89766065D01*
X156074293Y-89766067D01*
X156017881Y-89976598D01*
X156016457Y-89981913D01*
X155996502Y-90210000D01*
X153367672Y-90210000D01*
X153372119Y-90193402D01*
X153372119Y-90193400D01*
X153373543Y-90188087D01*
X153393498Y-89960000D01*
X153373543Y-89731913D01*
X153325670Y-89553251D01*
X153315707Y-89516067D01*
X153315706Y-89516065D01*
X153314284Y-89510757D01*
X153248747Y-89370211D01*
X153219849Y-89308238D01*
X153219846Y-89308233D01*
X153217523Y-89303251D01*
X153086198Y-89115700D01*
X152924300Y-88953802D01*
X152919792Y-88950645D01*
X152919789Y-88950643D01*
X152841611Y-88895902D01*
X152736749Y-88822477D01*
X152731767Y-88820154D01*
X152731762Y-88820151D01*
X152534225Y-88728039D01*
X152534224Y-88728039D01*
X152529243Y-88725716D01*
X152523935Y-88724294D01*
X152523933Y-88724293D01*
X152313402Y-88667881D01*
X152313400Y-88667881D01*
X152308087Y-88666457D01*
X152080000Y-88646502D01*
X151851913Y-88666457D01*
X151846600Y-88667881D01*
X151846598Y-88667881D01*
X151636067Y-88724293D01*
X151636065Y-88724294D01*
X151630757Y-88725716D01*
X151625776Y-88728039D01*
X151625775Y-88728039D01*
X151428238Y-88820151D01*
X151428233Y-88820154D01*
X151423251Y-88822477D01*
X151318389Y-88895902D01*
X151240211Y-88950643D01*
X151240208Y-88950645D01*
X151235700Y-88953802D01*
X151073802Y-89115700D01*
X150942477Y-89303251D01*
X150940154Y-89308233D01*
X150940151Y-89308238D01*
X150911253Y-89370211D01*
X150845716Y-89510757D01*
X150844294Y-89516065D01*
X150844293Y-89516067D01*
X150834330Y-89553251D01*
X150786457Y-89731913D01*
X150766502Y-89960000D01*
X148133392Y-89960000D01*
X152172032Y-85921360D01*
X152234344Y-85887334D01*
X152272108Y-85884934D01*
X152364524Y-85893019D01*
X152364525Y-85893019D01*
X152370000Y-85893498D01*
X152598087Y-85873543D01*
X152603400Y-85872119D01*
X152603402Y-85872119D01*
X152813933Y-85815707D01*
X152813935Y-85815706D01*
X152819243Y-85814284D01*
X152833742Y-85807523D01*
X153021762Y-85719849D01*
X153021767Y-85719846D01*
X153026749Y-85717523D01*
X153131611Y-85644098D01*
X153209789Y-85589357D01*
X153209792Y-85589355D01*
X153214300Y-85586198D01*
X153376198Y-85424300D01*
X153507523Y-85236749D01*
X153509846Y-85231767D01*
X153509849Y-85231762D01*
X153601961Y-85034225D01*
X153601961Y-85034224D01*
X153604284Y-85029243D01*
X153610195Y-85007185D01*
X153662119Y-84813402D01*
X153662119Y-84813400D01*
X153663543Y-84808087D01*
X153675624Y-84670000D01*
X156166502Y-84670000D01*
X156186457Y-84898087D01*
X156187881Y-84903400D01*
X156187881Y-84903402D01*
X156236146Y-85083526D01*
X156245716Y-85119243D01*
X156248039Y-85124224D01*
X156248039Y-85124225D01*
X156340151Y-85321762D01*
X156340154Y-85321767D01*
X156342477Y-85326749D01*
X156473802Y-85514300D01*
X156635700Y-85676198D01*
X156640208Y-85679355D01*
X156640211Y-85679357D01*
X156690209Y-85714366D01*
X156823251Y-85807523D01*
X156828233Y-85809846D01*
X156828238Y-85809849D01*
X156994407Y-85887334D01*
X157030757Y-85904284D01*
X157036065Y-85905706D01*
X157036067Y-85905707D01*
X157246598Y-85962119D01*
X157246600Y-85962119D01*
X157251913Y-85963543D01*
X157480000Y-85983498D01*
X157708087Y-85963543D01*
X157713400Y-85962119D01*
X157713402Y-85962119D01*
X157923933Y-85905707D01*
X157923935Y-85905706D01*
X157929243Y-85904284D01*
X157965593Y-85887334D01*
X158131762Y-85809849D01*
X158131767Y-85809846D01*
X158136749Y-85807523D01*
X158269791Y-85714366D01*
X158319789Y-85679357D01*
X158319792Y-85679355D01*
X158324300Y-85676198D01*
X158486198Y-85514300D01*
X158617523Y-85326749D01*
X158619846Y-85321767D01*
X158619849Y-85321762D01*
X158711961Y-85124225D01*
X158711961Y-85124224D01*
X158714284Y-85119243D01*
X158723855Y-85083526D01*
X158772119Y-84903402D01*
X158772119Y-84903400D01*
X158773543Y-84898087D01*
X158793498Y-84670000D01*
X158773543Y-84441913D01*
X158771975Y-84436060D01*
X158715707Y-84226067D01*
X158715706Y-84226065D01*
X158714284Y-84220757D01*
X158672317Y-84130757D01*
X158619849Y-84018238D01*
X158619846Y-84018233D01*
X158617523Y-84013251D01*
X158486198Y-83825700D01*
X158324300Y-83663802D01*
X158319792Y-83660645D01*
X158319789Y-83660643D01*
X158236888Y-83602595D01*
X158136749Y-83532477D01*
X158131767Y-83530154D01*
X158131762Y-83530151D01*
X157934225Y-83438039D01*
X157934224Y-83438039D01*
X157929243Y-83435716D01*
X157923935Y-83434294D01*
X157923933Y-83434293D01*
X157713402Y-83377881D01*
X157713400Y-83377881D01*
X157708087Y-83376457D01*
X157480000Y-83356502D01*
X157251913Y-83376457D01*
X157246600Y-83377881D01*
X157246598Y-83377881D01*
X157036067Y-83434293D01*
X157036065Y-83434294D01*
X157030757Y-83435716D01*
X157025776Y-83438039D01*
X157025775Y-83438039D01*
X156828238Y-83530151D01*
X156828233Y-83530154D01*
X156823251Y-83532477D01*
X156723112Y-83602595D01*
X156640211Y-83660643D01*
X156640208Y-83660645D01*
X156635700Y-83663802D01*
X156473802Y-83825700D01*
X156342477Y-84013251D01*
X156340154Y-84018233D01*
X156340151Y-84018238D01*
X156287683Y-84130757D01*
X156245716Y-84220757D01*
X156244294Y-84226065D01*
X156244293Y-84226067D01*
X156188025Y-84436060D01*
X156186457Y-84441913D01*
X156166502Y-84670000D01*
X153675624Y-84670000D01*
X153683498Y-84580000D01*
X153663543Y-84351913D01*
X153659715Y-84337626D01*
X153605707Y-84136067D01*
X153605706Y-84136065D01*
X153604284Y-84130757D01*
X153593504Y-84107639D01*
X153509849Y-83928238D01*
X153509846Y-83928233D01*
X153507523Y-83923251D01*
X153376198Y-83735700D01*
X153214300Y-83573802D01*
X153209792Y-83570645D01*
X153209789Y-83570643D01*
X153118323Y-83506598D01*
X153026749Y-83442477D01*
X153021767Y-83440154D01*
X153021762Y-83440151D01*
X152824225Y-83348039D01*
X152824224Y-83348039D01*
X152819243Y-83345716D01*
X152813935Y-83344294D01*
X152813933Y-83344293D01*
X152603402Y-83287881D01*
X152603400Y-83287881D01*
X152598087Y-83286457D01*
X152370000Y-83266502D01*
X152141913Y-83286457D01*
X152136600Y-83287881D01*
X152136598Y-83287881D01*
X151926067Y-83344293D01*
X151926065Y-83344294D01*
X151920757Y-83345716D01*
X151915776Y-83348039D01*
X151915775Y-83348039D01*
X151718238Y-83440151D01*
X151718233Y-83440154D01*
X151713251Y-83442477D01*
X151621677Y-83506598D01*
X151530211Y-83570643D01*
X151530208Y-83570645D01*
X151525700Y-83573802D01*
X151363802Y-83735700D01*
X151232477Y-83923251D01*
X151230154Y-83928233D01*
X151230151Y-83928238D01*
X151146496Y-84107639D01*
X151135716Y-84130757D01*
X151134294Y-84136065D01*
X151134293Y-84136067D01*
X151080285Y-84337626D01*
X151076457Y-84351913D01*
X151056502Y-84580000D01*
X151056981Y-84585475D01*
X151056981Y-84585476D01*
X151065066Y-84677892D01*
X151051076Y-84747497D01*
X151028640Y-84777968D01*
X146692013Y-89114595D01*
X146629701Y-89148621D01*
X146602918Y-89151500D01*
X145884493Y-89151500D01*
X145816372Y-89131498D01*
X145769879Y-89077842D01*
X145762457Y-89056237D01*
X145761745Y-89049684D01*
X145758972Y-89042285D01*
X145713767Y-88921703D01*
X145710615Y-88913295D01*
X145623261Y-88796739D01*
X145506705Y-88709385D01*
X145370316Y-88658255D01*
X145308134Y-88651500D01*
X143611866Y-88651500D01*
X143549684Y-88658255D01*
X143413295Y-88709385D01*
X143296739Y-88796739D01*
X143209385Y-88913295D01*
X143158255Y-89049684D01*
X143151500Y-89111866D01*
X143151500Y-90808134D01*
X143158255Y-90870316D01*
X143209385Y-91006705D01*
X143296739Y-91123261D01*
X143413295Y-91210615D01*
X143421703Y-91213767D01*
X143542286Y-91258972D01*
X143542289Y-91258973D01*
X143549684Y-91261745D01*
X143555453Y-91262372D01*
X143616291Y-91297126D01*
X143649113Y-91360081D01*
X143651500Y-91384493D01*
X143651500Y-92865507D01*
X143631498Y-92933628D01*
X143577842Y-92980121D01*
X143556237Y-92987543D01*
X143549684Y-92988255D01*
X143542289Y-92991027D01*
X143542286Y-92991028D01*
X143427978Y-93033880D01*
X143413295Y-93039385D01*
X143296739Y-93126739D01*
X143209385Y-93243295D01*
X143158255Y-93379684D01*
X143151500Y-93441866D01*
X143151500Y-95138134D01*
X121857158Y-95138134D01*
X121858225Y-95133515D01*
X121858367Y-95092928D01*
X121858396Y-95092058D01*
X121858500Y-95091231D01*
X121858500Y-95054590D01*
X121858857Y-94952130D01*
X121858589Y-94950930D01*
X121858500Y-94949292D01*
X121858500Y-94734188D01*
X121878502Y-94666067D01*
X121895405Y-94645093D01*
X122056198Y-94484300D01*
X122074264Y-94458500D01*
X122150420Y-94349737D01*
X122187523Y-94296749D01*
X122189846Y-94291767D01*
X122189849Y-94291762D01*
X122281961Y-94094225D01*
X122281961Y-94094224D01*
X122284284Y-94089243D01*
X122313039Y-93981931D01*
X122342119Y-93873402D01*
X122342119Y-93873400D01*
X122343543Y-93868087D01*
X122363498Y-93640000D01*
X122343543Y-93411913D01*
X122310260Y-93287699D01*
X122285707Y-93196067D01*
X122285706Y-93196065D01*
X122284284Y-93190757D01*
X122265349Y-93150151D01*
X122231767Y-93078134D01*
X124923823Y-93078134D01*
X124930578Y-93140316D01*
X124981708Y-93276705D01*
X125069062Y-93393261D01*
X125185618Y-93480615D01*
X125322007Y-93531745D01*
X125384189Y-93538500D01*
X127480457Y-93538500D01*
X127542639Y-93531745D01*
X127679028Y-93480615D01*
X127795584Y-93393261D01*
X127882938Y-93276705D01*
X127934068Y-93140316D01*
X127940823Y-93078134D01*
X127940823Y-92964500D01*
X127960825Y-92896379D01*
X128014481Y-92849886D01*
X128066823Y-92838500D01*
X129503086Y-92838500D01*
X129504406Y-92838507D01*
X129594521Y-92839451D01*
X129636897Y-92830289D01*
X129649463Y-92828231D01*
X129692555Y-92823397D01*
X129699206Y-92821081D01*
X129699210Y-92821080D01*
X129724230Y-92812367D01*
X129739042Y-92808204D01*
X129764919Y-92802609D01*
X129771810Y-92801119D01*
X129811113Y-92782792D01*
X129822889Y-92778010D01*
X129863852Y-92763745D01*
X129869827Y-92760011D01*
X129869830Y-92760010D01*
X129892295Y-92745973D01*
X129905812Y-92738634D01*
X129929814Y-92727441D01*
X129929815Y-92727440D01*
X129936202Y-92724462D01*
X129970453Y-92697894D01*
X129980912Y-92690598D01*
X130011704Y-92671358D01*
X130011707Y-92671356D01*
X130017676Y-92667626D01*
X130046479Y-92639024D01*
X130047104Y-92638439D01*
X130047770Y-92637922D01*
X130073760Y-92611932D01*
X130146382Y-92539815D01*
X130147040Y-92538778D01*
X130148143Y-92537549D01*
X137712418Y-84973274D01*
X137774730Y-84939248D01*
X137845545Y-84944313D01*
X137854762Y-84948174D01*
X137905770Y-84971959D01*
X137905775Y-84971961D01*
X137910757Y-84974284D01*
X137916065Y-84975706D01*
X137916067Y-84975707D01*
X138126598Y-85032119D01*
X138126600Y-85032119D01*
X138131913Y-85033543D01*
X138360000Y-85053498D01*
X138588087Y-85033543D01*
X138593400Y-85032119D01*
X138593402Y-85032119D01*
X138803933Y-84975707D01*
X138803935Y-84975706D01*
X138809243Y-84974284D01*
X138825089Y-84966895D01*
X139011762Y-84879849D01*
X139011767Y-84879846D01*
X139016749Y-84877523D01*
X139158928Y-84777968D01*
X139199789Y-84749357D01*
X139199792Y-84749355D01*
X139204300Y-84746198D01*
X139366198Y-84584300D01*
X139497523Y-84396749D01*
X139499846Y-84391767D01*
X139499849Y-84391762D01*
X139591961Y-84194225D01*
X139591961Y-84194224D01*
X139594284Y-84189243D01*
X139609956Y-84130757D01*
X139652119Y-83973402D01*
X139652119Y-83973400D01*
X139653543Y-83968087D01*
X139673498Y-83740000D01*
X139653543Y-83511913D01*
X139636875Y-83449707D01*
X139595707Y-83296067D01*
X139595706Y-83296065D01*
X139594284Y-83290757D01*
X139591961Y-83285775D01*
X139499849Y-83088238D01*
X139499846Y-83088233D01*
X139497523Y-83083251D01*
X139366198Y-82895700D01*
X139204300Y-82733802D01*
X139199792Y-82730645D01*
X139199789Y-82730643D01*
X139121611Y-82675902D01*
X139016749Y-82602477D01*
X139011767Y-82600154D01*
X139011762Y-82600151D01*
X138814225Y-82508039D01*
X138814224Y-82508039D01*
X138809243Y-82505716D01*
X138803935Y-82504294D01*
X138803933Y-82504293D01*
X138593402Y-82447881D01*
X138593400Y-82447881D01*
X138588087Y-82446457D01*
X138360000Y-82426502D01*
X138131913Y-82446457D01*
X138126600Y-82447881D01*
X138126598Y-82447881D01*
X137916067Y-82504293D01*
X137916065Y-82504294D01*
X137910757Y-82505716D01*
X137905776Y-82508039D01*
X137905775Y-82508039D01*
X137708238Y-82600151D01*
X137708233Y-82600154D01*
X137703251Y-82602477D01*
X137598389Y-82675902D01*
X137520211Y-82730643D01*
X137520208Y-82730645D01*
X137515700Y-82733802D01*
X137353802Y-82895700D01*
X137222477Y-83083251D01*
X137220154Y-83088233D01*
X137220151Y-83088238D01*
X137150450Y-83237714D01*
X137125350Y-83273559D01*
X129214313Y-91184595D01*
X129152001Y-91218621D01*
X129125218Y-91221500D01*
X128066823Y-91221500D01*
X127998702Y-91201498D01*
X127952209Y-91147842D01*
X127940823Y-91095500D01*
X127940823Y-90981866D01*
X127934068Y-90919684D01*
X127882938Y-90783295D01*
X127795584Y-90666739D01*
X127679028Y-90579385D01*
X127542639Y-90528255D01*
X127480457Y-90521500D01*
X125384189Y-90521500D01*
X125322007Y-90528255D01*
X125185618Y-90579385D01*
X125069062Y-90666739D01*
X124981708Y-90783295D01*
X124930578Y-90919684D01*
X124923823Y-90981866D01*
X124923823Y-93078134D01*
X122231767Y-93078134D01*
X122189849Y-92988238D01*
X122189846Y-92988233D01*
X122187523Y-92983251D01*
X122078976Y-92828230D01*
X122059357Y-92800211D01*
X122059355Y-92800208D01*
X122056198Y-92795700D01*
X121894300Y-92633802D01*
X121889792Y-92630645D01*
X121889789Y-92630643D01*
X121811611Y-92575902D01*
X121706749Y-92502477D01*
X121701767Y-92500154D01*
X121701762Y-92500151D01*
X121504225Y-92408039D01*
X121504224Y-92408039D01*
X121499243Y-92405716D01*
X121493935Y-92404294D01*
X121493933Y-92404293D01*
X121283402Y-92347881D01*
X121283400Y-92347881D01*
X121278087Y-92346457D01*
X121050000Y-92326502D01*
X120821913Y-92346457D01*
X120816600Y-92347881D01*
X120816598Y-92347881D01*
X120606067Y-92404293D01*
X120606065Y-92404294D01*
X120600757Y-92405716D01*
X120595776Y-92408039D01*
X120595775Y-92408039D01*
X120398238Y-92500151D01*
X120398233Y-92500154D01*
X120393251Y-92502477D01*
X120288389Y-92575902D01*
X120210211Y-92630643D01*
X120210208Y-92630645D01*
X120205700Y-92633802D01*
X120043802Y-92795700D01*
X120040645Y-92800208D01*
X120040643Y-92800211D01*
X120021024Y-92828230D01*
X119912477Y-92983251D01*
X119910154Y-92988233D01*
X119910151Y-92988238D01*
X119834651Y-93150151D01*
X119815716Y-93190757D01*
X119814294Y-93196065D01*
X119814293Y-93196067D01*
X119789740Y-93287699D01*
X119756457Y-93411913D01*
X119736502Y-93640000D01*
X119756457Y-93868087D01*
X119757881Y-93873400D01*
X119757881Y-93873402D01*
X119786962Y-93981931D01*
X119815716Y-94089243D01*
X119818039Y-94094224D01*
X119818039Y-94094225D01*
X119910151Y-94291762D01*
X119910154Y-94291767D01*
X119912477Y-94296749D01*
X119949580Y-94349737D01*
X120025737Y-94458500D01*
X120043802Y-94484300D01*
X120163960Y-94604458D01*
X120197986Y-94666770D01*
X120192921Y-94737585D01*
X120163960Y-94782648D01*
X116171442Y-98775166D01*
X116170505Y-98776094D01*
X116106093Y-98839171D01*
X116082602Y-98875621D01*
X116075183Y-98885946D01*
X116048124Y-98919843D01*
X116045059Y-98926184D01*
X116045058Y-98926185D01*
X116033528Y-98950037D01*
X116025999Y-98963454D01*
X116007835Y-98991638D01*
X116005427Y-98998255D01*
X116005424Y-98998260D01*
X115993008Y-99032373D01*
X115988047Y-99044116D01*
X115972246Y-99076803D01*
X115972244Y-99076808D01*
X115969179Y-99083149D01*
X115967596Y-99090007D01*
X115967595Y-99090009D01*
X115961635Y-99115826D01*
X115957268Y-99130569D01*
X115945797Y-99162085D01*
X115944914Y-99169075D01*
X115944912Y-99169083D01*
X115940362Y-99205101D01*
X115938126Y-99217653D01*
X115936712Y-99223781D01*
X115928376Y-99259885D01*
X115928351Y-99266931D01*
X115928351Y-99266934D01*
X115928234Y-99300456D01*
X115928205Y-99301338D01*
X115928100Y-99302169D01*
X115928100Y-99338972D01*
X115927743Y-99441270D01*
X115928011Y-99442470D01*
X115928100Y-99444107D01*
X115928100Y-101184418D01*
X115908098Y-101252539D01*
X115891195Y-101273514D01*
X115000112Y-102164596D01*
X114937800Y-102198621D01*
X114911017Y-102201500D01*
X103967082Y-102201500D01*
X103898961Y-102181498D01*
X103877987Y-102164595D01*
X97895405Y-96182013D01*
X97861379Y-96119701D01*
X97858500Y-96092918D01*
X97858500Y-94734188D01*
X97878502Y-94666067D01*
X97895405Y-94645093D01*
X98056198Y-94484300D01*
X98074264Y-94458500D01*
X98150420Y-94349737D01*
X98187523Y-94296749D01*
X98189846Y-94291767D01*
X98189849Y-94291762D01*
X98281961Y-94094225D01*
X98281961Y-94094224D01*
X98284284Y-94089243D01*
X98313039Y-93981931D01*
X98342119Y-93873402D01*
X98342119Y-93873400D01*
X98343543Y-93868087D01*
X98363498Y-93640000D01*
X103356502Y-93640000D01*
X103376457Y-93868087D01*
X103377881Y-93873400D01*
X103377881Y-93873402D01*
X103406962Y-93981931D01*
X103435716Y-94089243D01*
X103438039Y-94094224D01*
X103438039Y-94094225D01*
X103530151Y-94291762D01*
X103530154Y-94291767D01*
X103532477Y-94296749D01*
X103569580Y-94349737D01*
X103645737Y-94458500D01*
X103663802Y-94484300D01*
X103824595Y-94645093D01*
X103858621Y-94707405D01*
X103861500Y-94734188D01*
X103861500Y-99409353D01*
X103841498Y-99477474D01*
X103824595Y-99498448D01*
X103741852Y-99581191D01*
X103620714Y-99754195D01*
X103531458Y-99945605D01*
X103476796Y-100149606D01*
X103458389Y-100360000D01*
X103476796Y-100570394D01*
X103531458Y-100774395D01*
X103620714Y-100965805D01*
X103741852Y-101138809D01*
X103891191Y-101288148D01*
X103895699Y-101291305D01*
X103895702Y-101291307D01*
X104059685Y-101406129D01*
X104064194Y-101409286D01*
X104069176Y-101411609D01*
X104069181Y-101411612D01*
X104250623Y-101496219D01*
X104255605Y-101498542D01*
X104260913Y-101499964D01*
X104260915Y-101499965D01*
X104454291Y-101551780D01*
X104454293Y-101551780D01*
X104459606Y-101553204D01*
X104670000Y-101571611D01*
X104880394Y-101553204D01*
X104885707Y-101551780D01*
X104885709Y-101551780D01*
X105079085Y-101499965D01*
X105079087Y-101499964D01*
X105084395Y-101498542D01*
X105089377Y-101496219D01*
X105270819Y-101411612D01*
X105270824Y-101411609D01*
X105275806Y-101409286D01*
X105280315Y-101406129D01*
X105444298Y-101291307D01*
X105444301Y-101291305D01*
X105448809Y-101288148D01*
X105598148Y-101138809D01*
X105719286Y-100965805D01*
X105808542Y-100774395D01*
X105863204Y-100570394D01*
X105881611Y-100360000D01*
X105863204Y-100149606D01*
X105808542Y-99945605D01*
X105719286Y-99754195D01*
X105598148Y-99581191D01*
X105515405Y-99498448D01*
X105481379Y-99436136D01*
X105478500Y-99409353D01*
X105478500Y-94734188D01*
X105498502Y-94666067D01*
X105515405Y-94645093D01*
X105676198Y-94484300D01*
X105694264Y-94458500D01*
X105770420Y-94349737D01*
X105807523Y-94296749D01*
X105809846Y-94291767D01*
X105809849Y-94291762D01*
X105901961Y-94094225D01*
X105901961Y-94094224D01*
X105904284Y-94089243D01*
X105933039Y-93981931D01*
X105962119Y-93873402D01*
X105962119Y-93873400D01*
X105963543Y-93868087D01*
X105983498Y-93640000D01*
X112116502Y-93640000D01*
X112136457Y-93868087D01*
X112137881Y-93873400D01*
X112137881Y-93873402D01*
X112166962Y-93981931D01*
X112195716Y-94089243D01*
X112198039Y-94094224D01*
X112198039Y-94094225D01*
X112290151Y-94291762D01*
X112290154Y-94291767D01*
X112292477Y-94296749D01*
X112329580Y-94349737D01*
X112405737Y-94458500D01*
X112423802Y-94484300D01*
X112584595Y-94645093D01*
X112618621Y-94707405D01*
X112621500Y-94734188D01*
X112621500Y-99409353D01*
X112601498Y-99477474D01*
X112584595Y-99498448D01*
X112501852Y-99581191D01*
X112380714Y-99754195D01*
X112291458Y-99945605D01*
X112236796Y-100149606D01*
X112218389Y-100360000D01*
X112236796Y-100570394D01*
X112291458Y-100774395D01*
X112380714Y-100965805D01*
X112501852Y-101138809D01*
X112651191Y-101288148D01*
X112655699Y-101291305D01*
X112655702Y-101291307D01*
X112819685Y-101406129D01*
X112824194Y-101409286D01*
X112829176Y-101411609D01*
X112829181Y-101411612D01*
X113010623Y-101496219D01*
X113015605Y-101498542D01*
X113020913Y-101499964D01*
X113020915Y-101499965D01*
X113214291Y-101551780D01*
X113214293Y-101551780D01*
X113219606Y-101553204D01*
X113430000Y-101571611D01*
X113640394Y-101553204D01*
X113645707Y-101551780D01*
X113645709Y-101551780D01*
X113839085Y-101499965D01*
X113839087Y-101499964D01*
X113844395Y-101498542D01*
X113849377Y-101496219D01*
X114030819Y-101411612D01*
X114030824Y-101411609D01*
X114035806Y-101409286D01*
X114040315Y-101406129D01*
X114204298Y-101291307D01*
X114204301Y-101291305D01*
X114208809Y-101288148D01*
X114358148Y-101138809D01*
X114479286Y-100965805D01*
X114568542Y-100774395D01*
X114623204Y-100570394D01*
X114641611Y-100360000D01*
X114623204Y-100149606D01*
X114568542Y-99945605D01*
X114479286Y-99754195D01*
X114358148Y-99581191D01*
X114275405Y-99498448D01*
X114241379Y-99436136D01*
X114238500Y-99409353D01*
X114238500Y-94734188D01*
X114258502Y-94666067D01*
X114275405Y-94645093D01*
X114436198Y-94484300D01*
X114454264Y-94458500D01*
X114530420Y-94349737D01*
X114567523Y-94296749D01*
X114569846Y-94291767D01*
X114569849Y-94291762D01*
X114661961Y-94094225D01*
X114661961Y-94094224D01*
X114664284Y-94089243D01*
X114693039Y-93981931D01*
X114722119Y-93873402D01*
X114722119Y-93873400D01*
X114723543Y-93868087D01*
X114743498Y-93640000D01*
X114723543Y-93411913D01*
X114690260Y-93287699D01*
X114665707Y-93196067D01*
X114665706Y-93196065D01*
X114664284Y-93190757D01*
X114645349Y-93150151D01*
X114569849Y-92988238D01*
X114569846Y-92988233D01*
X114567523Y-92983251D01*
X114458976Y-92828230D01*
X114439357Y-92800211D01*
X114439355Y-92800208D01*
X114436198Y-92795700D01*
X114274300Y-92633802D01*
X114269792Y-92630645D01*
X114269789Y-92630643D01*
X114191611Y-92575902D01*
X114086749Y-92502477D01*
X114081767Y-92500154D01*
X114081762Y-92500151D01*
X113884225Y-92408039D01*
X113884224Y-92408039D01*
X113879243Y-92405716D01*
X113873935Y-92404294D01*
X113873933Y-92404293D01*
X113663402Y-92347881D01*
X113663400Y-92347881D01*
X113658087Y-92346457D01*
X113430000Y-92326502D01*
X113201913Y-92346457D01*
X113196600Y-92347881D01*
X113196598Y-92347881D01*
X112986067Y-92404293D01*
X112986065Y-92404294D01*
X112980757Y-92405716D01*
X112975776Y-92408039D01*
X112975775Y-92408039D01*
X112778238Y-92500151D01*
X112778233Y-92500154D01*
X112773251Y-92502477D01*
X112668389Y-92575902D01*
X112590211Y-92630643D01*
X112590208Y-92630645D01*
X112585700Y-92633802D01*
X112423802Y-92795700D01*
X112420645Y-92800208D01*
X112420643Y-92800211D01*
X112401024Y-92828230D01*
X112292477Y-92983251D01*
X112290154Y-92988233D01*
X112290151Y-92988238D01*
X112214651Y-93150151D01*
X112195716Y-93190757D01*
X112194294Y-93196065D01*
X112194293Y-93196067D01*
X112169740Y-93287699D01*
X112136457Y-93411913D01*
X112116502Y-93640000D01*
X105983498Y-93640000D01*
X105974934Y-93542108D01*
X105988924Y-93472503D01*
X106011360Y-93442032D01*
X114912565Y-84540827D01*
X114974877Y-84506801D01*
X115045692Y-84511866D01*
X115102528Y-84554413D01*
X115126970Y-84616751D01*
X115133328Y-84677240D01*
X115140158Y-84742228D01*
X115199173Y-84923856D01*
X115202476Y-84929577D01*
X115202477Y-84929579D01*
X115210984Y-84944313D01*
X115294660Y-85089244D01*
X115422447Y-85231166D01*
X115576948Y-85343418D01*
X115582976Y-85346102D01*
X115582978Y-85346103D01*
X115745381Y-85418409D01*
X115751412Y-85421094D01*
X115844812Y-85440947D01*
X115931756Y-85459428D01*
X115931761Y-85459428D01*
X115938213Y-85460800D01*
X116129187Y-85460800D01*
X116135639Y-85459428D01*
X116135644Y-85459428D01*
X116222588Y-85440947D01*
X116315988Y-85421094D01*
X116322019Y-85418409D01*
X116484422Y-85346103D01*
X116484424Y-85346102D01*
X116490452Y-85343418D01*
X116644953Y-85231166D01*
X116772740Y-85089244D01*
X116868227Y-84923856D01*
X116884308Y-84874366D01*
X116889054Y-84859758D01*
X116919792Y-84809600D01*
X119273986Y-82455405D01*
X119336298Y-82421380D01*
X119363081Y-82418500D01*
X129946376Y-82418500D01*
X130014497Y-82438502D01*
X130060990Y-82492158D01*
X130071094Y-82562432D01*
X130041600Y-82627012D01*
X130018647Y-82647713D01*
X129900211Y-82730643D01*
X129900208Y-82730645D01*
X129895700Y-82733802D01*
X129733802Y-82895700D01*
X129602477Y-83083251D01*
X129600154Y-83088233D01*
X129600151Y-83088238D01*
X129508039Y-83285775D01*
X129505716Y-83290757D01*
X129504294Y-83296065D01*
X129504293Y-83296067D01*
X129463125Y-83449707D01*
X129446457Y-83511913D01*
X129426502Y-83740000D01*
X129446457Y-83968087D01*
X129447881Y-83973400D01*
X129447881Y-83973402D01*
X129490045Y-84130757D01*
X129505716Y-84189243D01*
X129508039Y-84194224D01*
X129508039Y-84194225D01*
X129600151Y-84391762D01*
X129600154Y-84391767D01*
X129602477Y-84396749D01*
X129733802Y-84584300D01*
X129895700Y-84746198D01*
X129900208Y-84749355D01*
X129900211Y-84749357D01*
X129941072Y-84777968D01*
X130083251Y-84877523D01*
X130088233Y-84879846D01*
X130088238Y-84879849D01*
X130274911Y-84966895D01*
X130290757Y-84974284D01*
X130296065Y-84975706D01*
X130296067Y-84975707D01*
X130506598Y-85032119D01*
X130506600Y-85032119D01*
X130511913Y-85033543D01*
X130740000Y-85053498D01*
X130968087Y-85033543D01*
X130973400Y-85032119D01*
X130973402Y-85032119D01*
X131183933Y-84975707D01*
X131183935Y-84975706D01*
X131189243Y-84974284D01*
X131205089Y-84966895D01*
X131391762Y-84879849D01*
X131391767Y-84879846D01*
X131396749Y-84877523D01*
X131538928Y-84777968D01*
X131579789Y-84749357D01*
X131579792Y-84749355D01*
X131584300Y-84746198D01*
X131746198Y-84584300D01*
X131877523Y-84396749D01*
X131879846Y-84391767D01*
X131879849Y-84391762D01*
X131971961Y-84194225D01*
X131971961Y-84194224D01*
X131974284Y-84189243D01*
X131989956Y-84130757D01*
X132032119Y-83973402D01*
X132032119Y-83973400D01*
X132033543Y-83968087D01*
X132053498Y-83740000D01*
X132033543Y-83511913D01*
X132016875Y-83449707D01*
X131975707Y-83296067D01*
X131975706Y-83296065D01*
X131974284Y-83290757D01*
X131971961Y-83285775D01*
X131879849Y-83088238D01*
X131879846Y-83088233D01*
X131877523Y-83083251D01*
X131746198Y-82895700D01*
X131584300Y-82733802D01*
X131579792Y-82730645D01*
X131579789Y-82730643D01*
X131501611Y-82675902D01*
X131396749Y-82602477D01*
X131391767Y-82600154D01*
X131391762Y-82600151D01*
X131219921Y-82520021D01*
X131166636Y-82473104D01*
X131147175Y-82404827D01*
X131167717Y-82336867D01*
X131199867Y-82305706D01*
X131198902Y-82304462D01*
X131233153Y-82277894D01*
X131243612Y-82270598D01*
X131274404Y-82251358D01*
X131274407Y-82251356D01*
X131280376Y-82247626D01*
X131309179Y-82219024D01*
X131309804Y-82218439D01*
X131310470Y-82217922D01*
X131336460Y-82191932D01*
X131409082Y-82119815D01*
X131409740Y-82118778D01*
X131410843Y-82117549D01*
X134638392Y-78890000D01*
X137176502Y-78890000D01*
X137196457Y-79118087D01*
X137197881Y-79123400D01*
X137197881Y-79123402D01*
X137239359Y-79278197D01*
X137255716Y-79339243D01*
X137258039Y-79344224D01*
X137258039Y-79344225D01*
X137350151Y-79541762D01*
X137350154Y-79541767D01*
X137352477Y-79546749D01*
X137355634Y-79551257D01*
X137478915Y-79727320D01*
X137483802Y-79734300D01*
X137645700Y-79896198D01*
X137650208Y-79899355D01*
X137650211Y-79899357D01*
X137672879Y-79915229D01*
X137833251Y-80027523D01*
X137838233Y-80029846D01*
X137838238Y-80029849D01*
X137994345Y-80102642D01*
X138040757Y-80124284D01*
X138046065Y-80125706D01*
X138046067Y-80125707D01*
X138256598Y-80182119D01*
X138256600Y-80182119D01*
X138261913Y-80183543D01*
X138490000Y-80203498D01*
X138718087Y-80183543D01*
X138723400Y-80182119D01*
X138723402Y-80182119D01*
X138933933Y-80125707D01*
X138933935Y-80125706D01*
X138939243Y-80124284D01*
X138985655Y-80102642D01*
X139141762Y-80029849D01*
X139141767Y-80029846D01*
X139146749Y-80027523D01*
X139307121Y-79915229D01*
X139329789Y-79899357D01*
X139329792Y-79899355D01*
X139334300Y-79896198D01*
X139496198Y-79734300D01*
X139501086Y-79727320D01*
X139624366Y-79551257D01*
X139627523Y-79546749D01*
X139629846Y-79541767D01*
X139629849Y-79541762D01*
X139721961Y-79344225D01*
X139721961Y-79344224D01*
X139724284Y-79339243D01*
X139740642Y-79278197D01*
X139782119Y-79123402D01*
X139782119Y-79123400D01*
X139783543Y-79118087D01*
X139803498Y-78890000D01*
X139783543Y-78661913D01*
X139782002Y-78656161D01*
X139725707Y-78446067D01*
X139725706Y-78446065D01*
X139724284Y-78440757D01*
X139719268Y-78430000D01*
X139629849Y-78238238D01*
X139629846Y-78238233D01*
X139627523Y-78233251D01*
X139521261Y-78081493D01*
X139499357Y-78050211D01*
X139499355Y-78050208D01*
X139496198Y-78045700D01*
X139334300Y-77883802D01*
X139329792Y-77880645D01*
X139329789Y-77880643D01*
X139245849Y-77821868D01*
X139146749Y-77752477D01*
X139141767Y-77750154D01*
X139141762Y-77750151D01*
X138944225Y-77658039D01*
X138944224Y-77658039D01*
X138939243Y-77655716D01*
X138933935Y-77654294D01*
X138933933Y-77654293D01*
X138723402Y-77597881D01*
X138723400Y-77597881D01*
X138718087Y-77596457D01*
X138490000Y-77576502D01*
X138261913Y-77596457D01*
X138256600Y-77597881D01*
X138256598Y-77597881D01*
X138046067Y-77654293D01*
X138046065Y-77654294D01*
X138040757Y-77655716D01*
X138035776Y-77658039D01*
X138035775Y-77658039D01*
X137838238Y-77750151D01*
X137838233Y-77750154D01*
X137833251Y-77752477D01*
X137734151Y-77821868D01*
X137650211Y-77880643D01*
X137650208Y-77880645D01*
X137645700Y-77883802D01*
X137483802Y-78045700D01*
X137480645Y-78050208D01*
X137480643Y-78050211D01*
X137458739Y-78081493D01*
X137352477Y-78233251D01*
X137350154Y-78238233D01*
X137350151Y-78238238D01*
X137260732Y-78430000D01*
X137255716Y-78440757D01*
X137254294Y-78446065D01*
X137254293Y-78446067D01*
X137197998Y-78656161D01*
X137196457Y-78661913D01*
X137176502Y-78890000D01*
X134638392Y-78890000D01*
X138518392Y-75010000D01*
X143436502Y-75010000D01*
X143456457Y-75238087D01*
X143515716Y-75459243D01*
X143518039Y-75464224D01*
X143518039Y-75464225D01*
X143610151Y-75661762D01*
X143610154Y-75661767D01*
X143612477Y-75666749D01*
X143743802Y-75854300D01*
X143905700Y-76016198D01*
X143910208Y-76019355D01*
X143910211Y-76019357D01*
X143988389Y-76074098D01*
X144093251Y-76147523D01*
X144098233Y-76149846D01*
X144098238Y-76149849D01*
X144295775Y-76241961D01*
X144300757Y-76244284D01*
X144306065Y-76245706D01*
X144306067Y-76245707D01*
X144516598Y-76302119D01*
X144516600Y-76302119D01*
X144521913Y-76303543D01*
X144750000Y-76323498D01*
X144978087Y-76303543D01*
X144983400Y-76302119D01*
X144983402Y-76302119D01*
X145193933Y-76245707D01*
X145193935Y-76245706D01*
X145199243Y-76244284D01*
X145204225Y-76241961D01*
X145401762Y-76149849D01*
X145401767Y-76149846D01*
X145406749Y-76147523D01*
X145511611Y-76074098D01*
X145589789Y-76019357D01*
X145589792Y-76019355D01*
X145594300Y-76016198D01*
X145756198Y-75854300D01*
X145887523Y-75666749D01*
X145889846Y-75661767D01*
X145889849Y-75661762D01*
X145981961Y-75464225D01*
X145981961Y-75464224D01*
X145984284Y-75459243D01*
X146043543Y-75238087D01*
X146063498Y-75010000D01*
X146043543Y-74781913D01*
X145984284Y-74560757D01*
X145981961Y-74555775D01*
X145889849Y-74358238D01*
X145889846Y-74358233D01*
X145887523Y-74353251D01*
X145756198Y-74165700D01*
X145594300Y-74003802D01*
X145589792Y-74000645D01*
X145589789Y-74000643D01*
X145488420Y-73929664D01*
X145406749Y-73872477D01*
X145401767Y-73870154D01*
X145401762Y-73870151D01*
X145204225Y-73778039D01*
X145204224Y-73778039D01*
X145199243Y-73775716D01*
X145193935Y-73774294D01*
X145193933Y-73774293D01*
X144983402Y-73717881D01*
X144983400Y-73717881D01*
X144978087Y-73716457D01*
X144750000Y-73696502D01*
X144521913Y-73716457D01*
X144516600Y-73717881D01*
X144516598Y-73717881D01*
X144306067Y-73774293D01*
X144306065Y-73774294D01*
X144300757Y-73775716D01*
X144295776Y-73778039D01*
X144295775Y-73778039D01*
X144098238Y-73870151D01*
X144098233Y-73870154D01*
X144093251Y-73872477D01*
X144011580Y-73929664D01*
X143910211Y-74000643D01*
X143910208Y-74000645D01*
X143905700Y-74003802D01*
X143743802Y-74165700D01*
X143612477Y-74353251D01*
X143610154Y-74358233D01*
X143610151Y-74358238D01*
X143518039Y-74555775D01*
X143515716Y-74560757D01*
X143456457Y-74781913D01*
X143436502Y-75010000D01*
X138518392Y-75010000D01*
X141232987Y-72295405D01*
X141295299Y-72261379D01*
X141322082Y-72258500D01*
X146640786Y-72258500D01*
X146642106Y-72258507D01*
X146732221Y-72259451D01*
X146774597Y-72250289D01*
X146787163Y-72248231D01*
X146830255Y-72243397D01*
X146836906Y-72241081D01*
X146836910Y-72241080D01*
X146861930Y-72232367D01*
X146876742Y-72228204D01*
X146902619Y-72222609D01*
X146909510Y-72221119D01*
X146948813Y-72202792D01*
X146960589Y-72198010D01*
X147001552Y-72183745D01*
X147007527Y-72180011D01*
X147007530Y-72180010D01*
X147029995Y-72165973D01*
X147043512Y-72158634D01*
X147067514Y-72147441D01*
X147067515Y-72147440D01*
X147073902Y-72144462D01*
X147108153Y-72117894D01*
X147118612Y-72110598D01*
X147149404Y-72091358D01*
X147149407Y-72091356D01*
X147155376Y-72087626D01*
X147184179Y-72059024D01*
X147184804Y-72058439D01*
X147185470Y-72057922D01*
X147211455Y-72031937D01*
X147284082Y-71959815D01*
X147284740Y-71958778D01*
X147285838Y-71957554D01*
X147850112Y-71393279D01*
X147851050Y-71392350D01*
X147910475Y-71334157D01*
X147910476Y-71334156D01*
X147915507Y-71329229D01*
X147919322Y-71323310D01*
X147919328Y-71323302D01*
X147938994Y-71292786D01*
X147946427Y-71282441D01*
X147973476Y-71248557D01*
X147988073Y-71218362D01*
X147995602Y-71204945D01*
X148009948Y-71182684D01*
X148013765Y-71176762D01*
X148016173Y-71170145D01*
X148016176Y-71170140D01*
X148028592Y-71136027D01*
X148033553Y-71124284D01*
X148049353Y-71091600D01*
X148049356Y-71091591D01*
X148052421Y-71085251D01*
X148059966Y-71052572D01*
X148064334Y-71037825D01*
X148075803Y-71006315D01*
X148076685Y-70999330D01*
X148076687Y-70999323D01*
X148081237Y-70963308D01*
X148083472Y-70950757D01*
X148091640Y-70915378D01*
X148093225Y-70908515D01*
X148093367Y-70868068D01*
X148093367Y-70867926D01*
X148093396Y-70867057D01*
X148093500Y-70866231D01*
X148093500Y-70829714D01*
X148093641Y-70789402D01*
X148093846Y-70730664D01*
X148093846Y-70730658D01*
X148093858Y-70727130D01*
X148093589Y-70725927D01*
X148093500Y-70724283D01*
X148093500Y-68184500D01*
X148113502Y-68116379D01*
X148167158Y-68069886D01*
X148219500Y-68058500D01*
X148233134Y-68058500D01*
X148295316Y-68051745D01*
X148431705Y-68000615D01*
X148548261Y-67913261D01*
X148635615Y-67796705D01*
X148660180Y-67731178D01*
X148702822Y-67674414D01*
X148769383Y-67649714D01*
X148838732Y-67664921D01*
X148858647Y-67678464D01*
X148970985Y-67771729D01*
X149010620Y-67830632D01*
X149016500Y-67868673D01*
X149016500Y-71055786D01*
X149016493Y-71057106D01*
X149015549Y-71147221D01*
X149024711Y-71189597D01*
X149026769Y-71202163D01*
X149031603Y-71245255D01*
X149033919Y-71251906D01*
X149033920Y-71251910D01*
X149042633Y-71276930D01*
X149046796Y-71291742D01*
X149053881Y-71324510D01*
X149072208Y-71363813D01*
X149076990Y-71375589D01*
X149091255Y-71416552D01*
X149094989Y-71422527D01*
X149094990Y-71422530D01*
X149109027Y-71444995D01*
X149116366Y-71458512D01*
X149127559Y-71482514D01*
X149130538Y-71488902D01*
X149134855Y-71494467D01*
X149134856Y-71494469D01*
X149157106Y-71523153D01*
X149164402Y-71533612D01*
X149187374Y-71570376D01*
X149192334Y-71575371D01*
X149192335Y-71575372D01*
X149215976Y-71599179D01*
X149216561Y-71599804D01*
X149217078Y-71600470D01*
X149243067Y-71626459D01*
X149315185Y-71699082D01*
X149316222Y-71699740D01*
X149317451Y-71700843D01*
X151483960Y-73867352D01*
X151517986Y-73929664D01*
X151512921Y-74000479D01*
X151483960Y-74045542D01*
X151363802Y-74165700D01*
X151232477Y-74353251D01*
X151230154Y-74358233D01*
X151230151Y-74358238D01*
X151138039Y-74555775D01*
X151135716Y-74560757D01*
X151076457Y-74781913D01*
X151056502Y-75010000D01*
X151076457Y-75238087D01*
X151135716Y-75459243D01*
X151138039Y-75464224D01*
X151138039Y-75464225D01*
X151230151Y-75661762D01*
X151230154Y-75661767D01*
X151232477Y-75666749D01*
X151363802Y-75854300D01*
X151525700Y-76016198D01*
X151530208Y-76019355D01*
X151530211Y-76019357D01*
X151608389Y-76074098D01*
X151713251Y-76147523D01*
X151718233Y-76149846D01*
X151718238Y-76149849D01*
X151915775Y-76241961D01*
X151920757Y-76244284D01*
X151926065Y-76245706D01*
X151926067Y-76245707D01*
X152136598Y-76302119D01*
X152136600Y-76302119D01*
X152141913Y-76303543D01*
X152370000Y-76323498D01*
X152598087Y-76303543D01*
X152603400Y-76302119D01*
X152603402Y-76302119D01*
X152813933Y-76245707D01*
X152813935Y-76245706D01*
X152819243Y-76244284D01*
X152824225Y-76241961D01*
X153021762Y-76149849D01*
X153021767Y-76149846D01*
X153026749Y-76147523D01*
X153131611Y-76074098D01*
X153209789Y-76019357D01*
X153209792Y-76019355D01*
X153214300Y-76016198D01*
X153376198Y-75854300D01*
X153507523Y-75666749D01*
X153509846Y-75661767D01*
X153509849Y-75661762D01*
X153601961Y-75464225D01*
X153601961Y-75464224D01*
X153604284Y-75459243D01*
X153663543Y-75238087D01*
X153683498Y-75010000D01*
X153663543Y-74781913D01*
X153604284Y-74560757D01*
X153601961Y-74555775D01*
X153509849Y-74358238D01*
X153509846Y-74358233D01*
X153507523Y-74353251D01*
X153376198Y-74165700D01*
X153215405Y-74004907D01*
X153181379Y-73942595D01*
X153178500Y-73915812D01*
X153178500Y-73619260D01*
X153178507Y-73617941D01*
X153178836Y-73586500D01*
X153179451Y-73527779D01*
X153170289Y-73485403D01*
X153168230Y-73472832D01*
X153166987Y-73461746D01*
X153163397Y-73429745D01*
X153152367Y-73398070D01*
X153148204Y-73383258D01*
X153142609Y-73357381D01*
X153141119Y-73350490D01*
X153122793Y-73311189D01*
X153118008Y-73299406D01*
X153103745Y-73258448D01*
X153085979Y-73230016D01*
X153078640Y-73216499D01*
X153067440Y-73192481D01*
X153067438Y-73192477D01*
X153064463Y-73186098D01*
X153060146Y-73180532D01*
X153037891Y-73151840D01*
X153030597Y-73141385D01*
X153011359Y-73110598D01*
X153007626Y-73104624D01*
X153002663Y-73099626D01*
X152979024Y-73075821D01*
X152978439Y-73075196D01*
X152977922Y-73074530D01*
X152951932Y-73048540D01*
X152879815Y-72975918D01*
X152878778Y-72975260D01*
X152877549Y-72974157D01*
X150670405Y-70767013D01*
X150636379Y-70704701D01*
X150633500Y-70677918D01*
X150633500Y-68228134D01*
X163609200Y-68228134D01*
X163615955Y-68290316D01*
X163667085Y-68426705D01*
X163754439Y-68543261D01*
X163870995Y-68630615D01*
X164007384Y-68681745D01*
X164069566Y-68688500D01*
X166165834Y-68688500D01*
X166228016Y-68681745D01*
X166364405Y-68630615D01*
X166480961Y-68543261D01*
X166568315Y-68426705D01*
X166619445Y-68290316D01*
X166626200Y-68228134D01*
X166626200Y-66131866D01*
X166619445Y-66069684D01*
X166568315Y-65933295D01*
X166480961Y-65816739D01*
X166364405Y-65729385D01*
X166228016Y-65678255D01*
X166165834Y-65671500D01*
X164069566Y-65671500D01*
X164007384Y-65678255D01*
X163870995Y-65729385D01*
X163754439Y-65816739D01*
X163667085Y-65933295D01*
X163615955Y-66069684D01*
X163609200Y-66131866D01*
X163609200Y-68228134D01*
X150633500Y-68228134D01*
X150633500Y-67868387D01*
X150653502Y-67800266D01*
X150686331Y-67765809D01*
X150737243Y-67729494D01*
X150901303Y-67566005D01*
X151036458Y-67377917D01*
X151139078Y-67170280D01*
X151206408Y-66948671D01*
X151236640Y-66719041D01*
X151238327Y-66650000D01*
X151232032Y-66573434D01*
X151219773Y-66424318D01*
X151219772Y-66424312D01*
X151219349Y-66419167D01*
X151162925Y-66194533D01*
X151160866Y-66189797D01*
X151072630Y-65986868D01*
X151072628Y-65986865D01*
X151070570Y-65982131D01*
X150944764Y-65787665D01*
X150788887Y-65616358D01*
X150784836Y-65613159D01*
X150784832Y-65613155D01*
X150611177Y-65476011D01*
X150611172Y-65476008D01*
X150607123Y-65472810D01*
X150602607Y-65470317D01*
X150602604Y-65470315D01*
X150408879Y-65363373D01*
X150408875Y-65363371D01*
X150404355Y-65360876D01*
X150399486Y-65359152D01*
X150399482Y-65359150D01*
X150190903Y-65285288D01*
X150190899Y-65285287D01*
X150186028Y-65283562D01*
X150180935Y-65282655D01*
X150180932Y-65282654D01*
X149963095Y-65243851D01*
X149963089Y-65243850D01*
X149958006Y-65242945D01*
X149885096Y-65242054D01*
X149731581Y-65240179D01*
X149731579Y-65240179D01*
X149726411Y-65240116D01*
X149497464Y-65275150D01*
X149277314Y-65347106D01*
X149272726Y-65349494D01*
X149272722Y-65349496D01*
X149076461Y-65451663D01*
X149071872Y-65454052D01*
X149067739Y-65457155D01*
X149067736Y-65457157D01*
X148995088Y-65511703D01*
X148886655Y-65593117D01*
X148869170Y-65611414D01*
X148807646Y-65646844D01*
X148736733Y-65643387D01*
X148678947Y-65602141D01*
X148660094Y-65568592D01*
X148638768Y-65511705D01*
X148638767Y-65511703D01*
X148635615Y-65503295D01*
X148548261Y-65386739D01*
X148431705Y-65299385D01*
X148295316Y-65248255D01*
X148233134Y-65241500D01*
X146336866Y-65241500D01*
X146274684Y-65248255D01*
X146138295Y-65299385D01*
X146021739Y-65386739D01*
X145934385Y-65503295D01*
X145883255Y-65639684D01*
X145876500Y-65701866D01*
X145876500Y-67598134D01*
X145883255Y-67660316D01*
X145934385Y-67796705D01*
X146021739Y-67913261D01*
X146138295Y-68000615D01*
X146274684Y-68051745D01*
X146336866Y-68058500D01*
X146350500Y-68058500D01*
X146418621Y-68078502D01*
X146465114Y-68132158D01*
X146476500Y-68184500D01*
X146476500Y-70427918D01*
X146456498Y-70496039D01*
X146439595Y-70517013D01*
X146352013Y-70604595D01*
X146289701Y-70638621D01*
X146262918Y-70641500D01*
X140944214Y-70641500D01*
X140942894Y-70641493D01*
X140941819Y-70641482D01*
X140852779Y-70640549D01*
X140810403Y-70649711D01*
X140797837Y-70651769D01*
X140754745Y-70656603D01*
X140748094Y-70658919D01*
X140748090Y-70658920D01*
X140723070Y-70667633D01*
X140708257Y-70671796D01*
X140675490Y-70678881D01*
X140636187Y-70697208D01*
X140624411Y-70701990D01*
X140583448Y-70716255D01*
X140577473Y-70719989D01*
X140577470Y-70719990D01*
X140555005Y-70734027D01*
X140541488Y-70741366D01*
X140517486Y-70752559D01*
X140511098Y-70755538D01*
X140505533Y-70759855D01*
X140505531Y-70759856D01*
X140476847Y-70782106D01*
X140466388Y-70789402D01*
X140435596Y-70808642D01*
X140435593Y-70808644D01*
X140429624Y-70812374D01*
X140424629Y-70817334D01*
X140424628Y-70817335D01*
X140400821Y-70840976D01*
X140400196Y-70841561D01*
X140399530Y-70842078D01*
X140373540Y-70868068D01*
X140300918Y-70940185D01*
X140300260Y-70941222D01*
X140299157Y-70942451D01*
X134181306Y-77060302D01*
X134118994Y-77094328D01*
X134048179Y-77089263D01*
X133991343Y-77046716D01*
X133966532Y-76980196D01*
X133981623Y-76910822D01*
X133993735Y-76892605D01*
X134010776Y-76871257D01*
X134025373Y-76841062D01*
X134032902Y-76827645D01*
X134047248Y-76805384D01*
X134051065Y-76799462D01*
X134053473Y-76792845D01*
X134053476Y-76792840D01*
X134065892Y-76758727D01*
X134070853Y-76746984D01*
X134086653Y-76714300D01*
X134086656Y-76714291D01*
X134089721Y-76707951D01*
X134097266Y-76675272D01*
X134101634Y-76660525D01*
X134113103Y-76629015D01*
X134113985Y-76622030D01*
X134113987Y-76622023D01*
X134118537Y-76586008D01*
X134120772Y-76573457D01*
X134128940Y-76538078D01*
X134130525Y-76531215D01*
X134130667Y-76490628D01*
X134130696Y-76489758D01*
X134130800Y-76488931D01*
X134130800Y-76452290D01*
X134131157Y-76349830D01*
X134130889Y-76348630D01*
X134130800Y-76346992D01*
X134130800Y-68814500D01*
X134150802Y-68746379D01*
X134204458Y-68699886D01*
X134256800Y-68688500D01*
X134370434Y-68688500D01*
X134432616Y-68681745D01*
X134569005Y-68630615D01*
X134685561Y-68543261D01*
X134772915Y-68426705D01*
X134824045Y-68290316D01*
X134830800Y-68228134D01*
X134830800Y-66131866D01*
X134824045Y-66069684D01*
X134772915Y-65933295D01*
X134685561Y-65816739D01*
X134569005Y-65729385D01*
X134432616Y-65678255D01*
X134370434Y-65671500D01*
X132274166Y-65671500D01*
X132211984Y-65678255D01*
X132075595Y-65729385D01*
X131959039Y-65816739D01*
X131871685Y-65933295D01*
X131820555Y-66069684D01*
X131813800Y-66131866D01*
X131813800Y-68228134D01*
X131820555Y-68290316D01*
X131871685Y-68426705D01*
X131959039Y-68543261D01*
X132075595Y-68630615D01*
X132211984Y-68681745D01*
X132274166Y-68688500D01*
X132387800Y-68688500D01*
X132455921Y-68708502D01*
X132502414Y-68762158D01*
X132513800Y-68814500D01*
X132513800Y-76050618D01*
X132493798Y-76118739D01*
X132476895Y-76139713D01*
X131067968Y-77548640D01*
X131005656Y-77582666D01*
X130967892Y-77585066D01*
X130875476Y-77576981D01*
X130875475Y-77576981D01*
X130870000Y-77576502D01*
X130641913Y-77596457D01*
X130636600Y-77597881D01*
X130636598Y-77597881D01*
X130426067Y-77654293D01*
X130426065Y-77654294D01*
X130420757Y-77655716D01*
X130415776Y-77658039D01*
X130415775Y-77658039D01*
X130218238Y-77750151D01*
X130218233Y-77750154D01*
X130213251Y-77752477D01*
X130114151Y-77821868D01*
X130030211Y-77880643D01*
X130030208Y-77880645D01*
X130025700Y-77883802D01*
X129864907Y-78044595D01*
X129802595Y-78078621D01*
X129775812Y-78081500D01*
X119429214Y-78081500D01*
X119427894Y-78081493D01*
X119426819Y-78081482D01*
X119337779Y-78080549D01*
X119295403Y-78089711D01*
X119282837Y-78091769D01*
X119239745Y-78096603D01*
X119233094Y-78098919D01*
X119233090Y-78098920D01*
X119208070Y-78107633D01*
X119193257Y-78111796D01*
X119160490Y-78118881D01*
X119121187Y-78137208D01*
X119109411Y-78141990D01*
X119068448Y-78156255D01*
X119062473Y-78159989D01*
X119062470Y-78159990D01*
X119040005Y-78174027D01*
X119026488Y-78181366D01*
X119004238Y-78191742D01*
X118996098Y-78195538D01*
X118990533Y-78199855D01*
X118990531Y-78199856D01*
X118961847Y-78222106D01*
X118951388Y-78229402D01*
X118920596Y-78248642D01*
X118920593Y-78248644D01*
X118914624Y-78252374D01*
X118909629Y-78257334D01*
X118909628Y-78257335D01*
X118885821Y-78280976D01*
X118885196Y-78281561D01*
X118884530Y-78282078D01*
X118858540Y-78308068D01*
X118785918Y-78380185D01*
X118785260Y-78381222D01*
X118784157Y-78382451D01*
X104867968Y-92298640D01*
X104805656Y-92332666D01*
X104767892Y-92335066D01*
X104675476Y-92326981D01*
X104675475Y-92326981D01*
X104670000Y-92326502D01*
X104441913Y-92346457D01*
X104436600Y-92347881D01*
X104436598Y-92347881D01*
X104226067Y-92404293D01*
X104226065Y-92404294D01*
X104220757Y-92405716D01*
X104215776Y-92408039D01*
X104215775Y-92408039D01*
X104018238Y-92500151D01*
X104018233Y-92500154D01*
X104013251Y-92502477D01*
X103908389Y-92575902D01*
X103830211Y-92630643D01*
X103830208Y-92630645D01*
X103825700Y-92633802D01*
X103663802Y-92795700D01*
X103660645Y-92800208D01*
X103660643Y-92800211D01*
X103641024Y-92828230D01*
X103532477Y-92983251D01*
X103530154Y-92988233D01*
X103530151Y-92988238D01*
X103454651Y-93150151D01*
X103435716Y-93190757D01*
X103434294Y-93196065D01*
X103434293Y-93196067D01*
X103409740Y-93287699D01*
X103376457Y-93411913D01*
X103356502Y-93640000D01*
X98363498Y-93640000D01*
X98343543Y-93411913D01*
X98310260Y-93287699D01*
X98285707Y-93196067D01*
X98285706Y-93196065D01*
X98284284Y-93190757D01*
X98265349Y-93150151D01*
X98189849Y-92988238D01*
X98189846Y-92988233D01*
X98187523Y-92983251D01*
X98078976Y-92828230D01*
X98059357Y-92800211D01*
X98059355Y-92800208D01*
X98056198Y-92795700D01*
X97894300Y-92633802D01*
X97889792Y-92630645D01*
X97889789Y-92630643D01*
X97811611Y-92575902D01*
X97706749Y-92502477D01*
X97701767Y-92500154D01*
X97701762Y-92500151D01*
X97504225Y-92408039D01*
X97504224Y-92408039D01*
X97499243Y-92405716D01*
X97493935Y-92404294D01*
X97493933Y-92404293D01*
X97283402Y-92347881D01*
X97283400Y-92347881D01*
X97278087Y-92346457D01*
X97050000Y-92326502D01*
X96821913Y-92346457D01*
X96816600Y-92347881D01*
X96816598Y-92347881D01*
X96606067Y-92404293D01*
X96606065Y-92404294D01*
X96600757Y-92405716D01*
X96595776Y-92408039D01*
X96595775Y-92408039D01*
X96398238Y-92500151D01*
X96398233Y-92500154D01*
X96393251Y-92502477D01*
X96288389Y-92575902D01*
X96210211Y-92630643D01*
X96210208Y-92630645D01*
X96205700Y-92633802D01*
X96043802Y-92795700D01*
X96040645Y-92800208D01*
X96040643Y-92800211D01*
X96021024Y-92828230D01*
X95912477Y-92983251D01*
X95910154Y-92988233D01*
X95910151Y-92988238D01*
X95834651Y-93150151D01*
X95815716Y-93190757D01*
X95814294Y-93196065D01*
X95814293Y-93196067D01*
X95789740Y-93287699D01*
X95756457Y-93411913D01*
X95736502Y-93640000D01*
X91658500Y-93640000D01*
X91658500Y-83666695D01*
X92512251Y-83666695D01*
X92512548Y-83671848D01*
X92512548Y-83671851D01*
X92516490Y-83740211D01*
X92525110Y-83889715D01*
X92526247Y-83894761D01*
X92526248Y-83894767D01*
X92541537Y-83962607D01*
X92574222Y-84107639D01*
X92605202Y-84183933D01*
X92654871Y-84306254D01*
X92658266Y-84314616D01*
X92690915Y-84367894D01*
X92767823Y-84493397D01*
X92774987Y-84505088D01*
X92921250Y-84673938D01*
X93093126Y-84816632D01*
X93286000Y-84929338D01*
X93290825Y-84931180D01*
X93290826Y-84931181D01*
X93335326Y-84948174D01*
X93494692Y-85009030D01*
X93499760Y-85010061D01*
X93499763Y-85010062D01*
X93567942Y-85023933D01*
X93713597Y-85053567D01*
X93718772Y-85053757D01*
X93718774Y-85053757D01*
X93931673Y-85061564D01*
X93931677Y-85061564D01*
X93936837Y-85061753D01*
X93941957Y-85061097D01*
X93941959Y-85061097D01*
X94153288Y-85034025D01*
X94153289Y-85034025D01*
X94158416Y-85033368D01*
X94163366Y-85031883D01*
X94367429Y-84970661D01*
X94367434Y-84970659D01*
X94372384Y-84969174D01*
X94572994Y-84870896D01*
X94754860Y-84741173D01*
X94760387Y-84735666D01*
X94836209Y-84660107D01*
X94913096Y-84583489D01*
X94919537Y-84574525D01*
X94929276Y-84560973D01*
X94985271Y-84517326D01*
X95031598Y-84508500D01*
X108840186Y-84508500D01*
X108841506Y-84508507D01*
X108931621Y-84509451D01*
X108973997Y-84500289D01*
X108986563Y-84498231D01*
X109029655Y-84493397D01*
X109036306Y-84491081D01*
X109036310Y-84491080D01*
X109061330Y-84482367D01*
X109076142Y-84478204D01*
X109102019Y-84472609D01*
X109108910Y-84471119D01*
X109148213Y-84452792D01*
X109159989Y-84448010D01*
X109200952Y-84433745D01*
X109206927Y-84430011D01*
X109206930Y-84430010D01*
X109229395Y-84415973D01*
X109242912Y-84408634D01*
X109266914Y-84397441D01*
X109266915Y-84397440D01*
X109273302Y-84394462D01*
X109307553Y-84367894D01*
X109318012Y-84360598D01*
X109348804Y-84341358D01*
X109348807Y-84341356D01*
X109354776Y-84337626D01*
X109383579Y-84309024D01*
X109384204Y-84308439D01*
X109384870Y-84307922D01*
X109410860Y-84281932D01*
X109483482Y-84209815D01*
X109484140Y-84208778D01*
X109485243Y-84207549D01*
X119893712Y-73799080D01*
X119931558Y-73773068D01*
X120092522Y-73701403D01*
X120092524Y-73701402D01*
X120098552Y-73698718D01*
X120253053Y-73586466D01*
X120329886Y-73501134D01*
X120376421Y-73449452D01*
X120376422Y-73449451D01*
X120380840Y-73444544D01*
X120464647Y-73299386D01*
X120473023Y-73284879D01*
X120473024Y-73284878D01*
X120476327Y-73279156D01*
X120535342Y-73097528D01*
X120537624Y-73075821D01*
X120554614Y-72914165D01*
X120555304Y-72907600D01*
X120535342Y-72717672D01*
X120476327Y-72536044D01*
X120380840Y-72370656D01*
X120279855Y-72258500D01*
X120257475Y-72233645D01*
X120257474Y-72233644D01*
X120253053Y-72228734D01*
X120098552Y-72116482D01*
X120092524Y-72113798D01*
X120092522Y-72113797D01*
X119930119Y-72041491D01*
X119930118Y-72041491D01*
X119924088Y-72038806D01*
X119830687Y-72018953D01*
X119743744Y-72000472D01*
X119743739Y-72000472D01*
X119737287Y-71999100D01*
X119546313Y-71999100D01*
X119539861Y-72000472D01*
X119539856Y-72000472D01*
X119452913Y-72018953D01*
X119359512Y-72038806D01*
X119353482Y-72041491D01*
X119353481Y-72041491D01*
X119191078Y-72113797D01*
X119191076Y-72113798D01*
X119185048Y-72116482D01*
X119030547Y-72228734D01*
X119026126Y-72233644D01*
X119026125Y-72233645D01*
X119003746Y-72258500D01*
X118902760Y-72370656D01*
X118807273Y-72536044D01*
X118805232Y-72542326D01*
X118786446Y-72600143D01*
X118755708Y-72650301D01*
X117596747Y-73809262D01*
X117534435Y-73843288D01*
X117463620Y-73838223D01*
X117406784Y-73795676D01*
X117398533Y-73783167D01*
X117395821Y-73778470D01*
X117317640Y-73643056D01*
X117295027Y-73617941D01*
X117194275Y-73506045D01*
X117194274Y-73506044D01*
X117189853Y-73501134D01*
X117035352Y-73388882D01*
X117029324Y-73386198D01*
X117029322Y-73386197D01*
X116866919Y-73313891D01*
X116866918Y-73313891D01*
X116860888Y-73311206D01*
X116767487Y-73291353D01*
X116680544Y-73272872D01*
X116680539Y-73272872D01*
X116674087Y-73271500D01*
X116625250Y-73271500D01*
X116596905Y-73268270D01*
X116594475Y-73267709D01*
X116560115Y-73259776D01*
X116553069Y-73259751D01*
X116553066Y-73259751D01*
X116519544Y-73259634D01*
X116518662Y-73259605D01*
X116517831Y-73259500D01*
X116481181Y-73259500D01*
X116480741Y-73259499D01*
X116382257Y-73259155D01*
X116382252Y-73259155D01*
X116378730Y-73259143D01*
X116377530Y-73259411D01*
X116375893Y-73259500D01*
X102426260Y-73259500D01*
X102424941Y-73259493D01*
X102334779Y-73258549D01*
X102327893Y-73260038D01*
X102327891Y-73260038D01*
X102321768Y-73261362D01*
X102292403Y-73267711D01*
X102279837Y-73269769D01*
X102236745Y-73274603D01*
X102230094Y-73276919D01*
X102230090Y-73276920D01*
X102205070Y-73285633D01*
X102190257Y-73289796D01*
X102157490Y-73296881D01*
X102118189Y-73315207D01*
X102106406Y-73319992D01*
X102065448Y-73334255D01*
X102059471Y-73337990D01*
X102037016Y-73352021D01*
X102023499Y-73359360D01*
X101999481Y-73370560D01*
X101999477Y-73370562D01*
X101993098Y-73373537D01*
X101987534Y-73377853D01*
X101987532Y-73377854D01*
X101958840Y-73400109D01*
X101948385Y-73407403D01*
X101911624Y-73430374D01*
X101906627Y-73435336D01*
X101906626Y-73435337D01*
X101882821Y-73458976D01*
X101882196Y-73459561D01*
X101881530Y-73460078D01*
X101855540Y-73486068D01*
X101782918Y-73558185D01*
X101782260Y-73559222D01*
X101781157Y-73560451D01*
X95076194Y-80265414D01*
X95013882Y-80299440D01*
X94943067Y-80294375D01*
X94893906Y-80261119D01*
X94807798Y-80166488D01*
X94776746Y-80102642D01*
X94785140Y-80032143D01*
X94830317Y-79977375D01*
X94856761Y-79963706D01*
X94963297Y-79923767D01*
X94971705Y-79920615D01*
X95088261Y-79833261D01*
X95175615Y-79716705D01*
X95226745Y-79580316D01*
X95233500Y-79518134D01*
X95233500Y-77721866D01*
X95226745Y-77659684D01*
X95175615Y-77523295D01*
X95088261Y-77406739D01*
X94971705Y-77319385D01*
X94835316Y-77268255D01*
X94773134Y-77261500D01*
X92976866Y-77261500D01*
X92914684Y-77268255D01*
X92778295Y-77319385D01*
X92661739Y-77406739D01*
X92574385Y-77523295D01*
X92523255Y-77659684D01*
X92516500Y-77721866D01*
X92516500Y-79518134D01*
X92523255Y-79580316D01*
X92574385Y-79716705D01*
X92661739Y-79833261D01*
X92778295Y-79920615D01*
X92786704Y-79923767D01*
X92786705Y-79923768D01*
X92895451Y-79964535D01*
X92952216Y-80007176D01*
X92976916Y-80073738D01*
X92961709Y-80143087D01*
X92942316Y-80169568D01*
X92823048Y-80294375D01*
X92815629Y-80302138D01*
X92812715Y-80306410D01*
X92812714Y-80306411D01*
X92743355Y-80408088D01*
X92689743Y-80486680D01*
X92595688Y-80689305D01*
X92535989Y-80904570D01*
X92512251Y-81126695D01*
X92512548Y-81131848D01*
X92512548Y-81131851D01*
X92524812Y-81344547D01*
X92525110Y-81349715D01*
X92526247Y-81354761D01*
X92526248Y-81354767D01*
X92548036Y-81451445D01*
X92574222Y-81567639D01*
X92614791Y-81667549D01*
X92654871Y-81766254D01*
X92658266Y-81774616D01*
X92690915Y-81827894D01*
X92767823Y-81953397D01*
X92774987Y-81965088D01*
X92921250Y-82133938D01*
X93093126Y-82276632D01*
X93163595Y-82317811D01*
X93166445Y-82319476D01*
X93215169Y-82371114D01*
X93228240Y-82440897D01*
X93201509Y-82506669D01*
X93161055Y-82540027D01*
X93148607Y-82546507D01*
X93144474Y-82549610D01*
X93144471Y-82549612D01*
X93069857Y-82605634D01*
X92969965Y-82680635D01*
X92815629Y-82842138D01*
X92812715Y-82846410D01*
X92812714Y-82846411D01*
X92781750Y-82891803D01*
X92689743Y-83026680D01*
X92687564Y-83031375D01*
X92600579Y-83218769D01*
X92595688Y-83229305D01*
X92535989Y-83444570D01*
X92512251Y-83666695D01*
X91658500Y-83666695D01*
X91658500Y-68228134D01*
X92003823Y-68228134D01*
X92010578Y-68290316D01*
X92061708Y-68426705D01*
X92149062Y-68543261D01*
X92265618Y-68630615D01*
X92402007Y-68681745D01*
X92464189Y-68688500D01*
X94560457Y-68688500D01*
X94622639Y-68681745D01*
X94759028Y-68630615D01*
X94875584Y-68543261D01*
X94962938Y-68426705D01*
X95014068Y-68290316D01*
X95020823Y-68228134D01*
X95020823Y-67910000D01*
X104260000Y-67910000D01*
X122260000Y-67910000D01*
X122260000Y-61610000D01*
X104260000Y-61610000D01*
X104260000Y-67910000D01*
X95020823Y-67910000D01*
X95020823Y-66131866D01*
X95014068Y-66069684D01*
X94962938Y-65933295D01*
X94875584Y-65816739D01*
X94759028Y-65729385D01*
X94622639Y-65678255D01*
X94560457Y-65671500D01*
X92464189Y-65671500D01*
X92402007Y-65678255D01*
X92265618Y-65729385D01*
X92149062Y-65816739D01*
X92061708Y-65933295D01*
X92010578Y-66069684D01*
X92003823Y-66131866D01*
X92003823Y-68228134D01*
X91658500Y-68228134D01*
X91658500Y-61324500D01*
X91678502Y-61256379D01*
X91732158Y-61209886D01*
X91784500Y-61198500D01*
X188435500Y-61198500D01*
X188503621Y-61218502D01*
G37*
%TD.AperFunction*%
%TA.AperFunction,Conductor*%
G36*
X116018799Y-74896502D02*
G01*
X116024739Y-74900564D01*
X116121848Y-74971118D01*
X116127874Y-74973801D01*
X116127881Y-74973805D01*
X116170971Y-74992989D01*
X116225067Y-75038969D01*
X116245717Y-75106896D01*
X116226365Y-75175204D01*
X116208818Y-75197191D01*
X108551413Y-82854595D01*
X108489101Y-82888621D01*
X108462318Y-82891500D01*
X95031850Y-82891500D01*
X94963729Y-82871498D01*
X94938656Y-82850299D01*
X94808151Y-82706876D01*
X94808148Y-82706873D01*
X94804670Y-82703051D01*
X94800619Y-82699852D01*
X94800615Y-82699848D01*
X94633414Y-82567800D01*
X94633410Y-82567798D01*
X94629359Y-82564598D01*
X94588053Y-82541796D01*
X94538084Y-82491364D01*
X94523312Y-82421921D01*
X94548428Y-82355516D01*
X94575780Y-82328909D01*
X94619603Y-82297650D01*
X94754860Y-82201173D01*
X94764134Y-82191932D01*
X94909435Y-82047137D01*
X94913096Y-82043489D01*
X94916169Y-82039213D01*
X94929276Y-82020973D01*
X94985271Y-81977326D01*
X95031598Y-81968500D01*
X95315786Y-81968500D01*
X95317106Y-81968507D01*
X95407221Y-81969451D01*
X95449597Y-81960289D01*
X95462163Y-81958231D01*
X95505255Y-81953397D01*
X95511906Y-81951081D01*
X95511910Y-81951080D01*
X95536930Y-81942367D01*
X95551742Y-81938204D01*
X95577619Y-81932609D01*
X95584510Y-81931119D01*
X95623813Y-81912792D01*
X95635589Y-81908010D01*
X95676552Y-81893745D01*
X95682527Y-81890011D01*
X95682530Y-81890010D01*
X95704995Y-81875973D01*
X95718512Y-81868634D01*
X95742514Y-81857441D01*
X95742515Y-81857440D01*
X95748902Y-81854462D01*
X95783153Y-81827894D01*
X95793612Y-81820598D01*
X95824404Y-81801358D01*
X95824407Y-81801356D01*
X95830376Y-81797626D01*
X95859179Y-81769024D01*
X95859804Y-81768439D01*
X95860470Y-81767922D01*
X95886460Y-81741932D01*
X95959082Y-81669815D01*
X95959740Y-81668778D01*
X95960843Y-81667549D01*
X99320324Y-78308068D01*
X102714986Y-74913405D01*
X102777298Y-74879379D01*
X102804081Y-74876500D01*
X115950678Y-74876500D01*
X116018799Y-74896502D01*
G37*
%TD.AperFunction*%
%TD*%
M02*
