%TF.GenerationSoftware,KiCad,Pcbnew,6.0.8-f2edbf62ab~116~ubuntu20.04.1*%
%TF.CreationDate,2023-02-28T14:51:59-03:00*%
%TF.ProjectId,placa-TAI,706c6163-612d-4544-9149-2e6b69636164,rev?*%
%TF.SameCoordinates,Original*%
%TF.FileFunction,Drillmap*%
%TF.FilePolarity,Positive*%
%FSLAX45Y45*%
G04 Gerber Fmt 4.5, Leading zero omitted, Abs format (unit mm)*
G04 Created by KiCad (PCBNEW 6.0.8-f2edbf62ab~116~ubuntu20.04.1) date 2023-02-28 14:51:59*
%MOMM*%
%LPD*%
G01*
G04 APERTURE LIST*
%ADD10C,0.100000*%
%ADD11C,0.200000*%
G04 APERTURE END LIST*
D10*
X9115000Y-6069000D02*
X18907000Y-6069000D01*
X18907000Y-6069000D02*
X18907000Y-12100000D01*
X18907000Y-12100000D02*
X9115000Y-12100000D01*
X9115000Y-12100000D02*
X9115000Y-6069000D01*
D11*
X9367619Y-12415476D02*
X9367619Y-12215476D01*
X9415238Y-12215476D01*
X9443810Y-12225000D01*
X9462857Y-12244048D01*
X9472381Y-12263095D01*
X9481905Y-12301190D01*
X9481905Y-12329762D01*
X9472381Y-12367857D01*
X9462857Y-12386905D01*
X9443810Y-12405952D01*
X9415238Y-12415476D01*
X9367619Y-12415476D01*
X9567619Y-12415476D02*
X9567619Y-12282143D01*
X9567619Y-12320238D02*
X9577143Y-12301190D01*
X9586667Y-12291667D01*
X9605714Y-12282143D01*
X9624762Y-12282143D01*
X9691429Y-12415476D02*
X9691429Y-12282143D01*
X9691429Y-12215476D02*
X9681905Y-12225000D01*
X9691429Y-12234524D01*
X9700952Y-12225000D01*
X9691429Y-12215476D01*
X9691429Y-12234524D01*
X9815238Y-12415476D02*
X9796190Y-12405952D01*
X9786667Y-12386905D01*
X9786667Y-12215476D01*
X9920000Y-12415476D02*
X9900952Y-12405952D01*
X9891429Y-12386905D01*
X9891429Y-12215476D01*
X10148571Y-12415476D02*
X10148571Y-12215476D01*
X10215238Y-12358333D01*
X10281905Y-12215476D01*
X10281905Y-12415476D01*
X10462857Y-12415476D02*
X10462857Y-12310714D01*
X10453333Y-12291667D01*
X10434286Y-12282143D01*
X10396190Y-12282143D01*
X10377143Y-12291667D01*
X10462857Y-12405952D02*
X10443810Y-12415476D01*
X10396190Y-12415476D01*
X10377143Y-12405952D01*
X10367619Y-12386905D01*
X10367619Y-12367857D01*
X10377143Y-12348809D01*
X10396190Y-12339286D01*
X10443810Y-12339286D01*
X10462857Y-12329762D01*
X10558095Y-12282143D02*
X10558095Y-12482143D01*
X10558095Y-12291667D02*
X10577143Y-12282143D01*
X10615238Y-12282143D01*
X10634286Y-12291667D01*
X10643810Y-12301190D01*
X10653333Y-12320238D01*
X10653333Y-12377381D01*
X10643810Y-12396428D01*
X10634286Y-12405952D01*
X10615238Y-12415476D01*
X10577143Y-12415476D01*
X10558095Y-12405952D01*
X10739048Y-12396428D02*
X10748571Y-12405952D01*
X10739048Y-12415476D01*
X10729524Y-12405952D01*
X10739048Y-12396428D01*
X10739048Y-12415476D01*
X10739048Y-12291667D02*
X10748571Y-12301190D01*
X10739048Y-12310714D01*
X10729524Y-12301190D01*
X10739048Y-12291667D01*
X10739048Y-12310714D01*
M02*
