%TF.GenerationSoftware,KiCad,Pcbnew,6.0.8-f2edbf62ab~116~ubuntu20.04.1*%
%TF.CreationDate,2023-02-28T14:52:02-03:00*%
%TF.ProjectId,placa-TAI,706c6163-612d-4544-9149-2e6b69636164,rev?*%
%TF.SameCoordinates,Original*%
%TF.FileFunction,Paste,Top*%
%TF.FilePolarity,Positive*%
%FSLAX46Y46*%
G04 Gerber Fmt 4.6, Leading zero omitted, Abs format (unit mm)*
G04 Created by KiCad (PCBNEW 6.0.8-f2edbf62ab~116~ubuntu20.04.1) date 2023-02-28 14:52:02*
%MOMM*%
%LPD*%
G01*
G04 APERTURE LIST*
%ADD10R,2.000000X0.900000*%
%ADD11R,0.900000X2.000000*%
%ADD12R,1.330000X1.330000*%
G04 APERTURE END LIST*
D10*
%TO.C,U1*%
X104760000Y-69100000D03*
X104760000Y-70370000D03*
X104760000Y-71640000D03*
X104760000Y-72910000D03*
X104760000Y-74180000D03*
X104760000Y-75450000D03*
X104760000Y-76720000D03*
X104760000Y-77990000D03*
X104760000Y-79260000D03*
X104760000Y-80530000D03*
X104760000Y-81800000D03*
X104760000Y-83070000D03*
X104760000Y-84340000D03*
X104760000Y-85610000D03*
D11*
X107545000Y-86610000D03*
X108815000Y-86610000D03*
X110085000Y-86610000D03*
X111355000Y-86610000D03*
X112625000Y-86610000D03*
X113895000Y-86610000D03*
X115165000Y-86610000D03*
X116435000Y-86610000D03*
X117705000Y-86610000D03*
X118975000Y-86610000D03*
D10*
X121760000Y-85610000D03*
X121760000Y-84340000D03*
X121760000Y-83070000D03*
X121760000Y-81800000D03*
X121760000Y-80530000D03*
X121760000Y-79260000D03*
X121760000Y-77990000D03*
X121760000Y-76720000D03*
X121760000Y-75450000D03*
X121760000Y-74180000D03*
X121760000Y-72910000D03*
X121760000Y-71640000D03*
X121760000Y-70370000D03*
X121760000Y-69100000D03*
D12*
X110425000Y-74765000D03*
X112260000Y-74765000D03*
X114095000Y-74765000D03*
X110425000Y-76600000D03*
X112260000Y-76600000D03*
X114095000Y-76600000D03*
X110425000Y-78435000D03*
X112260000Y-78435000D03*
X114095000Y-78435000D03*
%TD*%
M02*
