M48
; DRILL file {KiCad 6.0.8-f2edbf62ab~116~ubuntu20.04.1} date ter 28 fev 2023 14:51:59
; FORMAT={-:-/ absolute / inch / decimal}
; #@! TF.CreationDate,2023-02-28T14:51:59-03:00
; #@! TF.GenerationSoftware,Kicad,Pcbnew,6.0.8-f2edbf62ab~116~ubuntu20.04.1
; #@! TF.FileFunction,Plated,1,2,PTH
FMAT,2
INCH
; #@! TA.AperFunction,Plated,PTH,ViaDrill
T1C0.0157
; #@! TA.AperFunction,Plated,PTH,ComponentDrill
T2C0.0315
; #@! TA.AperFunction,Plated,PTH,ComponentDrill
T3C0.0320
; #@! TA.AperFunction,Plated,PTH,ComponentDrill
T4C0.0354
; #@! TA.AperFunction,Plated,PTH,ComponentDrill
T5C0.0394
; #@! TA.AperFunction,Plated,PTH,ComponentDrill
T6C0.0472
; #@! TA.AperFunction,Plated,PTH,ComponentDrill
T7C0.0689
%
G90
G05
T1
X3.672Y-3.7933
X3.672Y-3.8933
X3.672Y-3.9933
X3.672Y-4.0933
X3.772Y-3.7933
X3.772Y-3.8933
X3.772Y-3.9933
X3.772Y-4.0933
X3.774Y-2.4441
X3.774Y-2.5441
X3.872Y-3.9933
X3.872Y-4.0933
X3.874Y-2.4441
X3.874Y-2.5441
X3.974Y-2.4441
X3.974Y-2.5441
X4.1878Y-3.9087
X4.1878Y-4.0087
X4.1878Y-4.1087
X4.1878Y-4.2087
X4.2626Y-3.1118
X4.2626Y-3.1795
X4.2634Y-3.1469
X4.2878Y-3.9087
X4.2878Y-4.0087
X4.2878Y-4.1087
X4.2878Y-4.2087
X4.3319Y-2.7394
X4.3319Y-2.8394
X4.3878Y-3.9087
X4.3878Y-4.0087
X4.3878Y-4.1087
X4.3878Y-4.2087
X4.4079Y-3.5689
X4.4319Y-2.7394
X4.4319Y-2.8394
X4.5319Y-2.7394
X4.5319Y-2.8394
X4.5683Y-3.3288
X4.574Y-3.1224
X4.5897Y-2.9205
X4.7103Y-2.8704
X4.9138Y-2.8791
X4.9138Y-2.9791
X4.9154Y-2.4689
X4.9154Y-2.5689
X4.9154Y-2.6689
X4.9154Y-2.7689
X5.0138Y-2.8791
X5.0138Y-2.9791
X5.0154Y-2.4689
X5.0154Y-2.5689
X5.0154Y-2.6689
X5.0154Y-2.7689
X5.1138Y-2.8791
X5.1138Y-2.9791
X5.1154Y-2.4689
X5.1154Y-2.5689
X5.1154Y-2.6689
X5.1154Y-2.7689
X5.3815Y-3.4429
X5.3815Y-3.5429
X5.3815Y-3.6429
X5.3815Y-3.7429
X5.4815Y-3.4429
X5.4815Y-3.5429
X5.4815Y-3.6429
X5.4815Y-3.7429
X5.5815Y-3.4429
X5.5815Y-3.5429
X5.5815Y-3.6429
X5.5815Y-3.7429
X5.9138Y-3.9669
X5.9138Y-4.0669
X5.9138Y-4.1669
X5.9138Y-4.2669
X5.9138Y-4.3669
X5.9138Y-4.4669
X5.9138Y-4.5669
X5.9563Y-2.4516
X5.9563Y-2.5516
X5.9563Y-2.6516
X6.0138Y-3.9669
X6.0138Y-4.0669
X6.0138Y-4.1669
X6.0138Y-4.2669
X6.0138Y-4.3669
X6.0138Y-4.4669
X6.0138Y-4.5669
X6.0563Y-2.4516
X6.0563Y-2.5516
X6.0563Y-2.6516
X6.1138Y-3.9669
X6.1138Y-4.0669
X6.1138Y-4.1669
X6.1138Y-4.2669
X6.1138Y-4.3669
X6.1138Y-4.4669
X6.1138Y-4.5669
X6.1563Y-2.4516
X6.1563Y-2.5516
X6.1563Y-2.6516
X6.2138Y-3.9669
X6.2138Y-4.0669
X6.2138Y-4.1669
X6.2138Y-4.2669
X6.2138Y-4.3669
X6.2138Y-4.4669
X6.2138Y-4.5669
X6.2563Y-2.4516
X6.2563Y-2.5516
X6.2563Y-2.6516
X6.2854Y-3.689
X6.2854Y-3.789
X6.2969Y-3.9677
X6.2969Y-4.0677
X6.2969Y-4.1677
X6.2969Y-4.2677
X6.2969Y-4.3677
X6.2969Y-4.4677
X6.2969Y-4.5677
X6.3854Y-3.689
X6.3854Y-3.789
X6.3969Y-3.9677
X6.3969Y-4.0677
X6.3969Y-4.1677
X6.3969Y-4.2677
X6.3969Y-4.3677
X6.3969Y-4.4677
X6.3969Y-4.5677
X6.4854Y-3.689
X6.4854Y-3.789
X6.4969Y-3.9677
X6.4969Y-4.0677
X6.4969Y-4.1677
X6.4969Y-4.2677
X6.4969Y-4.3677
X6.4969Y-4.4677
X6.4969Y-4.5677
X6.5744Y-3.6913
X6.5744Y-3.7913
X6.5969Y-3.9677
X6.5969Y-4.0677
X6.5969Y-4.1677
X6.5969Y-4.2677
X6.5969Y-4.3677
X6.5969Y-4.4677
X6.5969Y-4.5677
X6.6744Y-3.6913
X6.6744Y-3.7913
X6.6756Y-3.3091
X6.6756Y-3.4091
X6.6756Y-3.5091
X6.6756Y-3.6091
X6.6799Y-3.1866
X6.6862Y-3.0382
X6.6874Y-2.5043
X6.6874Y-2.6043
X6.6874Y-2.7043
X6.6909Y-2.7925
X6.6909Y-2.8807
X6.6969Y-3.9677
X6.6969Y-4.0677
X6.6969Y-4.1677
X6.6969Y-4.2677
X6.6969Y-4.3677
X6.6969Y-4.4677
X6.6969Y-4.5677
X6.7744Y-3.6913
X6.7744Y-3.7913
X6.7756Y-3.3091
X6.7756Y-3.4091
X6.7756Y-3.5091
X6.7756Y-3.6091
X6.7799Y-3.1866
X6.7862Y-3.0382
X6.7874Y-2.5043
X6.7874Y-2.6043
X6.7874Y-2.7043
X6.7909Y-2.7925
X6.7909Y-2.8807
X6.7969Y-3.9677
X6.7969Y-4.0677
X6.7969Y-4.1677
X6.7969Y-4.2677
X6.7969Y-4.3677
X6.7969Y-4.4677
X6.7969Y-4.5677
X6.8701Y-2.5059
X6.8701Y-2.6059
X6.8701Y-2.7059
X6.8736Y-3.6878
X6.8736Y-3.7878
X6.8756Y-3.3091
X6.8756Y-3.4091
X6.8756Y-3.5091
X6.8756Y-3.6091
X6.8799Y-3.1866
X6.8862Y-3.0382
X6.8909Y-2.7925
X6.8909Y-2.8807
X6.8969Y-3.9677
X6.8969Y-4.0677
X6.8969Y-4.1677
X6.8969Y-4.2677
X6.8969Y-4.3677
X6.8969Y-4.4677
X6.8969Y-4.5677
X6.9701Y-2.5059
X6.9701Y-2.6059
X6.9701Y-2.7059
X6.9969Y-3.9677
X6.9969Y-4.0677
X6.9969Y-4.1677
X6.9969Y-4.2677
X6.9969Y-4.3677
X6.9969Y-4.4677
X6.9969Y-4.5677
X7.0701Y-2.5059
X7.0701Y-2.6059
X7.0701Y-2.7059
X7.0969Y-3.9677
X7.0969Y-4.0677
X7.0969Y-4.1677
X7.0969Y-4.2677
X7.0969Y-4.3677
X7.0969Y-4.4677
X7.0969Y-4.5677
X7.1701Y-2.5059
X7.1701Y-2.6059
X7.1701Y-2.7059
X7.1969Y-3.9677
X7.1969Y-4.0677
X7.1969Y-4.1677
X7.1969Y-4.2677
X7.1969Y-4.3677
X7.1969Y-4.4677
X7.1969Y-4.5677
T2
X3.8209Y-3.6866
X4.1209Y-3.6866
X4.4657Y-3.6866
X4.7657Y-3.6866
X5.1472Y-3.2969
X5.1524Y-3.1059
X5.4472Y-3.2969
X5.4524Y-3.1059
X5.6874Y-3.5417
X5.6874Y-3.7122
X5.6988Y-2.9531
X5.6988Y-3.3299
X5.9874Y-3.5417
X5.9874Y-3.7122
X5.9988Y-2.9531
X5.9988Y-3.3299
X6.1933Y-3.5516
X6.2Y-3.3335
X6.202Y-3.0878
X6.4933Y-3.5516
X6.5Y-3.3335
X6.502Y-3.0878
T3
X3.8209Y-3.9512
X3.8209Y-4.1512
X4.1209Y-3.9512
X4.1209Y-4.1512
X4.4657Y-3.9512
X4.4657Y-4.1512
X4.7657Y-3.9512
X4.7657Y-4.1512
T4
X5.7986Y-2.624
X5.8986Y-2.624
T5
X3.6816Y-2.6449
X3.6959Y-3.0953
X3.6959Y-3.1953
X3.6959Y-3.2953
X3.6959Y-3.3953
X3.9769Y-2.6449
X4.1497Y-4.5063
X4.445Y-4.5063
X4.9777Y-3.6232
X4.9777Y-4.0846
X5.2489Y-2.6449
X5.2729Y-3.6232
X5.2729Y-4.0846
X5.5317Y-4.1382
X5.5317Y-4.2382
X5.5317Y-4.3382
X5.5317Y-4.4382
X5.5442Y-2.6449
X6.2054Y-2.6449
X6.5007Y-2.6449
T6
X4.7303Y-4.5169
X4.9272Y-4.5169
X5.124Y-4.5169
T7
X3.7417Y-4.5839
X3.8945Y-4.5839
X7.2654Y-3.4962
X7.2654Y-3.6489
X7.2673Y-2.9762
X7.2673Y-3.1289
T0
M30
