%TF.GenerationSoftware,KiCad,Pcbnew,6.0.8-f2edbf62ab~116~ubuntu20.04.1*%
%TF.CreationDate,2023-02-28T14:51:59-03:00*%
%TF.ProjectId,placa-TAI,706c6163-612d-4544-9149-2e6b69636164,rev?*%
%TF.SameCoordinates,Original*%
%TF.FileFunction,Drillmap*%
%TF.FilePolarity,Positive*%
%FSLAX45Y45*%
G04 Gerber Fmt 4.5, Leading zero omitted, Abs format (unit mm)*
G04 Created by KiCad (PCBNEW 6.0.8-f2edbf62ab~116~ubuntu20.04.1) date 2023-02-28 14:51:59*
%MOMM*%
%LPD*%
G01*
G04 APERTURE LIST*
%ADD10C,0.100000*%
%ADD11C,0.200000*%
%ADD12C,0.040000*%
%ADD13C,0.080000*%
%ADD14C,0.081280*%
%ADD15C,0.090000*%
%ADD16C,0.120000*%
%ADD17C,0.175000*%
G04 APERTURE END LIST*
D10*
X9115000Y-6069000D02*
X18907000Y-6069000D01*
X18907000Y-6069000D02*
X18907000Y-12100000D01*
X18907000Y-12100000D02*
X9115000Y-12100000D01*
X9115000Y-12100000D02*
X9115000Y-6069000D01*
D11*
D12*
X9307000Y-9615000D02*
X9347000Y-9655000D01*
X9347000Y-9615000D02*
X9307000Y-9655000D01*
X9307000Y-9869000D02*
X9347000Y-9909000D01*
X9347000Y-9869000D02*
X9307000Y-9909000D01*
X9307000Y-10123000D02*
X9347000Y-10163000D01*
X9347000Y-10123000D02*
X9307000Y-10163000D01*
X9307000Y-10377000D02*
X9347000Y-10417000D01*
X9347000Y-10377000D02*
X9307000Y-10417000D01*
X9561000Y-9615000D02*
X9601000Y-9655000D01*
X9601000Y-9615000D02*
X9561000Y-9655000D01*
X9561000Y-9869000D02*
X9601000Y-9909000D01*
X9601000Y-9869000D02*
X9561000Y-9909000D01*
X9561000Y-10123000D02*
X9601000Y-10163000D01*
X9601000Y-10123000D02*
X9561000Y-10163000D01*
X9561000Y-10377000D02*
X9601000Y-10417000D01*
X9601000Y-10377000D02*
X9561000Y-10417000D01*
X9566000Y-6188000D02*
X9606000Y-6228000D01*
X9606000Y-6188000D02*
X9566000Y-6228000D01*
X9566000Y-6442000D02*
X9606000Y-6482000D01*
X9606000Y-6442000D02*
X9566000Y-6482000D01*
X9815000Y-10123000D02*
X9855000Y-10163000D01*
X9855000Y-10123000D02*
X9815000Y-10163000D01*
X9815000Y-10377000D02*
X9855000Y-10417000D01*
X9855000Y-10377000D02*
X9815000Y-10417000D01*
X9820000Y-6188000D02*
X9860000Y-6228000D01*
X9860000Y-6188000D02*
X9820000Y-6228000D01*
X9820000Y-6442000D02*
X9860000Y-6482000D01*
X9860000Y-6442000D02*
X9820000Y-6482000D01*
X10074000Y-6188000D02*
X10114000Y-6228000D01*
X10114000Y-6188000D02*
X10074000Y-6228000D01*
X10074000Y-6442000D02*
X10114000Y-6482000D01*
X10114000Y-6442000D02*
X10074000Y-6482000D01*
X10617000Y-9908000D02*
X10657000Y-9948000D01*
X10657000Y-9908000D02*
X10617000Y-9948000D01*
X10617000Y-10162000D02*
X10657000Y-10202000D01*
X10657000Y-10162000D02*
X10617000Y-10202000D01*
X10617000Y-10416000D02*
X10657000Y-10456000D01*
X10657000Y-10416000D02*
X10617000Y-10456000D01*
X10617000Y-10670000D02*
X10657000Y-10710000D01*
X10657000Y-10670000D02*
X10617000Y-10710000D01*
X10807000Y-7884000D02*
X10847000Y-7924000D01*
X10847000Y-7884000D02*
X10807000Y-7924000D01*
X10807000Y-8056000D02*
X10847000Y-8096000D01*
X10847000Y-8056000D02*
X10807000Y-8096000D01*
X10809000Y-7973000D02*
X10849000Y-8013000D01*
X10849000Y-7973000D02*
X10809000Y-8013000D01*
X10871000Y-9908000D02*
X10911000Y-9948000D01*
X10911000Y-9908000D02*
X10871000Y-9948000D01*
X10871000Y-10162000D02*
X10911000Y-10202000D01*
X10911000Y-10162000D02*
X10871000Y-10202000D01*
X10871000Y-10416000D02*
X10911000Y-10456000D01*
X10911000Y-10416000D02*
X10871000Y-10456000D01*
X10871000Y-10670000D02*
X10911000Y-10710000D01*
X10911000Y-10670000D02*
X10871000Y-10710000D01*
X10983000Y-6938000D02*
X11023000Y-6978000D01*
X11023000Y-6938000D02*
X10983000Y-6978000D01*
X10983000Y-7192000D02*
X11023000Y-7232000D01*
X11023000Y-7192000D02*
X10983000Y-7232000D01*
X11125000Y-9908000D02*
X11165000Y-9948000D01*
X11165000Y-9908000D02*
X11125000Y-9948000D01*
X11125000Y-10162000D02*
X11165000Y-10202000D01*
X11165000Y-10162000D02*
X11125000Y-10202000D01*
X11125000Y-10416000D02*
X11165000Y-10456000D01*
X11165000Y-10416000D02*
X11125000Y-10456000D01*
X11125000Y-10670000D02*
X11165000Y-10710000D01*
X11165000Y-10670000D02*
X11125000Y-10710000D01*
X11176000Y-9045000D02*
X11216000Y-9085000D01*
X11216000Y-9045000D02*
X11176000Y-9085000D01*
X11237000Y-6938000D02*
X11277000Y-6978000D01*
X11277000Y-6938000D02*
X11237000Y-6978000D01*
X11237000Y-7192000D02*
X11277000Y-7232000D01*
X11277000Y-7192000D02*
X11237000Y-7232000D01*
X11491000Y-6938000D02*
X11531000Y-6978000D01*
X11531000Y-6938000D02*
X11491000Y-6978000D01*
X11491000Y-7192000D02*
X11531000Y-7232000D01*
X11531000Y-7192000D02*
X11491000Y-7232000D01*
X11583370Y-8435230D02*
X11623370Y-8475230D01*
X11623370Y-8435230D02*
X11583370Y-8475230D01*
X11598000Y-7911000D02*
X11638000Y-7951000D01*
X11638000Y-7911000D02*
X11598000Y-7951000D01*
X11637860Y-7398000D02*
X11677860Y-7438000D01*
X11677860Y-7398000D02*
X11637860Y-7438000D01*
X11944180Y-7270760D02*
X11984180Y-7310760D01*
X11984180Y-7270760D02*
X11944180Y-7310760D01*
X12461000Y-7293000D02*
X12501000Y-7333000D01*
X12501000Y-7293000D02*
X12461000Y-7333000D01*
X12461000Y-7547000D02*
X12501000Y-7587000D01*
X12501000Y-7547000D02*
X12461000Y-7587000D01*
X12465000Y-6251000D02*
X12505000Y-6291000D01*
X12505000Y-6251000D02*
X12465000Y-6291000D01*
X12465000Y-6505000D02*
X12505000Y-6545000D01*
X12505000Y-6505000D02*
X12465000Y-6545000D01*
X12465000Y-6759000D02*
X12505000Y-6799000D01*
X12505000Y-6759000D02*
X12465000Y-6799000D01*
X12465000Y-7013000D02*
X12505000Y-7053000D01*
X12505000Y-7013000D02*
X12465000Y-7053000D01*
X12715000Y-7293000D02*
X12755000Y-7333000D01*
X12755000Y-7293000D02*
X12715000Y-7333000D01*
X12715000Y-7547000D02*
X12755000Y-7587000D01*
X12755000Y-7547000D02*
X12715000Y-7587000D01*
X12719000Y-6251000D02*
X12759000Y-6291000D01*
X12759000Y-6251000D02*
X12719000Y-6291000D01*
X12719000Y-6505000D02*
X12759000Y-6545000D01*
X12759000Y-6505000D02*
X12719000Y-6545000D01*
X12719000Y-6759000D02*
X12759000Y-6799000D01*
X12759000Y-6759000D02*
X12719000Y-6799000D01*
X12719000Y-7013000D02*
X12759000Y-7053000D01*
X12759000Y-7013000D02*
X12719000Y-7053000D01*
X12969000Y-7293000D02*
X13009000Y-7333000D01*
X13009000Y-7293000D02*
X12969000Y-7333000D01*
X12969000Y-7547000D02*
X13009000Y-7587000D01*
X13009000Y-7547000D02*
X12969000Y-7587000D01*
X12973000Y-6251000D02*
X13013000Y-6291000D01*
X13013000Y-6251000D02*
X12973000Y-6291000D01*
X12973000Y-6505000D02*
X13013000Y-6545000D01*
X13013000Y-6505000D02*
X12973000Y-6545000D01*
X12973000Y-6759000D02*
X13013000Y-6799000D01*
X13013000Y-6759000D02*
X12973000Y-6799000D01*
X12973000Y-7013000D02*
X13013000Y-7053000D01*
X13013000Y-7013000D02*
X12973000Y-7053000D01*
X13649000Y-8725000D02*
X13689000Y-8765000D01*
X13689000Y-8725000D02*
X13649000Y-8765000D01*
X13649000Y-8979000D02*
X13689000Y-9019000D01*
X13689000Y-8979000D02*
X13649000Y-9019000D01*
X13649000Y-9233000D02*
X13689000Y-9273000D01*
X13689000Y-9233000D02*
X13649000Y-9273000D01*
X13649000Y-9487000D02*
X13689000Y-9527000D01*
X13689000Y-9487000D02*
X13649000Y-9527000D01*
X13903000Y-8725000D02*
X13943000Y-8765000D01*
X13943000Y-8725000D02*
X13903000Y-8765000D01*
X13903000Y-8979000D02*
X13943000Y-9019000D01*
X13943000Y-8979000D02*
X13903000Y-9019000D01*
X13903000Y-9233000D02*
X13943000Y-9273000D01*
X13943000Y-9233000D02*
X13903000Y-9273000D01*
X13903000Y-9487000D02*
X13943000Y-9527000D01*
X13943000Y-9487000D02*
X13903000Y-9527000D01*
X14157000Y-8725000D02*
X14197000Y-8765000D01*
X14197000Y-8725000D02*
X14157000Y-8765000D01*
X14157000Y-8979000D02*
X14197000Y-9019000D01*
X14197000Y-8979000D02*
X14157000Y-9019000D01*
X14157000Y-9233000D02*
X14197000Y-9273000D01*
X14197000Y-9233000D02*
X14157000Y-9273000D01*
X14157000Y-9487000D02*
X14197000Y-9527000D01*
X14197000Y-9487000D02*
X14157000Y-9527000D01*
X15001000Y-10056000D02*
X15041000Y-10096000D01*
X15041000Y-10056000D02*
X15001000Y-10096000D01*
X15001000Y-10310000D02*
X15041000Y-10350000D01*
X15041000Y-10310000D02*
X15001000Y-10350000D01*
X15001000Y-10564000D02*
X15041000Y-10604000D01*
X15041000Y-10564000D02*
X15001000Y-10604000D01*
X15001000Y-10818000D02*
X15041000Y-10858000D01*
X15041000Y-10818000D02*
X15001000Y-10858000D01*
X15001000Y-11072000D02*
X15041000Y-11112000D01*
X15041000Y-11072000D02*
X15001000Y-11112000D01*
X15001000Y-11326000D02*
X15041000Y-11366000D01*
X15041000Y-11326000D02*
X15001000Y-11366000D01*
X15001000Y-11580000D02*
X15041000Y-11620000D01*
X15041000Y-11580000D02*
X15001000Y-11620000D01*
X15109000Y-6207000D02*
X15149000Y-6247000D01*
X15149000Y-6207000D02*
X15109000Y-6247000D01*
X15109000Y-6461000D02*
X15149000Y-6501000D01*
X15149000Y-6461000D02*
X15109000Y-6501000D01*
X15109000Y-6715000D02*
X15149000Y-6755000D01*
X15149000Y-6715000D02*
X15109000Y-6755000D01*
X15255000Y-10056000D02*
X15295000Y-10096000D01*
X15295000Y-10056000D02*
X15255000Y-10096000D01*
X15255000Y-10310000D02*
X15295000Y-10350000D01*
X15295000Y-10310000D02*
X15255000Y-10350000D01*
X15255000Y-10564000D02*
X15295000Y-10604000D01*
X15295000Y-10564000D02*
X15255000Y-10604000D01*
X15255000Y-10818000D02*
X15295000Y-10858000D01*
X15295000Y-10818000D02*
X15255000Y-10858000D01*
X15255000Y-11072000D02*
X15295000Y-11112000D01*
X15295000Y-11072000D02*
X15255000Y-11112000D01*
X15255000Y-11326000D02*
X15295000Y-11366000D01*
X15295000Y-11326000D02*
X15255000Y-11366000D01*
X15255000Y-11580000D02*
X15295000Y-11620000D01*
X15295000Y-11580000D02*
X15255000Y-11620000D01*
X15363000Y-6207000D02*
X15403000Y-6247000D01*
X15403000Y-6207000D02*
X15363000Y-6247000D01*
X15363000Y-6461000D02*
X15403000Y-6501000D01*
X15403000Y-6461000D02*
X15363000Y-6501000D01*
X15363000Y-6715000D02*
X15403000Y-6755000D01*
X15403000Y-6715000D02*
X15363000Y-6755000D01*
X15509000Y-10056000D02*
X15549000Y-10096000D01*
X15549000Y-10056000D02*
X15509000Y-10096000D01*
X15509000Y-10310000D02*
X15549000Y-10350000D01*
X15549000Y-10310000D02*
X15509000Y-10350000D01*
X15509000Y-10564000D02*
X15549000Y-10604000D01*
X15549000Y-10564000D02*
X15509000Y-10604000D01*
X15509000Y-10818000D02*
X15549000Y-10858000D01*
X15549000Y-10818000D02*
X15509000Y-10858000D01*
X15509000Y-11072000D02*
X15549000Y-11112000D01*
X15549000Y-11072000D02*
X15509000Y-11112000D01*
X15509000Y-11326000D02*
X15549000Y-11366000D01*
X15549000Y-11326000D02*
X15509000Y-11366000D01*
X15509000Y-11580000D02*
X15549000Y-11620000D01*
X15549000Y-11580000D02*
X15509000Y-11620000D01*
X15617000Y-6207000D02*
X15657000Y-6247000D01*
X15657000Y-6207000D02*
X15617000Y-6247000D01*
X15617000Y-6461000D02*
X15657000Y-6501000D01*
X15657000Y-6461000D02*
X15617000Y-6501000D01*
X15617000Y-6715000D02*
X15657000Y-6755000D01*
X15657000Y-6715000D02*
X15617000Y-6755000D01*
X15763000Y-10056000D02*
X15803000Y-10096000D01*
X15803000Y-10056000D02*
X15763000Y-10096000D01*
X15763000Y-10310000D02*
X15803000Y-10350000D01*
X15803000Y-10310000D02*
X15763000Y-10350000D01*
X15763000Y-10564000D02*
X15803000Y-10604000D01*
X15803000Y-10564000D02*
X15763000Y-10604000D01*
X15763000Y-10818000D02*
X15803000Y-10858000D01*
X15803000Y-10818000D02*
X15763000Y-10858000D01*
X15763000Y-11072000D02*
X15803000Y-11112000D01*
X15803000Y-11072000D02*
X15763000Y-11112000D01*
X15763000Y-11326000D02*
X15803000Y-11366000D01*
X15803000Y-11326000D02*
X15763000Y-11366000D01*
X15763000Y-11580000D02*
X15803000Y-11620000D01*
X15803000Y-11580000D02*
X15763000Y-11620000D01*
X15871000Y-6207000D02*
X15911000Y-6247000D01*
X15911000Y-6207000D02*
X15871000Y-6247000D01*
X15871000Y-6461000D02*
X15911000Y-6501000D01*
X15911000Y-6461000D02*
X15871000Y-6501000D01*
X15871000Y-6715000D02*
X15911000Y-6755000D01*
X15911000Y-6715000D02*
X15871000Y-6755000D01*
X15945000Y-9350000D02*
X15985000Y-9390000D01*
X15985000Y-9350000D02*
X15945000Y-9390000D01*
X15945000Y-9604000D02*
X15985000Y-9644000D01*
X15985000Y-9604000D02*
X15945000Y-9644000D01*
X15974000Y-10058000D02*
X16014000Y-10098000D01*
X16014000Y-10058000D02*
X15974000Y-10098000D01*
X15974000Y-10312000D02*
X16014000Y-10352000D01*
X16014000Y-10312000D02*
X15974000Y-10352000D01*
X15974000Y-10566000D02*
X16014000Y-10606000D01*
X16014000Y-10566000D02*
X15974000Y-10606000D01*
X15974000Y-10820000D02*
X16014000Y-10860000D01*
X16014000Y-10820000D02*
X15974000Y-10860000D01*
X15974000Y-11074000D02*
X16014000Y-11114000D01*
X16014000Y-11074000D02*
X15974000Y-11114000D01*
X15974000Y-11328000D02*
X16014000Y-11368000D01*
X16014000Y-11328000D02*
X15974000Y-11368000D01*
X15974000Y-11582000D02*
X16014000Y-11622000D01*
X16014000Y-11582000D02*
X15974000Y-11622000D01*
X16199000Y-9350000D02*
X16239000Y-9390000D01*
X16239000Y-9350000D02*
X16199000Y-9390000D01*
X16199000Y-9604000D02*
X16239000Y-9644000D01*
X16239000Y-9604000D02*
X16199000Y-9644000D01*
X16228000Y-10058000D02*
X16268000Y-10098000D01*
X16268000Y-10058000D02*
X16228000Y-10098000D01*
X16228000Y-10312000D02*
X16268000Y-10352000D01*
X16268000Y-10312000D02*
X16228000Y-10352000D01*
X16228000Y-10566000D02*
X16268000Y-10606000D01*
X16268000Y-10566000D02*
X16228000Y-10606000D01*
X16228000Y-10820000D02*
X16268000Y-10860000D01*
X16268000Y-10820000D02*
X16228000Y-10860000D01*
X16228000Y-11074000D02*
X16268000Y-11114000D01*
X16268000Y-11074000D02*
X16228000Y-11114000D01*
X16228000Y-11328000D02*
X16268000Y-11368000D01*
X16268000Y-11328000D02*
X16228000Y-11368000D01*
X16228000Y-11582000D02*
X16268000Y-11622000D01*
X16268000Y-11582000D02*
X16228000Y-11622000D01*
X16453000Y-9350000D02*
X16493000Y-9390000D01*
X16493000Y-9350000D02*
X16453000Y-9390000D01*
X16453000Y-9604000D02*
X16493000Y-9644000D01*
X16493000Y-9604000D02*
X16453000Y-9644000D01*
X16482000Y-10058000D02*
X16522000Y-10098000D01*
X16522000Y-10058000D02*
X16482000Y-10098000D01*
X16482000Y-10312000D02*
X16522000Y-10352000D01*
X16522000Y-10312000D02*
X16482000Y-10352000D01*
X16482000Y-10566000D02*
X16522000Y-10606000D01*
X16522000Y-10566000D02*
X16482000Y-10606000D01*
X16482000Y-10820000D02*
X16522000Y-10860000D01*
X16522000Y-10820000D02*
X16482000Y-10860000D01*
X16482000Y-11074000D02*
X16522000Y-11114000D01*
X16522000Y-11074000D02*
X16482000Y-11114000D01*
X16482000Y-11328000D02*
X16522000Y-11368000D01*
X16522000Y-11328000D02*
X16482000Y-11368000D01*
X16482000Y-11582000D02*
X16522000Y-11622000D01*
X16522000Y-11582000D02*
X16482000Y-11622000D01*
X16679000Y-9356000D02*
X16719000Y-9396000D01*
X16719000Y-9356000D02*
X16679000Y-9396000D01*
X16679000Y-9610000D02*
X16719000Y-9650000D01*
X16719000Y-9610000D02*
X16679000Y-9650000D01*
X16736000Y-10058000D02*
X16776000Y-10098000D01*
X16776000Y-10058000D02*
X16736000Y-10098000D01*
X16736000Y-10312000D02*
X16776000Y-10352000D01*
X16776000Y-10312000D02*
X16736000Y-10352000D01*
X16736000Y-10566000D02*
X16776000Y-10606000D01*
X16776000Y-10566000D02*
X16736000Y-10606000D01*
X16736000Y-10820000D02*
X16776000Y-10860000D01*
X16776000Y-10820000D02*
X16736000Y-10860000D01*
X16736000Y-11074000D02*
X16776000Y-11114000D01*
X16776000Y-11074000D02*
X16736000Y-11114000D01*
X16736000Y-11328000D02*
X16776000Y-11368000D01*
X16776000Y-11328000D02*
X16736000Y-11368000D01*
X16736000Y-11582000D02*
X16776000Y-11622000D01*
X16776000Y-11582000D02*
X16736000Y-11622000D01*
X16933000Y-9356000D02*
X16973000Y-9396000D01*
X16973000Y-9356000D02*
X16933000Y-9396000D01*
X16933000Y-9610000D02*
X16973000Y-9650000D01*
X16973000Y-9610000D02*
X16933000Y-9650000D01*
X16936000Y-8385000D02*
X16976000Y-8425000D01*
X16976000Y-8385000D02*
X16936000Y-8425000D01*
X16936000Y-8639000D02*
X16976000Y-8679000D01*
X16976000Y-8639000D02*
X16936000Y-8679000D01*
X16936000Y-8893000D02*
X16976000Y-8933000D01*
X16976000Y-8893000D02*
X16936000Y-8933000D01*
X16936000Y-9147000D02*
X16976000Y-9187000D01*
X16976000Y-9147000D02*
X16936000Y-9187000D01*
X16947000Y-8074000D02*
X16987000Y-8114000D01*
X16987000Y-8074000D02*
X16947000Y-8114000D01*
X16963000Y-7697000D02*
X17003000Y-7737000D01*
X17003000Y-7697000D02*
X16963000Y-7737000D01*
X16966000Y-6341000D02*
X17006000Y-6381000D01*
X17006000Y-6341000D02*
X16966000Y-6381000D01*
X16966000Y-6595000D02*
X17006000Y-6635000D01*
X17006000Y-6595000D02*
X16966000Y-6635000D01*
X16966000Y-6849000D02*
X17006000Y-6889000D01*
X17006000Y-6849000D02*
X16966000Y-6889000D01*
X16975000Y-7073000D02*
X17015000Y-7113000D01*
X17015000Y-7073000D02*
X16975000Y-7113000D01*
X16975000Y-7297000D02*
X17015000Y-7337000D01*
X17015000Y-7297000D02*
X16975000Y-7337000D01*
X16990000Y-10058000D02*
X17030000Y-10098000D01*
X17030000Y-10058000D02*
X16990000Y-10098000D01*
X16990000Y-10312000D02*
X17030000Y-10352000D01*
X17030000Y-10312000D02*
X16990000Y-10352000D01*
X16990000Y-10566000D02*
X17030000Y-10606000D01*
X17030000Y-10566000D02*
X16990000Y-10606000D01*
X16990000Y-10820000D02*
X17030000Y-10860000D01*
X17030000Y-10820000D02*
X16990000Y-10860000D01*
X16990000Y-11074000D02*
X17030000Y-11114000D01*
X17030000Y-11074000D02*
X16990000Y-11114000D01*
X16990000Y-11328000D02*
X17030000Y-11368000D01*
X17030000Y-11328000D02*
X16990000Y-11368000D01*
X16990000Y-11582000D02*
X17030000Y-11622000D01*
X17030000Y-11582000D02*
X16990000Y-11622000D01*
X17187000Y-9356000D02*
X17227000Y-9396000D01*
X17227000Y-9356000D02*
X17187000Y-9396000D01*
X17187000Y-9610000D02*
X17227000Y-9650000D01*
X17227000Y-9610000D02*
X17187000Y-9650000D01*
X17190000Y-8385000D02*
X17230000Y-8425000D01*
X17230000Y-8385000D02*
X17190000Y-8425000D01*
X17190000Y-8639000D02*
X17230000Y-8679000D01*
X17230000Y-8639000D02*
X17190000Y-8679000D01*
X17190000Y-8893000D02*
X17230000Y-8933000D01*
X17230000Y-8893000D02*
X17190000Y-8933000D01*
X17190000Y-9147000D02*
X17230000Y-9187000D01*
X17230000Y-9147000D02*
X17190000Y-9187000D01*
X17201000Y-8074000D02*
X17241000Y-8114000D01*
X17241000Y-8074000D02*
X17201000Y-8114000D01*
X17217000Y-7697000D02*
X17257000Y-7737000D01*
X17257000Y-7697000D02*
X17217000Y-7737000D01*
X17220000Y-6341000D02*
X17260000Y-6381000D01*
X17260000Y-6341000D02*
X17220000Y-6381000D01*
X17220000Y-6595000D02*
X17260000Y-6635000D01*
X17260000Y-6595000D02*
X17220000Y-6635000D01*
X17220000Y-6849000D02*
X17260000Y-6889000D01*
X17260000Y-6849000D02*
X17220000Y-6889000D01*
X17229000Y-7073000D02*
X17269000Y-7113000D01*
X17269000Y-7073000D02*
X17229000Y-7113000D01*
X17229000Y-7297000D02*
X17269000Y-7337000D01*
X17269000Y-7297000D02*
X17229000Y-7337000D01*
X17244000Y-10058000D02*
X17284000Y-10098000D01*
X17284000Y-10058000D02*
X17244000Y-10098000D01*
X17244000Y-10312000D02*
X17284000Y-10352000D01*
X17284000Y-10312000D02*
X17244000Y-10352000D01*
X17244000Y-10566000D02*
X17284000Y-10606000D01*
X17284000Y-10566000D02*
X17244000Y-10606000D01*
X17244000Y-10820000D02*
X17284000Y-10860000D01*
X17284000Y-10820000D02*
X17244000Y-10860000D01*
X17244000Y-11074000D02*
X17284000Y-11114000D01*
X17284000Y-11074000D02*
X17244000Y-11114000D01*
X17244000Y-11328000D02*
X17284000Y-11368000D01*
X17284000Y-11328000D02*
X17244000Y-11368000D01*
X17244000Y-11582000D02*
X17284000Y-11622000D01*
X17284000Y-11582000D02*
X17244000Y-11622000D01*
X17430000Y-6345000D02*
X17470000Y-6385000D01*
X17470000Y-6345000D02*
X17430000Y-6385000D01*
X17430000Y-6599000D02*
X17470000Y-6639000D01*
X17470000Y-6599000D02*
X17430000Y-6639000D01*
X17430000Y-6853000D02*
X17470000Y-6893000D01*
X17470000Y-6853000D02*
X17430000Y-6893000D01*
X17439000Y-9347000D02*
X17479000Y-9387000D01*
X17479000Y-9347000D02*
X17439000Y-9387000D01*
X17439000Y-9601000D02*
X17479000Y-9641000D01*
X17479000Y-9601000D02*
X17439000Y-9641000D01*
X17444000Y-8385000D02*
X17484000Y-8425000D01*
X17484000Y-8385000D02*
X17444000Y-8425000D01*
X17444000Y-8639000D02*
X17484000Y-8679000D01*
X17484000Y-8639000D02*
X17444000Y-8679000D01*
X17444000Y-8893000D02*
X17484000Y-8933000D01*
X17484000Y-8893000D02*
X17444000Y-8933000D01*
X17444000Y-9147000D02*
X17484000Y-9187000D01*
X17484000Y-9147000D02*
X17444000Y-9187000D01*
X17455000Y-8074000D02*
X17495000Y-8114000D01*
X17495000Y-8074000D02*
X17455000Y-8114000D01*
X17471000Y-7697000D02*
X17511000Y-7737000D01*
X17511000Y-7697000D02*
X17471000Y-7737000D01*
X17483000Y-7073000D02*
X17523000Y-7113000D01*
X17523000Y-7073000D02*
X17483000Y-7113000D01*
X17483000Y-7297000D02*
X17523000Y-7337000D01*
X17523000Y-7297000D02*
X17483000Y-7337000D01*
X17498000Y-10058000D02*
X17538000Y-10098000D01*
X17538000Y-10058000D02*
X17498000Y-10098000D01*
X17498000Y-10312000D02*
X17538000Y-10352000D01*
X17538000Y-10312000D02*
X17498000Y-10352000D01*
X17498000Y-10566000D02*
X17538000Y-10606000D01*
X17538000Y-10566000D02*
X17498000Y-10606000D01*
X17498000Y-10820000D02*
X17538000Y-10860000D01*
X17538000Y-10820000D02*
X17498000Y-10860000D01*
X17498000Y-11074000D02*
X17538000Y-11114000D01*
X17538000Y-11074000D02*
X17498000Y-11114000D01*
X17498000Y-11328000D02*
X17538000Y-11368000D01*
X17538000Y-11328000D02*
X17498000Y-11368000D01*
X17498000Y-11582000D02*
X17538000Y-11622000D01*
X17538000Y-11582000D02*
X17498000Y-11622000D01*
X17684000Y-6345000D02*
X17724000Y-6385000D01*
X17724000Y-6345000D02*
X17684000Y-6385000D01*
X17684000Y-6599000D02*
X17724000Y-6639000D01*
X17724000Y-6599000D02*
X17684000Y-6639000D01*
X17684000Y-6853000D02*
X17724000Y-6893000D01*
X17724000Y-6853000D02*
X17684000Y-6893000D01*
X17752000Y-10058000D02*
X17792000Y-10098000D01*
X17792000Y-10058000D02*
X17752000Y-10098000D01*
X17752000Y-10312000D02*
X17792000Y-10352000D01*
X17792000Y-10312000D02*
X17752000Y-10352000D01*
X17752000Y-10566000D02*
X17792000Y-10606000D01*
X17792000Y-10566000D02*
X17752000Y-10606000D01*
X17752000Y-10820000D02*
X17792000Y-10860000D01*
X17792000Y-10820000D02*
X17752000Y-10860000D01*
X17752000Y-11074000D02*
X17792000Y-11114000D01*
X17792000Y-11074000D02*
X17752000Y-11114000D01*
X17752000Y-11328000D02*
X17792000Y-11368000D01*
X17792000Y-11328000D02*
X17752000Y-11368000D01*
X17752000Y-11582000D02*
X17792000Y-11622000D01*
X17792000Y-11582000D02*
X17752000Y-11622000D01*
X17938000Y-6345000D02*
X17978000Y-6385000D01*
X17978000Y-6345000D02*
X17938000Y-6385000D01*
X17938000Y-6599000D02*
X17978000Y-6639000D01*
X17978000Y-6599000D02*
X17938000Y-6639000D01*
X17938000Y-6853000D02*
X17978000Y-6893000D01*
X17978000Y-6853000D02*
X17938000Y-6893000D01*
X18006000Y-10058000D02*
X18046000Y-10098000D01*
X18046000Y-10058000D02*
X18006000Y-10098000D01*
X18006000Y-10312000D02*
X18046000Y-10352000D01*
X18046000Y-10312000D02*
X18006000Y-10352000D01*
X18006000Y-10566000D02*
X18046000Y-10606000D01*
X18046000Y-10566000D02*
X18006000Y-10606000D01*
X18006000Y-10820000D02*
X18046000Y-10860000D01*
X18046000Y-10820000D02*
X18006000Y-10860000D01*
X18006000Y-11074000D02*
X18046000Y-11114000D01*
X18046000Y-11074000D02*
X18006000Y-11114000D01*
X18006000Y-11328000D02*
X18046000Y-11368000D01*
X18046000Y-11328000D02*
X18006000Y-11368000D01*
X18006000Y-11582000D02*
X18046000Y-11622000D01*
X18046000Y-11582000D02*
X18006000Y-11622000D01*
X18192000Y-6345000D02*
X18232000Y-6385000D01*
X18232000Y-6345000D02*
X18192000Y-6385000D01*
X18192000Y-6599000D02*
X18232000Y-6639000D01*
X18232000Y-6599000D02*
X18192000Y-6639000D01*
X18192000Y-6853000D02*
X18232000Y-6893000D01*
X18232000Y-6853000D02*
X18192000Y-6893000D01*
X18260000Y-10058000D02*
X18300000Y-10098000D01*
X18300000Y-10058000D02*
X18260000Y-10098000D01*
X18260000Y-10312000D02*
X18300000Y-10352000D01*
X18300000Y-10312000D02*
X18260000Y-10352000D01*
X18260000Y-10566000D02*
X18300000Y-10606000D01*
X18300000Y-10566000D02*
X18260000Y-10606000D01*
X18260000Y-10820000D02*
X18300000Y-10860000D01*
X18300000Y-10820000D02*
X18260000Y-10860000D01*
X18260000Y-11074000D02*
X18300000Y-11114000D01*
X18300000Y-11074000D02*
X18260000Y-11114000D01*
X18260000Y-11328000D02*
X18300000Y-11368000D01*
X18300000Y-11328000D02*
X18260000Y-11368000D01*
X18260000Y-11582000D02*
X18300000Y-11622000D01*
X18300000Y-11582000D02*
X18260000Y-11622000D01*
D13*
X9745000Y-9364000D02*
G75*
G03*
X9745000Y-9364000I-40000J0D01*
G01*
X10507000Y-9364000D02*
G75*
G03*
X10507000Y-9364000I-40000J0D01*
G01*
X11383000Y-9364000D02*
G75*
G03*
X11383000Y-9364000I-40000J0D01*
G01*
X12145000Y-9364000D02*
G75*
G03*
X12145000Y-9364000I-40000J0D01*
G01*
X13114000Y-8374000D02*
G75*
G03*
X13114000Y-8374000I-40000J0D01*
G01*
X13127000Y-7889000D02*
G75*
G03*
X13127000Y-7889000I-40000J0D01*
G01*
X13876000Y-8374000D02*
G75*
G03*
X13876000Y-8374000I-40000J0D01*
G01*
X13889000Y-7889000D02*
G75*
G03*
X13889000Y-7889000I-40000J0D01*
G01*
X14486000Y-8996000D02*
G75*
G03*
X14486000Y-8996000I-40000J0D01*
G01*
X14486000Y-9429000D02*
G75*
G03*
X14486000Y-9429000I-40000J0D01*
G01*
X14515000Y-7501000D02*
G75*
G03*
X14515000Y-7501000I-40000J0D01*
G01*
X14515000Y-8458000D02*
G75*
G03*
X14515000Y-8458000I-40000J0D01*
G01*
X15248000Y-8996000D02*
G75*
G03*
X15248000Y-8996000I-40000J0D01*
G01*
X15248000Y-9429000D02*
G75*
G03*
X15248000Y-9429000I-40000J0D01*
G01*
X15277000Y-7501000D02*
G75*
G03*
X15277000Y-7501000I-40000J0D01*
G01*
X15277000Y-8458000D02*
G75*
G03*
X15277000Y-8458000I-40000J0D01*
G01*
X15771000Y-9021000D02*
G75*
G03*
X15771000Y-9021000I-40000J0D01*
G01*
X15788000Y-8467000D02*
G75*
G03*
X15788000Y-8467000I-40000J0D01*
G01*
X15793000Y-7843000D02*
G75*
G03*
X15793000Y-7843000I-40000J0D01*
G01*
X16533000Y-9021000D02*
G75*
G03*
X16533000Y-9021000I-40000J0D01*
G01*
X16550000Y-8467000D02*
G75*
G03*
X16550000Y-8467000I-40000J0D01*
G01*
X16555000Y-7843000D02*
G75*
G03*
X16555000Y-7843000I-40000J0D01*
G01*
D14*
X9705000Y-9995360D02*
X9705000Y-10076640D01*
X9664360Y-10036000D02*
X9745640Y-10036000D01*
X9705000Y-10503360D02*
X9705000Y-10584640D01*
X9664360Y-10544000D02*
X9745640Y-10544000D01*
X10467000Y-9995360D02*
X10467000Y-10076640D01*
X10426360Y-10036000D02*
X10507640Y-10036000D01*
X10467000Y-10503360D02*
X10467000Y-10584640D01*
X10426360Y-10544000D02*
X10507640Y-10544000D01*
X11343000Y-9995360D02*
X11343000Y-10076640D01*
X11302360Y-10036000D02*
X11383640Y-10036000D01*
X11343000Y-10503360D02*
X11343000Y-10584640D01*
X11302360Y-10544000D02*
X11383640Y-10544000D01*
X12105000Y-9995360D02*
X12105000Y-10076640D01*
X12064360Y-10036000D02*
X12145640Y-10036000D01*
X12105000Y-10503360D02*
X12105000Y-10584640D01*
X12064360Y-10544000D02*
X12145640Y-10544000D01*
D15*
X14760320Y-6696820D02*
X14760320Y-6633180D01*
X14696680Y-6633180D01*
X14696680Y-6696820D01*
X14760320Y-6696820D01*
X15014320Y-6696820D02*
X15014320Y-6633180D01*
X14950680Y-6633180D01*
X14950680Y-6696820D01*
X15014320Y-6696820D01*
D10*
X9351232Y-6768000D02*
X9401232Y-6718000D01*
X9351232Y-6668000D01*
X9301232Y-6718000D01*
X9351232Y-6768000D01*
X9387500Y-7912000D02*
X9437500Y-7862000D01*
X9387500Y-7812000D01*
X9337500Y-7862000D01*
X9387500Y-7912000D01*
X9387500Y-8166000D02*
X9437500Y-8116000D01*
X9387500Y-8066000D01*
X9337500Y-8116000D01*
X9387500Y-8166000D01*
X9387500Y-8420000D02*
X9437500Y-8370000D01*
X9387500Y-8320000D01*
X9337500Y-8370000D01*
X9387500Y-8420000D01*
X9387500Y-8674000D02*
X9437500Y-8624000D01*
X9387500Y-8574000D01*
X9337500Y-8624000D01*
X9387500Y-8674000D01*
X10101232Y-6768000D02*
X10151232Y-6718000D01*
X10101232Y-6668000D01*
X10051232Y-6718000D01*
X10101232Y-6768000D01*
X10540230Y-11496000D02*
X10590230Y-11446000D01*
X10540230Y-11396000D01*
X10490230Y-11446000D01*
X10540230Y-11496000D01*
X11290230Y-11496000D02*
X11340230Y-11446000D01*
X11290230Y-11396000D01*
X11240230Y-11446000D01*
X11290230Y-11496000D01*
X12643232Y-9253000D02*
X12693232Y-9203000D01*
X12643232Y-9153000D01*
X12593232Y-9203000D01*
X12643232Y-9253000D01*
X12643232Y-10425000D02*
X12693232Y-10375000D01*
X12643232Y-10325000D01*
X12593232Y-10375000D01*
X12643232Y-10425000D01*
X13332230Y-6768000D02*
X13382230Y-6718000D01*
X13332230Y-6668000D01*
X13282230Y-6718000D01*
X13332230Y-6768000D01*
X13393232Y-9253000D02*
X13443232Y-9203000D01*
X13393232Y-9153000D01*
X13343232Y-9203000D01*
X13393232Y-9253000D01*
X13393232Y-10425000D02*
X13443232Y-10375000D01*
X13393232Y-10325000D01*
X13343232Y-10375000D01*
X13393232Y-10425000D01*
X14050500Y-10561000D02*
X14100500Y-10511000D01*
X14050500Y-10461000D01*
X14000500Y-10511000D01*
X14050500Y-10561000D01*
X14050500Y-10815000D02*
X14100500Y-10765000D01*
X14050500Y-10715000D01*
X14000500Y-10765000D01*
X14050500Y-10815000D01*
X14050500Y-11069000D02*
X14100500Y-11019000D01*
X14050500Y-10969000D01*
X14000500Y-11019000D01*
X14050500Y-11069000D01*
X14050500Y-11323000D02*
X14100500Y-11273000D01*
X14050500Y-11223000D01*
X14000500Y-11273000D01*
X14050500Y-11323000D01*
X14082230Y-6768000D02*
X14132230Y-6718000D01*
X14082230Y-6668000D01*
X14032230Y-6718000D01*
X14082230Y-6768000D01*
X15761770Y-6768000D02*
X15811770Y-6718000D01*
X15761770Y-6668000D01*
X15711770Y-6718000D01*
X15761770Y-6768000D01*
X16511770Y-6768000D02*
X16561770Y-6718000D01*
X16511770Y-6668000D01*
X16461770Y-6718000D01*
X16511770Y-6768000D01*
D16*
X11955000Y-11413000D02*
X12075000Y-11533000D01*
X12075000Y-11413000D02*
X11955000Y-11533000D01*
X12075000Y-11473000D02*
G75*
G03*
X12075000Y-11473000I-60000J0D01*
G01*
X12455000Y-11413000D02*
X12575000Y-11533000D01*
X12575000Y-11413000D02*
X12455000Y-11533000D01*
X12575000Y-11473000D02*
G75*
G03*
X12575000Y-11473000I-60000J0D01*
G01*
X12955000Y-11413000D02*
X13075000Y-11533000D01*
X13075000Y-11413000D02*
X12955000Y-11533000D01*
X13075000Y-11473000D02*
G75*
G03*
X13075000Y-11473000I-60000J0D01*
G01*
D17*
X9416500Y-11555500D02*
X9591500Y-11730500D01*
X9591500Y-11555500D02*
X9416500Y-11730500D01*
X9504000Y-11555500D02*
X9504000Y-11730500D01*
X9416500Y-11643000D02*
X9591500Y-11643000D01*
X9804500Y-11555500D02*
X9979500Y-11730500D01*
X9979500Y-11555500D02*
X9804500Y-11730500D01*
X9892000Y-11555500D02*
X9892000Y-11730500D01*
X9804500Y-11643000D02*
X9979500Y-11643000D01*
X18366500Y-8792750D02*
X18541500Y-8967750D01*
X18541500Y-8792750D02*
X18366500Y-8967750D01*
X18454000Y-8792750D02*
X18454000Y-8967750D01*
X18366500Y-8880250D02*
X18541500Y-8880250D01*
X18366500Y-9180750D02*
X18541500Y-9355750D01*
X18541500Y-9180750D02*
X18366500Y-9355750D01*
X18454000Y-9180750D02*
X18454000Y-9355750D01*
X18366500Y-9268250D02*
X18541500Y-9268250D01*
X18371500Y-7472000D02*
X18546500Y-7647000D01*
X18546500Y-7472000D02*
X18371500Y-7647000D01*
X18459000Y-7472000D02*
X18459000Y-7647000D01*
X18371500Y-7559500D02*
X18546500Y-7559500D01*
X18371500Y-7860000D02*
X18546500Y-8035000D01*
X18546500Y-7860000D02*
X18371500Y-8035000D01*
X18459000Y-7860000D02*
X18459000Y-8035000D01*
X18371500Y-7947500D02*
X18546500Y-7947500D01*
D11*
X9367619Y-12415476D02*
X9367619Y-12215476D01*
X9415238Y-12215476D01*
X9443810Y-12225000D01*
X9462857Y-12244048D01*
X9472381Y-12263095D01*
X9481905Y-12301190D01*
X9481905Y-12329762D01*
X9472381Y-12367857D01*
X9462857Y-12386905D01*
X9443810Y-12405952D01*
X9415238Y-12415476D01*
X9367619Y-12415476D01*
X9567619Y-12415476D02*
X9567619Y-12282143D01*
X9567619Y-12320238D02*
X9577143Y-12301190D01*
X9586667Y-12291667D01*
X9605714Y-12282143D01*
X9624762Y-12282143D01*
X9691429Y-12415476D02*
X9691429Y-12282143D01*
X9691429Y-12215476D02*
X9681905Y-12225000D01*
X9691429Y-12234524D01*
X9700952Y-12225000D01*
X9691429Y-12215476D01*
X9691429Y-12234524D01*
X9815238Y-12415476D02*
X9796190Y-12405952D01*
X9786667Y-12386905D01*
X9786667Y-12215476D01*
X9920000Y-12415476D02*
X9900952Y-12405952D01*
X9891429Y-12386905D01*
X9891429Y-12215476D01*
X10148571Y-12415476D02*
X10148571Y-12215476D01*
X10215238Y-12358333D01*
X10281905Y-12215476D01*
X10281905Y-12415476D01*
X10462857Y-12415476D02*
X10462857Y-12310714D01*
X10453333Y-12291667D01*
X10434286Y-12282143D01*
X10396190Y-12282143D01*
X10377143Y-12291667D01*
X10462857Y-12405952D02*
X10443810Y-12415476D01*
X10396190Y-12415476D01*
X10377143Y-12405952D01*
X10367619Y-12386905D01*
X10367619Y-12367857D01*
X10377143Y-12348809D01*
X10396190Y-12339286D01*
X10443810Y-12339286D01*
X10462857Y-12329762D01*
X10558095Y-12282143D02*
X10558095Y-12482143D01*
X10558095Y-12291667D02*
X10577143Y-12282143D01*
X10615238Y-12282143D01*
X10634286Y-12291667D01*
X10643810Y-12301190D01*
X10653333Y-12320238D01*
X10653333Y-12377381D01*
X10643810Y-12396428D01*
X10634286Y-12405952D01*
X10615238Y-12415476D01*
X10577143Y-12415476D01*
X10558095Y-12405952D01*
X10739048Y-12396428D02*
X10748571Y-12405952D01*
X10739048Y-12415476D01*
X10729524Y-12405952D01*
X10739048Y-12396428D01*
X10739048Y-12415476D01*
X10739048Y-12291667D02*
X10748571Y-12301190D01*
X10739048Y-12310714D01*
X10729524Y-12301190D01*
X10739048Y-12291667D01*
X10739048Y-12310714D01*
D12*
X9070000Y-12725000D02*
X9110000Y-12765000D01*
X9110000Y-12725000D02*
X9070000Y-12765000D01*
D11*
X9405714Y-12635476D02*
X9424762Y-12635476D01*
X9443810Y-12645000D01*
X9453333Y-12654524D01*
X9462857Y-12673571D01*
X9472381Y-12711667D01*
X9472381Y-12759286D01*
X9462857Y-12797381D01*
X9453333Y-12816428D01*
X9443810Y-12825952D01*
X9424762Y-12835476D01*
X9405714Y-12835476D01*
X9386667Y-12825952D01*
X9377143Y-12816428D01*
X9367619Y-12797381D01*
X9358095Y-12759286D01*
X9358095Y-12711667D01*
X9367619Y-12673571D01*
X9377143Y-12654524D01*
X9386667Y-12645000D01*
X9405714Y-12635476D01*
X9558095Y-12816428D02*
X9567619Y-12825952D01*
X9558095Y-12835476D01*
X9548571Y-12825952D01*
X9558095Y-12816428D01*
X9558095Y-12835476D01*
X9739048Y-12702143D02*
X9739048Y-12835476D01*
X9691429Y-12625952D02*
X9643810Y-12768809D01*
X9767619Y-12768809D01*
X9881905Y-12635476D02*
X9900952Y-12635476D01*
X9920000Y-12645000D01*
X9929524Y-12654524D01*
X9939048Y-12673571D01*
X9948571Y-12711667D01*
X9948571Y-12759286D01*
X9939048Y-12797381D01*
X9929524Y-12816428D01*
X9920000Y-12825952D01*
X9900952Y-12835476D01*
X9881905Y-12835476D01*
X9862857Y-12825952D01*
X9853333Y-12816428D01*
X9843810Y-12797381D01*
X9834286Y-12759286D01*
X9834286Y-12711667D01*
X9843810Y-12673571D01*
X9853333Y-12654524D01*
X9862857Y-12645000D01*
X9881905Y-12635476D01*
X10072381Y-12635476D02*
X10091429Y-12635476D01*
X10110476Y-12645000D01*
X10120000Y-12654524D01*
X10129524Y-12673571D01*
X10139048Y-12711667D01*
X10139048Y-12759286D01*
X10129524Y-12797381D01*
X10120000Y-12816428D01*
X10110476Y-12825952D01*
X10091429Y-12835476D01*
X10072381Y-12835476D01*
X10053333Y-12825952D01*
X10043810Y-12816428D01*
X10034286Y-12797381D01*
X10024762Y-12759286D01*
X10024762Y-12711667D01*
X10034286Y-12673571D01*
X10043810Y-12654524D01*
X10053333Y-12645000D01*
X10072381Y-12635476D01*
X10224762Y-12835476D02*
X10224762Y-12702143D01*
X10224762Y-12721190D02*
X10234286Y-12711667D01*
X10253333Y-12702143D01*
X10281905Y-12702143D01*
X10300952Y-12711667D01*
X10310476Y-12730714D01*
X10310476Y-12835476D01*
X10310476Y-12730714D02*
X10320000Y-12711667D01*
X10339048Y-12702143D01*
X10367619Y-12702143D01*
X10386667Y-12711667D01*
X10396190Y-12730714D01*
X10396190Y-12835476D01*
X10491429Y-12835476D02*
X10491429Y-12702143D01*
X10491429Y-12721190D02*
X10500952Y-12711667D01*
X10520000Y-12702143D01*
X10548571Y-12702143D01*
X10567619Y-12711667D01*
X10577143Y-12730714D01*
X10577143Y-12835476D01*
X10577143Y-12730714D02*
X10586667Y-12711667D01*
X10605714Y-12702143D01*
X10634286Y-12702143D01*
X10653333Y-12711667D01*
X10662857Y-12730714D01*
X10662857Y-12835476D01*
X11053333Y-12625952D02*
X10881905Y-12883095D01*
X11310476Y-12635476D02*
X11329524Y-12635476D01*
X11348571Y-12645000D01*
X11358095Y-12654524D01*
X11367619Y-12673571D01*
X11377143Y-12711667D01*
X11377143Y-12759286D01*
X11367619Y-12797381D01*
X11358095Y-12816428D01*
X11348571Y-12825952D01*
X11329524Y-12835476D01*
X11310476Y-12835476D01*
X11291428Y-12825952D01*
X11281905Y-12816428D01*
X11272381Y-12797381D01*
X11262857Y-12759286D01*
X11262857Y-12711667D01*
X11272381Y-12673571D01*
X11281905Y-12654524D01*
X11291428Y-12645000D01*
X11310476Y-12635476D01*
X11462857Y-12816428D02*
X11472381Y-12825952D01*
X11462857Y-12835476D01*
X11453333Y-12825952D01*
X11462857Y-12816428D01*
X11462857Y-12835476D01*
X11596190Y-12635476D02*
X11615238Y-12635476D01*
X11634286Y-12645000D01*
X11643809Y-12654524D01*
X11653333Y-12673571D01*
X11662857Y-12711667D01*
X11662857Y-12759286D01*
X11653333Y-12797381D01*
X11643809Y-12816428D01*
X11634286Y-12825952D01*
X11615238Y-12835476D01*
X11596190Y-12835476D01*
X11577143Y-12825952D01*
X11567619Y-12816428D01*
X11558095Y-12797381D01*
X11548571Y-12759286D01*
X11548571Y-12711667D01*
X11558095Y-12673571D01*
X11567619Y-12654524D01*
X11577143Y-12645000D01*
X11596190Y-12635476D01*
X11853333Y-12835476D02*
X11739048Y-12835476D01*
X11796190Y-12835476D02*
X11796190Y-12635476D01*
X11777143Y-12664048D01*
X11758095Y-12683095D01*
X11739048Y-12692619D01*
X12034286Y-12635476D02*
X11939048Y-12635476D01*
X11929524Y-12730714D01*
X11939048Y-12721190D01*
X11958095Y-12711667D01*
X12005714Y-12711667D01*
X12024762Y-12721190D01*
X12034286Y-12730714D01*
X12043809Y-12749762D01*
X12043809Y-12797381D01*
X12034286Y-12816428D01*
X12024762Y-12825952D01*
X12005714Y-12835476D01*
X11958095Y-12835476D01*
X11939048Y-12825952D01*
X11929524Y-12816428D01*
X12110476Y-12635476D02*
X12243809Y-12635476D01*
X12158095Y-12835476D01*
X12310476Y-12635476D02*
X12310476Y-12673571D01*
X12386667Y-12635476D02*
X12386667Y-12673571D01*
X12681905Y-12911667D02*
X12672381Y-12902143D01*
X12653333Y-12873571D01*
X12643809Y-12854524D01*
X12634286Y-12825952D01*
X12624762Y-12778333D01*
X12624762Y-12740238D01*
X12634286Y-12692619D01*
X12643809Y-12664048D01*
X12653333Y-12645000D01*
X12672381Y-12616428D01*
X12681905Y-12606905D01*
X12748571Y-12654524D02*
X12758095Y-12645000D01*
X12777143Y-12635476D01*
X12824762Y-12635476D01*
X12843809Y-12645000D01*
X12853333Y-12654524D01*
X12862857Y-12673571D01*
X12862857Y-12692619D01*
X12853333Y-12721190D01*
X12739048Y-12835476D01*
X12862857Y-12835476D01*
X12929524Y-12635476D02*
X13053333Y-12635476D01*
X12986667Y-12711667D01*
X13015238Y-12711667D01*
X13034286Y-12721190D01*
X13043809Y-12730714D01*
X13053333Y-12749762D01*
X13053333Y-12797381D01*
X13043809Y-12816428D01*
X13034286Y-12825952D01*
X13015238Y-12835476D01*
X12958095Y-12835476D01*
X12939048Y-12825952D01*
X12929524Y-12816428D01*
X13167619Y-12721190D02*
X13148571Y-12711667D01*
X13139048Y-12702143D01*
X13129524Y-12683095D01*
X13129524Y-12673571D01*
X13139048Y-12654524D01*
X13148571Y-12645000D01*
X13167619Y-12635476D01*
X13205714Y-12635476D01*
X13224762Y-12645000D01*
X13234286Y-12654524D01*
X13243809Y-12673571D01*
X13243809Y-12683095D01*
X13234286Y-12702143D01*
X13224762Y-12711667D01*
X13205714Y-12721190D01*
X13167619Y-12721190D01*
X13148571Y-12730714D01*
X13139048Y-12740238D01*
X13129524Y-12759286D01*
X13129524Y-12797381D01*
X13139048Y-12816428D01*
X13148571Y-12825952D01*
X13167619Y-12835476D01*
X13205714Y-12835476D01*
X13224762Y-12825952D01*
X13234286Y-12816428D01*
X13243809Y-12797381D01*
X13243809Y-12759286D01*
X13234286Y-12740238D01*
X13224762Y-12730714D01*
X13205714Y-12721190D01*
X13481905Y-12835476D02*
X13481905Y-12635476D01*
X13567619Y-12835476D02*
X13567619Y-12730714D01*
X13558095Y-12711667D01*
X13539048Y-12702143D01*
X13510476Y-12702143D01*
X13491428Y-12711667D01*
X13481905Y-12721190D01*
X13691428Y-12835476D02*
X13672381Y-12825952D01*
X13662857Y-12816428D01*
X13653333Y-12797381D01*
X13653333Y-12740238D01*
X13662857Y-12721190D01*
X13672381Y-12711667D01*
X13691428Y-12702143D01*
X13720000Y-12702143D01*
X13739048Y-12711667D01*
X13748571Y-12721190D01*
X13758095Y-12740238D01*
X13758095Y-12797381D01*
X13748571Y-12816428D01*
X13739048Y-12825952D01*
X13720000Y-12835476D01*
X13691428Y-12835476D01*
X13872381Y-12835476D02*
X13853333Y-12825952D01*
X13843809Y-12806905D01*
X13843809Y-12635476D01*
X14024762Y-12825952D02*
X14005714Y-12835476D01*
X13967619Y-12835476D01*
X13948571Y-12825952D01*
X13939048Y-12806905D01*
X13939048Y-12730714D01*
X13948571Y-12711667D01*
X13967619Y-12702143D01*
X14005714Y-12702143D01*
X14024762Y-12711667D01*
X14034286Y-12730714D01*
X14034286Y-12749762D01*
X13939048Y-12768809D01*
X14110476Y-12825952D02*
X14129524Y-12835476D01*
X14167619Y-12835476D01*
X14186667Y-12825952D01*
X14196190Y-12806905D01*
X14196190Y-12797381D01*
X14186667Y-12778333D01*
X14167619Y-12768809D01*
X14139048Y-12768809D01*
X14120000Y-12759286D01*
X14110476Y-12740238D01*
X14110476Y-12730714D01*
X14120000Y-12711667D01*
X14139048Y-12702143D01*
X14167619Y-12702143D01*
X14186667Y-12711667D01*
X14262857Y-12911667D02*
X14272381Y-12902143D01*
X14291428Y-12873571D01*
X14300952Y-12854524D01*
X14310476Y-12825952D01*
X14320000Y-12778333D01*
X14320000Y-12740238D01*
X14310476Y-12692619D01*
X14300952Y-12664048D01*
X14291428Y-12645000D01*
X14272381Y-12616428D01*
X14262857Y-12606905D01*
D13*
X9110000Y-13009000D02*
G75*
G03*
X9110000Y-13009000I-40000J0D01*
G01*
D11*
X9405714Y-12899476D02*
X9424762Y-12899476D01*
X9443810Y-12909000D01*
X9453333Y-12918524D01*
X9462857Y-12937571D01*
X9472381Y-12975667D01*
X9472381Y-13023286D01*
X9462857Y-13061381D01*
X9453333Y-13080428D01*
X9443810Y-13089952D01*
X9424762Y-13099476D01*
X9405714Y-13099476D01*
X9386667Y-13089952D01*
X9377143Y-13080428D01*
X9367619Y-13061381D01*
X9358095Y-13023286D01*
X9358095Y-12975667D01*
X9367619Y-12937571D01*
X9377143Y-12918524D01*
X9386667Y-12909000D01*
X9405714Y-12899476D01*
X9558095Y-13080428D02*
X9567619Y-13089952D01*
X9558095Y-13099476D01*
X9548571Y-13089952D01*
X9558095Y-13080428D01*
X9558095Y-13099476D01*
X9681905Y-12985190D02*
X9662857Y-12975667D01*
X9653333Y-12966143D01*
X9643810Y-12947095D01*
X9643810Y-12937571D01*
X9653333Y-12918524D01*
X9662857Y-12909000D01*
X9681905Y-12899476D01*
X9720000Y-12899476D01*
X9739048Y-12909000D01*
X9748571Y-12918524D01*
X9758095Y-12937571D01*
X9758095Y-12947095D01*
X9748571Y-12966143D01*
X9739048Y-12975667D01*
X9720000Y-12985190D01*
X9681905Y-12985190D01*
X9662857Y-12994714D01*
X9653333Y-13004238D01*
X9643810Y-13023286D01*
X9643810Y-13061381D01*
X9653333Y-13080428D01*
X9662857Y-13089952D01*
X9681905Y-13099476D01*
X9720000Y-13099476D01*
X9739048Y-13089952D01*
X9748571Y-13080428D01*
X9758095Y-13061381D01*
X9758095Y-13023286D01*
X9748571Y-13004238D01*
X9739048Y-12994714D01*
X9720000Y-12985190D01*
X9881905Y-12899476D02*
X9900952Y-12899476D01*
X9920000Y-12909000D01*
X9929524Y-12918524D01*
X9939048Y-12937571D01*
X9948571Y-12975667D01*
X9948571Y-13023286D01*
X9939048Y-13061381D01*
X9929524Y-13080428D01*
X9920000Y-13089952D01*
X9900952Y-13099476D01*
X9881905Y-13099476D01*
X9862857Y-13089952D01*
X9853333Y-13080428D01*
X9843810Y-13061381D01*
X9834286Y-13023286D01*
X9834286Y-12975667D01*
X9843810Y-12937571D01*
X9853333Y-12918524D01*
X9862857Y-12909000D01*
X9881905Y-12899476D01*
X10072381Y-12899476D02*
X10091429Y-12899476D01*
X10110476Y-12909000D01*
X10120000Y-12918524D01*
X10129524Y-12937571D01*
X10139048Y-12975667D01*
X10139048Y-13023286D01*
X10129524Y-13061381D01*
X10120000Y-13080428D01*
X10110476Y-13089952D01*
X10091429Y-13099476D01*
X10072381Y-13099476D01*
X10053333Y-13089952D01*
X10043810Y-13080428D01*
X10034286Y-13061381D01*
X10024762Y-13023286D01*
X10024762Y-12975667D01*
X10034286Y-12937571D01*
X10043810Y-12918524D01*
X10053333Y-12909000D01*
X10072381Y-12899476D01*
X10224762Y-13099476D02*
X10224762Y-12966143D01*
X10224762Y-12985190D02*
X10234286Y-12975667D01*
X10253333Y-12966143D01*
X10281905Y-12966143D01*
X10300952Y-12975667D01*
X10310476Y-12994714D01*
X10310476Y-13099476D01*
X10310476Y-12994714D02*
X10320000Y-12975667D01*
X10339048Y-12966143D01*
X10367619Y-12966143D01*
X10386667Y-12975667D01*
X10396190Y-12994714D01*
X10396190Y-13099476D01*
X10491429Y-13099476D02*
X10491429Y-12966143D01*
X10491429Y-12985190D02*
X10500952Y-12975667D01*
X10520000Y-12966143D01*
X10548571Y-12966143D01*
X10567619Y-12975667D01*
X10577143Y-12994714D01*
X10577143Y-13099476D01*
X10577143Y-12994714D02*
X10586667Y-12975667D01*
X10605714Y-12966143D01*
X10634286Y-12966143D01*
X10653333Y-12975667D01*
X10662857Y-12994714D01*
X10662857Y-13099476D01*
X11053333Y-12889952D02*
X10881905Y-13147095D01*
X11310476Y-12899476D02*
X11329524Y-12899476D01*
X11348571Y-12909000D01*
X11358095Y-12918524D01*
X11367619Y-12937571D01*
X11377143Y-12975667D01*
X11377143Y-13023286D01*
X11367619Y-13061381D01*
X11358095Y-13080428D01*
X11348571Y-13089952D01*
X11329524Y-13099476D01*
X11310476Y-13099476D01*
X11291428Y-13089952D01*
X11281905Y-13080428D01*
X11272381Y-13061381D01*
X11262857Y-13023286D01*
X11262857Y-12975667D01*
X11272381Y-12937571D01*
X11281905Y-12918524D01*
X11291428Y-12909000D01*
X11310476Y-12899476D01*
X11462857Y-13080428D02*
X11472381Y-13089952D01*
X11462857Y-13099476D01*
X11453333Y-13089952D01*
X11462857Y-13080428D01*
X11462857Y-13099476D01*
X11596190Y-12899476D02*
X11615238Y-12899476D01*
X11634286Y-12909000D01*
X11643809Y-12918524D01*
X11653333Y-12937571D01*
X11662857Y-12975667D01*
X11662857Y-13023286D01*
X11653333Y-13061381D01*
X11643809Y-13080428D01*
X11634286Y-13089952D01*
X11615238Y-13099476D01*
X11596190Y-13099476D01*
X11577143Y-13089952D01*
X11567619Y-13080428D01*
X11558095Y-13061381D01*
X11548571Y-13023286D01*
X11548571Y-12975667D01*
X11558095Y-12937571D01*
X11567619Y-12918524D01*
X11577143Y-12909000D01*
X11596190Y-12899476D01*
X11729524Y-12899476D02*
X11853333Y-12899476D01*
X11786667Y-12975667D01*
X11815238Y-12975667D01*
X11834286Y-12985190D01*
X11843809Y-12994714D01*
X11853333Y-13013762D01*
X11853333Y-13061381D01*
X11843809Y-13080428D01*
X11834286Y-13089952D01*
X11815238Y-13099476D01*
X11758095Y-13099476D01*
X11739048Y-13089952D01*
X11729524Y-13080428D01*
X12043809Y-13099476D02*
X11929524Y-13099476D01*
X11986667Y-13099476D02*
X11986667Y-12899476D01*
X11967619Y-12928048D01*
X11948571Y-12947095D01*
X11929524Y-12956619D01*
X12224762Y-12899476D02*
X12129524Y-12899476D01*
X12120000Y-12994714D01*
X12129524Y-12985190D01*
X12148571Y-12975667D01*
X12196190Y-12975667D01*
X12215238Y-12985190D01*
X12224762Y-12994714D01*
X12234286Y-13013762D01*
X12234286Y-13061381D01*
X12224762Y-13080428D01*
X12215238Y-13089952D01*
X12196190Y-13099476D01*
X12148571Y-13099476D01*
X12129524Y-13089952D01*
X12120000Y-13080428D01*
X12310476Y-12899476D02*
X12310476Y-12937571D01*
X12386667Y-12899476D02*
X12386667Y-12937571D01*
X12681905Y-13175667D02*
X12672381Y-13166143D01*
X12653333Y-13137571D01*
X12643809Y-13118524D01*
X12634286Y-13089952D01*
X12624762Y-13042333D01*
X12624762Y-13004238D01*
X12634286Y-12956619D01*
X12643809Y-12928048D01*
X12653333Y-12909000D01*
X12672381Y-12880428D01*
X12681905Y-12870905D01*
X12748571Y-12918524D02*
X12758095Y-12909000D01*
X12777143Y-12899476D01*
X12824762Y-12899476D01*
X12843809Y-12909000D01*
X12853333Y-12918524D01*
X12862857Y-12937571D01*
X12862857Y-12956619D01*
X12853333Y-12985190D01*
X12739048Y-13099476D01*
X12862857Y-13099476D01*
X12939048Y-12918524D02*
X12948571Y-12909000D01*
X12967619Y-12899476D01*
X13015238Y-12899476D01*
X13034286Y-12909000D01*
X13043809Y-12918524D01*
X13053333Y-12937571D01*
X13053333Y-12956619D01*
X13043809Y-12985190D01*
X12929524Y-13099476D01*
X13053333Y-13099476D01*
X13291428Y-13099476D02*
X13291428Y-12899476D01*
X13377143Y-13099476D02*
X13377143Y-12994714D01*
X13367619Y-12975667D01*
X13348571Y-12966143D01*
X13320000Y-12966143D01*
X13300952Y-12975667D01*
X13291428Y-12985190D01*
X13500952Y-13099476D02*
X13481905Y-13089952D01*
X13472381Y-13080428D01*
X13462857Y-13061381D01*
X13462857Y-13004238D01*
X13472381Y-12985190D01*
X13481905Y-12975667D01*
X13500952Y-12966143D01*
X13529524Y-12966143D01*
X13548571Y-12975667D01*
X13558095Y-12985190D01*
X13567619Y-13004238D01*
X13567619Y-13061381D01*
X13558095Y-13080428D01*
X13548571Y-13089952D01*
X13529524Y-13099476D01*
X13500952Y-13099476D01*
X13681905Y-13099476D02*
X13662857Y-13089952D01*
X13653333Y-13070905D01*
X13653333Y-12899476D01*
X13834286Y-13089952D02*
X13815238Y-13099476D01*
X13777143Y-13099476D01*
X13758095Y-13089952D01*
X13748571Y-13070905D01*
X13748571Y-12994714D01*
X13758095Y-12975667D01*
X13777143Y-12966143D01*
X13815238Y-12966143D01*
X13834286Y-12975667D01*
X13843809Y-12994714D01*
X13843809Y-13013762D01*
X13748571Y-13032809D01*
X13920000Y-13089952D02*
X13939048Y-13099476D01*
X13977143Y-13099476D01*
X13996190Y-13089952D01*
X14005714Y-13070905D01*
X14005714Y-13061381D01*
X13996190Y-13042333D01*
X13977143Y-13032809D01*
X13948571Y-13032809D01*
X13929524Y-13023286D01*
X13920000Y-13004238D01*
X13920000Y-12994714D01*
X13929524Y-12975667D01*
X13948571Y-12966143D01*
X13977143Y-12966143D01*
X13996190Y-12975667D01*
X14072381Y-13175667D02*
X14081905Y-13166143D01*
X14100952Y-13137571D01*
X14110476Y-13118524D01*
X14120000Y-13089952D01*
X14129524Y-13042333D01*
X14129524Y-13004238D01*
X14120000Y-12956619D01*
X14110476Y-12928048D01*
X14100952Y-12909000D01*
X14081905Y-12880428D01*
X14072381Y-12870905D01*
D14*
X9069360Y-13232360D02*
X9069360Y-13313640D01*
X9028720Y-13273000D02*
X9110000Y-13273000D01*
D11*
X9405714Y-13163476D02*
X9424762Y-13163476D01*
X9443810Y-13173000D01*
X9453333Y-13182524D01*
X9462857Y-13201571D01*
X9472381Y-13239667D01*
X9472381Y-13287286D01*
X9462857Y-13325381D01*
X9453333Y-13344428D01*
X9443810Y-13353952D01*
X9424762Y-13363476D01*
X9405714Y-13363476D01*
X9386667Y-13353952D01*
X9377143Y-13344428D01*
X9367619Y-13325381D01*
X9358095Y-13287286D01*
X9358095Y-13239667D01*
X9367619Y-13201571D01*
X9377143Y-13182524D01*
X9386667Y-13173000D01*
X9405714Y-13163476D01*
X9558095Y-13344428D02*
X9567619Y-13353952D01*
X9558095Y-13363476D01*
X9548571Y-13353952D01*
X9558095Y-13344428D01*
X9558095Y-13363476D01*
X9681905Y-13249190D02*
X9662857Y-13239667D01*
X9653333Y-13230143D01*
X9643810Y-13211095D01*
X9643810Y-13201571D01*
X9653333Y-13182524D01*
X9662857Y-13173000D01*
X9681905Y-13163476D01*
X9720000Y-13163476D01*
X9739048Y-13173000D01*
X9748571Y-13182524D01*
X9758095Y-13201571D01*
X9758095Y-13211095D01*
X9748571Y-13230143D01*
X9739048Y-13239667D01*
X9720000Y-13249190D01*
X9681905Y-13249190D01*
X9662857Y-13258714D01*
X9653333Y-13268238D01*
X9643810Y-13287286D01*
X9643810Y-13325381D01*
X9653333Y-13344428D01*
X9662857Y-13353952D01*
X9681905Y-13363476D01*
X9720000Y-13363476D01*
X9739048Y-13353952D01*
X9748571Y-13344428D01*
X9758095Y-13325381D01*
X9758095Y-13287286D01*
X9748571Y-13268238D01*
X9739048Y-13258714D01*
X9720000Y-13249190D01*
X9948571Y-13363476D02*
X9834286Y-13363476D01*
X9891429Y-13363476D02*
X9891429Y-13163476D01*
X9872381Y-13192048D01*
X9853333Y-13211095D01*
X9834286Y-13220619D01*
X10015238Y-13163476D02*
X10139048Y-13163476D01*
X10072381Y-13239667D01*
X10100952Y-13239667D01*
X10120000Y-13249190D01*
X10129524Y-13258714D01*
X10139048Y-13277762D01*
X10139048Y-13325381D01*
X10129524Y-13344428D01*
X10120000Y-13353952D01*
X10100952Y-13363476D01*
X10043810Y-13363476D01*
X10024762Y-13353952D01*
X10015238Y-13344428D01*
X10224762Y-13363476D02*
X10224762Y-13230143D01*
X10224762Y-13249190D02*
X10234286Y-13239667D01*
X10253333Y-13230143D01*
X10281905Y-13230143D01*
X10300952Y-13239667D01*
X10310476Y-13258714D01*
X10310476Y-13363476D01*
X10310476Y-13258714D02*
X10320000Y-13239667D01*
X10339048Y-13230143D01*
X10367619Y-13230143D01*
X10386667Y-13239667D01*
X10396190Y-13258714D01*
X10396190Y-13363476D01*
X10491429Y-13363476D02*
X10491429Y-13230143D01*
X10491429Y-13249190D02*
X10500952Y-13239667D01*
X10520000Y-13230143D01*
X10548571Y-13230143D01*
X10567619Y-13239667D01*
X10577143Y-13258714D01*
X10577143Y-13363476D01*
X10577143Y-13258714D02*
X10586667Y-13239667D01*
X10605714Y-13230143D01*
X10634286Y-13230143D01*
X10653333Y-13239667D01*
X10662857Y-13258714D01*
X10662857Y-13363476D01*
X11053333Y-13153952D02*
X10881905Y-13411095D01*
X11310476Y-13163476D02*
X11329524Y-13163476D01*
X11348571Y-13173000D01*
X11358095Y-13182524D01*
X11367619Y-13201571D01*
X11377143Y-13239667D01*
X11377143Y-13287286D01*
X11367619Y-13325381D01*
X11358095Y-13344428D01*
X11348571Y-13353952D01*
X11329524Y-13363476D01*
X11310476Y-13363476D01*
X11291428Y-13353952D01*
X11281905Y-13344428D01*
X11272381Y-13325381D01*
X11262857Y-13287286D01*
X11262857Y-13239667D01*
X11272381Y-13201571D01*
X11281905Y-13182524D01*
X11291428Y-13173000D01*
X11310476Y-13163476D01*
X11462857Y-13344428D02*
X11472381Y-13353952D01*
X11462857Y-13363476D01*
X11453333Y-13353952D01*
X11462857Y-13344428D01*
X11462857Y-13363476D01*
X11596190Y-13163476D02*
X11615238Y-13163476D01*
X11634286Y-13173000D01*
X11643809Y-13182524D01*
X11653333Y-13201571D01*
X11662857Y-13239667D01*
X11662857Y-13287286D01*
X11653333Y-13325381D01*
X11643809Y-13344428D01*
X11634286Y-13353952D01*
X11615238Y-13363476D01*
X11596190Y-13363476D01*
X11577143Y-13353952D01*
X11567619Y-13344428D01*
X11558095Y-13325381D01*
X11548571Y-13287286D01*
X11548571Y-13239667D01*
X11558095Y-13201571D01*
X11567619Y-13182524D01*
X11577143Y-13173000D01*
X11596190Y-13163476D01*
X11729524Y-13163476D02*
X11853333Y-13163476D01*
X11786667Y-13239667D01*
X11815238Y-13239667D01*
X11834286Y-13249190D01*
X11843809Y-13258714D01*
X11853333Y-13277762D01*
X11853333Y-13325381D01*
X11843809Y-13344428D01*
X11834286Y-13353952D01*
X11815238Y-13363476D01*
X11758095Y-13363476D01*
X11739048Y-13353952D01*
X11729524Y-13344428D01*
X11929524Y-13182524D02*
X11939048Y-13173000D01*
X11958095Y-13163476D01*
X12005714Y-13163476D01*
X12024762Y-13173000D01*
X12034286Y-13182524D01*
X12043809Y-13201571D01*
X12043809Y-13220619D01*
X12034286Y-13249190D01*
X11920000Y-13363476D01*
X12043809Y-13363476D01*
X12167619Y-13163476D02*
X12186667Y-13163476D01*
X12205714Y-13173000D01*
X12215238Y-13182524D01*
X12224762Y-13201571D01*
X12234286Y-13239667D01*
X12234286Y-13287286D01*
X12224762Y-13325381D01*
X12215238Y-13344428D01*
X12205714Y-13353952D01*
X12186667Y-13363476D01*
X12167619Y-13363476D01*
X12148571Y-13353952D01*
X12139048Y-13344428D01*
X12129524Y-13325381D01*
X12120000Y-13287286D01*
X12120000Y-13239667D01*
X12129524Y-13201571D01*
X12139048Y-13182524D01*
X12148571Y-13173000D01*
X12167619Y-13163476D01*
X12310476Y-13163476D02*
X12310476Y-13201571D01*
X12386667Y-13163476D02*
X12386667Y-13201571D01*
X12681905Y-13439667D02*
X12672381Y-13430143D01*
X12653333Y-13401571D01*
X12643809Y-13382524D01*
X12634286Y-13353952D01*
X12624762Y-13306333D01*
X12624762Y-13268238D01*
X12634286Y-13220619D01*
X12643809Y-13192048D01*
X12653333Y-13173000D01*
X12672381Y-13144428D01*
X12681905Y-13134905D01*
X12786667Y-13249190D02*
X12767619Y-13239667D01*
X12758095Y-13230143D01*
X12748571Y-13211095D01*
X12748571Y-13201571D01*
X12758095Y-13182524D01*
X12767619Y-13173000D01*
X12786667Y-13163476D01*
X12824762Y-13163476D01*
X12843809Y-13173000D01*
X12853333Y-13182524D01*
X12862857Y-13201571D01*
X12862857Y-13211095D01*
X12853333Y-13230143D01*
X12843809Y-13239667D01*
X12824762Y-13249190D01*
X12786667Y-13249190D01*
X12767619Y-13258714D01*
X12758095Y-13268238D01*
X12748571Y-13287286D01*
X12748571Y-13325381D01*
X12758095Y-13344428D01*
X12767619Y-13353952D01*
X12786667Y-13363476D01*
X12824762Y-13363476D01*
X12843809Y-13353952D01*
X12853333Y-13344428D01*
X12862857Y-13325381D01*
X12862857Y-13287286D01*
X12853333Y-13268238D01*
X12843809Y-13258714D01*
X12824762Y-13249190D01*
X13100952Y-13363476D02*
X13100952Y-13163476D01*
X13186667Y-13363476D02*
X13186667Y-13258714D01*
X13177143Y-13239667D01*
X13158095Y-13230143D01*
X13129524Y-13230143D01*
X13110476Y-13239667D01*
X13100952Y-13249190D01*
X13310476Y-13363476D02*
X13291428Y-13353952D01*
X13281905Y-13344428D01*
X13272381Y-13325381D01*
X13272381Y-13268238D01*
X13281905Y-13249190D01*
X13291428Y-13239667D01*
X13310476Y-13230143D01*
X13339048Y-13230143D01*
X13358095Y-13239667D01*
X13367619Y-13249190D01*
X13377143Y-13268238D01*
X13377143Y-13325381D01*
X13367619Y-13344428D01*
X13358095Y-13353952D01*
X13339048Y-13363476D01*
X13310476Y-13363476D01*
X13491428Y-13363476D02*
X13472381Y-13353952D01*
X13462857Y-13334905D01*
X13462857Y-13163476D01*
X13643809Y-13353952D02*
X13624762Y-13363476D01*
X13586667Y-13363476D01*
X13567619Y-13353952D01*
X13558095Y-13334905D01*
X13558095Y-13258714D01*
X13567619Y-13239667D01*
X13586667Y-13230143D01*
X13624762Y-13230143D01*
X13643809Y-13239667D01*
X13653333Y-13258714D01*
X13653333Y-13277762D01*
X13558095Y-13296809D01*
X13729524Y-13353952D02*
X13748571Y-13363476D01*
X13786667Y-13363476D01*
X13805714Y-13353952D01*
X13815238Y-13334905D01*
X13815238Y-13325381D01*
X13805714Y-13306333D01*
X13786667Y-13296809D01*
X13758095Y-13296809D01*
X13739048Y-13287286D01*
X13729524Y-13268238D01*
X13729524Y-13258714D01*
X13739048Y-13239667D01*
X13758095Y-13230143D01*
X13786667Y-13230143D01*
X13805714Y-13239667D01*
X13881905Y-13439667D02*
X13891428Y-13430143D01*
X13910476Y-13401571D01*
X13920000Y-13382524D01*
X13929524Y-13353952D01*
X13939048Y-13306333D01*
X13939048Y-13268238D01*
X13929524Y-13220619D01*
X13920000Y-13192048D01*
X13910476Y-13173000D01*
X13891428Y-13144428D01*
X13881905Y-13134905D01*
D15*
X9096820Y-13568820D02*
X9096820Y-13505180D01*
X9033180Y-13505180D01*
X9033180Y-13568820D01*
X9096820Y-13568820D01*
D11*
X9405714Y-13427476D02*
X9424762Y-13427476D01*
X9443810Y-13437000D01*
X9453333Y-13446524D01*
X9462857Y-13465571D01*
X9472381Y-13503667D01*
X9472381Y-13551286D01*
X9462857Y-13589381D01*
X9453333Y-13608428D01*
X9443810Y-13617952D01*
X9424762Y-13627476D01*
X9405714Y-13627476D01*
X9386667Y-13617952D01*
X9377143Y-13608428D01*
X9367619Y-13589381D01*
X9358095Y-13551286D01*
X9358095Y-13503667D01*
X9367619Y-13465571D01*
X9377143Y-13446524D01*
X9386667Y-13437000D01*
X9405714Y-13427476D01*
X9558095Y-13608428D02*
X9567619Y-13617952D01*
X9558095Y-13627476D01*
X9548571Y-13617952D01*
X9558095Y-13608428D01*
X9558095Y-13627476D01*
X9662857Y-13627476D02*
X9700952Y-13627476D01*
X9720000Y-13617952D01*
X9729524Y-13608428D01*
X9748571Y-13579857D01*
X9758095Y-13541762D01*
X9758095Y-13465571D01*
X9748571Y-13446524D01*
X9739048Y-13437000D01*
X9720000Y-13427476D01*
X9681905Y-13427476D01*
X9662857Y-13437000D01*
X9653333Y-13446524D01*
X9643810Y-13465571D01*
X9643810Y-13513190D01*
X9653333Y-13532238D01*
X9662857Y-13541762D01*
X9681905Y-13551286D01*
X9720000Y-13551286D01*
X9739048Y-13541762D01*
X9748571Y-13532238D01*
X9758095Y-13513190D01*
X9881905Y-13427476D02*
X9900952Y-13427476D01*
X9920000Y-13437000D01*
X9929524Y-13446524D01*
X9939048Y-13465571D01*
X9948571Y-13503667D01*
X9948571Y-13551286D01*
X9939048Y-13589381D01*
X9929524Y-13608428D01*
X9920000Y-13617952D01*
X9900952Y-13627476D01*
X9881905Y-13627476D01*
X9862857Y-13617952D01*
X9853333Y-13608428D01*
X9843810Y-13589381D01*
X9834286Y-13551286D01*
X9834286Y-13503667D01*
X9843810Y-13465571D01*
X9853333Y-13446524D01*
X9862857Y-13437000D01*
X9881905Y-13427476D01*
X10072381Y-13427476D02*
X10091429Y-13427476D01*
X10110476Y-13437000D01*
X10120000Y-13446524D01*
X10129524Y-13465571D01*
X10139048Y-13503667D01*
X10139048Y-13551286D01*
X10129524Y-13589381D01*
X10120000Y-13608428D01*
X10110476Y-13617952D01*
X10091429Y-13627476D01*
X10072381Y-13627476D01*
X10053333Y-13617952D01*
X10043810Y-13608428D01*
X10034286Y-13589381D01*
X10024762Y-13551286D01*
X10024762Y-13503667D01*
X10034286Y-13465571D01*
X10043810Y-13446524D01*
X10053333Y-13437000D01*
X10072381Y-13427476D01*
X10224762Y-13627476D02*
X10224762Y-13494143D01*
X10224762Y-13513190D02*
X10234286Y-13503667D01*
X10253333Y-13494143D01*
X10281905Y-13494143D01*
X10300952Y-13503667D01*
X10310476Y-13522714D01*
X10310476Y-13627476D01*
X10310476Y-13522714D02*
X10320000Y-13503667D01*
X10339048Y-13494143D01*
X10367619Y-13494143D01*
X10386667Y-13503667D01*
X10396190Y-13522714D01*
X10396190Y-13627476D01*
X10491429Y-13627476D02*
X10491429Y-13494143D01*
X10491429Y-13513190D02*
X10500952Y-13503667D01*
X10520000Y-13494143D01*
X10548571Y-13494143D01*
X10567619Y-13503667D01*
X10577143Y-13522714D01*
X10577143Y-13627476D01*
X10577143Y-13522714D02*
X10586667Y-13503667D01*
X10605714Y-13494143D01*
X10634286Y-13494143D01*
X10653333Y-13503667D01*
X10662857Y-13522714D01*
X10662857Y-13627476D01*
X11053333Y-13417952D02*
X10881905Y-13675095D01*
X11310476Y-13427476D02*
X11329524Y-13427476D01*
X11348571Y-13437000D01*
X11358095Y-13446524D01*
X11367619Y-13465571D01*
X11377143Y-13503667D01*
X11377143Y-13551286D01*
X11367619Y-13589381D01*
X11358095Y-13608428D01*
X11348571Y-13617952D01*
X11329524Y-13627476D01*
X11310476Y-13627476D01*
X11291428Y-13617952D01*
X11281905Y-13608428D01*
X11272381Y-13589381D01*
X11262857Y-13551286D01*
X11262857Y-13503667D01*
X11272381Y-13465571D01*
X11281905Y-13446524D01*
X11291428Y-13437000D01*
X11310476Y-13427476D01*
X11462857Y-13608428D02*
X11472381Y-13617952D01*
X11462857Y-13627476D01*
X11453333Y-13617952D01*
X11462857Y-13608428D01*
X11462857Y-13627476D01*
X11596190Y-13427476D02*
X11615238Y-13427476D01*
X11634286Y-13437000D01*
X11643809Y-13446524D01*
X11653333Y-13465571D01*
X11662857Y-13503667D01*
X11662857Y-13551286D01*
X11653333Y-13589381D01*
X11643809Y-13608428D01*
X11634286Y-13617952D01*
X11615238Y-13627476D01*
X11596190Y-13627476D01*
X11577143Y-13617952D01*
X11567619Y-13608428D01*
X11558095Y-13589381D01*
X11548571Y-13551286D01*
X11548571Y-13503667D01*
X11558095Y-13465571D01*
X11567619Y-13446524D01*
X11577143Y-13437000D01*
X11596190Y-13427476D01*
X11729524Y-13427476D02*
X11853333Y-13427476D01*
X11786667Y-13503667D01*
X11815238Y-13503667D01*
X11834286Y-13513190D01*
X11843809Y-13522714D01*
X11853333Y-13541762D01*
X11853333Y-13589381D01*
X11843809Y-13608428D01*
X11834286Y-13617952D01*
X11815238Y-13627476D01*
X11758095Y-13627476D01*
X11739048Y-13617952D01*
X11729524Y-13608428D01*
X12034286Y-13427476D02*
X11939048Y-13427476D01*
X11929524Y-13522714D01*
X11939048Y-13513190D01*
X11958095Y-13503667D01*
X12005714Y-13503667D01*
X12024762Y-13513190D01*
X12034286Y-13522714D01*
X12043809Y-13541762D01*
X12043809Y-13589381D01*
X12034286Y-13608428D01*
X12024762Y-13617952D01*
X12005714Y-13627476D01*
X11958095Y-13627476D01*
X11939048Y-13617952D01*
X11929524Y-13608428D01*
X12215238Y-13494143D02*
X12215238Y-13627476D01*
X12167619Y-13417952D02*
X12120000Y-13560809D01*
X12243809Y-13560809D01*
X12310476Y-13427476D02*
X12310476Y-13465571D01*
X12386667Y-13427476D02*
X12386667Y-13465571D01*
X12681905Y-13703667D02*
X12672381Y-13694143D01*
X12653333Y-13665571D01*
X12643809Y-13646524D01*
X12634286Y-13617952D01*
X12624762Y-13570333D01*
X12624762Y-13532238D01*
X12634286Y-13484619D01*
X12643809Y-13456048D01*
X12653333Y-13437000D01*
X12672381Y-13408428D01*
X12681905Y-13398905D01*
X12748571Y-13446524D02*
X12758095Y-13437000D01*
X12777143Y-13427476D01*
X12824762Y-13427476D01*
X12843809Y-13437000D01*
X12853333Y-13446524D01*
X12862857Y-13465571D01*
X12862857Y-13484619D01*
X12853333Y-13513190D01*
X12739048Y-13627476D01*
X12862857Y-13627476D01*
X13100952Y-13627476D02*
X13100952Y-13427476D01*
X13186667Y-13627476D02*
X13186667Y-13522714D01*
X13177143Y-13503667D01*
X13158095Y-13494143D01*
X13129524Y-13494143D01*
X13110476Y-13503667D01*
X13100952Y-13513190D01*
X13310476Y-13627476D02*
X13291428Y-13617952D01*
X13281905Y-13608428D01*
X13272381Y-13589381D01*
X13272381Y-13532238D01*
X13281905Y-13513190D01*
X13291428Y-13503667D01*
X13310476Y-13494143D01*
X13339048Y-13494143D01*
X13358095Y-13503667D01*
X13367619Y-13513190D01*
X13377143Y-13532238D01*
X13377143Y-13589381D01*
X13367619Y-13608428D01*
X13358095Y-13617952D01*
X13339048Y-13627476D01*
X13310476Y-13627476D01*
X13491428Y-13627476D02*
X13472381Y-13617952D01*
X13462857Y-13598905D01*
X13462857Y-13427476D01*
X13643809Y-13617952D02*
X13624762Y-13627476D01*
X13586667Y-13627476D01*
X13567619Y-13617952D01*
X13558095Y-13598905D01*
X13558095Y-13522714D01*
X13567619Y-13503667D01*
X13586667Y-13494143D01*
X13624762Y-13494143D01*
X13643809Y-13503667D01*
X13653333Y-13522714D01*
X13653333Y-13541762D01*
X13558095Y-13560809D01*
X13729524Y-13617952D02*
X13748571Y-13627476D01*
X13786667Y-13627476D01*
X13805714Y-13617952D01*
X13815238Y-13598905D01*
X13815238Y-13589381D01*
X13805714Y-13570333D01*
X13786667Y-13560809D01*
X13758095Y-13560809D01*
X13739048Y-13551286D01*
X13729524Y-13532238D01*
X13729524Y-13522714D01*
X13739048Y-13503667D01*
X13758095Y-13494143D01*
X13786667Y-13494143D01*
X13805714Y-13503667D01*
X13881905Y-13703667D02*
X13891428Y-13694143D01*
X13910476Y-13665571D01*
X13920000Y-13646524D01*
X13929524Y-13617952D01*
X13939048Y-13570333D01*
X13939048Y-13532238D01*
X13929524Y-13484619D01*
X13920000Y-13456048D01*
X13910476Y-13437000D01*
X13891428Y-13408428D01*
X13881905Y-13398905D01*
D10*
X9060000Y-13851000D02*
X9110000Y-13801000D01*
X9060000Y-13751000D01*
X9010000Y-13801000D01*
X9060000Y-13851000D01*
D11*
X9472381Y-13891476D02*
X9358095Y-13891476D01*
X9415238Y-13891476D02*
X9415238Y-13691476D01*
X9396190Y-13720048D01*
X9377143Y-13739095D01*
X9358095Y-13748619D01*
X9558095Y-13872428D02*
X9567619Y-13881952D01*
X9558095Y-13891476D01*
X9548571Y-13881952D01*
X9558095Y-13872428D01*
X9558095Y-13891476D01*
X9691429Y-13691476D02*
X9710476Y-13691476D01*
X9729524Y-13701000D01*
X9739048Y-13710524D01*
X9748571Y-13729571D01*
X9758095Y-13767667D01*
X9758095Y-13815286D01*
X9748571Y-13853381D01*
X9739048Y-13872428D01*
X9729524Y-13881952D01*
X9710476Y-13891476D01*
X9691429Y-13891476D01*
X9672381Y-13881952D01*
X9662857Y-13872428D01*
X9653333Y-13853381D01*
X9643810Y-13815286D01*
X9643810Y-13767667D01*
X9653333Y-13729571D01*
X9662857Y-13710524D01*
X9672381Y-13701000D01*
X9691429Y-13691476D01*
X9881905Y-13691476D02*
X9900952Y-13691476D01*
X9920000Y-13701000D01*
X9929524Y-13710524D01*
X9939048Y-13729571D01*
X9948571Y-13767667D01*
X9948571Y-13815286D01*
X9939048Y-13853381D01*
X9929524Y-13872428D01*
X9920000Y-13881952D01*
X9900952Y-13891476D01*
X9881905Y-13891476D01*
X9862857Y-13881952D01*
X9853333Y-13872428D01*
X9843810Y-13853381D01*
X9834286Y-13815286D01*
X9834286Y-13767667D01*
X9843810Y-13729571D01*
X9853333Y-13710524D01*
X9862857Y-13701000D01*
X9881905Y-13691476D01*
X10072381Y-13691476D02*
X10091429Y-13691476D01*
X10110476Y-13701000D01*
X10120000Y-13710524D01*
X10129524Y-13729571D01*
X10139048Y-13767667D01*
X10139048Y-13815286D01*
X10129524Y-13853381D01*
X10120000Y-13872428D01*
X10110476Y-13881952D01*
X10091429Y-13891476D01*
X10072381Y-13891476D01*
X10053333Y-13881952D01*
X10043810Y-13872428D01*
X10034286Y-13853381D01*
X10024762Y-13815286D01*
X10024762Y-13767667D01*
X10034286Y-13729571D01*
X10043810Y-13710524D01*
X10053333Y-13701000D01*
X10072381Y-13691476D01*
X10224762Y-13891476D02*
X10224762Y-13758143D01*
X10224762Y-13777190D02*
X10234286Y-13767667D01*
X10253333Y-13758143D01*
X10281905Y-13758143D01*
X10300952Y-13767667D01*
X10310476Y-13786714D01*
X10310476Y-13891476D01*
X10310476Y-13786714D02*
X10320000Y-13767667D01*
X10339048Y-13758143D01*
X10367619Y-13758143D01*
X10386667Y-13767667D01*
X10396190Y-13786714D01*
X10396190Y-13891476D01*
X10491429Y-13891476D02*
X10491429Y-13758143D01*
X10491429Y-13777190D02*
X10500952Y-13767667D01*
X10520000Y-13758143D01*
X10548571Y-13758143D01*
X10567619Y-13767667D01*
X10577143Y-13786714D01*
X10577143Y-13891476D01*
X10577143Y-13786714D02*
X10586667Y-13767667D01*
X10605714Y-13758143D01*
X10634286Y-13758143D01*
X10653333Y-13767667D01*
X10662857Y-13786714D01*
X10662857Y-13891476D01*
X11053333Y-13681952D02*
X10881905Y-13939095D01*
X11310476Y-13691476D02*
X11329524Y-13691476D01*
X11348571Y-13701000D01*
X11358095Y-13710524D01*
X11367619Y-13729571D01*
X11377143Y-13767667D01*
X11377143Y-13815286D01*
X11367619Y-13853381D01*
X11358095Y-13872428D01*
X11348571Y-13881952D01*
X11329524Y-13891476D01*
X11310476Y-13891476D01*
X11291428Y-13881952D01*
X11281905Y-13872428D01*
X11272381Y-13853381D01*
X11262857Y-13815286D01*
X11262857Y-13767667D01*
X11272381Y-13729571D01*
X11281905Y-13710524D01*
X11291428Y-13701000D01*
X11310476Y-13691476D01*
X11462857Y-13872428D02*
X11472381Y-13881952D01*
X11462857Y-13891476D01*
X11453333Y-13881952D01*
X11462857Y-13872428D01*
X11462857Y-13891476D01*
X11596190Y-13691476D02*
X11615238Y-13691476D01*
X11634286Y-13701000D01*
X11643809Y-13710524D01*
X11653333Y-13729571D01*
X11662857Y-13767667D01*
X11662857Y-13815286D01*
X11653333Y-13853381D01*
X11643809Y-13872428D01*
X11634286Y-13881952D01*
X11615238Y-13891476D01*
X11596190Y-13891476D01*
X11577143Y-13881952D01*
X11567619Y-13872428D01*
X11558095Y-13853381D01*
X11548571Y-13815286D01*
X11548571Y-13767667D01*
X11558095Y-13729571D01*
X11567619Y-13710524D01*
X11577143Y-13701000D01*
X11596190Y-13691476D01*
X11729524Y-13691476D02*
X11853333Y-13691476D01*
X11786667Y-13767667D01*
X11815238Y-13767667D01*
X11834286Y-13777190D01*
X11843809Y-13786714D01*
X11853333Y-13805762D01*
X11853333Y-13853381D01*
X11843809Y-13872428D01*
X11834286Y-13881952D01*
X11815238Y-13891476D01*
X11758095Y-13891476D01*
X11739048Y-13881952D01*
X11729524Y-13872428D01*
X11948571Y-13891476D02*
X11986667Y-13891476D01*
X12005714Y-13881952D01*
X12015238Y-13872428D01*
X12034286Y-13843857D01*
X12043809Y-13805762D01*
X12043809Y-13729571D01*
X12034286Y-13710524D01*
X12024762Y-13701000D01*
X12005714Y-13691476D01*
X11967619Y-13691476D01*
X11948571Y-13701000D01*
X11939048Y-13710524D01*
X11929524Y-13729571D01*
X11929524Y-13777190D01*
X11939048Y-13796238D01*
X11948571Y-13805762D01*
X11967619Y-13815286D01*
X12005714Y-13815286D01*
X12024762Y-13805762D01*
X12034286Y-13796238D01*
X12043809Y-13777190D01*
X12215238Y-13758143D02*
X12215238Y-13891476D01*
X12167619Y-13681952D02*
X12120000Y-13824809D01*
X12243809Y-13824809D01*
X12310476Y-13691476D02*
X12310476Y-13729571D01*
X12386667Y-13691476D02*
X12386667Y-13729571D01*
X12681905Y-13967667D02*
X12672381Y-13958143D01*
X12653333Y-13929571D01*
X12643809Y-13910524D01*
X12634286Y-13881952D01*
X12624762Y-13834333D01*
X12624762Y-13796238D01*
X12634286Y-13748619D01*
X12643809Y-13720048D01*
X12653333Y-13701000D01*
X12672381Y-13672428D01*
X12681905Y-13662905D01*
X12748571Y-13710524D02*
X12758095Y-13701000D01*
X12777143Y-13691476D01*
X12824762Y-13691476D01*
X12843809Y-13701000D01*
X12853333Y-13710524D01*
X12862857Y-13729571D01*
X12862857Y-13748619D01*
X12853333Y-13777190D01*
X12739048Y-13891476D01*
X12862857Y-13891476D01*
X12986667Y-13691476D02*
X13005714Y-13691476D01*
X13024762Y-13701000D01*
X13034286Y-13710524D01*
X13043809Y-13729571D01*
X13053333Y-13767667D01*
X13053333Y-13815286D01*
X13043809Y-13853381D01*
X13034286Y-13872428D01*
X13024762Y-13881952D01*
X13005714Y-13891476D01*
X12986667Y-13891476D01*
X12967619Y-13881952D01*
X12958095Y-13872428D01*
X12948571Y-13853381D01*
X12939048Y-13815286D01*
X12939048Y-13767667D01*
X12948571Y-13729571D01*
X12958095Y-13710524D01*
X12967619Y-13701000D01*
X12986667Y-13691476D01*
X13291428Y-13891476D02*
X13291428Y-13691476D01*
X13377143Y-13891476D02*
X13377143Y-13786714D01*
X13367619Y-13767667D01*
X13348571Y-13758143D01*
X13320000Y-13758143D01*
X13300952Y-13767667D01*
X13291428Y-13777190D01*
X13500952Y-13891476D02*
X13481905Y-13881952D01*
X13472381Y-13872428D01*
X13462857Y-13853381D01*
X13462857Y-13796238D01*
X13472381Y-13777190D01*
X13481905Y-13767667D01*
X13500952Y-13758143D01*
X13529524Y-13758143D01*
X13548571Y-13767667D01*
X13558095Y-13777190D01*
X13567619Y-13796238D01*
X13567619Y-13853381D01*
X13558095Y-13872428D01*
X13548571Y-13881952D01*
X13529524Y-13891476D01*
X13500952Y-13891476D01*
X13681905Y-13891476D02*
X13662857Y-13881952D01*
X13653333Y-13862905D01*
X13653333Y-13691476D01*
X13834286Y-13881952D02*
X13815238Y-13891476D01*
X13777143Y-13891476D01*
X13758095Y-13881952D01*
X13748571Y-13862905D01*
X13748571Y-13786714D01*
X13758095Y-13767667D01*
X13777143Y-13758143D01*
X13815238Y-13758143D01*
X13834286Y-13767667D01*
X13843809Y-13786714D01*
X13843809Y-13805762D01*
X13748571Y-13824809D01*
X13920000Y-13881952D02*
X13939048Y-13891476D01*
X13977143Y-13891476D01*
X13996190Y-13881952D01*
X14005714Y-13862905D01*
X14005714Y-13853381D01*
X13996190Y-13834333D01*
X13977143Y-13824809D01*
X13948571Y-13824809D01*
X13929524Y-13815286D01*
X13920000Y-13796238D01*
X13920000Y-13786714D01*
X13929524Y-13767667D01*
X13948571Y-13758143D01*
X13977143Y-13758143D01*
X13996190Y-13767667D01*
X14072381Y-13967667D02*
X14081905Y-13958143D01*
X14100952Y-13929571D01*
X14110476Y-13910524D01*
X14120000Y-13881952D01*
X14129524Y-13834333D01*
X14129524Y-13796238D01*
X14120000Y-13748619D01*
X14110476Y-13720048D01*
X14100952Y-13701000D01*
X14081905Y-13672428D01*
X14072381Y-13662905D01*
D16*
X8990000Y-14005000D02*
X9110000Y-14125000D01*
X9110000Y-14005000D02*
X8990000Y-14125000D01*
X9110000Y-14065000D02*
G75*
G03*
X9110000Y-14065000I-60000J0D01*
G01*
D11*
X9472381Y-14155476D02*
X9358095Y-14155476D01*
X9415238Y-14155476D02*
X9415238Y-13955476D01*
X9396190Y-13984048D01*
X9377143Y-14003095D01*
X9358095Y-14012619D01*
X9558095Y-14136428D02*
X9567619Y-14145952D01*
X9558095Y-14155476D01*
X9548571Y-14145952D01*
X9558095Y-14136428D01*
X9558095Y-14155476D01*
X9643810Y-13974524D02*
X9653333Y-13965000D01*
X9672381Y-13955476D01*
X9720000Y-13955476D01*
X9739048Y-13965000D01*
X9748571Y-13974524D01*
X9758095Y-13993571D01*
X9758095Y-14012619D01*
X9748571Y-14041190D01*
X9634286Y-14155476D01*
X9758095Y-14155476D01*
X9881905Y-13955476D02*
X9900952Y-13955476D01*
X9920000Y-13965000D01*
X9929524Y-13974524D01*
X9939048Y-13993571D01*
X9948571Y-14031667D01*
X9948571Y-14079286D01*
X9939048Y-14117381D01*
X9929524Y-14136428D01*
X9920000Y-14145952D01*
X9900952Y-14155476D01*
X9881905Y-14155476D01*
X9862857Y-14145952D01*
X9853333Y-14136428D01*
X9843810Y-14117381D01*
X9834286Y-14079286D01*
X9834286Y-14031667D01*
X9843810Y-13993571D01*
X9853333Y-13974524D01*
X9862857Y-13965000D01*
X9881905Y-13955476D01*
X10072381Y-13955476D02*
X10091429Y-13955476D01*
X10110476Y-13965000D01*
X10120000Y-13974524D01*
X10129524Y-13993571D01*
X10139048Y-14031667D01*
X10139048Y-14079286D01*
X10129524Y-14117381D01*
X10120000Y-14136428D01*
X10110476Y-14145952D01*
X10091429Y-14155476D01*
X10072381Y-14155476D01*
X10053333Y-14145952D01*
X10043810Y-14136428D01*
X10034286Y-14117381D01*
X10024762Y-14079286D01*
X10024762Y-14031667D01*
X10034286Y-13993571D01*
X10043810Y-13974524D01*
X10053333Y-13965000D01*
X10072381Y-13955476D01*
X10224762Y-14155476D02*
X10224762Y-14022143D01*
X10224762Y-14041190D02*
X10234286Y-14031667D01*
X10253333Y-14022143D01*
X10281905Y-14022143D01*
X10300952Y-14031667D01*
X10310476Y-14050714D01*
X10310476Y-14155476D01*
X10310476Y-14050714D02*
X10320000Y-14031667D01*
X10339048Y-14022143D01*
X10367619Y-14022143D01*
X10386667Y-14031667D01*
X10396190Y-14050714D01*
X10396190Y-14155476D01*
X10491429Y-14155476D02*
X10491429Y-14022143D01*
X10491429Y-14041190D02*
X10500952Y-14031667D01*
X10520000Y-14022143D01*
X10548571Y-14022143D01*
X10567619Y-14031667D01*
X10577143Y-14050714D01*
X10577143Y-14155476D01*
X10577143Y-14050714D02*
X10586667Y-14031667D01*
X10605714Y-14022143D01*
X10634286Y-14022143D01*
X10653333Y-14031667D01*
X10662857Y-14050714D01*
X10662857Y-14155476D01*
X11053333Y-13945952D02*
X10881905Y-14203095D01*
X11310476Y-13955476D02*
X11329524Y-13955476D01*
X11348571Y-13965000D01*
X11358095Y-13974524D01*
X11367619Y-13993571D01*
X11377143Y-14031667D01*
X11377143Y-14079286D01*
X11367619Y-14117381D01*
X11358095Y-14136428D01*
X11348571Y-14145952D01*
X11329524Y-14155476D01*
X11310476Y-14155476D01*
X11291428Y-14145952D01*
X11281905Y-14136428D01*
X11272381Y-14117381D01*
X11262857Y-14079286D01*
X11262857Y-14031667D01*
X11272381Y-13993571D01*
X11281905Y-13974524D01*
X11291428Y-13965000D01*
X11310476Y-13955476D01*
X11462857Y-14136428D02*
X11472381Y-14145952D01*
X11462857Y-14155476D01*
X11453333Y-14145952D01*
X11462857Y-14136428D01*
X11462857Y-14155476D01*
X11596190Y-13955476D02*
X11615238Y-13955476D01*
X11634286Y-13965000D01*
X11643809Y-13974524D01*
X11653333Y-13993571D01*
X11662857Y-14031667D01*
X11662857Y-14079286D01*
X11653333Y-14117381D01*
X11643809Y-14136428D01*
X11634286Y-14145952D01*
X11615238Y-14155476D01*
X11596190Y-14155476D01*
X11577143Y-14145952D01*
X11567619Y-14136428D01*
X11558095Y-14117381D01*
X11548571Y-14079286D01*
X11548571Y-14031667D01*
X11558095Y-13993571D01*
X11567619Y-13974524D01*
X11577143Y-13965000D01*
X11596190Y-13955476D01*
X11834286Y-14022143D02*
X11834286Y-14155476D01*
X11786667Y-13945952D02*
X11739048Y-14088809D01*
X11862857Y-14088809D01*
X11920000Y-13955476D02*
X12053333Y-13955476D01*
X11967619Y-14155476D01*
X12120000Y-13974524D02*
X12129524Y-13965000D01*
X12148571Y-13955476D01*
X12196190Y-13955476D01*
X12215238Y-13965000D01*
X12224762Y-13974524D01*
X12234286Y-13993571D01*
X12234286Y-14012619D01*
X12224762Y-14041190D01*
X12110476Y-14155476D01*
X12234286Y-14155476D01*
X12310476Y-13955476D02*
X12310476Y-13993571D01*
X12386667Y-13955476D02*
X12386667Y-13993571D01*
X12681905Y-14231667D02*
X12672381Y-14222143D01*
X12653333Y-14193571D01*
X12643809Y-14174524D01*
X12634286Y-14145952D01*
X12624762Y-14098333D01*
X12624762Y-14060238D01*
X12634286Y-14012619D01*
X12643809Y-13984048D01*
X12653333Y-13965000D01*
X12672381Y-13936428D01*
X12681905Y-13926905D01*
X12739048Y-13955476D02*
X12862857Y-13955476D01*
X12796190Y-14031667D01*
X12824762Y-14031667D01*
X12843809Y-14041190D01*
X12853333Y-14050714D01*
X12862857Y-14069762D01*
X12862857Y-14117381D01*
X12853333Y-14136428D01*
X12843809Y-14145952D01*
X12824762Y-14155476D01*
X12767619Y-14155476D01*
X12748571Y-14145952D01*
X12739048Y-14136428D01*
X13100952Y-14155476D02*
X13100952Y-13955476D01*
X13186667Y-14155476D02*
X13186667Y-14050714D01*
X13177143Y-14031667D01*
X13158095Y-14022143D01*
X13129524Y-14022143D01*
X13110476Y-14031667D01*
X13100952Y-14041190D01*
X13310476Y-14155476D02*
X13291428Y-14145952D01*
X13281905Y-14136428D01*
X13272381Y-14117381D01*
X13272381Y-14060238D01*
X13281905Y-14041190D01*
X13291428Y-14031667D01*
X13310476Y-14022143D01*
X13339048Y-14022143D01*
X13358095Y-14031667D01*
X13367619Y-14041190D01*
X13377143Y-14060238D01*
X13377143Y-14117381D01*
X13367619Y-14136428D01*
X13358095Y-14145952D01*
X13339048Y-14155476D01*
X13310476Y-14155476D01*
X13491428Y-14155476D02*
X13472381Y-14145952D01*
X13462857Y-14126905D01*
X13462857Y-13955476D01*
X13643809Y-14145952D02*
X13624762Y-14155476D01*
X13586667Y-14155476D01*
X13567619Y-14145952D01*
X13558095Y-14126905D01*
X13558095Y-14050714D01*
X13567619Y-14031667D01*
X13586667Y-14022143D01*
X13624762Y-14022143D01*
X13643809Y-14031667D01*
X13653333Y-14050714D01*
X13653333Y-14069762D01*
X13558095Y-14088809D01*
X13729524Y-14145952D02*
X13748571Y-14155476D01*
X13786667Y-14155476D01*
X13805714Y-14145952D01*
X13815238Y-14126905D01*
X13815238Y-14117381D01*
X13805714Y-14098333D01*
X13786667Y-14088809D01*
X13758095Y-14088809D01*
X13739048Y-14079286D01*
X13729524Y-14060238D01*
X13729524Y-14050714D01*
X13739048Y-14031667D01*
X13758095Y-14022143D01*
X13786667Y-14022143D01*
X13805714Y-14031667D01*
X13881905Y-14231667D02*
X13891428Y-14222143D01*
X13910476Y-14193571D01*
X13920000Y-14174524D01*
X13929524Y-14145952D01*
X13939048Y-14098333D01*
X13939048Y-14060238D01*
X13929524Y-14012619D01*
X13920000Y-13984048D01*
X13910476Y-13965000D01*
X13891428Y-13936428D01*
X13881905Y-13926905D01*
D17*
X8935000Y-14241500D02*
X9110000Y-14416500D01*
X9110000Y-14241500D02*
X8935000Y-14416500D01*
X9022500Y-14241500D02*
X9022500Y-14416500D01*
X8935000Y-14329000D02*
X9110000Y-14329000D01*
D11*
X9472381Y-14419476D02*
X9358095Y-14419476D01*
X9415238Y-14419476D02*
X9415238Y-14219476D01*
X9396190Y-14248048D01*
X9377143Y-14267095D01*
X9358095Y-14276619D01*
X9558095Y-14400428D02*
X9567619Y-14409952D01*
X9558095Y-14419476D01*
X9548571Y-14409952D01*
X9558095Y-14400428D01*
X9558095Y-14419476D01*
X9634286Y-14219476D02*
X9767619Y-14219476D01*
X9681905Y-14419476D01*
X9939048Y-14219476D02*
X9843810Y-14219476D01*
X9834286Y-14314714D01*
X9843810Y-14305190D01*
X9862857Y-14295667D01*
X9910476Y-14295667D01*
X9929524Y-14305190D01*
X9939048Y-14314714D01*
X9948571Y-14333762D01*
X9948571Y-14381381D01*
X9939048Y-14400428D01*
X9929524Y-14409952D01*
X9910476Y-14419476D01*
X9862857Y-14419476D01*
X9843810Y-14409952D01*
X9834286Y-14400428D01*
X10072381Y-14219476D02*
X10091429Y-14219476D01*
X10110476Y-14229000D01*
X10120000Y-14238524D01*
X10129524Y-14257571D01*
X10139048Y-14295667D01*
X10139048Y-14343286D01*
X10129524Y-14381381D01*
X10120000Y-14400428D01*
X10110476Y-14409952D01*
X10091429Y-14419476D01*
X10072381Y-14419476D01*
X10053333Y-14409952D01*
X10043810Y-14400428D01*
X10034286Y-14381381D01*
X10024762Y-14343286D01*
X10024762Y-14295667D01*
X10034286Y-14257571D01*
X10043810Y-14238524D01*
X10053333Y-14229000D01*
X10072381Y-14219476D01*
X10224762Y-14419476D02*
X10224762Y-14286143D01*
X10224762Y-14305190D02*
X10234286Y-14295667D01*
X10253333Y-14286143D01*
X10281905Y-14286143D01*
X10300952Y-14295667D01*
X10310476Y-14314714D01*
X10310476Y-14419476D01*
X10310476Y-14314714D02*
X10320000Y-14295667D01*
X10339048Y-14286143D01*
X10367619Y-14286143D01*
X10386667Y-14295667D01*
X10396190Y-14314714D01*
X10396190Y-14419476D01*
X10491429Y-14419476D02*
X10491429Y-14286143D01*
X10491429Y-14305190D02*
X10500952Y-14295667D01*
X10520000Y-14286143D01*
X10548571Y-14286143D01*
X10567619Y-14295667D01*
X10577143Y-14314714D01*
X10577143Y-14419476D01*
X10577143Y-14314714D02*
X10586667Y-14295667D01*
X10605714Y-14286143D01*
X10634286Y-14286143D01*
X10653333Y-14295667D01*
X10662857Y-14314714D01*
X10662857Y-14419476D01*
X11053333Y-14209952D02*
X10881905Y-14467095D01*
X11310476Y-14219476D02*
X11329524Y-14219476D01*
X11348571Y-14229000D01*
X11358095Y-14238524D01*
X11367619Y-14257571D01*
X11377143Y-14295667D01*
X11377143Y-14343286D01*
X11367619Y-14381381D01*
X11358095Y-14400428D01*
X11348571Y-14409952D01*
X11329524Y-14419476D01*
X11310476Y-14419476D01*
X11291428Y-14409952D01*
X11281905Y-14400428D01*
X11272381Y-14381381D01*
X11262857Y-14343286D01*
X11262857Y-14295667D01*
X11272381Y-14257571D01*
X11281905Y-14238524D01*
X11291428Y-14229000D01*
X11310476Y-14219476D01*
X11462857Y-14400428D02*
X11472381Y-14409952D01*
X11462857Y-14419476D01*
X11453333Y-14409952D01*
X11462857Y-14400428D01*
X11462857Y-14419476D01*
X11596190Y-14219476D02*
X11615238Y-14219476D01*
X11634286Y-14229000D01*
X11643809Y-14238524D01*
X11653333Y-14257571D01*
X11662857Y-14295667D01*
X11662857Y-14343286D01*
X11653333Y-14381381D01*
X11643809Y-14400428D01*
X11634286Y-14409952D01*
X11615238Y-14419476D01*
X11596190Y-14419476D01*
X11577143Y-14409952D01*
X11567619Y-14400428D01*
X11558095Y-14381381D01*
X11548571Y-14343286D01*
X11548571Y-14295667D01*
X11558095Y-14257571D01*
X11567619Y-14238524D01*
X11577143Y-14229000D01*
X11596190Y-14219476D01*
X11834286Y-14219476D02*
X11796190Y-14219476D01*
X11777143Y-14229000D01*
X11767619Y-14238524D01*
X11748571Y-14267095D01*
X11739048Y-14305190D01*
X11739048Y-14381381D01*
X11748571Y-14400428D01*
X11758095Y-14409952D01*
X11777143Y-14419476D01*
X11815238Y-14419476D01*
X11834286Y-14409952D01*
X11843809Y-14400428D01*
X11853333Y-14381381D01*
X11853333Y-14333762D01*
X11843809Y-14314714D01*
X11834286Y-14305190D01*
X11815238Y-14295667D01*
X11777143Y-14295667D01*
X11758095Y-14305190D01*
X11748571Y-14314714D01*
X11739048Y-14333762D01*
X11967619Y-14305190D02*
X11948571Y-14295667D01*
X11939048Y-14286143D01*
X11929524Y-14267095D01*
X11929524Y-14257571D01*
X11939048Y-14238524D01*
X11948571Y-14229000D01*
X11967619Y-14219476D01*
X12005714Y-14219476D01*
X12024762Y-14229000D01*
X12034286Y-14238524D01*
X12043809Y-14257571D01*
X12043809Y-14267095D01*
X12034286Y-14286143D01*
X12024762Y-14295667D01*
X12005714Y-14305190D01*
X11967619Y-14305190D01*
X11948571Y-14314714D01*
X11939048Y-14324238D01*
X11929524Y-14343286D01*
X11929524Y-14381381D01*
X11939048Y-14400428D01*
X11948571Y-14409952D01*
X11967619Y-14419476D01*
X12005714Y-14419476D01*
X12024762Y-14409952D01*
X12034286Y-14400428D01*
X12043809Y-14381381D01*
X12043809Y-14343286D01*
X12034286Y-14324238D01*
X12024762Y-14314714D01*
X12005714Y-14305190D01*
X12139048Y-14419476D02*
X12177143Y-14419476D01*
X12196190Y-14409952D01*
X12205714Y-14400428D01*
X12224762Y-14371857D01*
X12234286Y-14333762D01*
X12234286Y-14257571D01*
X12224762Y-14238524D01*
X12215238Y-14229000D01*
X12196190Y-14219476D01*
X12158095Y-14219476D01*
X12139048Y-14229000D01*
X12129524Y-14238524D01*
X12120000Y-14257571D01*
X12120000Y-14305190D01*
X12129524Y-14324238D01*
X12139048Y-14333762D01*
X12158095Y-14343286D01*
X12196190Y-14343286D01*
X12215238Y-14333762D01*
X12224762Y-14324238D01*
X12234286Y-14305190D01*
X12310476Y-14219476D02*
X12310476Y-14257571D01*
X12386667Y-14219476D02*
X12386667Y-14257571D01*
X12681905Y-14495667D02*
X12672381Y-14486143D01*
X12653333Y-14457571D01*
X12643809Y-14438524D01*
X12634286Y-14409952D01*
X12624762Y-14362333D01*
X12624762Y-14324238D01*
X12634286Y-14276619D01*
X12643809Y-14248048D01*
X12653333Y-14229000D01*
X12672381Y-14200428D01*
X12681905Y-14190905D01*
X12843809Y-14219476D02*
X12805714Y-14219476D01*
X12786667Y-14229000D01*
X12777143Y-14238524D01*
X12758095Y-14267095D01*
X12748571Y-14305190D01*
X12748571Y-14381381D01*
X12758095Y-14400428D01*
X12767619Y-14409952D01*
X12786667Y-14419476D01*
X12824762Y-14419476D01*
X12843809Y-14409952D01*
X12853333Y-14400428D01*
X12862857Y-14381381D01*
X12862857Y-14333762D01*
X12853333Y-14314714D01*
X12843809Y-14305190D01*
X12824762Y-14295667D01*
X12786667Y-14295667D01*
X12767619Y-14305190D01*
X12758095Y-14314714D01*
X12748571Y-14333762D01*
X13100952Y-14419476D02*
X13100952Y-14219476D01*
X13186667Y-14419476D02*
X13186667Y-14314714D01*
X13177143Y-14295667D01*
X13158095Y-14286143D01*
X13129524Y-14286143D01*
X13110476Y-14295667D01*
X13100952Y-14305190D01*
X13310476Y-14419476D02*
X13291428Y-14409952D01*
X13281905Y-14400428D01*
X13272381Y-14381381D01*
X13272381Y-14324238D01*
X13281905Y-14305190D01*
X13291428Y-14295667D01*
X13310476Y-14286143D01*
X13339048Y-14286143D01*
X13358095Y-14295667D01*
X13367619Y-14305190D01*
X13377143Y-14324238D01*
X13377143Y-14381381D01*
X13367619Y-14400428D01*
X13358095Y-14409952D01*
X13339048Y-14419476D01*
X13310476Y-14419476D01*
X13491428Y-14419476D02*
X13472381Y-14409952D01*
X13462857Y-14390905D01*
X13462857Y-14219476D01*
X13643809Y-14409952D02*
X13624762Y-14419476D01*
X13586667Y-14419476D01*
X13567619Y-14409952D01*
X13558095Y-14390905D01*
X13558095Y-14314714D01*
X13567619Y-14295667D01*
X13586667Y-14286143D01*
X13624762Y-14286143D01*
X13643809Y-14295667D01*
X13653333Y-14314714D01*
X13653333Y-14333762D01*
X13558095Y-14352809D01*
X13729524Y-14409952D02*
X13748571Y-14419476D01*
X13786667Y-14419476D01*
X13805714Y-14409952D01*
X13815238Y-14390905D01*
X13815238Y-14381381D01*
X13805714Y-14362333D01*
X13786667Y-14352809D01*
X13758095Y-14352809D01*
X13739048Y-14343286D01*
X13729524Y-14324238D01*
X13729524Y-14314714D01*
X13739048Y-14295667D01*
X13758095Y-14286143D01*
X13786667Y-14286143D01*
X13805714Y-14295667D01*
X13881905Y-14495667D02*
X13891428Y-14486143D01*
X13910476Y-14457571D01*
X13920000Y-14438524D01*
X13929524Y-14409952D01*
X13939048Y-14362333D01*
X13939048Y-14324238D01*
X13929524Y-14276619D01*
X13920000Y-14248048D01*
X13910476Y-14229000D01*
X13891428Y-14200428D01*
X13881905Y-14190905D01*
M02*
