M48
; DRILL file {KiCad 6.0.8-f2edbf62ab~116~ubuntu20.04.1} date qua 15 mar 2023 13:48:01
; FORMAT={-:-/ absolute / inch / decimal}
; #@! TF.CreationDate,2023-03-15T13:48:01-03:00
; #@! TF.GenerationSoftware,Kicad,Pcbnew,6.0.8-f2edbf62ab~116~ubuntu20.04.1
; #@! TF.FileFunction,Plated,1,2,PTH
FMAT,2
INCH
; #@! TA.AperFunction,Plated,PTH,ViaDrill
T1C0.0157
; #@! TA.AperFunction,Plated,PTH,ComponentDrill
T2C0.0315
; #@! TA.AperFunction,Plated,PTH,ComponentDrill
T3C0.0320
; #@! TA.AperFunction,Plated,PTH,ComponentDrill
T4C0.0354
; #@! TA.AperFunction,Plated,PTH,ComponentDrill
T5C0.0394
; #@! TA.AperFunction,Plated,PTH,ComponentDrill
T6C0.0689
%
G90
G05
T1
X3.763Y-2.5193
X3.8055Y-3.324
X3.8055Y-3.3634
X3.8055Y-3.4028
X3.8449Y-3.324
X3.8449Y-3.3634
X3.8449Y-3.4028
X3.8843Y-3.324
X3.8843Y-3.3634
X3.8843Y-3.4028
X3.9236Y-3.324
X3.9236Y-3.3634
X3.9236Y-3.4028
X3.963Y-3.324
X3.963Y-3.3634
X3.963Y-3.4028
X4.0024Y-3.324
X4.0024Y-3.3634
X4.0024Y-3.4028
X4.0417Y-3.324
X4.0417Y-3.3634
X4.0417Y-3.4028
X4.1961Y-3.9543
X4.1961Y-3.9937
X4.1961Y-4.0331
X4.1961Y-4.0724
X4.1961Y-4.1118
X4.2354Y-3.9543
X4.2354Y-3.9937
X4.2354Y-4.0331
X4.2354Y-4.0724
X4.2354Y-4.1118
X4.2748Y-3.9543
X4.2748Y-3.9937
X4.2748Y-4.0331
X4.2748Y-4.0724
X4.2748Y-4.1118
X4.3142Y-3.9543
X4.3142Y-3.9937
X4.3142Y-4.0331
X4.3142Y-4.0724
X4.3142Y-4.1118
X4.3535Y-3.9543
X4.3535Y-3.9937
X4.3535Y-4.0331
X4.3535Y-4.0724
X4.3535Y-4.1118
X4.3929Y-3.9543
X4.3929Y-3.9937
X4.3929Y-4.0331
X4.3929Y-4.0724
X4.3929Y-4.1118
X4.4323Y-3.9543
X4.4323Y-3.9937
X4.4323Y-4.0331
X4.4323Y-4.0724
X4.4323Y-4.1118
X4.535Y-3.3055
X4.5517Y-2.4354
X4.6657Y-3.0882
X4.9164Y-3.2382
X4.9393Y-2.5671
X4.9984Y-3.385
X5.0433Y-3.8256
X5.1984Y-2.452
X5.1984Y-2.4913
X5.1984Y-2.5307
X5.1984Y-2.5701
X5.1984Y-2.6094
X5.2378Y-2.452
X5.2378Y-2.4913
X5.2378Y-2.5307
X5.2378Y-2.5701
X5.2378Y-2.6094
X5.2772Y-2.452
X5.2772Y-2.4913
X5.2772Y-2.5307
X5.2772Y-2.5701
X5.2772Y-2.6094
X5.3165Y-2.452
X5.3165Y-2.4913
X5.3165Y-2.5307
X5.3165Y-2.5701
X5.3165Y-2.6094
X5.3559Y-2.452
X5.3559Y-2.4913
X5.3559Y-2.5307
X5.3559Y-2.5701
X5.3559Y-2.6094
X5.3953Y-2.452
X5.3953Y-2.4913
X5.3953Y-2.5307
X5.3953Y-2.5701
X5.3953Y-2.6094
X5.4346Y-2.452
X5.4346Y-2.4913
X5.4346Y-2.5307
X5.4346Y-2.5701
X5.4346Y-2.6094
X5.5575Y-2.4437
X5.5575Y-2.4831
X5.5575Y-2.5224
X5.5657Y-3.25
X5.5657Y-3.2894
X5.5657Y-3.3287
X5.5657Y-3.3681
X5.5657Y-3.4075
X5.5969Y-2.4437
X5.5969Y-2.4831
X5.5969Y-2.5224
X5.6051Y-3.25
X5.6051Y-3.2894
X5.6051Y-3.3287
X5.6051Y-3.3681
X5.6051Y-3.4075
X5.611Y-2.8457
X5.611Y-2.885
X5.611Y-2.9244
X5.611Y-2.9638
X5.611Y-3.0031
X5.6362Y-2.4437
X5.6362Y-2.4831
X5.6362Y-2.5224
X5.6445Y-3.25
X5.6445Y-3.2894
X5.6445Y-3.3287
X5.6445Y-3.3681
X5.6445Y-3.4075
X5.6504Y-2.8457
X5.6504Y-2.885
X5.6504Y-2.9244
X5.6504Y-2.9638
X5.6504Y-3.0031
X5.6756Y-2.4437
X5.6756Y-2.4831
X5.6756Y-2.5224
X5.6839Y-3.25
X5.6839Y-3.2894
X5.6839Y-3.3287
X5.6839Y-3.3681
X5.6839Y-3.4075
X5.6898Y-2.8457
X5.6898Y-2.885
X5.6898Y-2.9244
X5.6898Y-2.9638
X5.6898Y-3.0031
X5.6933Y-4.1004
X5.6933Y-4.1398
X5.6933Y-4.1791
X5.6933Y-4.2185
X5.6933Y-4.2579
X5.6933Y-4.2972
X5.6933Y-4.3366
X5.6933Y-4.376
X5.6933Y-4.4154
X5.6933Y-4.4547
X5.715Y-2.4437
X5.715Y-2.4831
X5.715Y-2.5224
X5.7232Y-3.25
X5.7232Y-3.2894
X5.7232Y-3.3287
X5.7232Y-3.3681
X5.7232Y-3.4075
X5.7291Y-2.8457
X5.7291Y-2.885
X5.7291Y-2.9244
X5.7291Y-2.9638
X5.7291Y-3.0031
X5.7327Y-4.1004
X5.7327Y-4.1398
X5.7327Y-4.1791
X5.7327Y-4.2185
X5.7327Y-4.2579
X5.7327Y-4.2972
X5.7327Y-4.3366
X5.7327Y-4.376
X5.7327Y-4.4154
X5.7327Y-4.4547
X5.7543Y-2.4437
X5.7543Y-2.4831
X5.7543Y-2.5224
X5.7626Y-3.25
X5.7626Y-3.2894
X5.7626Y-3.3287
X5.7626Y-3.3681
X5.7626Y-3.4075
X5.7685Y-2.8457
X5.7685Y-2.885
X5.7685Y-2.9244
X5.7685Y-2.9638
X5.7685Y-3.0031
X5.772Y-4.1004
X5.772Y-4.1398
X5.772Y-4.1791
X5.772Y-4.2185
X5.772Y-4.2579
X5.772Y-4.2972
X5.772Y-4.3366
X5.772Y-4.376
X5.772Y-4.4154
X5.772Y-4.4547
X5.7937Y-2.4437
X5.7937Y-2.4831
X5.7937Y-2.5224
X5.802Y-3.25
X5.802Y-3.2894
X5.802Y-3.3287
X5.802Y-3.3681
X5.802Y-3.4075
X5.8079Y-2.8457
X5.8079Y-2.885
X5.8079Y-2.9244
X5.8079Y-2.9638
X5.8079Y-3.0031
X5.8114Y-4.1004
X5.8114Y-4.1398
X5.8114Y-4.1791
X5.8114Y-4.2185
X5.8114Y-4.2579
X5.8114Y-4.2972
X5.8114Y-4.3366
X5.8114Y-4.376
X5.8114Y-4.4154
X5.8114Y-4.4547
X5.8472Y-2.8457
X5.8472Y-2.885
X5.8472Y-2.9244
X5.8472Y-2.9638
X5.8472Y-3.0031
X5.8508Y-4.1004
X5.8508Y-4.1398
X5.8508Y-4.1791
X5.8508Y-4.2185
X5.8508Y-4.2579
X5.8508Y-4.2972
X5.8508Y-4.3366
X5.8508Y-4.376
X5.8508Y-4.4154
X5.8508Y-4.4547
X6.6894Y-3.448
X6.6894Y-3.4874
X6.6894Y-3.5268
X6.6894Y-3.5661
X6.6894Y-3.6055
X6.6894Y-3.6449
X6.6894Y-3.6843
X6.7287Y-3.448
X6.7287Y-3.4874
X6.7287Y-3.5268
X6.7287Y-3.5661
X6.7287Y-3.6055
X6.7287Y-3.6449
X6.7287Y-3.6843
X6.7681Y-3.448
X6.7681Y-3.4874
X6.7681Y-3.5268
X6.7681Y-3.5661
X6.7681Y-3.6055
X6.7681Y-3.6449
X6.7681Y-3.6843
X6.9252Y-4.1012
X6.9252Y-4.1406
X6.9252Y-4.1799
X6.9252Y-4.2193
X6.9252Y-4.2587
X6.9252Y-4.298
X6.9252Y-4.3374
X6.9252Y-4.3768
X6.9252Y-4.4161
X6.9252Y-4.4555
X6.9646Y-4.1012
X6.9646Y-4.1406
X6.9646Y-4.1799
X6.9646Y-4.2193
X6.9646Y-4.2587
X6.9646Y-4.298
X6.9646Y-4.3374
X6.9646Y-4.3768
X6.9646Y-4.4161
X6.9646Y-4.4555
X7.0039Y-4.1012
X7.0039Y-4.1406
X7.0039Y-4.1799
X7.0039Y-4.2193
X7.0039Y-4.2587
X7.0039Y-4.298
X7.0039Y-4.3374
X7.0039Y-4.3768
X7.0039Y-4.4161
X7.0039Y-4.4555
X7.0433Y-4.1012
X7.0433Y-4.1406
X7.0433Y-4.1799
X7.0433Y-4.2193
X7.0433Y-4.2587
X7.0433Y-4.298
X7.0433Y-4.3374
X7.0433Y-4.3768
X7.0433Y-4.4161
X7.0433Y-4.4555
X7.0827Y-4.1012
X7.0827Y-4.1406
X7.0827Y-4.1799
X7.0827Y-4.2193
X7.0827Y-4.2587
X7.0827Y-4.298
X7.0827Y-4.3374
X7.0827Y-4.3768
X7.0827Y-4.4161
X7.0827Y-4.4555
T2
X3.7701Y-3.7744
X4.0701Y-3.7744
X4.5709Y-3.7744
X4.8709Y-3.7744
X5.3366Y-3.4197
X5.3366Y-3.7197
X5.9343Y-2.4862
X5.9343Y-2.7862
X5.9417Y-3.0094
X5.9417Y-3.3094
X6.1646Y-2.4815
X6.1646Y-2.7815
X6.1665Y-3.0138
X6.1665Y-3.3138
X6.6835Y-2.4732
X6.6835Y-2.7732
X6.6862Y-2.9929
X6.6862Y-3.2929
T3
X3.7701Y-3.9252
X3.7701Y-4.1252
X4.0701Y-3.9252
X4.0701Y-4.1252
X4.5787Y-3.9252
X4.5787Y-4.1252
X4.8787Y-3.9252
X4.8787Y-4.1252
T4
X5.2984Y-3.1697
X5.3984Y-3.1697
T5
X3.7189Y-2.6886
X3.7189Y-2.7886
X3.7189Y-2.8886
X3.7189Y-2.9886
X3.7232Y-3.5709
X4.1169Y-3.5709
X4.1283Y-4.5035
X4.522Y-4.5035
X4.5409Y-3.5709
X4.9346Y-3.5709
X5.3764Y-4.1339
X5.3764Y-4.2339
X5.3764Y-4.3339
X5.3764Y-4.4339
X5.5917Y-3.6303
X5.9854Y-3.6303
X6.2035Y-3.6425
X6.4165Y-2.9902
X6.4165Y-3.3839
X6.4224Y-2.4492
X6.4224Y-2.8429
X6.5972Y-3.6425
T6
X3.7417Y-4.5839
X3.8945Y-4.5839
X7.0299Y-2.5468
X7.0299Y-2.6995
X7.0299Y-3.5062
X7.0299Y-3.659
X7.0374Y-3.0265
X7.0374Y-3.1792
T0
M30
