%TF.GenerationSoftware,KiCad,Pcbnew,6.0.8-f2edbf62ab~116~ubuntu20.04.1*%
%TF.CreationDate,2023-03-15T13:48:08-03:00*%
%TF.ProjectId,placa-TAI,706c6163-612d-4544-9149-2e6b69636164,rev?*%
%TF.SameCoordinates,Original*%
%TF.FileFunction,Soldermask,Bot*%
%TF.FilePolarity,Negative*%
%FSLAX46Y46*%
G04 Gerber Fmt 4.6, Leading zero omitted, Abs format (unit mm)*
G04 Created by KiCad (PCBNEW 6.0.8-f2edbf62ab~116~ubuntu20.04.1) date 2023-03-15 13:48:08*
%MOMM*%
%LPD*%
G01*
G04 APERTURE LIST*
%ADD10C,1.397000*%
%ADD11C,1.600000*%
%ADD12O,1.600000X1.600000*%
%ADD13R,1.700000X1.700000*%
%ADD14O,1.700000X1.700000*%
%ADD15R,3.000000X3.000000*%
%ADD16C,3.000000*%
%ADD17C,2.000000*%
%ADD18R,1.800000X1.800000*%
%ADD19C,1.800000*%
G04 APERTURE END LIST*
D10*
%TO.C,SW1*%
X95760000Y-99700000D03*
X103380000Y-99700000D03*
X95760000Y-104780000D03*
X103380000Y-104780000D03*
%TD*%
D11*
%TO.C,R9*%
X95760000Y-95870000D03*
D12*
X103380000Y-95870000D03*
%TD*%
D11*
%TO.C,R7*%
X150920000Y-84060000D03*
D12*
X150920000Y-76440000D03*
%TD*%
D13*
%TO.C,J3*%
X136560000Y-105000000D03*
D14*
X136560000Y-107540000D03*
X136560000Y-110080000D03*
X136560000Y-112620000D03*
%TD*%
D15*
%TO.C,J6*%
X178750000Y-80752500D03*
D16*
X178750000Y-76872500D03*
%TD*%
D15*
%TO.C,J1*%
X178560000Y-68567500D03*
D16*
X178560000Y-64687500D03*
%TD*%
D11*
%TO.C,R2*%
X156580000Y-63030000D03*
D12*
X156580000Y-70650000D03*
%TD*%
D17*
%TO.C,C3*%
X104860000Y-114390000D03*
X114860000Y-114390000D03*
%TD*%
%TO.C,C2*%
X115340000Y-90700000D03*
X125340000Y-90700000D03*
%TD*%
%TO.C,C6*%
X142030000Y-92210000D03*
X152030000Y-92210000D03*
%TD*%
D11*
%TO.C,R5*%
X169830000Y-76020000D03*
D12*
X169830000Y-83640000D03*
%TD*%
D11*
%TO.C,R8*%
X135550000Y-94480000D03*
D12*
X135550000Y-86860000D03*
%TD*%
D13*
%TO.C,J4*%
X94460000Y-68290000D03*
D14*
X94460000Y-70830000D03*
X94460000Y-73370000D03*
X94460000Y-75910000D03*
%TD*%
D11*
%TO.C,R1*%
X169760000Y-62820000D03*
D12*
X169760000Y-70440000D03*
%TD*%
D17*
%TO.C,C5*%
X94570000Y-90700000D03*
X104570000Y-90700000D03*
%TD*%
D15*
%TO.C,J5*%
X98920000Y-116430000D03*
D16*
X95040000Y-116430000D03*
%TD*%
D15*
%TO.C,J2*%
X178560000Y-92937500D03*
D16*
X178560000Y-89057500D03*
%TD*%
D17*
%TO.C,C4*%
X157570000Y-92520000D03*
X167570000Y-92520000D03*
%TD*%
D18*
%TO.C,D3*%
X137120000Y-80510000D03*
D19*
X134580000Y-80510000D03*
%TD*%
D11*
%TO.C,R4*%
X116100000Y-95870000D03*
D12*
X123720000Y-95870000D03*
%TD*%
D10*
%TO.C,SW2*%
X123920000Y-99700000D03*
X116300000Y-99700000D03*
X116300000Y-104780000D03*
X123920000Y-104780000D03*
%TD*%
D11*
%TO.C,R6*%
X156630000Y-76550000D03*
D12*
X156630000Y-84170000D03*
%TD*%
D11*
%TO.C,R3*%
X150730000Y-70770000D03*
D12*
X150730000Y-63150000D03*
%TD*%
D17*
%TO.C,C7*%
X162980000Y-85950000D03*
X162980000Y-75950000D03*
%TD*%
%TO.C,C1*%
X163130000Y-72210000D03*
X163130000Y-62210000D03*
%TD*%
M02*
