%TF.GenerationSoftware,KiCad,Pcbnew,6.0.8-f2edbf62ab~116~ubuntu20.04.1*%
%TF.CreationDate,2023-03-15T13:48:02-03:00*%
%TF.ProjectId,placa-TAI,706c6163-612d-4544-9149-2e6b69636164,rev?*%
%TF.SameCoordinates,Original*%
%TF.FileFunction,Drillmap*%
%TF.FilePolarity,Positive*%
%FSLAX45Y45*%
G04 Gerber Fmt 4.5, Leading zero omitted, Abs format (unit mm)*
G04 Created by KiCad (PCBNEW 6.0.8-f2edbf62ab~116~ubuntu20.04.1) date 2023-03-15 13:48:02*
%MOMM*%
%LPD*%
G01*
G04 APERTURE LIST*
%ADD10C,0.100000*%
%ADD11C,0.200000*%
%ADD12C,0.040000*%
%ADD13C,0.080000*%
%ADD14C,0.081280*%
%ADD15C,0.090000*%
%ADD16C,0.175000*%
G04 APERTURE END LIST*
D10*
X9115000Y-6069000D02*
X18489000Y-6069000D01*
X18489000Y-6069000D02*
X18489000Y-12100000D01*
X18489000Y-12100000D02*
X9115000Y-12100000D01*
X9115000Y-12100000D02*
X9115000Y-6069000D01*
D11*
D12*
X9538000Y-6379000D02*
X9578000Y-6419000D01*
X9578000Y-6379000D02*
X9538000Y-6419000D01*
X9646000Y-8423000D02*
X9686000Y-8463000D01*
X9686000Y-8423000D02*
X9646000Y-8463000D01*
X9646000Y-8523000D02*
X9686000Y-8563000D01*
X9686000Y-8523000D02*
X9646000Y-8563000D01*
X9646000Y-8623000D02*
X9686000Y-8663000D01*
X9686000Y-8623000D02*
X9646000Y-8663000D01*
X9746000Y-8423000D02*
X9786000Y-8463000D01*
X9786000Y-8423000D02*
X9746000Y-8463000D01*
X9746000Y-8523000D02*
X9786000Y-8563000D01*
X9786000Y-8523000D02*
X9746000Y-8563000D01*
X9746000Y-8623000D02*
X9786000Y-8663000D01*
X9786000Y-8623000D02*
X9746000Y-8663000D01*
X9846000Y-8423000D02*
X9886000Y-8463000D01*
X9886000Y-8423000D02*
X9846000Y-8463000D01*
X9846000Y-8523000D02*
X9886000Y-8563000D01*
X9886000Y-8523000D02*
X9846000Y-8563000D01*
X9846000Y-8623000D02*
X9886000Y-8663000D01*
X9886000Y-8623000D02*
X9846000Y-8663000D01*
X9946000Y-8423000D02*
X9986000Y-8463000D01*
X9986000Y-8423000D02*
X9946000Y-8463000D01*
X9946000Y-8523000D02*
X9986000Y-8563000D01*
X9986000Y-8523000D02*
X9946000Y-8563000D01*
X9946000Y-8623000D02*
X9986000Y-8663000D01*
X9986000Y-8623000D02*
X9946000Y-8663000D01*
X10046000Y-8423000D02*
X10086000Y-8463000D01*
X10086000Y-8423000D02*
X10046000Y-8463000D01*
X10046000Y-8523000D02*
X10086000Y-8563000D01*
X10086000Y-8523000D02*
X10046000Y-8563000D01*
X10046000Y-8623000D02*
X10086000Y-8663000D01*
X10086000Y-8623000D02*
X10046000Y-8663000D01*
X10146000Y-8423000D02*
X10186000Y-8463000D01*
X10186000Y-8423000D02*
X10146000Y-8463000D01*
X10146000Y-8523000D02*
X10186000Y-8563000D01*
X10186000Y-8523000D02*
X10146000Y-8563000D01*
X10146000Y-8623000D02*
X10186000Y-8663000D01*
X10186000Y-8623000D02*
X10146000Y-8663000D01*
X10246000Y-8423000D02*
X10286000Y-8463000D01*
X10286000Y-8423000D02*
X10246000Y-8463000D01*
X10246000Y-8523000D02*
X10286000Y-8563000D01*
X10286000Y-8523000D02*
X10246000Y-8563000D01*
X10246000Y-8623000D02*
X10286000Y-8663000D01*
X10286000Y-8623000D02*
X10246000Y-8663000D01*
X10638000Y-10024000D02*
X10678000Y-10064000D01*
X10678000Y-10024000D02*
X10638000Y-10064000D01*
X10638000Y-10124000D02*
X10678000Y-10164000D01*
X10678000Y-10124000D02*
X10638000Y-10164000D01*
X10638000Y-10224000D02*
X10678000Y-10264000D01*
X10678000Y-10224000D02*
X10638000Y-10264000D01*
X10638000Y-10324000D02*
X10678000Y-10364000D01*
X10678000Y-10324000D02*
X10638000Y-10364000D01*
X10638000Y-10424000D02*
X10678000Y-10464000D01*
X10678000Y-10424000D02*
X10638000Y-10464000D01*
X10738000Y-10024000D02*
X10778000Y-10064000D01*
X10778000Y-10024000D02*
X10738000Y-10064000D01*
X10738000Y-10124000D02*
X10778000Y-10164000D01*
X10778000Y-10124000D02*
X10738000Y-10164000D01*
X10738000Y-10224000D02*
X10778000Y-10264000D01*
X10778000Y-10224000D02*
X10738000Y-10264000D01*
X10738000Y-10324000D02*
X10778000Y-10364000D01*
X10778000Y-10324000D02*
X10738000Y-10364000D01*
X10738000Y-10424000D02*
X10778000Y-10464000D01*
X10778000Y-10424000D02*
X10738000Y-10464000D01*
X10838000Y-10024000D02*
X10878000Y-10064000D01*
X10878000Y-10024000D02*
X10838000Y-10064000D01*
X10838000Y-10124000D02*
X10878000Y-10164000D01*
X10878000Y-10124000D02*
X10838000Y-10164000D01*
X10838000Y-10224000D02*
X10878000Y-10264000D01*
X10878000Y-10224000D02*
X10838000Y-10264000D01*
X10838000Y-10324000D02*
X10878000Y-10364000D01*
X10878000Y-10324000D02*
X10838000Y-10364000D01*
X10838000Y-10424000D02*
X10878000Y-10464000D01*
X10878000Y-10424000D02*
X10838000Y-10464000D01*
X10938000Y-10024000D02*
X10978000Y-10064000D01*
X10978000Y-10024000D02*
X10938000Y-10064000D01*
X10938000Y-10124000D02*
X10978000Y-10164000D01*
X10978000Y-10124000D02*
X10938000Y-10164000D01*
X10938000Y-10224000D02*
X10978000Y-10264000D01*
X10978000Y-10224000D02*
X10938000Y-10264000D01*
X10938000Y-10324000D02*
X10978000Y-10364000D01*
X10978000Y-10324000D02*
X10938000Y-10364000D01*
X10938000Y-10424000D02*
X10978000Y-10464000D01*
X10978000Y-10424000D02*
X10938000Y-10464000D01*
X11038000Y-10024000D02*
X11078000Y-10064000D01*
X11078000Y-10024000D02*
X11038000Y-10064000D01*
X11038000Y-10124000D02*
X11078000Y-10164000D01*
X11078000Y-10124000D02*
X11038000Y-10164000D01*
X11038000Y-10224000D02*
X11078000Y-10264000D01*
X11078000Y-10224000D02*
X11038000Y-10264000D01*
X11038000Y-10324000D02*
X11078000Y-10364000D01*
X11078000Y-10324000D02*
X11038000Y-10364000D01*
X11038000Y-10424000D02*
X11078000Y-10464000D01*
X11078000Y-10424000D02*
X11038000Y-10464000D01*
X11138000Y-10024000D02*
X11178000Y-10064000D01*
X11178000Y-10024000D02*
X11138000Y-10064000D01*
X11138000Y-10124000D02*
X11178000Y-10164000D01*
X11178000Y-10124000D02*
X11138000Y-10164000D01*
X11138000Y-10224000D02*
X11178000Y-10264000D01*
X11178000Y-10224000D02*
X11138000Y-10264000D01*
X11138000Y-10324000D02*
X11178000Y-10364000D01*
X11178000Y-10324000D02*
X11138000Y-10364000D01*
X11138000Y-10424000D02*
X11178000Y-10464000D01*
X11178000Y-10424000D02*
X11138000Y-10464000D01*
X11238000Y-10024000D02*
X11278000Y-10064000D01*
X11278000Y-10024000D02*
X11238000Y-10064000D01*
X11238000Y-10124000D02*
X11278000Y-10164000D01*
X11278000Y-10124000D02*
X11238000Y-10164000D01*
X11238000Y-10224000D02*
X11278000Y-10264000D01*
X11278000Y-10224000D02*
X11238000Y-10264000D01*
X11238000Y-10324000D02*
X11278000Y-10364000D01*
X11278000Y-10324000D02*
X11238000Y-10364000D01*
X11238000Y-10424000D02*
X11278000Y-10464000D01*
X11278000Y-10424000D02*
X11238000Y-10464000D01*
X11499000Y-8376000D02*
X11539000Y-8416000D01*
X11539000Y-8376000D02*
X11499000Y-8416000D01*
X11541430Y-6165920D02*
X11581430Y-6205920D01*
X11581430Y-6165920D02*
X11541430Y-6205920D01*
X11831000Y-7824000D02*
X11871000Y-7864000D01*
X11871000Y-7824000D02*
X11831000Y-7864000D01*
X12467780Y-8205150D02*
X12507780Y-8245150D01*
X12507780Y-8205150D02*
X12467780Y-8245150D01*
X12525780Y-6500330D02*
X12565780Y-6540330D01*
X12565780Y-6500330D02*
X12525780Y-6540330D01*
X12676000Y-8578000D02*
X12716000Y-8618000D01*
X12716000Y-8578000D02*
X12676000Y-8618000D01*
X12790000Y-9697000D02*
X12830000Y-9737000D01*
X12830000Y-9697000D02*
X12790000Y-9737000D01*
X13184000Y-6208000D02*
X13224000Y-6248000D01*
X13224000Y-6208000D02*
X13184000Y-6248000D01*
X13184000Y-6308000D02*
X13224000Y-6348000D01*
X13224000Y-6308000D02*
X13184000Y-6348000D01*
X13184000Y-6408000D02*
X13224000Y-6448000D01*
X13224000Y-6408000D02*
X13184000Y-6448000D01*
X13184000Y-6508000D02*
X13224000Y-6548000D01*
X13224000Y-6508000D02*
X13184000Y-6548000D01*
X13184000Y-6608000D02*
X13224000Y-6648000D01*
X13224000Y-6608000D02*
X13184000Y-6648000D01*
X13284000Y-6208000D02*
X13324000Y-6248000D01*
X13324000Y-6208000D02*
X13284000Y-6248000D01*
X13284000Y-6308000D02*
X13324000Y-6348000D01*
X13324000Y-6308000D02*
X13284000Y-6348000D01*
X13284000Y-6408000D02*
X13324000Y-6448000D01*
X13324000Y-6408000D02*
X13284000Y-6448000D01*
X13284000Y-6508000D02*
X13324000Y-6548000D01*
X13324000Y-6508000D02*
X13284000Y-6548000D01*
X13284000Y-6608000D02*
X13324000Y-6648000D01*
X13324000Y-6608000D02*
X13284000Y-6648000D01*
X13384000Y-6208000D02*
X13424000Y-6248000D01*
X13424000Y-6208000D02*
X13384000Y-6248000D01*
X13384000Y-6308000D02*
X13424000Y-6348000D01*
X13424000Y-6308000D02*
X13384000Y-6348000D01*
X13384000Y-6408000D02*
X13424000Y-6448000D01*
X13424000Y-6408000D02*
X13384000Y-6448000D01*
X13384000Y-6508000D02*
X13424000Y-6548000D01*
X13424000Y-6508000D02*
X13384000Y-6548000D01*
X13384000Y-6608000D02*
X13424000Y-6648000D01*
X13424000Y-6608000D02*
X13384000Y-6648000D01*
X13484000Y-6208000D02*
X13524000Y-6248000D01*
X13524000Y-6208000D02*
X13484000Y-6248000D01*
X13484000Y-6308000D02*
X13524000Y-6348000D01*
X13524000Y-6308000D02*
X13484000Y-6348000D01*
X13484000Y-6408000D02*
X13524000Y-6448000D01*
X13524000Y-6408000D02*
X13484000Y-6448000D01*
X13484000Y-6508000D02*
X13524000Y-6548000D01*
X13524000Y-6508000D02*
X13484000Y-6548000D01*
X13484000Y-6608000D02*
X13524000Y-6648000D01*
X13524000Y-6608000D02*
X13484000Y-6648000D01*
X13584000Y-6208000D02*
X13624000Y-6248000D01*
X13624000Y-6208000D02*
X13584000Y-6248000D01*
X13584000Y-6308000D02*
X13624000Y-6348000D01*
X13624000Y-6308000D02*
X13584000Y-6348000D01*
X13584000Y-6408000D02*
X13624000Y-6448000D01*
X13624000Y-6408000D02*
X13584000Y-6448000D01*
X13584000Y-6508000D02*
X13624000Y-6548000D01*
X13624000Y-6508000D02*
X13584000Y-6548000D01*
X13584000Y-6608000D02*
X13624000Y-6648000D01*
X13624000Y-6608000D02*
X13584000Y-6648000D01*
X13684000Y-6208000D02*
X13724000Y-6248000D01*
X13724000Y-6208000D02*
X13684000Y-6248000D01*
X13684000Y-6308000D02*
X13724000Y-6348000D01*
X13724000Y-6308000D02*
X13684000Y-6348000D01*
X13684000Y-6408000D02*
X13724000Y-6448000D01*
X13724000Y-6408000D02*
X13684000Y-6448000D01*
X13684000Y-6508000D02*
X13724000Y-6548000D01*
X13724000Y-6508000D02*
X13684000Y-6548000D01*
X13684000Y-6608000D02*
X13724000Y-6648000D01*
X13724000Y-6608000D02*
X13684000Y-6648000D01*
X13784000Y-6208000D02*
X13824000Y-6248000D01*
X13824000Y-6208000D02*
X13784000Y-6248000D01*
X13784000Y-6308000D02*
X13824000Y-6348000D01*
X13824000Y-6308000D02*
X13784000Y-6348000D01*
X13784000Y-6408000D02*
X13824000Y-6448000D01*
X13824000Y-6408000D02*
X13784000Y-6448000D01*
X13784000Y-6508000D02*
X13824000Y-6548000D01*
X13824000Y-6508000D02*
X13784000Y-6548000D01*
X13784000Y-6608000D02*
X13824000Y-6648000D01*
X13824000Y-6608000D02*
X13784000Y-6648000D01*
X14096000Y-6187000D02*
X14136000Y-6227000D01*
X14136000Y-6187000D02*
X14096000Y-6227000D01*
X14096000Y-6287000D02*
X14136000Y-6327000D01*
X14136000Y-6287000D02*
X14096000Y-6327000D01*
X14096000Y-6387000D02*
X14136000Y-6427000D01*
X14136000Y-6387000D02*
X14096000Y-6427000D01*
X14117000Y-8235000D02*
X14157000Y-8275000D01*
X14157000Y-8235000D02*
X14117000Y-8275000D01*
X14117000Y-8335000D02*
X14157000Y-8375000D01*
X14157000Y-8335000D02*
X14117000Y-8375000D01*
X14117000Y-8435000D02*
X14157000Y-8475000D01*
X14157000Y-8435000D02*
X14117000Y-8475000D01*
X14117000Y-8535000D02*
X14157000Y-8575000D01*
X14157000Y-8535000D02*
X14117000Y-8575000D01*
X14117000Y-8635000D02*
X14157000Y-8675000D01*
X14157000Y-8635000D02*
X14117000Y-8675000D01*
X14196000Y-6187000D02*
X14236000Y-6227000D01*
X14236000Y-6187000D02*
X14196000Y-6227000D01*
X14196000Y-6287000D02*
X14236000Y-6327000D01*
X14236000Y-6287000D02*
X14196000Y-6327000D01*
X14196000Y-6387000D02*
X14236000Y-6427000D01*
X14236000Y-6387000D02*
X14196000Y-6427000D01*
X14217000Y-8235000D02*
X14257000Y-8275000D01*
X14257000Y-8235000D02*
X14217000Y-8275000D01*
X14217000Y-8335000D02*
X14257000Y-8375000D01*
X14257000Y-8335000D02*
X14217000Y-8375000D01*
X14217000Y-8435000D02*
X14257000Y-8475000D01*
X14257000Y-8435000D02*
X14217000Y-8475000D01*
X14217000Y-8535000D02*
X14257000Y-8575000D01*
X14257000Y-8535000D02*
X14217000Y-8575000D01*
X14217000Y-8635000D02*
X14257000Y-8675000D01*
X14257000Y-8635000D02*
X14217000Y-8675000D01*
X14232000Y-7208000D02*
X14272000Y-7248000D01*
X14272000Y-7208000D02*
X14232000Y-7248000D01*
X14232000Y-7308000D02*
X14272000Y-7348000D01*
X14272000Y-7308000D02*
X14232000Y-7348000D01*
X14232000Y-7408000D02*
X14272000Y-7448000D01*
X14272000Y-7408000D02*
X14232000Y-7448000D01*
X14232000Y-7508000D02*
X14272000Y-7548000D01*
X14272000Y-7508000D02*
X14232000Y-7548000D01*
X14232000Y-7608000D02*
X14272000Y-7648000D01*
X14272000Y-7608000D02*
X14232000Y-7648000D01*
X14296000Y-6187000D02*
X14336000Y-6227000D01*
X14336000Y-6187000D02*
X14296000Y-6227000D01*
X14296000Y-6287000D02*
X14336000Y-6327000D01*
X14336000Y-6287000D02*
X14296000Y-6327000D01*
X14296000Y-6387000D02*
X14336000Y-6427000D01*
X14336000Y-6387000D02*
X14296000Y-6427000D01*
X14317000Y-8235000D02*
X14357000Y-8275000D01*
X14357000Y-8235000D02*
X14317000Y-8275000D01*
X14317000Y-8335000D02*
X14357000Y-8375000D01*
X14357000Y-8335000D02*
X14317000Y-8375000D01*
X14317000Y-8435000D02*
X14357000Y-8475000D01*
X14357000Y-8435000D02*
X14317000Y-8475000D01*
X14317000Y-8535000D02*
X14357000Y-8575000D01*
X14357000Y-8535000D02*
X14317000Y-8575000D01*
X14317000Y-8635000D02*
X14357000Y-8675000D01*
X14357000Y-8635000D02*
X14317000Y-8675000D01*
X14332000Y-7208000D02*
X14372000Y-7248000D01*
X14372000Y-7208000D02*
X14332000Y-7248000D01*
X14332000Y-7308000D02*
X14372000Y-7348000D01*
X14372000Y-7308000D02*
X14332000Y-7348000D01*
X14332000Y-7408000D02*
X14372000Y-7448000D01*
X14372000Y-7408000D02*
X14332000Y-7448000D01*
X14332000Y-7508000D02*
X14372000Y-7548000D01*
X14372000Y-7508000D02*
X14332000Y-7548000D01*
X14332000Y-7608000D02*
X14372000Y-7648000D01*
X14372000Y-7608000D02*
X14332000Y-7648000D01*
X14396000Y-6187000D02*
X14436000Y-6227000D01*
X14436000Y-6187000D02*
X14396000Y-6227000D01*
X14396000Y-6287000D02*
X14436000Y-6327000D01*
X14436000Y-6287000D02*
X14396000Y-6327000D01*
X14396000Y-6387000D02*
X14436000Y-6427000D01*
X14436000Y-6387000D02*
X14396000Y-6427000D01*
X14417000Y-8235000D02*
X14457000Y-8275000D01*
X14457000Y-8235000D02*
X14417000Y-8275000D01*
X14417000Y-8335000D02*
X14457000Y-8375000D01*
X14457000Y-8335000D02*
X14417000Y-8375000D01*
X14417000Y-8435000D02*
X14457000Y-8475000D01*
X14457000Y-8435000D02*
X14417000Y-8475000D01*
X14417000Y-8535000D02*
X14457000Y-8575000D01*
X14457000Y-8535000D02*
X14417000Y-8575000D01*
X14417000Y-8635000D02*
X14457000Y-8675000D01*
X14457000Y-8635000D02*
X14417000Y-8675000D01*
X14432000Y-7208000D02*
X14472000Y-7248000D01*
X14472000Y-7208000D02*
X14432000Y-7248000D01*
X14432000Y-7308000D02*
X14472000Y-7348000D01*
X14472000Y-7308000D02*
X14432000Y-7348000D01*
X14432000Y-7408000D02*
X14472000Y-7448000D01*
X14472000Y-7408000D02*
X14432000Y-7448000D01*
X14432000Y-7508000D02*
X14472000Y-7548000D01*
X14472000Y-7508000D02*
X14432000Y-7548000D01*
X14432000Y-7608000D02*
X14472000Y-7648000D01*
X14472000Y-7608000D02*
X14432000Y-7648000D01*
X14441000Y-10395000D02*
X14481000Y-10435000D01*
X14481000Y-10395000D02*
X14441000Y-10435000D01*
X14441000Y-10495000D02*
X14481000Y-10535000D01*
X14481000Y-10495000D02*
X14441000Y-10535000D01*
X14441000Y-10595000D02*
X14481000Y-10635000D01*
X14481000Y-10595000D02*
X14441000Y-10635000D01*
X14441000Y-10695000D02*
X14481000Y-10735000D01*
X14481000Y-10695000D02*
X14441000Y-10735000D01*
X14441000Y-10795000D02*
X14481000Y-10835000D01*
X14481000Y-10795000D02*
X14441000Y-10835000D01*
X14441000Y-10895000D02*
X14481000Y-10935000D01*
X14481000Y-10895000D02*
X14441000Y-10935000D01*
X14441000Y-10995000D02*
X14481000Y-11035000D01*
X14481000Y-10995000D02*
X14441000Y-11035000D01*
X14441000Y-11095000D02*
X14481000Y-11135000D01*
X14481000Y-11095000D02*
X14441000Y-11135000D01*
X14441000Y-11195000D02*
X14481000Y-11235000D01*
X14481000Y-11195000D02*
X14441000Y-11235000D01*
X14441000Y-11295000D02*
X14481000Y-11335000D01*
X14481000Y-11295000D02*
X14441000Y-11335000D01*
X14496000Y-6187000D02*
X14536000Y-6227000D01*
X14536000Y-6187000D02*
X14496000Y-6227000D01*
X14496000Y-6287000D02*
X14536000Y-6327000D01*
X14536000Y-6287000D02*
X14496000Y-6327000D01*
X14496000Y-6387000D02*
X14536000Y-6427000D01*
X14536000Y-6387000D02*
X14496000Y-6427000D01*
X14517000Y-8235000D02*
X14557000Y-8275000D01*
X14557000Y-8235000D02*
X14517000Y-8275000D01*
X14517000Y-8335000D02*
X14557000Y-8375000D01*
X14557000Y-8335000D02*
X14517000Y-8375000D01*
X14517000Y-8435000D02*
X14557000Y-8475000D01*
X14557000Y-8435000D02*
X14517000Y-8475000D01*
X14517000Y-8535000D02*
X14557000Y-8575000D01*
X14557000Y-8535000D02*
X14517000Y-8575000D01*
X14517000Y-8635000D02*
X14557000Y-8675000D01*
X14557000Y-8635000D02*
X14517000Y-8675000D01*
X14532000Y-7208000D02*
X14572000Y-7248000D01*
X14572000Y-7208000D02*
X14532000Y-7248000D01*
X14532000Y-7308000D02*
X14572000Y-7348000D01*
X14572000Y-7308000D02*
X14532000Y-7348000D01*
X14532000Y-7408000D02*
X14572000Y-7448000D01*
X14572000Y-7408000D02*
X14532000Y-7448000D01*
X14532000Y-7508000D02*
X14572000Y-7548000D01*
X14572000Y-7508000D02*
X14532000Y-7548000D01*
X14532000Y-7608000D02*
X14572000Y-7648000D01*
X14572000Y-7608000D02*
X14532000Y-7648000D01*
X14541000Y-10395000D02*
X14581000Y-10435000D01*
X14581000Y-10395000D02*
X14541000Y-10435000D01*
X14541000Y-10495000D02*
X14581000Y-10535000D01*
X14581000Y-10495000D02*
X14541000Y-10535000D01*
X14541000Y-10595000D02*
X14581000Y-10635000D01*
X14581000Y-10595000D02*
X14541000Y-10635000D01*
X14541000Y-10695000D02*
X14581000Y-10735000D01*
X14581000Y-10695000D02*
X14541000Y-10735000D01*
X14541000Y-10795000D02*
X14581000Y-10835000D01*
X14581000Y-10795000D02*
X14541000Y-10835000D01*
X14541000Y-10895000D02*
X14581000Y-10935000D01*
X14581000Y-10895000D02*
X14541000Y-10935000D01*
X14541000Y-10995000D02*
X14581000Y-11035000D01*
X14581000Y-10995000D02*
X14541000Y-11035000D01*
X14541000Y-11095000D02*
X14581000Y-11135000D01*
X14581000Y-11095000D02*
X14541000Y-11135000D01*
X14541000Y-11195000D02*
X14581000Y-11235000D01*
X14581000Y-11195000D02*
X14541000Y-11235000D01*
X14541000Y-11295000D02*
X14581000Y-11335000D01*
X14581000Y-11295000D02*
X14541000Y-11335000D01*
X14596000Y-6187000D02*
X14636000Y-6227000D01*
X14636000Y-6187000D02*
X14596000Y-6227000D01*
X14596000Y-6287000D02*
X14636000Y-6327000D01*
X14636000Y-6287000D02*
X14596000Y-6327000D01*
X14596000Y-6387000D02*
X14636000Y-6427000D01*
X14636000Y-6387000D02*
X14596000Y-6427000D01*
X14617000Y-8235000D02*
X14657000Y-8275000D01*
X14657000Y-8235000D02*
X14617000Y-8275000D01*
X14617000Y-8335000D02*
X14657000Y-8375000D01*
X14657000Y-8335000D02*
X14617000Y-8375000D01*
X14617000Y-8435000D02*
X14657000Y-8475000D01*
X14657000Y-8435000D02*
X14617000Y-8475000D01*
X14617000Y-8535000D02*
X14657000Y-8575000D01*
X14657000Y-8535000D02*
X14617000Y-8575000D01*
X14617000Y-8635000D02*
X14657000Y-8675000D01*
X14657000Y-8635000D02*
X14617000Y-8675000D01*
X14632000Y-7208000D02*
X14672000Y-7248000D01*
X14672000Y-7208000D02*
X14632000Y-7248000D01*
X14632000Y-7308000D02*
X14672000Y-7348000D01*
X14672000Y-7308000D02*
X14632000Y-7348000D01*
X14632000Y-7408000D02*
X14672000Y-7448000D01*
X14672000Y-7408000D02*
X14632000Y-7448000D01*
X14632000Y-7508000D02*
X14672000Y-7548000D01*
X14672000Y-7508000D02*
X14632000Y-7548000D01*
X14632000Y-7608000D02*
X14672000Y-7648000D01*
X14672000Y-7608000D02*
X14632000Y-7648000D01*
X14641000Y-10395000D02*
X14681000Y-10435000D01*
X14681000Y-10395000D02*
X14641000Y-10435000D01*
X14641000Y-10495000D02*
X14681000Y-10535000D01*
X14681000Y-10495000D02*
X14641000Y-10535000D01*
X14641000Y-10595000D02*
X14681000Y-10635000D01*
X14681000Y-10595000D02*
X14641000Y-10635000D01*
X14641000Y-10695000D02*
X14681000Y-10735000D01*
X14681000Y-10695000D02*
X14641000Y-10735000D01*
X14641000Y-10795000D02*
X14681000Y-10835000D01*
X14681000Y-10795000D02*
X14641000Y-10835000D01*
X14641000Y-10895000D02*
X14681000Y-10935000D01*
X14681000Y-10895000D02*
X14641000Y-10935000D01*
X14641000Y-10995000D02*
X14681000Y-11035000D01*
X14681000Y-10995000D02*
X14641000Y-11035000D01*
X14641000Y-11095000D02*
X14681000Y-11135000D01*
X14681000Y-11095000D02*
X14641000Y-11135000D01*
X14641000Y-11195000D02*
X14681000Y-11235000D01*
X14681000Y-11195000D02*
X14641000Y-11235000D01*
X14641000Y-11295000D02*
X14681000Y-11335000D01*
X14681000Y-11295000D02*
X14641000Y-11335000D01*
X14696000Y-6187000D02*
X14736000Y-6227000D01*
X14736000Y-6187000D02*
X14696000Y-6227000D01*
X14696000Y-6287000D02*
X14736000Y-6327000D01*
X14736000Y-6287000D02*
X14696000Y-6327000D01*
X14696000Y-6387000D02*
X14736000Y-6427000D01*
X14736000Y-6387000D02*
X14696000Y-6427000D01*
X14717000Y-8235000D02*
X14757000Y-8275000D01*
X14757000Y-8235000D02*
X14717000Y-8275000D01*
X14717000Y-8335000D02*
X14757000Y-8375000D01*
X14757000Y-8335000D02*
X14717000Y-8375000D01*
X14717000Y-8435000D02*
X14757000Y-8475000D01*
X14757000Y-8435000D02*
X14717000Y-8475000D01*
X14717000Y-8535000D02*
X14757000Y-8575000D01*
X14757000Y-8535000D02*
X14717000Y-8575000D01*
X14717000Y-8635000D02*
X14757000Y-8675000D01*
X14757000Y-8635000D02*
X14717000Y-8675000D01*
X14732000Y-7208000D02*
X14772000Y-7248000D01*
X14772000Y-7208000D02*
X14732000Y-7248000D01*
X14732000Y-7308000D02*
X14772000Y-7348000D01*
X14772000Y-7308000D02*
X14732000Y-7348000D01*
X14732000Y-7408000D02*
X14772000Y-7448000D01*
X14772000Y-7408000D02*
X14732000Y-7448000D01*
X14732000Y-7508000D02*
X14772000Y-7548000D01*
X14772000Y-7508000D02*
X14732000Y-7548000D01*
X14732000Y-7608000D02*
X14772000Y-7648000D01*
X14772000Y-7608000D02*
X14732000Y-7648000D01*
X14741000Y-10395000D02*
X14781000Y-10435000D01*
X14781000Y-10395000D02*
X14741000Y-10435000D01*
X14741000Y-10495000D02*
X14781000Y-10535000D01*
X14781000Y-10495000D02*
X14741000Y-10535000D01*
X14741000Y-10595000D02*
X14781000Y-10635000D01*
X14781000Y-10595000D02*
X14741000Y-10635000D01*
X14741000Y-10695000D02*
X14781000Y-10735000D01*
X14781000Y-10695000D02*
X14741000Y-10735000D01*
X14741000Y-10795000D02*
X14781000Y-10835000D01*
X14781000Y-10795000D02*
X14741000Y-10835000D01*
X14741000Y-10895000D02*
X14781000Y-10935000D01*
X14781000Y-10895000D02*
X14741000Y-10935000D01*
X14741000Y-10995000D02*
X14781000Y-11035000D01*
X14781000Y-10995000D02*
X14741000Y-11035000D01*
X14741000Y-11095000D02*
X14781000Y-11135000D01*
X14781000Y-11095000D02*
X14741000Y-11135000D01*
X14741000Y-11195000D02*
X14781000Y-11235000D01*
X14781000Y-11195000D02*
X14741000Y-11235000D01*
X14741000Y-11295000D02*
X14781000Y-11335000D01*
X14781000Y-11295000D02*
X14741000Y-11335000D01*
X14832000Y-7208000D02*
X14872000Y-7248000D01*
X14872000Y-7208000D02*
X14832000Y-7248000D01*
X14832000Y-7308000D02*
X14872000Y-7348000D01*
X14872000Y-7308000D02*
X14832000Y-7348000D01*
X14832000Y-7408000D02*
X14872000Y-7448000D01*
X14872000Y-7408000D02*
X14832000Y-7448000D01*
X14832000Y-7508000D02*
X14872000Y-7548000D01*
X14872000Y-7508000D02*
X14832000Y-7548000D01*
X14832000Y-7608000D02*
X14872000Y-7648000D01*
X14872000Y-7608000D02*
X14832000Y-7648000D01*
X14841000Y-10395000D02*
X14881000Y-10435000D01*
X14881000Y-10395000D02*
X14841000Y-10435000D01*
X14841000Y-10495000D02*
X14881000Y-10535000D01*
X14881000Y-10495000D02*
X14841000Y-10535000D01*
X14841000Y-10595000D02*
X14881000Y-10635000D01*
X14881000Y-10595000D02*
X14841000Y-10635000D01*
X14841000Y-10695000D02*
X14881000Y-10735000D01*
X14881000Y-10695000D02*
X14841000Y-10735000D01*
X14841000Y-10795000D02*
X14881000Y-10835000D01*
X14881000Y-10795000D02*
X14841000Y-10835000D01*
X14841000Y-10895000D02*
X14881000Y-10935000D01*
X14881000Y-10895000D02*
X14841000Y-10935000D01*
X14841000Y-10995000D02*
X14881000Y-11035000D01*
X14881000Y-10995000D02*
X14841000Y-11035000D01*
X14841000Y-11095000D02*
X14881000Y-11135000D01*
X14881000Y-11095000D02*
X14841000Y-11135000D01*
X14841000Y-11195000D02*
X14881000Y-11235000D01*
X14881000Y-11195000D02*
X14841000Y-11235000D01*
X14841000Y-11295000D02*
X14881000Y-11335000D01*
X14881000Y-11295000D02*
X14841000Y-11335000D01*
X16971000Y-8738000D02*
X17011000Y-8778000D01*
X17011000Y-8738000D02*
X16971000Y-8778000D01*
X16971000Y-8838000D02*
X17011000Y-8878000D01*
X17011000Y-8838000D02*
X16971000Y-8878000D01*
X16971000Y-8938000D02*
X17011000Y-8978000D01*
X17011000Y-8938000D02*
X16971000Y-8978000D01*
X16971000Y-9038000D02*
X17011000Y-9078000D01*
X17011000Y-9038000D02*
X16971000Y-9078000D01*
X16971000Y-9138000D02*
X17011000Y-9178000D01*
X17011000Y-9138000D02*
X16971000Y-9178000D01*
X16971000Y-9238000D02*
X17011000Y-9278000D01*
X17011000Y-9238000D02*
X16971000Y-9278000D01*
X16971000Y-9338000D02*
X17011000Y-9378000D01*
X17011000Y-9338000D02*
X16971000Y-9378000D01*
X17071000Y-8738000D02*
X17111000Y-8778000D01*
X17111000Y-8738000D02*
X17071000Y-8778000D01*
X17071000Y-8838000D02*
X17111000Y-8878000D01*
X17111000Y-8838000D02*
X17071000Y-8878000D01*
X17071000Y-8938000D02*
X17111000Y-8978000D01*
X17111000Y-8938000D02*
X17071000Y-8978000D01*
X17071000Y-9038000D02*
X17111000Y-9078000D01*
X17111000Y-9038000D02*
X17071000Y-9078000D01*
X17071000Y-9138000D02*
X17111000Y-9178000D01*
X17111000Y-9138000D02*
X17071000Y-9178000D01*
X17071000Y-9238000D02*
X17111000Y-9278000D01*
X17111000Y-9238000D02*
X17071000Y-9278000D01*
X17071000Y-9338000D02*
X17111000Y-9378000D01*
X17111000Y-9338000D02*
X17071000Y-9378000D01*
X17171000Y-8738000D02*
X17211000Y-8778000D01*
X17211000Y-8738000D02*
X17171000Y-8778000D01*
X17171000Y-8838000D02*
X17211000Y-8878000D01*
X17211000Y-8838000D02*
X17171000Y-8878000D01*
X17171000Y-8938000D02*
X17211000Y-8978000D01*
X17211000Y-8938000D02*
X17171000Y-8978000D01*
X17171000Y-9038000D02*
X17211000Y-9078000D01*
X17211000Y-9038000D02*
X17171000Y-9078000D01*
X17171000Y-9138000D02*
X17211000Y-9178000D01*
X17211000Y-9138000D02*
X17171000Y-9178000D01*
X17171000Y-9238000D02*
X17211000Y-9278000D01*
X17211000Y-9238000D02*
X17171000Y-9278000D01*
X17171000Y-9338000D02*
X17211000Y-9378000D01*
X17211000Y-9338000D02*
X17171000Y-9378000D01*
X17570000Y-10397000D02*
X17610000Y-10437000D01*
X17610000Y-10397000D02*
X17570000Y-10437000D01*
X17570000Y-10497000D02*
X17610000Y-10537000D01*
X17610000Y-10497000D02*
X17570000Y-10537000D01*
X17570000Y-10597000D02*
X17610000Y-10637000D01*
X17610000Y-10597000D02*
X17570000Y-10637000D01*
X17570000Y-10697000D02*
X17610000Y-10737000D01*
X17610000Y-10697000D02*
X17570000Y-10737000D01*
X17570000Y-10797000D02*
X17610000Y-10837000D01*
X17610000Y-10797000D02*
X17570000Y-10837000D01*
X17570000Y-10897000D02*
X17610000Y-10937000D01*
X17610000Y-10897000D02*
X17570000Y-10937000D01*
X17570000Y-10997000D02*
X17610000Y-11037000D01*
X17610000Y-10997000D02*
X17570000Y-11037000D01*
X17570000Y-11097000D02*
X17610000Y-11137000D01*
X17610000Y-11097000D02*
X17570000Y-11137000D01*
X17570000Y-11197000D02*
X17610000Y-11237000D01*
X17610000Y-11197000D02*
X17570000Y-11237000D01*
X17570000Y-11297000D02*
X17610000Y-11337000D01*
X17610000Y-11297000D02*
X17570000Y-11337000D01*
X17670000Y-10397000D02*
X17710000Y-10437000D01*
X17710000Y-10397000D02*
X17670000Y-10437000D01*
X17670000Y-10497000D02*
X17710000Y-10537000D01*
X17710000Y-10497000D02*
X17670000Y-10537000D01*
X17670000Y-10597000D02*
X17710000Y-10637000D01*
X17710000Y-10597000D02*
X17670000Y-10637000D01*
X17670000Y-10697000D02*
X17710000Y-10737000D01*
X17710000Y-10697000D02*
X17670000Y-10737000D01*
X17670000Y-10797000D02*
X17710000Y-10837000D01*
X17710000Y-10797000D02*
X17670000Y-10837000D01*
X17670000Y-10897000D02*
X17710000Y-10937000D01*
X17710000Y-10897000D02*
X17670000Y-10937000D01*
X17670000Y-10997000D02*
X17710000Y-11037000D01*
X17710000Y-10997000D02*
X17670000Y-11037000D01*
X17670000Y-11097000D02*
X17710000Y-11137000D01*
X17710000Y-11097000D02*
X17670000Y-11137000D01*
X17670000Y-11197000D02*
X17710000Y-11237000D01*
X17710000Y-11197000D02*
X17670000Y-11237000D01*
X17670000Y-11297000D02*
X17710000Y-11337000D01*
X17710000Y-11297000D02*
X17670000Y-11337000D01*
X17770000Y-10397000D02*
X17810000Y-10437000D01*
X17810000Y-10397000D02*
X17770000Y-10437000D01*
X17770000Y-10497000D02*
X17810000Y-10537000D01*
X17810000Y-10497000D02*
X17770000Y-10537000D01*
X17770000Y-10597000D02*
X17810000Y-10637000D01*
X17810000Y-10597000D02*
X17770000Y-10637000D01*
X17770000Y-10697000D02*
X17810000Y-10737000D01*
X17810000Y-10697000D02*
X17770000Y-10737000D01*
X17770000Y-10797000D02*
X17810000Y-10837000D01*
X17810000Y-10797000D02*
X17770000Y-10837000D01*
X17770000Y-10897000D02*
X17810000Y-10937000D01*
X17810000Y-10897000D02*
X17770000Y-10937000D01*
X17770000Y-10997000D02*
X17810000Y-11037000D01*
X17810000Y-10997000D02*
X17770000Y-11037000D01*
X17770000Y-11097000D02*
X17810000Y-11137000D01*
X17810000Y-11097000D02*
X17770000Y-11137000D01*
X17770000Y-11197000D02*
X17810000Y-11237000D01*
X17810000Y-11197000D02*
X17770000Y-11237000D01*
X17770000Y-11297000D02*
X17810000Y-11337000D01*
X17810000Y-11297000D02*
X17770000Y-11337000D01*
X17870000Y-10397000D02*
X17910000Y-10437000D01*
X17910000Y-10397000D02*
X17870000Y-10437000D01*
X17870000Y-10497000D02*
X17910000Y-10537000D01*
X17910000Y-10497000D02*
X17870000Y-10537000D01*
X17870000Y-10597000D02*
X17910000Y-10637000D01*
X17910000Y-10597000D02*
X17870000Y-10637000D01*
X17870000Y-10697000D02*
X17910000Y-10737000D01*
X17910000Y-10697000D02*
X17870000Y-10737000D01*
X17870000Y-10797000D02*
X17910000Y-10837000D01*
X17910000Y-10797000D02*
X17870000Y-10837000D01*
X17870000Y-10897000D02*
X17910000Y-10937000D01*
X17910000Y-10897000D02*
X17870000Y-10937000D01*
X17870000Y-10997000D02*
X17910000Y-11037000D01*
X17910000Y-10997000D02*
X17870000Y-11037000D01*
X17870000Y-11097000D02*
X17910000Y-11137000D01*
X17910000Y-11097000D02*
X17870000Y-11137000D01*
X17870000Y-11197000D02*
X17910000Y-11237000D01*
X17910000Y-11197000D02*
X17870000Y-11237000D01*
X17870000Y-11297000D02*
X17910000Y-11337000D01*
X17910000Y-11297000D02*
X17870000Y-11337000D01*
X17970000Y-10397000D02*
X18010000Y-10437000D01*
X18010000Y-10397000D02*
X17970000Y-10437000D01*
X17970000Y-10497000D02*
X18010000Y-10537000D01*
X18010000Y-10497000D02*
X17970000Y-10537000D01*
X17970000Y-10597000D02*
X18010000Y-10637000D01*
X18010000Y-10597000D02*
X17970000Y-10637000D01*
X17970000Y-10697000D02*
X18010000Y-10737000D01*
X18010000Y-10697000D02*
X17970000Y-10737000D01*
X17970000Y-10797000D02*
X18010000Y-10837000D01*
X18010000Y-10797000D02*
X17970000Y-10837000D01*
X17970000Y-10897000D02*
X18010000Y-10937000D01*
X18010000Y-10897000D02*
X17970000Y-10937000D01*
X17970000Y-10997000D02*
X18010000Y-11037000D01*
X18010000Y-10997000D02*
X17970000Y-11037000D01*
X17970000Y-11097000D02*
X18010000Y-11137000D01*
X18010000Y-11097000D02*
X17970000Y-11137000D01*
X17970000Y-11197000D02*
X18010000Y-11237000D01*
X18010000Y-11197000D02*
X17970000Y-11237000D01*
X17970000Y-11297000D02*
X18010000Y-11337000D01*
X18010000Y-11297000D02*
X17970000Y-11337000D01*
D13*
X9616000Y-9587000D02*
G75*
G03*
X9616000Y-9587000I-40000J0D01*
G01*
X10378000Y-9587000D02*
G75*
G03*
X10378000Y-9587000I-40000J0D01*
G01*
X11650000Y-9587000D02*
G75*
G03*
X11650000Y-9587000I-40000J0D01*
G01*
X12412000Y-9587000D02*
G75*
G03*
X12412000Y-9587000I-40000J0D01*
G01*
X13595000Y-8686000D02*
G75*
G03*
X13595000Y-8686000I-40000J0D01*
G01*
X13595000Y-9448000D02*
G75*
G03*
X13595000Y-9448000I-40000J0D01*
G01*
X15113000Y-6315000D02*
G75*
G03*
X15113000Y-6315000I-40000J0D01*
G01*
X15113000Y-7077000D02*
G75*
G03*
X15113000Y-7077000I-40000J0D01*
G01*
X15132000Y-7644000D02*
G75*
G03*
X15132000Y-7644000I-40000J0D01*
G01*
X15132000Y-8406000D02*
G75*
G03*
X15132000Y-8406000I-40000J0D01*
G01*
X15698000Y-6303000D02*
G75*
G03*
X15698000Y-6303000I-40000J0D01*
G01*
X15698000Y-7065000D02*
G75*
G03*
X15698000Y-7065000I-40000J0D01*
G01*
X15703000Y-7655000D02*
G75*
G03*
X15703000Y-7655000I-40000J0D01*
G01*
X15703000Y-8417000D02*
G75*
G03*
X15703000Y-8417000I-40000J0D01*
G01*
X17016000Y-6282000D02*
G75*
G03*
X17016000Y-6282000I-40000J0D01*
G01*
X17016000Y-7044000D02*
G75*
G03*
X17016000Y-7044000I-40000J0D01*
G01*
X17023000Y-7602000D02*
G75*
G03*
X17023000Y-7602000I-40000J0D01*
G01*
X17023000Y-8364000D02*
G75*
G03*
X17023000Y-8364000I-40000J0D01*
G01*
D14*
X9576000Y-9929360D02*
X9576000Y-10010640D01*
X9535360Y-9970000D02*
X9616640Y-9970000D01*
X9576000Y-10437360D02*
X9576000Y-10518640D01*
X9535360Y-10478000D02*
X9616640Y-10478000D01*
X10338000Y-9929360D02*
X10338000Y-10010640D01*
X10297360Y-9970000D02*
X10378640Y-9970000D01*
X10338000Y-10437360D02*
X10338000Y-10518640D01*
X10297360Y-10478000D02*
X10378640Y-10478000D01*
X11630000Y-9929360D02*
X11630000Y-10010640D01*
X11589360Y-9970000D02*
X11670640Y-9970000D01*
X11630000Y-10437360D02*
X11630000Y-10518640D01*
X11589360Y-10478000D02*
X11670640Y-10478000D01*
X12392000Y-9929360D02*
X12392000Y-10010640D01*
X12351360Y-9970000D02*
X12432640Y-9970000D01*
X12392000Y-10437360D02*
X12392000Y-10518640D01*
X12351360Y-10478000D02*
X12432640Y-10478000D01*
D15*
X13489820Y-8082820D02*
X13489820Y-8019180D01*
X13426180Y-8019180D01*
X13426180Y-8082820D01*
X13489820Y-8082820D01*
X13743820Y-8082820D02*
X13743820Y-8019180D01*
X13680180Y-8019180D01*
X13680180Y-8082820D01*
X13743820Y-8082820D01*
D10*
X9446000Y-6879000D02*
X9496000Y-6829000D01*
X9446000Y-6779000D01*
X9396000Y-6829000D01*
X9446000Y-6879000D01*
X9446000Y-7133000D02*
X9496000Y-7083000D01*
X9446000Y-7033000D01*
X9396000Y-7083000D01*
X9446000Y-7133000D01*
X9446000Y-7387000D02*
X9496000Y-7337000D01*
X9446000Y-7287000D01*
X9396000Y-7337000D01*
X9446000Y-7387000D01*
X9446000Y-7641000D02*
X9496000Y-7591000D01*
X9446000Y-7541000D01*
X9396000Y-7591000D01*
X9446000Y-7641000D01*
X9457000Y-9120000D02*
X9507000Y-9070000D01*
X9457000Y-9020000D01*
X9407000Y-9070000D01*
X9457000Y-9120000D01*
X10457000Y-9120000D02*
X10507000Y-9070000D01*
X10457000Y-9020000D01*
X10407000Y-9070000D01*
X10457000Y-9120000D01*
X10486000Y-11489000D02*
X10536000Y-11439000D01*
X10486000Y-11389000D01*
X10436000Y-11439000D01*
X10486000Y-11489000D01*
X11486000Y-11489000D02*
X11536000Y-11439000D01*
X11486000Y-11389000D01*
X11436000Y-11439000D01*
X11486000Y-11489000D01*
X11534000Y-9120000D02*
X11584000Y-9070000D01*
X11534000Y-9020000D01*
X11484000Y-9070000D01*
X11534000Y-9120000D01*
X12534000Y-9120000D02*
X12584000Y-9070000D01*
X12534000Y-9020000D01*
X12484000Y-9070000D01*
X12534000Y-9120000D01*
X13656000Y-10550000D02*
X13706000Y-10500000D01*
X13656000Y-10450000D01*
X13606000Y-10500000D01*
X13656000Y-10550000D01*
X13656000Y-10804000D02*
X13706000Y-10754000D01*
X13656000Y-10704000D01*
X13606000Y-10754000D01*
X13656000Y-10804000D01*
X13656000Y-11058000D02*
X13706000Y-11008000D01*
X13656000Y-10958000D01*
X13606000Y-11008000D01*
X13656000Y-11058000D01*
X13656000Y-11312000D02*
X13706000Y-11262000D01*
X13656000Y-11212000D01*
X13606000Y-11262000D01*
X13656000Y-11312000D01*
X14203000Y-9271000D02*
X14253000Y-9221000D01*
X14203000Y-9171000D01*
X14153000Y-9221000D01*
X14203000Y-9271000D01*
X15203000Y-9271000D02*
X15253000Y-9221000D01*
X15203000Y-9171000D01*
X15153000Y-9221000D01*
X15203000Y-9271000D01*
X15757000Y-9302000D02*
X15807000Y-9252000D01*
X15757000Y-9202000D01*
X15707000Y-9252000D01*
X15757000Y-9302000D01*
X16298000Y-7645000D02*
X16348000Y-7595000D01*
X16298000Y-7545000D01*
X16248000Y-7595000D01*
X16298000Y-7645000D01*
X16298000Y-8645000D02*
X16348000Y-8595000D01*
X16298000Y-8545000D01*
X16248000Y-8595000D01*
X16298000Y-8645000D01*
X16313000Y-6271000D02*
X16363000Y-6221000D01*
X16313000Y-6171000D01*
X16263000Y-6221000D01*
X16313000Y-6271000D01*
X16313000Y-7271000D02*
X16363000Y-7221000D01*
X16313000Y-7171000D01*
X16263000Y-7221000D01*
X16313000Y-7271000D01*
X16757000Y-9302000D02*
X16807000Y-9252000D01*
X16757000Y-9202000D01*
X16707000Y-9252000D01*
X16757000Y-9302000D01*
D16*
X9416500Y-11555500D02*
X9591500Y-11730500D01*
X9591500Y-11555500D02*
X9416500Y-11730500D01*
X9591500Y-11643000D02*
G75*
G03*
X9591500Y-11643000I-87500J0D01*
G01*
X9804500Y-11555500D02*
X9979500Y-11730500D01*
X9979500Y-11555500D02*
X9804500Y-11730500D01*
X9979500Y-11643000D02*
G75*
G03*
X9979500Y-11643000I-87500J0D01*
G01*
X17768500Y-6381250D02*
X17943500Y-6556250D01*
X17943500Y-6381250D02*
X17768500Y-6556250D01*
X17943500Y-6468750D02*
G75*
G03*
X17943500Y-6468750I-87500J0D01*
G01*
X17768500Y-6769250D02*
X17943500Y-6944250D01*
X17943500Y-6769250D02*
X17768500Y-6944250D01*
X17943500Y-6856750D02*
G75*
G03*
X17943500Y-6856750I-87500J0D01*
G01*
X17768500Y-8818250D02*
X17943500Y-8993250D01*
X17943500Y-8818250D02*
X17768500Y-8993250D01*
X17943500Y-8905750D02*
G75*
G03*
X17943500Y-8905750I-87500J0D01*
G01*
X17768500Y-9206250D02*
X17943500Y-9381250D01*
X17943500Y-9206250D02*
X17768500Y-9381250D01*
X17943500Y-9293750D02*
G75*
G03*
X17943500Y-9293750I-87500J0D01*
G01*
X17787500Y-7599750D02*
X17962500Y-7774750D01*
X17962500Y-7599750D02*
X17787500Y-7774750D01*
X17962500Y-7687250D02*
G75*
G03*
X17962500Y-7687250I-87500J0D01*
G01*
X17787500Y-7987750D02*
X17962500Y-8162750D01*
X17962500Y-7987750D02*
X17787500Y-8162750D01*
X17962500Y-8075250D02*
G75*
G03*
X17962500Y-8075250I-87500J0D01*
G01*
D11*
X9367619Y-12415476D02*
X9367619Y-12215476D01*
X9415238Y-12215476D01*
X9443810Y-12225000D01*
X9462857Y-12244048D01*
X9472381Y-12263095D01*
X9481905Y-12301190D01*
X9481905Y-12329762D01*
X9472381Y-12367857D01*
X9462857Y-12386905D01*
X9443810Y-12405952D01*
X9415238Y-12415476D01*
X9367619Y-12415476D01*
X9567619Y-12415476D02*
X9567619Y-12282143D01*
X9567619Y-12320238D02*
X9577143Y-12301190D01*
X9586667Y-12291667D01*
X9605714Y-12282143D01*
X9624762Y-12282143D01*
X9691429Y-12415476D02*
X9691429Y-12282143D01*
X9691429Y-12215476D02*
X9681905Y-12225000D01*
X9691429Y-12234524D01*
X9700952Y-12225000D01*
X9691429Y-12215476D01*
X9691429Y-12234524D01*
X9815238Y-12415476D02*
X9796190Y-12405952D01*
X9786667Y-12386905D01*
X9786667Y-12215476D01*
X9920000Y-12415476D02*
X9900952Y-12405952D01*
X9891429Y-12386905D01*
X9891429Y-12215476D01*
X10148571Y-12415476D02*
X10148571Y-12215476D01*
X10215238Y-12358333D01*
X10281905Y-12215476D01*
X10281905Y-12415476D01*
X10462857Y-12415476D02*
X10462857Y-12310714D01*
X10453333Y-12291667D01*
X10434286Y-12282143D01*
X10396190Y-12282143D01*
X10377143Y-12291667D01*
X10462857Y-12405952D02*
X10443810Y-12415476D01*
X10396190Y-12415476D01*
X10377143Y-12405952D01*
X10367619Y-12386905D01*
X10367619Y-12367857D01*
X10377143Y-12348809D01*
X10396190Y-12339286D01*
X10443810Y-12339286D01*
X10462857Y-12329762D01*
X10558095Y-12282143D02*
X10558095Y-12482143D01*
X10558095Y-12291667D02*
X10577143Y-12282143D01*
X10615238Y-12282143D01*
X10634286Y-12291667D01*
X10643810Y-12301190D01*
X10653333Y-12320238D01*
X10653333Y-12377381D01*
X10643810Y-12396428D01*
X10634286Y-12405952D01*
X10615238Y-12415476D01*
X10577143Y-12415476D01*
X10558095Y-12405952D01*
X10739048Y-12396428D02*
X10748571Y-12405952D01*
X10739048Y-12415476D01*
X10729524Y-12405952D01*
X10739048Y-12396428D01*
X10739048Y-12415476D01*
X10739048Y-12291667D02*
X10748571Y-12301190D01*
X10739048Y-12310714D01*
X10729524Y-12301190D01*
X10739048Y-12291667D01*
X10739048Y-12310714D01*
D12*
X9070000Y-12725000D02*
X9110000Y-12765000D01*
X9110000Y-12725000D02*
X9070000Y-12765000D01*
D11*
X9405714Y-12635476D02*
X9424762Y-12635476D01*
X9443810Y-12645000D01*
X9453333Y-12654524D01*
X9462857Y-12673571D01*
X9472381Y-12711667D01*
X9472381Y-12759286D01*
X9462857Y-12797381D01*
X9453333Y-12816428D01*
X9443810Y-12825952D01*
X9424762Y-12835476D01*
X9405714Y-12835476D01*
X9386667Y-12825952D01*
X9377143Y-12816428D01*
X9367619Y-12797381D01*
X9358095Y-12759286D01*
X9358095Y-12711667D01*
X9367619Y-12673571D01*
X9377143Y-12654524D01*
X9386667Y-12645000D01*
X9405714Y-12635476D01*
X9558095Y-12816428D02*
X9567619Y-12825952D01*
X9558095Y-12835476D01*
X9548571Y-12825952D01*
X9558095Y-12816428D01*
X9558095Y-12835476D01*
X9739048Y-12702143D02*
X9739048Y-12835476D01*
X9691429Y-12625952D02*
X9643810Y-12768809D01*
X9767619Y-12768809D01*
X9881905Y-12635476D02*
X9900952Y-12635476D01*
X9920000Y-12645000D01*
X9929524Y-12654524D01*
X9939048Y-12673571D01*
X9948571Y-12711667D01*
X9948571Y-12759286D01*
X9939048Y-12797381D01*
X9929524Y-12816428D01*
X9920000Y-12825952D01*
X9900952Y-12835476D01*
X9881905Y-12835476D01*
X9862857Y-12825952D01*
X9853333Y-12816428D01*
X9843810Y-12797381D01*
X9834286Y-12759286D01*
X9834286Y-12711667D01*
X9843810Y-12673571D01*
X9853333Y-12654524D01*
X9862857Y-12645000D01*
X9881905Y-12635476D01*
X10072381Y-12635476D02*
X10091429Y-12635476D01*
X10110476Y-12645000D01*
X10120000Y-12654524D01*
X10129524Y-12673571D01*
X10139048Y-12711667D01*
X10139048Y-12759286D01*
X10129524Y-12797381D01*
X10120000Y-12816428D01*
X10110476Y-12825952D01*
X10091429Y-12835476D01*
X10072381Y-12835476D01*
X10053333Y-12825952D01*
X10043810Y-12816428D01*
X10034286Y-12797381D01*
X10024762Y-12759286D01*
X10024762Y-12711667D01*
X10034286Y-12673571D01*
X10043810Y-12654524D01*
X10053333Y-12645000D01*
X10072381Y-12635476D01*
X10224762Y-12835476D02*
X10224762Y-12702143D01*
X10224762Y-12721190D02*
X10234286Y-12711667D01*
X10253333Y-12702143D01*
X10281905Y-12702143D01*
X10300952Y-12711667D01*
X10310476Y-12730714D01*
X10310476Y-12835476D01*
X10310476Y-12730714D02*
X10320000Y-12711667D01*
X10339048Y-12702143D01*
X10367619Y-12702143D01*
X10386667Y-12711667D01*
X10396190Y-12730714D01*
X10396190Y-12835476D01*
X10491429Y-12835476D02*
X10491429Y-12702143D01*
X10491429Y-12721190D02*
X10500952Y-12711667D01*
X10520000Y-12702143D01*
X10548571Y-12702143D01*
X10567619Y-12711667D01*
X10577143Y-12730714D01*
X10577143Y-12835476D01*
X10577143Y-12730714D02*
X10586667Y-12711667D01*
X10605714Y-12702143D01*
X10634286Y-12702143D01*
X10653333Y-12711667D01*
X10662857Y-12730714D01*
X10662857Y-12835476D01*
X11053333Y-12625952D02*
X10881905Y-12883095D01*
X11310476Y-12635476D02*
X11329524Y-12635476D01*
X11348571Y-12645000D01*
X11358095Y-12654524D01*
X11367619Y-12673571D01*
X11377143Y-12711667D01*
X11377143Y-12759286D01*
X11367619Y-12797381D01*
X11358095Y-12816428D01*
X11348571Y-12825952D01*
X11329524Y-12835476D01*
X11310476Y-12835476D01*
X11291428Y-12825952D01*
X11281905Y-12816428D01*
X11272381Y-12797381D01*
X11262857Y-12759286D01*
X11262857Y-12711667D01*
X11272381Y-12673571D01*
X11281905Y-12654524D01*
X11291428Y-12645000D01*
X11310476Y-12635476D01*
X11462857Y-12816428D02*
X11472381Y-12825952D01*
X11462857Y-12835476D01*
X11453333Y-12825952D01*
X11462857Y-12816428D01*
X11462857Y-12835476D01*
X11596190Y-12635476D02*
X11615238Y-12635476D01*
X11634286Y-12645000D01*
X11643809Y-12654524D01*
X11653333Y-12673571D01*
X11662857Y-12711667D01*
X11662857Y-12759286D01*
X11653333Y-12797381D01*
X11643809Y-12816428D01*
X11634286Y-12825952D01*
X11615238Y-12835476D01*
X11596190Y-12835476D01*
X11577143Y-12825952D01*
X11567619Y-12816428D01*
X11558095Y-12797381D01*
X11548571Y-12759286D01*
X11548571Y-12711667D01*
X11558095Y-12673571D01*
X11567619Y-12654524D01*
X11577143Y-12645000D01*
X11596190Y-12635476D01*
X11853333Y-12835476D02*
X11739048Y-12835476D01*
X11796190Y-12835476D02*
X11796190Y-12635476D01*
X11777143Y-12664048D01*
X11758095Y-12683095D01*
X11739048Y-12692619D01*
X12034286Y-12635476D02*
X11939048Y-12635476D01*
X11929524Y-12730714D01*
X11939048Y-12721190D01*
X11958095Y-12711667D01*
X12005714Y-12711667D01*
X12024762Y-12721190D01*
X12034286Y-12730714D01*
X12043809Y-12749762D01*
X12043809Y-12797381D01*
X12034286Y-12816428D01*
X12024762Y-12825952D01*
X12005714Y-12835476D01*
X11958095Y-12835476D01*
X11939048Y-12825952D01*
X11929524Y-12816428D01*
X12110476Y-12635476D02*
X12243809Y-12635476D01*
X12158095Y-12835476D01*
X12310476Y-12635476D02*
X12310476Y-12673571D01*
X12386667Y-12635476D02*
X12386667Y-12673571D01*
X12681905Y-12911667D02*
X12672381Y-12902143D01*
X12653333Y-12873571D01*
X12643809Y-12854524D01*
X12634286Y-12825952D01*
X12624762Y-12778333D01*
X12624762Y-12740238D01*
X12634286Y-12692619D01*
X12643809Y-12664048D01*
X12653333Y-12645000D01*
X12672381Y-12616428D01*
X12681905Y-12606905D01*
X12739048Y-12635476D02*
X12862857Y-12635476D01*
X12796190Y-12711667D01*
X12824762Y-12711667D01*
X12843809Y-12721190D01*
X12853333Y-12730714D01*
X12862857Y-12749762D01*
X12862857Y-12797381D01*
X12853333Y-12816428D01*
X12843809Y-12825952D01*
X12824762Y-12835476D01*
X12767619Y-12835476D01*
X12748571Y-12825952D01*
X12739048Y-12816428D01*
X13053333Y-12835476D02*
X12939048Y-12835476D01*
X12996190Y-12835476D02*
X12996190Y-12635476D01*
X12977143Y-12664048D01*
X12958095Y-12683095D01*
X12939048Y-12692619D01*
X13243809Y-12835476D02*
X13129524Y-12835476D01*
X13186667Y-12835476D02*
X13186667Y-12635476D01*
X13167619Y-12664048D01*
X13148571Y-12683095D01*
X13129524Y-12692619D01*
X13481905Y-12835476D02*
X13481905Y-12635476D01*
X13567619Y-12835476D02*
X13567619Y-12730714D01*
X13558095Y-12711667D01*
X13539048Y-12702143D01*
X13510476Y-12702143D01*
X13491428Y-12711667D01*
X13481905Y-12721190D01*
X13691428Y-12835476D02*
X13672381Y-12825952D01*
X13662857Y-12816428D01*
X13653333Y-12797381D01*
X13653333Y-12740238D01*
X13662857Y-12721190D01*
X13672381Y-12711667D01*
X13691428Y-12702143D01*
X13720000Y-12702143D01*
X13739048Y-12711667D01*
X13748571Y-12721190D01*
X13758095Y-12740238D01*
X13758095Y-12797381D01*
X13748571Y-12816428D01*
X13739048Y-12825952D01*
X13720000Y-12835476D01*
X13691428Y-12835476D01*
X13872381Y-12835476D02*
X13853333Y-12825952D01*
X13843809Y-12806905D01*
X13843809Y-12635476D01*
X14024762Y-12825952D02*
X14005714Y-12835476D01*
X13967619Y-12835476D01*
X13948571Y-12825952D01*
X13939048Y-12806905D01*
X13939048Y-12730714D01*
X13948571Y-12711667D01*
X13967619Y-12702143D01*
X14005714Y-12702143D01*
X14024762Y-12711667D01*
X14034286Y-12730714D01*
X14034286Y-12749762D01*
X13939048Y-12768809D01*
X14110476Y-12825952D02*
X14129524Y-12835476D01*
X14167619Y-12835476D01*
X14186667Y-12825952D01*
X14196190Y-12806905D01*
X14196190Y-12797381D01*
X14186667Y-12778333D01*
X14167619Y-12768809D01*
X14139048Y-12768809D01*
X14120000Y-12759286D01*
X14110476Y-12740238D01*
X14110476Y-12730714D01*
X14120000Y-12711667D01*
X14139048Y-12702143D01*
X14167619Y-12702143D01*
X14186667Y-12711667D01*
X14262857Y-12911667D02*
X14272381Y-12902143D01*
X14291428Y-12873571D01*
X14300952Y-12854524D01*
X14310476Y-12825952D01*
X14320000Y-12778333D01*
X14320000Y-12740238D01*
X14310476Y-12692619D01*
X14300952Y-12664048D01*
X14291428Y-12645000D01*
X14272381Y-12616428D01*
X14262857Y-12606905D01*
D13*
X9110000Y-13009000D02*
G75*
G03*
X9110000Y-13009000I-40000J0D01*
G01*
D11*
X9405714Y-12899476D02*
X9424762Y-12899476D01*
X9443810Y-12909000D01*
X9453333Y-12918524D01*
X9462857Y-12937571D01*
X9472381Y-12975667D01*
X9472381Y-13023286D01*
X9462857Y-13061381D01*
X9453333Y-13080428D01*
X9443810Y-13089952D01*
X9424762Y-13099476D01*
X9405714Y-13099476D01*
X9386667Y-13089952D01*
X9377143Y-13080428D01*
X9367619Y-13061381D01*
X9358095Y-13023286D01*
X9358095Y-12975667D01*
X9367619Y-12937571D01*
X9377143Y-12918524D01*
X9386667Y-12909000D01*
X9405714Y-12899476D01*
X9558095Y-13080428D02*
X9567619Y-13089952D01*
X9558095Y-13099476D01*
X9548571Y-13089952D01*
X9558095Y-13080428D01*
X9558095Y-13099476D01*
X9681905Y-12985190D02*
X9662857Y-12975667D01*
X9653333Y-12966143D01*
X9643810Y-12947095D01*
X9643810Y-12937571D01*
X9653333Y-12918524D01*
X9662857Y-12909000D01*
X9681905Y-12899476D01*
X9720000Y-12899476D01*
X9739048Y-12909000D01*
X9748571Y-12918524D01*
X9758095Y-12937571D01*
X9758095Y-12947095D01*
X9748571Y-12966143D01*
X9739048Y-12975667D01*
X9720000Y-12985190D01*
X9681905Y-12985190D01*
X9662857Y-12994714D01*
X9653333Y-13004238D01*
X9643810Y-13023286D01*
X9643810Y-13061381D01*
X9653333Y-13080428D01*
X9662857Y-13089952D01*
X9681905Y-13099476D01*
X9720000Y-13099476D01*
X9739048Y-13089952D01*
X9748571Y-13080428D01*
X9758095Y-13061381D01*
X9758095Y-13023286D01*
X9748571Y-13004238D01*
X9739048Y-12994714D01*
X9720000Y-12985190D01*
X9881905Y-12899476D02*
X9900952Y-12899476D01*
X9920000Y-12909000D01*
X9929524Y-12918524D01*
X9939048Y-12937571D01*
X9948571Y-12975667D01*
X9948571Y-13023286D01*
X9939048Y-13061381D01*
X9929524Y-13080428D01*
X9920000Y-13089952D01*
X9900952Y-13099476D01*
X9881905Y-13099476D01*
X9862857Y-13089952D01*
X9853333Y-13080428D01*
X9843810Y-13061381D01*
X9834286Y-13023286D01*
X9834286Y-12975667D01*
X9843810Y-12937571D01*
X9853333Y-12918524D01*
X9862857Y-12909000D01*
X9881905Y-12899476D01*
X10072381Y-12899476D02*
X10091429Y-12899476D01*
X10110476Y-12909000D01*
X10120000Y-12918524D01*
X10129524Y-12937571D01*
X10139048Y-12975667D01*
X10139048Y-13023286D01*
X10129524Y-13061381D01*
X10120000Y-13080428D01*
X10110476Y-13089952D01*
X10091429Y-13099476D01*
X10072381Y-13099476D01*
X10053333Y-13089952D01*
X10043810Y-13080428D01*
X10034286Y-13061381D01*
X10024762Y-13023286D01*
X10024762Y-12975667D01*
X10034286Y-12937571D01*
X10043810Y-12918524D01*
X10053333Y-12909000D01*
X10072381Y-12899476D01*
X10224762Y-13099476D02*
X10224762Y-12966143D01*
X10224762Y-12985190D02*
X10234286Y-12975667D01*
X10253333Y-12966143D01*
X10281905Y-12966143D01*
X10300952Y-12975667D01*
X10310476Y-12994714D01*
X10310476Y-13099476D01*
X10310476Y-12994714D02*
X10320000Y-12975667D01*
X10339048Y-12966143D01*
X10367619Y-12966143D01*
X10386667Y-12975667D01*
X10396190Y-12994714D01*
X10396190Y-13099476D01*
X10491429Y-13099476D02*
X10491429Y-12966143D01*
X10491429Y-12985190D02*
X10500952Y-12975667D01*
X10520000Y-12966143D01*
X10548571Y-12966143D01*
X10567619Y-12975667D01*
X10577143Y-12994714D01*
X10577143Y-13099476D01*
X10577143Y-12994714D02*
X10586667Y-12975667D01*
X10605714Y-12966143D01*
X10634286Y-12966143D01*
X10653333Y-12975667D01*
X10662857Y-12994714D01*
X10662857Y-13099476D01*
X11053333Y-12889952D02*
X10881905Y-13147095D01*
X11310476Y-12899476D02*
X11329524Y-12899476D01*
X11348571Y-12909000D01*
X11358095Y-12918524D01*
X11367619Y-12937571D01*
X11377143Y-12975667D01*
X11377143Y-13023286D01*
X11367619Y-13061381D01*
X11358095Y-13080428D01*
X11348571Y-13089952D01*
X11329524Y-13099476D01*
X11310476Y-13099476D01*
X11291428Y-13089952D01*
X11281905Y-13080428D01*
X11272381Y-13061381D01*
X11262857Y-13023286D01*
X11262857Y-12975667D01*
X11272381Y-12937571D01*
X11281905Y-12918524D01*
X11291428Y-12909000D01*
X11310476Y-12899476D01*
X11462857Y-13080428D02*
X11472381Y-13089952D01*
X11462857Y-13099476D01*
X11453333Y-13089952D01*
X11462857Y-13080428D01*
X11462857Y-13099476D01*
X11596190Y-12899476D02*
X11615238Y-12899476D01*
X11634286Y-12909000D01*
X11643809Y-12918524D01*
X11653333Y-12937571D01*
X11662857Y-12975667D01*
X11662857Y-13023286D01*
X11653333Y-13061381D01*
X11643809Y-13080428D01*
X11634286Y-13089952D01*
X11615238Y-13099476D01*
X11596190Y-13099476D01*
X11577143Y-13089952D01*
X11567619Y-13080428D01*
X11558095Y-13061381D01*
X11548571Y-13023286D01*
X11548571Y-12975667D01*
X11558095Y-12937571D01*
X11567619Y-12918524D01*
X11577143Y-12909000D01*
X11596190Y-12899476D01*
X11729524Y-12899476D02*
X11853333Y-12899476D01*
X11786667Y-12975667D01*
X11815238Y-12975667D01*
X11834286Y-12985190D01*
X11843809Y-12994714D01*
X11853333Y-13013762D01*
X11853333Y-13061381D01*
X11843809Y-13080428D01*
X11834286Y-13089952D01*
X11815238Y-13099476D01*
X11758095Y-13099476D01*
X11739048Y-13089952D01*
X11729524Y-13080428D01*
X12043809Y-13099476D02*
X11929524Y-13099476D01*
X11986667Y-13099476D02*
X11986667Y-12899476D01*
X11967619Y-12928048D01*
X11948571Y-12947095D01*
X11929524Y-12956619D01*
X12224762Y-12899476D02*
X12129524Y-12899476D01*
X12120000Y-12994714D01*
X12129524Y-12985190D01*
X12148571Y-12975667D01*
X12196190Y-12975667D01*
X12215238Y-12985190D01*
X12224762Y-12994714D01*
X12234286Y-13013762D01*
X12234286Y-13061381D01*
X12224762Y-13080428D01*
X12215238Y-13089952D01*
X12196190Y-13099476D01*
X12148571Y-13099476D01*
X12129524Y-13089952D01*
X12120000Y-13080428D01*
X12310476Y-12899476D02*
X12310476Y-12937571D01*
X12386667Y-12899476D02*
X12386667Y-12937571D01*
X12681905Y-13175667D02*
X12672381Y-13166143D01*
X12653333Y-13137571D01*
X12643809Y-13118524D01*
X12634286Y-13089952D01*
X12624762Y-13042333D01*
X12624762Y-13004238D01*
X12634286Y-12956619D01*
X12643809Y-12928048D01*
X12653333Y-12909000D01*
X12672381Y-12880428D01*
X12681905Y-12870905D01*
X12862857Y-13099476D02*
X12748571Y-13099476D01*
X12805714Y-13099476D02*
X12805714Y-12899476D01*
X12786667Y-12928048D01*
X12767619Y-12947095D01*
X12748571Y-12956619D01*
X12977143Y-12985190D02*
X12958095Y-12975667D01*
X12948571Y-12966143D01*
X12939048Y-12947095D01*
X12939048Y-12937571D01*
X12948571Y-12918524D01*
X12958095Y-12909000D01*
X12977143Y-12899476D01*
X13015238Y-12899476D01*
X13034286Y-12909000D01*
X13043809Y-12918524D01*
X13053333Y-12937571D01*
X13053333Y-12947095D01*
X13043809Y-12966143D01*
X13034286Y-12975667D01*
X13015238Y-12985190D01*
X12977143Y-12985190D01*
X12958095Y-12994714D01*
X12948571Y-13004238D01*
X12939048Y-13023286D01*
X12939048Y-13061381D01*
X12948571Y-13080428D01*
X12958095Y-13089952D01*
X12977143Y-13099476D01*
X13015238Y-13099476D01*
X13034286Y-13089952D01*
X13043809Y-13080428D01*
X13053333Y-13061381D01*
X13053333Y-13023286D01*
X13043809Y-13004238D01*
X13034286Y-12994714D01*
X13015238Y-12985190D01*
X13291428Y-13099476D02*
X13291428Y-12899476D01*
X13377143Y-13099476D02*
X13377143Y-12994714D01*
X13367619Y-12975667D01*
X13348571Y-12966143D01*
X13320000Y-12966143D01*
X13300952Y-12975667D01*
X13291428Y-12985190D01*
X13500952Y-13099476D02*
X13481905Y-13089952D01*
X13472381Y-13080428D01*
X13462857Y-13061381D01*
X13462857Y-13004238D01*
X13472381Y-12985190D01*
X13481905Y-12975667D01*
X13500952Y-12966143D01*
X13529524Y-12966143D01*
X13548571Y-12975667D01*
X13558095Y-12985190D01*
X13567619Y-13004238D01*
X13567619Y-13061381D01*
X13558095Y-13080428D01*
X13548571Y-13089952D01*
X13529524Y-13099476D01*
X13500952Y-13099476D01*
X13681905Y-13099476D02*
X13662857Y-13089952D01*
X13653333Y-13070905D01*
X13653333Y-12899476D01*
X13834286Y-13089952D02*
X13815238Y-13099476D01*
X13777143Y-13099476D01*
X13758095Y-13089952D01*
X13748571Y-13070905D01*
X13748571Y-12994714D01*
X13758095Y-12975667D01*
X13777143Y-12966143D01*
X13815238Y-12966143D01*
X13834286Y-12975667D01*
X13843809Y-12994714D01*
X13843809Y-13013762D01*
X13748571Y-13032809D01*
X13920000Y-13089952D02*
X13939048Y-13099476D01*
X13977143Y-13099476D01*
X13996190Y-13089952D01*
X14005714Y-13070905D01*
X14005714Y-13061381D01*
X13996190Y-13042333D01*
X13977143Y-13032809D01*
X13948571Y-13032809D01*
X13929524Y-13023286D01*
X13920000Y-13004238D01*
X13920000Y-12994714D01*
X13929524Y-12975667D01*
X13948571Y-12966143D01*
X13977143Y-12966143D01*
X13996190Y-12975667D01*
X14072381Y-13175667D02*
X14081905Y-13166143D01*
X14100952Y-13137571D01*
X14110476Y-13118524D01*
X14120000Y-13089952D01*
X14129524Y-13042333D01*
X14129524Y-13004238D01*
X14120000Y-12956619D01*
X14110476Y-12928048D01*
X14100952Y-12909000D01*
X14081905Y-12880428D01*
X14072381Y-12870905D01*
D14*
X9069360Y-13232360D02*
X9069360Y-13313640D01*
X9028720Y-13273000D02*
X9110000Y-13273000D01*
D11*
X9405714Y-13163476D02*
X9424762Y-13163476D01*
X9443810Y-13173000D01*
X9453333Y-13182524D01*
X9462857Y-13201571D01*
X9472381Y-13239667D01*
X9472381Y-13287286D01*
X9462857Y-13325381D01*
X9453333Y-13344428D01*
X9443810Y-13353952D01*
X9424762Y-13363476D01*
X9405714Y-13363476D01*
X9386667Y-13353952D01*
X9377143Y-13344428D01*
X9367619Y-13325381D01*
X9358095Y-13287286D01*
X9358095Y-13239667D01*
X9367619Y-13201571D01*
X9377143Y-13182524D01*
X9386667Y-13173000D01*
X9405714Y-13163476D01*
X9558095Y-13344428D02*
X9567619Y-13353952D01*
X9558095Y-13363476D01*
X9548571Y-13353952D01*
X9558095Y-13344428D01*
X9558095Y-13363476D01*
X9681905Y-13249190D02*
X9662857Y-13239667D01*
X9653333Y-13230143D01*
X9643810Y-13211095D01*
X9643810Y-13201571D01*
X9653333Y-13182524D01*
X9662857Y-13173000D01*
X9681905Y-13163476D01*
X9720000Y-13163476D01*
X9739048Y-13173000D01*
X9748571Y-13182524D01*
X9758095Y-13201571D01*
X9758095Y-13211095D01*
X9748571Y-13230143D01*
X9739048Y-13239667D01*
X9720000Y-13249190D01*
X9681905Y-13249190D01*
X9662857Y-13258714D01*
X9653333Y-13268238D01*
X9643810Y-13287286D01*
X9643810Y-13325381D01*
X9653333Y-13344428D01*
X9662857Y-13353952D01*
X9681905Y-13363476D01*
X9720000Y-13363476D01*
X9739048Y-13353952D01*
X9748571Y-13344428D01*
X9758095Y-13325381D01*
X9758095Y-13287286D01*
X9748571Y-13268238D01*
X9739048Y-13258714D01*
X9720000Y-13249190D01*
X9948571Y-13363476D02*
X9834286Y-13363476D01*
X9891429Y-13363476D02*
X9891429Y-13163476D01*
X9872381Y-13192048D01*
X9853333Y-13211095D01*
X9834286Y-13220619D01*
X10015238Y-13163476D02*
X10139048Y-13163476D01*
X10072381Y-13239667D01*
X10100952Y-13239667D01*
X10120000Y-13249190D01*
X10129524Y-13258714D01*
X10139048Y-13277762D01*
X10139048Y-13325381D01*
X10129524Y-13344428D01*
X10120000Y-13353952D01*
X10100952Y-13363476D01*
X10043810Y-13363476D01*
X10024762Y-13353952D01*
X10015238Y-13344428D01*
X10224762Y-13363476D02*
X10224762Y-13230143D01*
X10224762Y-13249190D02*
X10234286Y-13239667D01*
X10253333Y-13230143D01*
X10281905Y-13230143D01*
X10300952Y-13239667D01*
X10310476Y-13258714D01*
X10310476Y-13363476D01*
X10310476Y-13258714D02*
X10320000Y-13239667D01*
X10339048Y-13230143D01*
X10367619Y-13230143D01*
X10386667Y-13239667D01*
X10396190Y-13258714D01*
X10396190Y-13363476D01*
X10491429Y-13363476D02*
X10491429Y-13230143D01*
X10491429Y-13249190D02*
X10500952Y-13239667D01*
X10520000Y-13230143D01*
X10548571Y-13230143D01*
X10567619Y-13239667D01*
X10577143Y-13258714D01*
X10577143Y-13363476D01*
X10577143Y-13258714D02*
X10586667Y-13239667D01*
X10605714Y-13230143D01*
X10634286Y-13230143D01*
X10653333Y-13239667D01*
X10662857Y-13258714D01*
X10662857Y-13363476D01*
X11053333Y-13153952D02*
X10881905Y-13411095D01*
X11310476Y-13163476D02*
X11329524Y-13163476D01*
X11348571Y-13173000D01*
X11358095Y-13182524D01*
X11367619Y-13201571D01*
X11377143Y-13239667D01*
X11377143Y-13287286D01*
X11367619Y-13325381D01*
X11358095Y-13344428D01*
X11348571Y-13353952D01*
X11329524Y-13363476D01*
X11310476Y-13363476D01*
X11291428Y-13353952D01*
X11281905Y-13344428D01*
X11272381Y-13325381D01*
X11262857Y-13287286D01*
X11262857Y-13239667D01*
X11272381Y-13201571D01*
X11281905Y-13182524D01*
X11291428Y-13173000D01*
X11310476Y-13163476D01*
X11462857Y-13344428D02*
X11472381Y-13353952D01*
X11462857Y-13363476D01*
X11453333Y-13353952D01*
X11462857Y-13344428D01*
X11462857Y-13363476D01*
X11596190Y-13163476D02*
X11615238Y-13163476D01*
X11634286Y-13173000D01*
X11643809Y-13182524D01*
X11653333Y-13201571D01*
X11662857Y-13239667D01*
X11662857Y-13287286D01*
X11653333Y-13325381D01*
X11643809Y-13344428D01*
X11634286Y-13353952D01*
X11615238Y-13363476D01*
X11596190Y-13363476D01*
X11577143Y-13353952D01*
X11567619Y-13344428D01*
X11558095Y-13325381D01*
X11548571Y-13287286D01*
X11548571Y-13239667D01*
X11558095Y-13201571D01*
X11567619Y-13182524D01*
X11577143Y-13173000D01*
X11596190Y-13163476D01*
X11729524Y-13163476D02*
X11853333Y-13163476D01*
X11786667Y-13239667D01*
X11815238Y-13239667D01*
X11834286Y-13249190D01*
X11843809Y-13258714D01*
X11853333Y-13277762D01*
X11853333Y-13325381D01*
X11843809Y-13344428D01*
X11834286Y-13353952D01*
X11815238Y-13363476D01*
X11758095Y-13363476D01*
X11739048Y-13353952D01*
X11729524Y-13344428D01*
X11929524Y-13182524D02*
X11939048Y-13173000D01*
X11958095Y-13163476D01*
X12005714Y-13163476D01*
X12024762Y-13173000D01*
X12034286Y-13182524D01*
X12043809Y-13201571D01*
X12043809Y-13220619D01*
X12034286Y-13249190D01*
X11920000Y-13363476D01*
X12043809Y-13363476D01*
X12167619Y-13163476D02*
X12186667Y-13163476D01*
X12205714Y-13173000D01*
X12215238Y-13182524D01*
X12224762Y-13201571D01*
X12234286Y-13239667D01*
X12234286Y-13287286D01*
X12224762Y-13325381D01*
X12215238Y-13344428D01*
X12205714Y-13353952D01*
X12186667Y-13363476D01*
X12167619Y-13363476D01*
X12148571Y-13353952D01*
X12139048Y-13344428D01*
X12129524Y-13325381D01*
X12120000Y-13287286D01*
X12120000Y-13239667D01*
X12129524Y-13201571D01*
X12139048Y-13182524D01*
X12148571Y-13173000D01*
X12167619Y-13163476D01*
X12310476Y-13163476D02*
X12310476Y-13201571D01*
X12386667Y-13163476D02*
X12386667Y-13201571D01*
X12681905Y-13439667D02*
X12672381Y-13430143D01*
X12653333Y-13401571D01*
X12643809Y-13382524D01*
X12634286Y-13353952D01*
X12624762Y-13306333D01*
X12624762Y-13268238D01*
X12634286Y-13220619D01*
X12643809Y-13192048D01*
X12653333Y-13173000D01*
X12672381Y-13144428D01*
X12681905Y-13134905D01*
X12786667Y-13249190D02*
X12767619Y-13239667D01*
X12758095Y-13230143D01*
X12748571Y-13211095D01*
X12748571Y-13201571D01*
X12758095Y-13182524D01*
X12767619Y-13173000D01*
X12786667Y-13163476D01*
X12824762Y-13163476D01*
X12843809Y-13173000D01*
X12853333Y-13182524D01*
X12862857Y-13201571D01*
X12862857Y-13211095D01*
X12853333Y-13230143D01*
X12843809Y-13239667D01*
X12824762Y-13249190D01*
X12786667Y-13249190D01*
X12767619Y-13258714D01*
X12758095Y-13268238D01*
X12748571Y-13287286D01*
X12748571Y-13325381D01*
X12758095Y-13344428D01*
X12767619Y-13353952D01*
X12786667Y-13363476D01*
X12824762Y-13363476D01*
X12843809Y-13353952D01*
X12853333Y-13344428D01*
X12862857Y-13325381D01*
X12862857Y-13287286D01*
X12853333Y-13268238D01*
X12843809Y-13258714D01*
X12824762Y-13249190D01*
X13100952Y-13363476D02*
X13100952Y-13163476D01*
X13186667Y-13363476D02*
X13186667Y-13258714D01*
X13177143Y-13239667D01*
X13158095Y-13230143D01*
X13129524Y-13230143D01*
X13110476Y-13239667D01*
X13100952Y-13249190D01*
X13310476Y-13363476D02*
X13291428Y-13353952D01*
X13281905Y-13344428D01*
X13272381Y-13325381D01*
X13272381Y-13268238D01*
X13281905Y-13249190D01*
X13291428Y-13239667D01*
X13310476Y-13230143D01*
X13339048Y-13230143D01*
X13358095Y-13239667D01*
X13367619Y-13249190D01*
X13377143Y-13268238D01*
X13377143Y-13325381D01*
X13367619Y-13344428D01*
X13358095Y-13353952D01*
X13339048Y-13363476D01*
X13310476Y-13363476D01*
X13491428Y-13363476D02*
X13472381Y-13353952D01*
X13462857Y-13334905D01*
X13462857Y-13163476D01*
X13643809Y-13353952D02*
X13624762Y-13363476D01*
X13586667Y-13363476D01*
X13567619Y-13353952D01*
X13558095Y-13334905D01*
X13558095Y-13258714D01*
X13567619Y-13239667D01*
X13586667Y-13230143D01*
X13624762Y-13230143D01*
X13643809Y-13239667D01*
X13653333Y-13258714D01*
X13653333Y-13277762D01*
X13558095Y-13296809D01*
X13729524Y-13353952D02*
X13748571Y-13363476D01*
X13786667Y-13363476D01*
X13805714Y-13353952D01*
X13815238Y-13334905D01*
X13815238Y-13325381D01*
X13805714Y-13306333D01*
X13786667Y-13296809D01*
X13758095Y-13296809D01*
X13739048Y-13287286D01*
X13729524Y-13268238D01*
X13729524Y-13258714D01*
X13739048Y-13239667D01*
X13758095Y-13230143D01*
X13786667Y-13230143D01*
X13805714Y-13239667D01*
X13881905Y-13439667D02*
X13891428Y-13430143D01*
X13910476Y-13401571D01*
X13920000Y-13382524D01*
X13929524Y-13353952D01*
X13939048Y-13306333D01*
X13939048Y-13268238D01*
X13929524Y-13220619D01*
X13920000Y-13192048D01*
X13910476Y-13173000D01*
X13891428Y-13144428D01*
X13881905Y-13134905D01*
D15*
X9096820Y-13568820D02*
X9096820Y-13505180D01*
X9033180Y-13505180D01*
X9033180Y-13568820D01*
X9096820Y-13568820D01*
D11*
X9405714Y-13427476D02*
X9424762Y-13427476D01*
X9443810Y-13437000D01*
X9453333Y-13446524D01*
X9462857Y-13465571D01*
X9472381Y-13503667D01*
X9472381Y-13551286D01*
X9462857Y-13589381D01*
X9453333Y-13608428D01*
X9443810Y-13617952D01*
X9424762Y-13627476D01*
X9405714Y-13627476D01*
X9386667Y-13617952D01*
X9377143Y-13608428D01*
X9367619Y-13589381D01*
X9358095Y-13551286D01*
X9358095Y-13503667D01*
X9367619Y-13465571D01*
X9377143Y-13446524D01*
X9386667Y-13437000D01*
X9405714Y-13427476D01*
X9558095Y-13608428D02*
X9567619Y-13617952D01*
X9558095Y-13627476D01*
X9548571Y-13617952D01*
X9558095Y-13608428D01*
X9558095Y-13627476D01*
X9662857Y-13627476D02*
X9700952Y-13627476D01*
X9720000Y-13617952D01*
X9729524Y-13608428D01*
X9748571Y-13579857D01*
X9758095Y-13541762D01*
X9758095Y-13465571D01*
X9748571Y-13446524D01*
X9739048Y-13437000D01*
X9720000Y-13427476D01*
X9681905Y-13427476D01*
X9662857Y-13437000D01*
X9653333Y-13446524D01*
X9643810Y-13465571D01*
X9643810Y-13513190D01*
X9653333Y-13532238D01*
X9662857Y-13541762D01*
X9681905Y-13551286D01*
X9720000Y-13551286D01*
X9739048Y-13541762D01*
X9748571Y-13532238D01*
X9758095Y-13513190D01*
X9881905Y-13427476D02*
X9900952Y-13427476D01*
X9920000Y-13437000D01*
X9929524Y-13446524D01*
X9939048Y-13465571D01*
X9948571Y-13503667D01*
X9948571Y-13551286D01*
X9939048Y-13589381D01*
X9929524Y-13608428D01*
X9920000Y-13617952D01*
X9900952Y-13627476D01*
X9881905Y-13627476D01*
X9862857Y-13617952D01*
X9853333Y-13608428D01*
X9843810Y-13589381D01*
X9834286Y-13551286D01*
X9834286Y-13503667D01*
X9843810Y-13465571D01*
X9853333Y-13446524D01*
X9862857Y-13437000D01*
X9881905Y-13427476D01*
X10072381Y-13427476D02*
X10091429Y-13427476D01*
X10110476Y-13437000D01*
X10120000Y-13446524D01*
X10129524Y-13465571D01*
X10139048Y-13503667D01*
X10139048Y-13551286D01*
X10129524Y-13589381D01*
X10120000Y-13608428D01*
X10110476Y-13617952D01*
X10091429Y-13627476D01*
X10072381Y-13627476D01*
X10053333Y-13617952D01*
X10043810Y-13608428D01*
X10034286Y-13589381D01*
X10024762Y-13551286D01*
X10024762Y-13503667D01*
X10034286Y-13465571D01*
X10043810Y-13446524D01*
X10053333Y-13437000D01*
X10072381Y-13427476D01*
X10224762Y-13627476D02*
X10224762Y-13494143D01*
X10224762Y-13513190D02*
X10234286Y-13503667D01*
X10253333Y-13494143D01*
X10281905Y-13494143D01*
X10300952Y-13503667D01*
X10310476Y-13522714D01*
X10310476Y-13627476D01*
X10310476Y-13522714D02*
X10320000Y-13503667D01*
X10339048Y-13494143D01*
X10367619Y-13494143D01*
X10386667Y-13503667D01*
X10396190Y-13522714D01*
X10396190Y-13627476D01*
X10491429Y-13627476D02*
X10491429Y-13494143D01*
X10491429Y-13513190D02*
X10500952Y-13503667D01*
X10520000Y-13494143D01*
X10548571Y-13494143D01*
X10567619Y-13503667D01*
X10577143Y-13522714D01*
X10577143Y-13627476D01*
X10577143Y-13522714D02*
X10586667Y-13503667D01*
X10605714Y-13494143D01*
X10634286Y-13494143D01*
X10653333Y-13503667D01*
X10662857Y-13522714D01*
X10662857Y-13627476D01*
X11053333Y-13417952D02*
X10881905Y-13675095D01*
X11310476Y-13427476D02*
X11329524Y-13427476D01*
X11348571Y-13437000D01*
X11358095Y-13446524D01*
X11367619Y-13465571D01*
X11377143Y-13503667D01*
X11377143Y-13551286D01*
X11367619Y-13589381D01*
X11358095Y-13608428D01*
X11348571Y-13617952D01*
X11329524Y-13627476D01*
X11310476Y-13627476D01*
X11291428Y-13617952D01*
X11281905Y-13608428D01*
X11272381Y-13589381D01*
X11262857Y-13551286D01*
X11262857Y-13503667D01*
X11272381Y-13465571D01*
X11281905Y-13446524D01*
X11291428Y-13437000D01*
X11310476Y-13427476D01*
X11462857Y-13608428D02*
X11472381Y-13617952D01*
X11462857Y-13627476D01*
X11453333Y-13617952D01*
X11462857Y-13608428D01*
X11462857Y-13627476D01*
X11596190Y-13427476D02*
X11615238Y-13427476D01*
X11634286Y-13437000D01*
X11643809Y-13446524D01*
X11653333Y-13465571D01*
X11662857Y-13503667D01*
X11662857Y-13551286D01*
X11653333Y-13589381D01*
X11643809Y-13608428D01*
X11634286Y-13617952D01*
X11615238Y-13627476D01*
X11596190Y-13627476D01*
X11577143Y-13617952D01*
X11567619Y-13608428D01*
X11558095Y-13589381D01*
X11548571Y-13551286D01*
X11548571Y-13503667D01*
X11558095Y-13465571D01*
X11567619Y-13446524D01*
X11577143Y-13437000D01*
X11596190Y-13427476D01*
X11729524Y-13427476D02*
X11853333Y-13427476D01*
X11786667Y-13503667D01*
X11815238Y-13503667D01*
X11834286Y-13513190D01*
X11843809Y-13522714D01*
X11853333Y-13541762D01*
X11853333Y-13589381D01*
X11843809Y-13608428D01*
X11834286Y-13617952D01*
X11815238Y-13627476D01*
X11758095Y-13627476D01*
X11739048Y-13617952D01*
X11729524Y-13608428D01*
X12034286Y-13427476D02*
X11939048Y-13427476D01*
X11929524Y-13522714D01*
X11939048Y-13513190D01*
X11958095Y-13503667D01*
X12005714Y-13503667D01*
X12024762Y-13513190D01*
X12034286Y-13522714D01*
X12043809Y-13541762D01*
X12043809Y-13589381D01*
X12034286Y-13608428D01*
X12024762Y-13617952D01*
X12005714Y-13627476D01*
X11958095Y-13627476D01*
X11939048Y-13617952D01*
X11929524Y-13608428D01*
X12215238Y-13494143D02*
X12215238Y-13627476D01*
X12167619Y-13417952D02*
X12120000Y-13560809D01*
X12243809Y-13560809D01*
X12310476Y-13427476D02*
X12310476Y-13465571D01*
X12386667Y-13427476D02*
X12386667Y-13465571D01*
X12681905Y-13703667D02*
X12672381Y-13694143D01*
X12653333Y-13665571D01*
X12643809Y-13646524D01*
X12634286Y-13617952D01*
X12624762Y-13570333D01*
X12624762Y-13532238D01*
X12634286Y-13484619D01*
X12643809Y-13456048D01*
X12653333Y-13437000D01*
X12672381Y-13408428D01*
X12681905Y-13398905D01*
X12748571Y-13446524D02*
X12758095Y-13437000D01*
X12777143Y-13427476D01*
X12824762Y-13427476D01*
X12843809Y-13437000D01*
X12853333Y-13446524D01*
X12862857Y-13465571D01*
X12862857Y-13484619D01*
X12853333Y-13513190D01*
X12739048Y-13627476D01*
X12862857Y-13627476D01*
X13100952Y-13627476D02*
X13100952Y-13427476D01*
X13186667Y-13627476D02*
X13186667Y-13522714D01*
X13177143Y-13503667D01*
X13158095Y-13494143D01*
X13129524Y-13494143D01*
X13110476Y-13503667D01*
X13100952Y-13513190D01*
X13310476Y-13627476D02*
X13291428Y-13617952D01*
X13281905Y-13608428D01*
X13272381Y-13589381D01*
X13272381Y-13532238D01*
X13281905Y-13513190D01*
X13291428Y-13503667D01*
X13310476Y-13494143D01*
X13339048Y-13494143D01*
X13358095Y-13503667D01*
X13367619Y-13513190D01*
X13377143Y-13532238D01*
X13377143Y-13589381D01*
X13367619Y-13608428D01*
X13358095Y-13617952D01*
X13339048Y-13627476D01*
X13310476Y-13627476D01*
X13491428Y-13627476D02*
X13472381Y-13617952D01*
X13462857Y-13598905D01*
X13462857Y-13427476D01*
X13643809Y-13617952D02*
X13624762Y-13627476D01*
X13586667Y-13627476D01*
X13567619Y-13617952D01*
X13558095Y-13598905D01*
X13558095Y-13522714D01*
X13567619Y-13503667D01*
X13586667Y-13494143D01*
X13624762Y-13494143D01*
X13643809Y-13503667D01*
X13653333Y-13522714D01*
X13653333Y-13541762D01*
X13558095Y-13560809D01*
X13729524Y-13617952D02*
X13748571Y-13627476D01*
X13786667Y-13627476D01*
X13805714Y-13617952D01*
X13815238Y-13598905D01*
X13815238Y-13589381D01*
X13805714Y-13570333D01*
X13786667Y-13560809D01*
X13758095Y-13560809D01*
X13739048Y-13551286D01*
X13729524Y-13532238D01*
X13729524Y-13522714D01*
X13739048Y-13503667D01*
X13758095Y-13494143D01*
X13786667Y-13494143D01*
X13805714Y-13503667D01*
X13881905Y-13703667D02*
X13891428Y-13694143D01*
X13910476Y-13665571D01*
X13920000Y-13646524D01*
X13929524Y-13617952D01*
X13939048Y-13570333D01*
X13939048Y-13532238D01*
X13929524Y-13484619D01*
X13920000Y-13456048D01*
X13910476Y-13437000D01*
X13891428Y-13408428D01*
X13881905Y-13398905D01*
D10*
X9060000Y-13851000D02*
X9110000Y-13801000D01*
X9060000Y-13751000D01*
X9010000Y-13801000D01*
X9060000Y-13851000D01*
D11*
X9472381Y-13891476D02*
X9358095Y-13891476D01*
X9415238Y-13891476D02*
X9415238Y-13691476D01*
X9396190Y-13720048D01*
X9377143Y-13739095D01*
X9358095Y-13748619D01*
X9558095Y-13872428D02*
X9567619Y-13881952D01*
X9558095Y-13891476D01*
X9548571Y-13881952D01*
X9558095Y-13872428D01*
X9558095Y-13891476D01*
X9691429Y-13691476D02*
X9710476Y-13691476D01*
X9729524Y-13701000D01*
X9739048Y-13710524D01*
X9748571Y-13729571D01*
X9758095Y-13767667D01*
X9758095Y-13815286D01*
X9748571Y-13853381D01*
X9739048Y-13872428D01*
X9729524Y-13881952D01*
X9710476Y-13891476D01*
X9691429Y-13891476D01*
X9672381Y-13881952D01*
X9662857Y-13872428D01*
X9653333Y-13853381D01*
X9643810Y-13815286D01*
X9643810Y-13767667D01*
X9653333Y-13729571D01*
X9662857Y-13710524D01*
X9672381Y-13701000D01*
X9691429Y-13691476D01*
X9881905Y-13691476D02*
X9900952Y-13691476D01*
X9920000Y-13701000D01*
X9929524Y-13710524D01*
X9939048Y-13729571D01*
X9948571Y-13767667D01*
X9948571Y-13815286D01*
X9939048Y-13853381D01*
X9929524Y-13872428D01*
X9920000Y-13881952D01*
X9900952Y-13891476D01*
X9881905Y-13891476D01*
X9862857Y-13881952D01*
X9853333Y-13872428D01*
X9843810Y-13853381D01*
X9834286Y-13815286D01*
X9834286Y-13767667D01*
X9843810Y-13729571D01*
X9853333Y-13710524D01*
X9862857Y-13701000D01*
X9881905Y-13691476D01*
X10072381Y-13691476D02*
X10091429Y-13691476D01*
X10110476Y-13701000D01*
X10120000Y-13710524D01*
X10129524Y-13729571D01*
X10139048Y-13767667D01*
X10139048Y-13815286D01*
X10129524Y-13853381D01*
X10120000Y-13872428D01*
X10110476Y-13881952D01*
X10091429Y-13891476D01*
X10072381Y-13891476D01*
X10053333Y-13881952D01*
X10043810Y-13872428D01*
X10034286Y-13853381D01*
X10024762Y-13815286D01*
X10024762Y-13767667D01*
X10034286Y-13729571D01*
X10043810Y-13710524D01*
X10053333Y-13701000D01*
X10072381Y-13691476D01*
X10224762Y-13891476D02*
X10224762Y-13758143D01*
X10224762Y-13777190D02*
X10234286Y-13767667D01*
X10253333Y-13758143D01*
X10281905Y-13758143D01*
X10300952Y-13767667D01*
X10310476Y-13786714D01*
X10310476Y-13891476D01*
X10310476Y-13786714D02*
X10320000Y-13767667D01*
X10339048Y-13758143D01*
X10367619Y-13758143D01*
X10386667Y-13767667D01*
X10396190Y-13786714D01*
X10396190Y-13891476D01*
X10491429Y-13891476D02*
X10491429Y-13758143D01*
X10491429Y-13777190D02*
X10500952Y-13767667D01*
X10520000Y-13758143D01*
X10548571Y-13758143D01*
X10567619Y-13767667D01*
X10577143Y-13786714D01*
X10577143Y-13891476D01*
X10577143Y-13786714D02*
X10586667Y-13767667D01*
X10605714Y-13758143D01*
X10634286Y-13758143D01*
X10653333Y-13767667D01*
X10662857Y-13786714D01*
X10662857Y-13891476D01*
X11053333Y-13681952D02*
X10881905Y-13939095D01*
X11310476Y-13691476D02*
X11329524Y-13691476D01*
X11348571Y-13701000D01*
X11358095Y-13710524D01*
X11367619Y-13729571D01*
X11377143Y-13767667D01*
X11377143Y-13815286D01*
X11367619Y-13853381D01*
X11358095Y-13872428D01*
X11348571Y-13881952D01*
X11329524Y-13891476D01*
X11310476Y-13891476D01*
X11291428Y-13881952D01*
X11281905Y-13872428D01*
X11272381Y-13853381D01*
X11262857Y-13815286D01*
X11262857Y-13767667D01*
X11272381Y-13729571D01*
X11281905Y-13710524D01*
X11291428Y-13701000D01*
X11310476Y-13691476D01*
X11462857Y-13872428D02*
X11472381Y-13881952D01*
X11462857Y-13891476D01*
X11453333Y-13881952D01*
X11462857Y-13872428D01*
X11462857Y-13891476D01*
X11596190Y-13691476D02*
X11615238Y-13691476D01*
X11634286Y-13701000D01*
X11643809Y-13710524D01*
X11653333Y-13729571D01*
X11662857Y-13767667D01*
X11662857Y-13815286D01*
X11653333Y-13853381D01*
X11643809Y-13872428D01*
X11634286Y-13881952D01*
X11615238Y-13891476D01*
X11596190Y-13891476D01*
X11577143Y-13881952D01*
X11567619Y-13872428D01*
X11558095Y-13853381D01*
X11548571Y-13815286D01*
X11548571Y-13767667D01*
X11558095Y-13729571D01*
X11567619Y-13710524D01*
X11577143Y-13701000D01*
X11596190Y-13691476D01*
X11729524Y-13691476D02*
X11853333Y-13691476D01*
X11786667Y-13767667D01*
X11815238Y-13767667D01*
X11834286Y-13777190D01*
X11843809Y-13786714D01*
X11853333Y-13805762D01*
X11853333Y-13853381D01*
X11843809Y-13872428D01*
X11834286Y-13881952D01*
X11815238Y-13891476D01*
X11758095Y-13891476D01*
X11739048Y-13881952D01*
X11729524Y-13872428D01*
X11948571Y-13891476D02*
X11986667Y-13891476D01*
X12005714Y-13881952D01*
X12015238Y-13872428D01*
X12034286Y-13843857D01*
X12043809Y-13805762D01*
X12043809Y-13729571D01*
X12034286Y-13710524D01*
X12024762Y-13701000D01*
X12005714Y-13691476D01*
X11967619Y-13691476D01*
X11948571Y-13701000D01*
X11939048Y-13710524D01*
X11929524Y-13729571D01*
X11929524Y-13777190D01*
X11939048Y-13796238D01*
X11948571Y-13805762D01*
X11967619Y-13815286D01*
X12005714Y-13815286D01*
X12024762Y-13805762D01*
X12034286Y-13796238D01*
X12043809Y-13777190D01*
X12215238Y-13758143D02*
X12215238Y-13891476D01*
X12167619Y-13681952D02*
X12120000Y-13824809D01*
X12243809Y-13824809D01*
X12310476Y-13691476D02*
X12310476Y-13729571D01*
X12386667Y-13691476D02*
X12386667Y-13729571D01*
X12681905Y-13967667D02*
X12672381Y-13958143D01*
X12653333Y-13929571D01*
X12643809Y-13910524D01*
X12634286Y-13881952D01*
X12624762Y-13834333D01*
X12624762Y-13796238D01*
X12634286Y-13748619D01*
X12643809Y-13720048D01*
X12653333Y-13701000D01*
X12672381Y-13672428D01*
X12681905Y-13662905D01*
X12748571Y-13710524D02*
X12758095Y-13701000D01*
X12777143Y-13691476D01*
X12824762Y-13691476D01*
X12843809Y-13701000D01*
X12853333Y-13710524D01*
X12862857Y-13729571D01*
X12862857Y-13748619D01*
X12853333Y-13777190D01*
X12739048Y-13891476D01*
X12862857Y-13891476D01*
X12939048Y-13710524D02*
X12948571Y-13701000D01*
X12967619Y-13691476D01*
X13015238Y-13691476D01*
X13034286Y-13701000D01*
X13043809Y-13710524D01*
X13053333Y-13729571D01*
X13053333Y-13748619D01*
X13043809Y-13777190D01*
X12929524Y-13891476D01*
X13053333Y-13891476D01*
X13291428Y-13891476D02*
X13291428Y-13691476D01*
X13377143Y-13891476D02*
X13377143Y-13786714D01*
X13367619Y-13767667D01*
X13348571Y-13758143D01*
X13320000Y-13758143D01*
X13300952Y-13767667D01*
X13291428Y-13777190D01*
X13500952Y-13891476D02*
X13481905Y-13881952D01*
X13472381Y-13872428D01*
X13462857Y-13853381D01*
X13462857Y-13796238D01*
X13472381Y-13777190D01*
X13481905Y-13767667D01*
X13500952Y-13758143D01*
X13529524Y-13758143D01*
X13548571Y-13767667D01*
X13558095Y-13777190D01*
X13567619Y-13796238D01*
X13567619Y-13853381D01*
X13558095Y-13872428D01*
X13548571Y-13881952D01*
X13529524Y-13891476D01*
X13500952Y-13891476D01*
X13681905Y-13891476D02*
X13662857Y-13881952D01*
X13653333Y-13862905D01*
X13653333Y-13691476D01*
X13834286Y-13881952D02*
X13815238Y-13891476D01*
X13777143Y-13891476D01*
X13758095Y-13881952D01*
X13748571Y-13862905D01*
X13748571Y-13786714D01*
X13758095Y-13767667D01*
X13777143Y-13758143D01*
X13815238Y-13758143D01*
X13834286Y-13767667D01*
X13843809Y-13786714D01*
X13843809Y-13805762D01*
X13748571Y-13824809D01*
X13920000Y-13881952D02*
X13939048Y-13891476D01*
X13977143Y-13891476D01*
X13996190Y-13881952D01*
X14005714Y-13862905D01*
X14005714Y-13853381D01*
X13996190Y-13834333D01*
X13977143Y-13824809D01*
X13948571Y-13824809D01*
X13929524Y-13815286D01*
X13920000Y-13796238D01*
X13920000Y-13786714D01*
X13929524Y-13767667D01*
X13948571Y-13758143D01*
X13977143Y-13758143D01*
X13996190Y-13767667D01*
X14072381Y-13967667D02*
X14081905Y-13958143D01*
X14100952Y-13929571D01*
X14110476Y-13910524D01*
X14120000Y-13881952D01*
X14129524Y-13834333D01*
X14129524Y-13796238D01*
X14120000Y-13748619D01*
X14110476Y-13720048D01*
X14100952Y-13701000D01*
X14081905Y-13672428D01*
X14072381Y-13662905D01*
D16*
X8935000Y-13977500D02*
X9110000Y-14152500D01*
X9110000Y-13977500D02*
X8935000Y-14152500D01*
X9110000Y-14065000D02*
G75*
G03*
X9110000Y-14065000I-87500J0D01*
G01*
D11*
X9472381Y-14155476D02*
X9358095Y-14155476D01*
X9415238Y-14155476D02*
X9415238Y-13955476D01*
X9396190Y-13984048D01*
X9377143Y-14003095D01*
X9358095Y-14012619D01*
X9558095Y-14136428D02*
X9567619Y-14145952D01*
X9558095Y-14155476D01*
X9548571Y-14145952D01*
X9558095Y-14136428D01*
X9558095Y-14155476D01*
X9634286Y-13955476D02*
X9767619Y-13955476D01*
X9681905Y-14155476D01*
X9939048Y-13955476D02*
X9843810Y-13955476D01*
X9834286Y-14050714D01*
X9843810Y-14041190D01*
X9862857Y-14031667D01*
X9910476Y-14031667D01*
X9929524Y-14041190D01*
X9939048Y-14050714D01*
X9948571Y-14069762D01*
X9948571Y-14117381D01*
X9939048Y-14136428D01*
X9929524Y-14145952D01*
X9910476Y-14155476D01*
X9862857Y-14155476D01*
X9843810Y-14145952D01*
X9834286Y-14136428D01*
X10072381Y-13955476D02*
X10091429Y-13955476D01*
X10110476Y-13965000D01*
X10120000Y-13974524D01*
X10129524Y-13993571D01*
X10139048Y-14031667D01*
X10139048Y-14079286D01*
X10129524Y-14117381D01*
X10120000Y-14136428D01*
X10110476Y-14145952D01*
X10091429Y-14155476D01*
X10072381Y-14155476D01*
X10053333Y-14145952D01*
X10043810Y-14136428D01*
X10034286Y-14117381D01*
X10024762Y-14079286D01*
X10024762Y-14031667D01*
X10034286Y-13993571D01*
X10043810Y-13974524D01*
X10053333Y-13965000D01*
X10072381Y-13955476D01*
X10224762Y-14155476D02*
X10224762Y-14022143D01*
X10224762Y-14041190D02*
X10234286Y-14031667D01*
X10253333Y-14022143D01*
X10281905Y-14022143D01*
X10300952Y-14031667D01*
X10310476Y-14050714D01*
X10310476Y-14155476D01*
X10310476Y-14050714D02*
X10320000Y-14031667D01*
X10339048Y-14022143D01*
X10367619Y-14022143D01*
X10386667Y-14031667D01*
X10396190Y-14050714D01*
X10396190Y-14155476D01*
X10491429Y-14155476D02*
X10491429Y-14022143D01*
X10491429Y-14041190D02*
X10500952Y-14031667D01*
X10520000Y-14022143D01*
X10548571Y-14022143D01*
X10567619Y-14031667D01*
X10577143Y-14050714D01*
X10577143Y-14155476D01*
X10577143Y-14050714D02*
X10586667Y-14031667D01*
X10605714Y-14022143D01*
X10634286Y-14022143D01*
X10653333Y-14031667D01*
X10662857Y-14050714D01*
X10662857Y-14155476D01*
X11053333Y-13945952D02*
X10881905Y-14203095D01*
X11310476Y-13955476D02*
X11329524Y-13955476D01*
X11348571Y-13965000D01*
X11358095Y-13974524D01*
X11367619Y-13993571D01*
X11377143Y-14031667D01*
X11377143Y-14079286D01*
X11367619Y-14117381D01*
X11358095Y-14136428D01*
X11348571Y-14145952D01*
X11329524Y-14155476D01*
X11310476Y-14155476D01*
X11291428Y-14145952D01*
X11281905Y-14136428D01*
X11272381Y-14117381D01*
X11262857Y-14079286D01*
X11262857Y-14031667D01*
X11272381Y-13993571D01*
X11281905Y-13974524D01*
X11291428Y-13965000D01*
X11310476Y-13955476D01*
X11462857Y-14136428D02*
X11472381Y-14145952D01*
X11462857Y-14155476D01*
X11453333Y-14145952D01*
X11462857Y-14136428D01*
X11462857Y-14155476D01*
X11596190Y-13955476D02*
X11615238Y-13955476D01*
X11634286Y-13965000D01*
X11643809Y-13974524D01*
X11653333Y-13993571D01*
X11662857Y-14031667D01*
X11662857Y-14079286D01*
X11653333Y-14117381D01*
X11643809Y-14136428D01*
X11634286Y-14145952D01*
X11615238Y-14155476D01*
X11596190Y-14155476D01*
X11577143Y-14145952D01*
X11567619Y-14136428D01*
X11558095Y-14117381D01*
X11548571Y-14079286D01*
X11548571Y-14031667D01*
X11558095Y-13993571D01*
X11567619Y-13974524D01*
X11577143Y-13965000D01*
X11596190Y-13955476D01*
X11834286Y-13955476D02*
X11796190Y-13955476D01*
X11777143Y-13965000D01*
X11767619Y-13974524D01*
X11748571Y-14003095D01*
X11739048Y-14041190D01*
X11739048Y-14117381D01*
X11748571Y-14136428D01*
X11758095Y-14145952D01*
X11777143Y-14155476D01*
X11815238Y-14155476D01*
X11834286Y-14145952D01*
X11843809Y-14136428D01*
X11853333Y-14117381D01*
X11853333Y-14069762D01*
X11843809Y-14050714D01*
X11834286Y-14041190D01*
X11815238Y-14031667D01*
X11777143Y-14031667D01*
X11758095Y-14041190D01*
X11748571Y-14050714D01*
X11739048Y-14069762D01*
X11967619Y-14041190D02*
X11948571Y-14031667D01*
X11939048Y-14022143D01*
X11929524Y-14003095D01*
X11929524Y-13993571D01*
X11939048Y-13974524D01*
X11948571Y-13965000D01*
X11967619Y-13955476D01*
X12005714Y-13955476D01*
X12024762Y-13965000D01*
X12034286Y-13974524D01*
X12043809Y-13993571D01*
X12043809Y-14003095D01*
X12034286Y-14022143D01*
X12024762Y-14031667D01*
X12005714Y-14041190D01*
X11967619Y-14041190D01*
X11948571Y-14050714D01*
X11939048Y-14060238D01*
X11929524Y-14079286D01*
X11929524Y-14117381D01*
X11939048Y-14136428D01*
X11948571Y-14145952D01*
X11967619Y-14155476D01*
X12005714Y-14155476D01*
X12024762Y-14145952D01*
X12034286Y-14136428D01*
X12043809Y-14117381D01*
X12043809Y-14079286D01*
X12034286Y-14060238D01*
X12024762Y-14050714D01*
X12005714Y-14041190D01*
X12139048Y-14155476D02*
X12177143Y-14155476D01*
X12196190Y-14145952D01*
X12205714Y-14136428D01*
X12224762Y-14107857D01*
X12234286Y-14069762D01*
X12234286Y-13993571D01*
X12224762Y-13974524D01*
X12215238Y-13965000D01*
X12196190Y-13955476D01*
X12158095Y-13955476D01*
X12139048Y-13965000D01*
X12129524Y-13974524D01*
X12120000Y-13993571D01*
X12120000Y-14041190D01*
X12129524Y-14060238D01*
X12139048Y-14069762D01*
X12158095Y-14079286D01*
X12196190Y-14079286D01*
X12215238Y-14069762D01*
X12224762Y-14060238D01*
X12234286Y-14041190D01*
X12310476Y-13955476D02*
X12310476Y-13993571D01*
X12386667Y-13955476D02*
X12386667Y-13993571D01*
X12681905Y-14231667D02*
X12672381Y-14222143D01*
X12653333Y-14193571D01*
X12643809Y-14174524D01*
X12634286Y-14145952D01*
X12624762Y-14098333D01*
X12624762Y-14060238D01*
X12634286Y-14012619D01*
X12643809Y-13984048D01*
X12653333Y-13965000D01*
X12672381Y-13936428D01*
X12681905Y-13926905D01*
X12786667Y-14041190D02*
X12767619Y-14031667D01*
X12758095Y-14022143D01*
X12748571Y-14003095D01*
X12748571Y-13993571D01*
X12758095Y-13974524D01*
X12767619Y-13965000D01*
X12786667Y-13955476D01*
X12824762Y-13955476D01*
X12843809Y-13965000D01*
X12853333Y-13974524D01*
X12862857Y-13993571D01*
X12862857Y-14003095D01*
X12853333Y-14022143D01*
X12843809Y-14031667D01*
X12824762Y-14041190D01*
X12786667Y-14041190D01*
X12767619Y-14050714D01*
X12758095Y-14060238D01*
X12748571Y-14079286D01*
X12748571Y-14117381D01*
X12758095Y-14136428D01*
X12767619Y-14145952D01*
X12786667Y-14155476D01*
X12824762Y-14155476D01*
X12843809Y-14145952D01*
X12853333Y-14136428D01*
X12862857Y-14117381D01*
X12862857Y-14079286D01*
X12853333Y-14060238D01*
X12843809Y-14050714D01*
X12824762Y-14041190D01*
X13100952Y-14155476D02*
X13100952Y-13955476D01*
X13186667Y-14155476D02*
X13186667Y-14050714D01*
X13177143Y-14031667D01*
X13158095Y-14022143D01*
X13129524Y-14022143D01*
X13110476Y-14031667D01*
X13100952Y-14041190D01*
X13310476Y-14155476D02*
X13291428Y-14145952D01*
X13281905Y-14136428D01*
X13272381Y-14117381D01*
X13272381Y-14060238D01*
X13281905Y-14041190D01*
X13291428Y-14031667D01*
X13310476Y-14022143D01*
X13339048Y-14022143D01*
X13358095Y-14031667D01*
X13367619Y-14041190D01*
X13377143Y-14060238D01*
X13377143Y-14117381D01*
X13367619Y-14136428D01*
X13358095Y-14145952D01*
X13339048Y-14155476D01*
X13310476Y-14155476D01*
X13491428Y-14155476D02*
X13472381Y-14145952D01*
X13462857Y-14126905D01*
X13462857Y-13955476D01*
X13643809Y-14145952D02*
X13624762Y-14155476D01*
X13586667Y-14155476D01*
X13567619Y-14145952D01*
X13558095Y-14126905D01*
X13558095Y-14050714D01*
X13567619Y-14031667D01*
X13586667Y-14022143D01*
X13624762Y-14022143D01*
X13643809Y-14031667D01*
X13653333Y-14050714D01*
X13653333Y-14069762D01*
X13558095Y-14088809D01*
X13729524Y-14145952D02*
X13748571Y-14155476D01*
X13786667Y-14155476D01*
X13805714Y-14145952D01*
X13815238Y-14126905D01*
X13815238Y-14117381D01*
X13805714Y-14098333D01*
X13786667Y-14088809D01*
X13758095Y-14088809D01*
X13739048Y-14079286D01*
X13729524Y-14060238D01*
X13729524Y-14050714D01*
X13739048Y-14031667D01*
X13758095Y-14022143D01*
X13786667Y-14022143D01*
X13805714Y-14031667D01*
X13881905Y-14231667D02*
X13891428Y-14222143D01*
X13910476Y-14193571D01*
X13920000Y-14174524D01*
X13929524Y-14145952D01*
X13939048Y-14098333D01*
X13939048Y-14060238D01*
X13929524Y-14012619D01*
X13920000Y-13984048D01*
X13910476Y-13965000D01*
X13891428Y-13936428D01*
X13881905Y-13926905D01*
M02*
